<svg xmlns="http://www.w3.org/2000/svg" xmlns:xlink="http://www.w3.org/1999/xlink" width="120" height="29.417" viewBox="0 0 120 29.417">
  <defs>
    <clipPath id="clip-path">
      <rect id="사각형_102" data-name="사각형 102" width="120" height="29.417" fill="#d9d9d9"/>
    </clipPath>
  </defs>
  <g id="TGtrigem" transform="translate(0 0)">
    <path id="패스_2114" data-name="패스 2114" d="M0,.481V4.627H7.746V25.219h5.192V4.627h7.915V.481Z" transform="translate(0 -0.223)" fill="#d9d9d9"/>
    <g id="그룹_48" data-name="그룹 48" transform="translate(0 0.001)">
      <g id="그룹_47" data-name="그룹 47" clip-path="url(#clip-path)">
        <path id="패스_2115" data-name="패스 2115" d="M61.433,23.857a26.971,26.971,0,0,1-8.385,1.395c-4.4,0-7.726-1.065-10.2-3.3a11.926,11.926,0,0,1-3.632-9.1C39.217,5.029,45.09,0,53.706,0a18.089,18.089,0,0,1,6.915,1.173L59.578,4.807a14.671,14.671,0,0,0-5.911-1.065c-5.563,0-9.465,3.12-9.465,8.882,0,5.616,3.629,8.957,9.039,8.957a9.532,9.532,0,0,0,3.594-.514V15.153H52.506V11.594h8.926Z" transform="translate(-18.234 0)" fill="#d9d9d9"/>
        <path id="패스_2116" data-name="패스 2116" d="M94.544,30.028a3.7,3.7,0,0,1-2.735-1.021,5.089,5.089,0,0,1-.981-3.576V18.889H88.9V16.846h1.925V13.767l2.812-.68v3.759h3.218v2.043H93.64v6.157c0,1.265.224,2.719,1.978,2.719a5.5,5.5,0,0,0,1.081-.1l.045,2.107a8.113,8.113,0,0,1-2.2.257" transform="translate(-41.335 -6.085)" fill="#d9d9d9"/>
        <path id="패스_2117" data-name="패스 2117" d="M108.262,32.754V23.922c0-1.768-.027-2.994-.093-4.074h2.446l.109,3.729.158.021c0-.009.217-.8.419-1.356a3.774,3.774,0,0,1,3.43-2.7,3.148,3.148,0,0,1,.552.042v2.694a4.583,4.583,0,0,0-.744-.06,3.223,3.223,0,0,0-3.267,2.753,6.123,6.123,0,0,0-.115,1.094v6.687Z" transform="translate(-50.293 -9.088)" fill="#d9d9d9"/>
        <path id="패스_2118" data-name="패스 2118" d="M125.7,15.26h2.92V28.166H125.7Zm1.433-2.415a1.529,1.529,0,0,1-1.627-1.57,1.655,1.655,0,0,1,3.308.007,1.556,1.556,0,0,1-1.681,1.563" transform="translate(-58.356 -4.499)" fill="#d9d9d9"/>
        <path id="패스_2119" data-name="패스 2119" d="M140.574,38.505a9.492,9.492,0,0,1-4.39-.943l.607-2.084a8.5,8.5,0,0,0,3.757.9c2.639,0,4.094-1.523,4.094-4.288V30.772l-.012-.734-.492.766a4.289,4.289,0,0,1-3.7,1.869c-3.158,0-5.45-2.651-5.45-6.3,0-4.479,2.934-6.825,5.835-6.825a3.946,3.946,0,0,1,3.667,1.967l.046.083.393.741.19-2.489h2.458c-.049.865-.094,1.91-.094,3.607v7.591c0,2.853-.6,4.729-1.9,5.9a7.378,7.378,0,0,1-5.008,1.559m.907-16.862c-2.121,0-3.545,1.856-3.545,4.618,0,2.614,1.414,4.371,3.519,4.371a3.13,3.13,0,0,0,2.982-2.207,6.106,6.106,0,0,0,.15-1.284V24.969a3.475,3.475,0,0,0-.12-.978,3.062,3.062,0,0,0-2.986-2.347" transform="translate(-62.762 -9.088)" fill="#d9d9d9"/>
        <path id="패스_2120" data-name="패스 2120" d="M168.655,33.031c-4.108,0-6.662-2.5-6.662-6.522,0-3.353,1.974-6.963,6.3-6.963,4.078,0,5.532,3.241,5.532,6.274a8.835,8.835,0,0,1-.074,1.187h-9.011l.009.253c.093,2.729,2.317,3.7,4.369,3.7a10.493,10.493,0,0,0,3.533-.525l.394,1.86a12.468,12.468,0,0,1-4.392.732M168.1,21.367c-2.371,0-3.223,2.2-3.352,3.494l-.027.269h6.4l.005-.239a3.947,3.947,0,0,0-.947-2.717,2.786,2.786,0,0,0-2.076-.807" transform="translate(-75.318 -9.088)" fill="#d9d9d9"/>
        <path id="패스_2121" data-name="패스 2121" d="M204.644,32.754V25.6c0-3.134-1.434-3.794-2.638-3.794a2.825,2.825,0,0,0-2.594,1.949,5,5,0,0,0-.18,1.213v7.787h-2.812V25.243c0-2.151-.955-3.437-2.555-3.437a2.887,2.887,0,0,0-2.652,2.095,3.051,3.051,0,0,0-.206,1.177v7.677H188.2V23.594c0-1.578-.029-2.738-.094-3.745h2.426l.169,2.721.134-.248s.239-.445.351-.6a4.392,4.392,0,0,1,3.921-2.173,3.639,3.639,0,0,1,3.485,2.32l.215.548.278-.509a4.792,4.792,0,0,1,1.568-1.6,4.25,4.25,0,0,1,2.568-.763c1,0,4.241.4,4.241,5.56v7.65Z" transform="translate(-87.457 -9.088)" fill="#d9d9d9"/>
      </g>
    </g>
  </g>
</svg>
