<svg xmlns="http://www.w3.org/2000/svg" width="130" height="37.813" viewBox="0 0 130 37.813">
  <g id="University_of_Oxford" transform="translate(-2.355 -3.757)">
    <path id="패스_2159" data-name="패스 2159" d="M12.3,4.895A15.827,15.827,0,0,1,33.833,22.118a15.59,15.59,0,0,1-2.437,6.2,15.928,15.928,0,0,1-3.5,3.741,3.2,3.2,0,0,0-.323.3A11.687,11.687,0,0,1,21.5,35.6c-.292.06-.587.107-.882.149a8.039,8.039,0,0,0,.4,1.2l-.32.318a.614.614,0,0,0-.841.234.593.593,0,0,0,.425.856.872.872,0,0,0,.773-.364,2.122,2.122,0,0,1-.171,1.522,4.509,4.509,0,0,1-2.4,1.96c-.14.045-.287.141-.435.071A4.687,4.687,0,0,1,15.5,39.6a2.11,2.11,0,0,1-.217-1.6.825.825,0,0,0,.825.348.59.59,0,1,0-.432-1.091c-.115-.1-.225-.215-.334-.325a8.067,8.067,0,0,0,.648-1.334c-.6-.118-1.193-.3-1.784-.463a3.815,3.815,0,0,1-2.43.081,3.762,3.762,0,0,1-2.513-2.6A15.8,15.8,0,0,1,12.3,4.895m3.981-.574A15.353,15.353,0,0,0,9.152,31.978a3.728,3.728,0,0,1,.5-2.2q-.28-.266-.537-.555l.124-.09a6.237,6.237,0,0,0,.56.422,3.822,3.822,0,0,1,1.564-1.289,11.053,11.053,0,0,1-3-3.612A10.988,10.988,0,0,1,9.5,12.726a11.075,11.075,0,0,1,19.725,7.958,10.994,10.994,0,0,1-2.281,5.664,11.118,11.118,0,0,1-5.357,3.741,1.041,1.041,0,0,0-.574.4,3.46,3.46,0,0,0-.555,1.711,12.5,12.5,0,0,0,7.02-.4,15.211,15.211,0,0,0,5.252-7.189,15.517,15.517,0,0,0,.659-7.418A15.28,15.28,0,0,0,31,11.065,15.36,15.36,0,0,0,16.278,4.321m.115,4.789a10.6,10.6,0,0,0-8.2,13.98,10.7,10.7,0,0,0,3.556,4.9c.06.04.122.113.2.076a3.7,3.7,0,0,1,1.9.017,3.748,3.748,0,0,1,2.338,1.9,10.609,10.609,0,1,0,.2-20.872m-6.206,20.7c.2.118.395.234.6.347a2.626,2.626,0,0,1,2.151-1.076,2.85,2.85,0,0,1,1.165.278,10.7,10.7,0,0,0,1.482.494,3.254,3.254,0,0,0-5.394-.043m1.007.571c.59.3,1.189.576,1.8.832.176.078.387.146.474.336a.522.522,0,0,1-.331.734c-.229.071-.435-.082-.621-.193a16.2,16.2,0,0,1-1.6-1.2,2.108,2.108,0,0,0,.062,1.749,2.705,2.705,0,0,0,1.2,1.126,14.318,14.318,0,0,0,4.544,1.518,13.1,13.1,0,0,0,3.779.035,11.713,11.713,0,0,0,3.8-1.132A11.241,11.241,0,0,0,26.755,32.5a13.16,13.16,0,0,1-6.178.178,18.566,18.566,0,0,1-5.98-2.495,4.094,4.094,0,0,0-1.317-.628,2.144,2.144,0,0,0-2.086.821M10,30.1a3.282,3.282,0,0,0,1.487,4.517,3.371,3.371,0,0,0,2.022.256,11.808,11.808,0,0,1-2.082-1.054,2.7,2.7,0,0,1-.974-1.232,2.634,2.634,0,0,1,.085-2.019c-.178-.157-.355-.317-.537-.469m5.652.2c.4.221.809.424,1.219.625a2.24,2.24,0,0,1,.314-.351,15.311,15.311,0,0,1-1.533-.273m2.605.319a1.185,1.185,0,0,0-.979.494,16.687,16.687,0,0,0,2.717.975,3.777,3.777,0,0,1,.563-1.723,11.436,11.436,0,0,1-2.3.254m-2.273,6.1a1.185,1.185,0,0,1,.732.317,1.071,1.071,0,0,1-.028,1.523,1.161,1.161,0,0,1-.987.237,2.573,2.573,0,0,0,.82,1.323,4.53,4.53,0,0,0,1.624.955,3.5,3.5,0,0,0,1.051-.471A3,3,0,0,0,20.639,38.8a1.122,1.122,0,0,1-1.042-.3,1.072,1.072,0,0,1,.076-1.517,1.159,1.159,0,0,1,.768-.253,8.073,8.073,0,0,1-.285-.924,13.37,13.37,0,0,1-3.7-.115A6.768,6.768,0,0,1,15.98,36.721Z" transform="translate(0 0)" fill="#d9d9d9"/>
    <path id="패스_2160" data-name="패스 2160" d="M197.622,27.378c.156-.05.314-.094.472-.138-.12.614-.258,1.226-.368,1.841.079.357.2.7.3,1.057-.138.041-.276.082-.413.126-.107-.312-.182-.634-.278-.95a.624.624,0,0,0-.188-.265c-.335-.341-.659-.692-1-1.032a.513.513,0,0,1-.129-.174c.14-.046.281-.083.421-.127.321.323.632.657.949.984C197.466,28.259,197.554,27.82,197.622,27.378Z" transform="translate(-182.454 -22.123)" fill="#d9d9d9"/>
    <path id="패스_2161" data-name="패스 2161" d="M319.412,33.321a1.227,1.227,0,0,1,1.345.668,1.677,1.677,0,0,1-.456,1.888,1.225,1.225,0,0,1-2-.919,1.544,1.544,0,0,1,1.11-1.637m.053.4a1.151,1.151,0,0,0-.7.941.947.947,0,0,0,.341.983.747.747,0,0,0,.981-.152,1.4,1.4,0,0,0,.292-1.3A.752.752,0,0,0,319.464,33.716Z" transform="translate(-297.653 -27.829)" fill="#d9d9d9"/>
    <path id="패스_2162" data-name="패스 2162" d="M269.4,42.177a.379.379,0,1,1-.12.643A.382.382,0,0,1,269.4,42.177Z" transform="translate(-251.353 -36.172)" fill="#d9d9d9"/>
    <path id="패스_2163" data-name="패스 2163" d="M146.72,44.931,148.511,44l.171.339c-.233.119-.463.24-.694.362.369.7.728,1.408,1.1,2.107-.129.074-.26.144-.391.212q-.554-1.058-1.1-2.118c-.233.123-.465.245-.7.365Z" transform="translate(-136.008 -37.913)" fill="#d9d9d9"/>
    <path id="패스_2164" data-name="패스 2164" d="M369.58,55.993c.465-.8.936-1.589,1.4-2.383.441.258.881.519,1.321.777l-.193.327c-.313-.188-.629-.37-.944-.556-.129.218-.255.438-.389.654.293.183.6.348.89.534-.064.1-.126.207-.188.311q-.445-.259-.888-.522l-.636,1.079C369.832,56.139,369.707,56.065,369.58,55.993Z" transform="translate(-345.966 -46.967)" fill="#d9d9d9"/>
    <path id="패스_2165" data-name="패스 2165" d="M120.53,74.331c.12-.086.237-.174.357-.261.549.738,1.116,1.462,1.671,2.2-.117.089-.233.178-.349.269C121.648,75.8,121.081,75.072,120.53,74.331Z" transform="translate(-111.334 -66.242)" fill="#d9d9d9"/>
    <path id="패스_2166" data-name="패스 2166" d="M1323.011,84.7a2.787,2.787,0,0,1,2.427.615c-.122.166-.259.32-.384.483a2.456,2.456,0,0,0-1.261-.494,1.576,1.576,0,0,0-1.143.3.965.965,0,0,0-.269,1.061,1.091,1.091,0,0,0,.43.48c.6.389,1.32.57,1.906.991a1.793,1.793,0,0,1,.764,1.162,1.847,1.847,0,0,1-1.469,2.154,3.126,3.126,0,0,1-2.632-.636c.121-.177.243-.354.359-.535a3.381,3.381,0,0,0,1.526.567,1.605,1.605,0,0,0,1.05-.274,1.172,1.172,0,0,0,.382-1.113,1.257,1.257,0,0,0-.589-.772,16.21,16.21,0,0,1-2.047-1.139,1.648,1.648,0,0,1-.19-2.14A1.875,1.875,0,0,1,1323.011,84.7Z" transform="translate(-1242.666 -76.202)" fill="#d9d9d9"/>
    <path id="패스_2167" data-name="패스 2167" d="M1739.091,84.716a2.876,2.876,0,0,1,2.008.47,3.333,3.333,0,0,1,1.319,2.474,3.881,3.881,0,0,1-.918,3.049,2.921,2.921,0,0,1-3.427.522,3.173,3.173,0,0,1-1.555-2.3,4.1,4.1,0,0,1,.632-3.094,2.819,2.819,0,0,1,1.943-1.122m-.212.721a1.893,1.893,0,0,0-1,.662,2.959,2.959,0,0,0-.581,1.561,3.782,3.782,0,0,0,.237,1.836,2.346,2.346,0,0,0,.825,1.047,1.992,1.992,0,0,0,2.448-.174,2.7,2.7,0,0,0,.738-1.5,4.065,4.065,0,0,0-.109-1.958,2.348,2.348,0,0,0-.833-1.176A2.079,2.079,0,0,0,1738.879,85.437Z" transform="translate(-1633.707 -76.25)" fill="#d9d9d9"/>
    <path id="패스_2168" data-name="패스 2168" d="M692.942,86.734c.262,0,.525,0,.788,0,.016,1.51,0,3.02.009,4.529a1.526,1.526,0,0,0,.375,1.092,1.818,1.818,0,0,0,1.549.427,1.392,1.392,0,0,0,1.071-.741,2.553,2.553,0,0,0,.168-1.009c.012-1.432,0-2.864.009-4.3.259,0,.518,0,.778,0q0,1.482,0,2.964a17.189,17.189,0,0,1-.057,1.97,1.96,1.96,0,0,1-.577,1.212,2.531,2.531,0,0,1-1.851.6,2.384,2.384,0,0,1-1.876-.885,2.541,2.541,0,0,1-.382-1.508C692.938,89.637,692.943,88.186,692.942,86.734Z" transform="translate(-650.608 -78.169)" fill="#d9d9d9"/>
    <path id="패스_2169" data-name="패스 2169" d="M818.963,86.795c.271,0,.542,0,.814,0,1.067,1.812,2.121,3.633,3.2,5.438,0-1.813-.012-3.626-.015-5.439.244,0,.489,0,.733,0-.01,2.208,0,4.416-.008,6.624-.277-.006-.553,0-.83-.006Q821.275,90.7,819.673,88c0,1.808.019,3.616.016,5.424-.242,0-.484,0-.725,0Q818.962,90.108,818.963,86.795Z" transform="translate(-769.333 -78.23)" fill="#d9d9d9"/>
    <path id="패스_2170" data-name="패스 2170" d="M948.4,93.393q-.013-3.316,0-6.633c.263.006.528,0,.792,0q0,3.313,0,6.626C948.924,93.39,948.659,93.387,948.4,93.393Z" transform="translate(-891.267 -78.197)" fill="#d9d9d9"/>
    <path id="패스_2171" data-name="패스 2171" d="M992.61,86.781h.831q.969,2.926,1.936,5.852.991-2.928,1.992-5.853c.256,0,.513,0,.769,0q-1.164,3.313-2.328,6.626c-.305,0-.611,0-.916,0Q993.754,90.094,992.61,86.781Z" transform="translate(-932.928 -78.216)" fill="#d9d9d9"/>
    <path id="패스_2172" data-name="패스 2172" d="M1119.24,86.765c1.2-.005,2.4,0,3.6,0,.008.222.006.444,0,.666-.939,0-1.88,0-2.819,0,0,.729,0,1.458,0,2.187.885,0,1.769-.006,2.654,0q-.01.315,0,.63c-.885.022-1.77,0-2.655.009,0,.817,0,1.634,0,2.45.968.01,1.936,0,2.9,0q0,.34,0,.68c-1.229,0-2.457,0-3.685,0Q1119.245,90.076,1119.24,86.765Z" transform="translate(-1052.228 -78.197)" fill="#d9d9d9"/>
    <path id="패스_2173" data-name="패스 2173" d="M1219.29,93.347c.013-2.209-.007-4.418.01-6.627.724.014,1.449-.009,2.173.02a1.95,1.95,0,0,1,1.275.455,1.919,1.919,0,0,1,.457,2.019,1.655,1.655,0,0,1-1.334,1.012,1.151,1.151,0,0,1,.827.729c.375.792.72,1.6,1.078,2.4-.274,0-.548,0-.822,0-.317-.674-.6-1.367-.92-2.039a1.312,1.312,0,0,0-.723-.771,5.252,5.252,0,0,0-1.235-.076q0,1.441,0,2.882c-.262,0-.525,0-.786,0m.787-5.985q0,1.237,0,2.474a6.453,6.453,0,0,0,1.509-.091,1.223,1.223,0,0,0,.772-.555,1.308,1.308,0,0,0-.031-1.337,1.231,1.231,0,0,0-.971-.479C1220.929,87.349,1220.5,87.367,1220.077,87.361Z" transform="translate(-1146.486 -78.16)" fill="#d9d9d9"/>
    <path id="패스_2174" data-name="패스 2174" d="M1430.59,86.82h.8q0,3.313,0,6.626h-.8Z" transform="translate(-1345.553 -78.254)" fill="#d9d9d9"/>
    <path id="패스_2175" data-name="패스 2175" d="M1475.17,86.818h4.734c0,.22,0,.441,0,.661-.655,0-1.309,0-1.964,0q0,2.983,0,5.966c-.263,0-.527,0-.789.005-.02-1.991,0-3.983-.012-5.974-.656.007-1.312,0-1.968,0Z" transform="translate(-1387.553 -78.252)" fill="#d9d9d9"/>
    <path id="패스_2176" data-name="패스 2176" d="M1572.95,86.793c.305,0,.61,0,.916,0,.531,1.035,1.083,2.059,1.618,3.091.555-1.019,1.061-2.064,1.595-3.1.288,0,.576,0,.865,0l-2.062,3.927a.469.469,0,0,0-.044.256c0,.814,0,1.628,0,2.442-.264,0-.528,0-.791,0,0-.871.014-1.744-.006-2.615C1574.361,89.457,1573.64,88.133,1572.95,86.793Z" transform="translate(-1479.672 -78.228)" fill="#d9d9d9"/>
    <path id="패스_2177" data-name="패스 2177" d="M1877.58,86.82h3.521c0,.22,0,.441,0,.661h-2.73c0,.729,0,1.457,0,2.186.856,0,1.712-.006,2.568,0q-.009.318,0,.635c-.856.013-1.712,0-2.567.006q0,1.567,0,3.134h-.791Z" transform="translate(-1766.667 -78.254)" fill="#d9d9d9"/>
    <path id="패스_2178" data-name="패스 2178" d="M84.649,100.468a1.2,1.2,0,0,1,1.022-.958c.029.123.053.248.075.372a.809.809,0,0,0-.689.582.3.3,0,0,0,.366.34c.371-.078.7-.331,1.09-.317a.788.788,0,0,1,.728.958,1.321,1.321,0,0,1-1.083.906q-.044-.185-.092-.369a.99.99,0,0,0,.744-.533.364.364,0,0,0-.353-.5c-.386.032-.71.306-1.1.315A.714.714,0,0,1,84.649,100.468Z" transform="translate(-77.522 -90.209)" fill="#d9d9d9"/>
    <path id="패스_2179" data-name="패스 2179" d="M425.748,103.4a.38.38,0,1,1-.038.66A.383.383,0,0,1,425.748,103.4Z" transform="translate(-398.686 -93.839)" fill="#d9d9d9"/>
    <path id="패스_2180" data-name="패스 2180" d="M445.759,131.733a1.308,1.308,0,0,1,.836.034,1.244,1.244,0,0,1,.714,1.51,1.72,1.72,0,0,1-1.335,1.06,1.228,1.228,0,0,1-1.366-1.571,1.688,1.688,0,0,1,1.151-1.034m.175.407a1.329,1.329,0,0,0-.956.894.748.748,0,0,0,.75.895,1.47,1.47,0,0,0,1.133-.692.784.784,0,0,0-.252-1.024A.828.828,0,0,0,445.933,132.14Z" transform="translate(-416.595 -120.518)" fill="#d9d9d9"/>
    <path id="패스_2181" data-name="패스 2181" d="M172.3,135.254l.129-.014c.31.419.617.842.9,1.279-.145.035-.291.063-.437.095.162.289.365.553.548.83a7.744,7.744,0,0,0,.78-.656c-.112-.058-.228-.109-.336-.173.012-.079.091-.114.147-.159q.408-.281.812-.57a.442.442,0,0,1,.253-.106c-.209.7-.452,1.39-.674,2.086a6.827,6.827,0,0,0-2.152-.26,6.262,6.262,0,0,0-1.945.262q-.35-1.038-.681-2.082c.18-.011.3.141.447.223a6.538,6.538,0,0,1,.833.6,2.151,2.151,0,0,0-.342.177,8.87,8.87,0,0,0,.709.657,6.394,6.394,0,0,0,.553-.84c-.144-.027-.287-.05-.428-.087C171.7,136.085,172.013,135.678,172.3,135.254Z" transform="translate(-157.61 -123.871)" fill="#d9d9d9"/>
    <path id="패스_2182" data-name="패스 2182" d="M289.879,136.052c.206-.291.413-.581.617-.873.194,0,.252.211.359.333a9.673,9.673,0,0,1,.646.963c-.141.025-.281.048-.42.076.149.3.364.553.54.833a7.154,7.154,0,0,0,.784-.652c-.115-.063-.233-.119-.351-.174a2,2,0,0,1,.457-.364c.223-.149.431-.321.663-.457l.112,0c-.222.693-.454,1.383-.678,2.075a6.778,6.778,0,0,0-2.108-.26,6.518,6.518,0,0,0-1.993.261c-.226-.692-.456-1.383-.678-2.076.2-.012.344.171.511.262a4.5,4.5,0,0,1,.765.564c-.119.051-.236.105-.35.167.23.216.456.439.7.639l.043,0c.2-.249.356-.522.54-.779a1.2,1.2,0,0,0-.421-.106A1.733,1.733,0,0,1,289.879,136.052Z" transform="translate(-268.949 -123.813)" fill="#d9d9d9"/>
    <path id="패스_2183" data-name="패스 2183" d="M48.933,146.557a.756.756,0,0,1,.577-.39.742.742,0,0,1,.827.849,1.312,1.312,0,0,1,.689-.042c.264.024.529.043.793.07-.084.131-.16.266-.231.4-.365-.019-.728-.088-1.094-.074-.233.014-.321.26-.42.432.339.18.674.367,1.012.551-.069.128-.14.255-.214.381q-1.211-.666-2.431-1.318c.16-.291.314-.586.493-.865m.405.109a2.376,2.376,0,0,0-.369.546q.389.214.781.422a1.505,1.505,0,0,0,.244-.615A.433.433,0,0,0,49.338,146.666Z" transform="translate(-43.417 -134.161)" fill="#d9d9d9"/>
    <path id="패스_2184" data-name="패스 2184" d="M466.658,180.32c.058.155.11.312.163.468-.235.3-.514.56-.733.87.369.078.737.159,1.1.251.043.148.091.3.14.442q-.76-.188-1.522-.367c-.357.431-.723.856-1.074,1.293a3.981,3.981,0,0,1-.16-.475c.277-.309.544-.625.81-.942-.4-.1-.8-.172-1.2-.281a2.233,2.233,0,0,1-.166-.45c.552.123,1.1.275,1.652.387C465.989,181.108,466.337,180.725,466.658,180.32Z" transform="translate(-434.939 -166.341)" fill="#d9d9d9"/>
    <path id="패스_2185" data-name="패스 2185" d="M184.064,184.092a9.036,9.036,0,0,1,2.059-.031,2.957,2.957,0,0,1,.893.2c.087.026.165.149.058.207a1.665,1.665,0,0,1-.621.193,8.858,8.858,0,0,1-2.1.047,3.219,3.219,0,0,1-.9-.187.442.442,0,0,1-.173-.155A1.477,1.477,0,0,1,184.064,184.092Z" transform="translate(-170.451 -169.825)" fill="#d9d9d9"/>
    <path id="패스_2186" data-name="패스 2186" d="M302.042,184.27a2.916,2.916,0,0,1,.961-.217,8.51,8.51,0,0,1,2.253.078c.194.05.439.075.542.274a1.673,1.673,0,0,1-.832.273,8.809,8.809,0,0,1-2.322-.017,1.525,1.525,0,0,1-.659-.215C301.907,184.392,301.98,184.3,302.042,184.27Z" transform="translate(-282.253 -169.821)" fill="#d9d9d9"/>
    <path id="패스_2187" data-name="패스 2187" d="M30.01,196.872c.152-.511.306-1.021.454-1.532q.184.046.368.1-.168.556-.337,1.11c.248.063.493.133.74.2.1-.336.176-.68.3-1.008l.343.105q-.142.5-.283,1c.279.072.557.152.835.228.1-.364.207-.725.306-1.089.124.031.248.065.373.1-.135.509-.279,1.015-.418,1.523C31.8,197.357,30.9,197.119,30.01,196.872Z" transform="translate(-26.054 -180.492)" fill="#d9d9d9"/>
    <path id="패스_2188" data-name="패스 2188" d="M186.03,215.73h3.128a2.44,2.44,0,0,1,1.239.222,1.42,1.42,0,0,1,.609,1.239c.006,1.912,0,3.823,0,5.734a2.418,2.418,0,0,1-.021.36c-.118-.176-.079-.416-.225-.581a1.331,1.331,0,0,0-1.087-.376q-1.823-.005-3.645,0c0-2.2,0-4.4,0-6.6m.4,1.047.115.128a5.148,5.148,0,0,1,.005.641c.013.089-.091.119-.137.174a1.538,1.538,0,0,0,.8-.1.459.459,0,0,0-.019-.782,2.2,2.2,0,0,0-.762-.06m1.405.023a.507.507,0,0,0-.04.887.5.5,0,0,0,.729-.436.481.481,0,0,0-.689-.451m.777-.021c.047.056.157.084.141.176a4.864,4.864,0,0,1-.034.581c0,.088-.082.13-.133.188a1.84,1.84,0,0,0,.4-.023l-.147-.083a3.67,3.67,0,0,1,0-.553c.116.2.174.435.276.645l.069-.008c.108-.229.17-.477.289-.7.005.206,0,.413,0,.619l-.138.1c.168.006.336.005.5,0l-.122-.13a5.709,5.709,0,0,1-.02-.689l.128-.127h-.374c-.074.191-.148.382-.219.574-.09-.19-.174-.382-.258-.574l-.367,0m1.29,0c.184.091.124.3.135.468-.01.167.049.376-.132.474l.507,0-.121-.129a5.111,5.111,0,0,1,0-.692l.124-.112a3.6,3.6,0,0,0-.512-.012m-2.886,1.742c.052.058.157.087.162.175a4.583,4.583,0,0,1-.005.661l-.131.1a2.023,2.023,0,0,0,.41-.011c-.292-.079-.142-.433-.178-.649.192.211.356.446.535.668l.119.023a8.815,8.815,0,0,1,.042-.885l.129-.04a.823.823,0,0,0-.423-.043c.259.09.156.387.177.595-.172-.192-.327-.4-.49-.6h-.347m1.113.065c.244.237.224.655.443.9l.064-.015c.172-.309.191-.718.481-.949h-.395l.124.111c-.046.172-.109.339-.171.506a3.841,3.841,0,0,1-.215-.526l.138-.086c-.169,0-.338,0-.507-.01l.036.071m1.158-.032a.269.269,0,0,0-.059.413c.1.083.222.127.32.21a.149.149,0,0,1-.1.239c-.154-.013-.2-.185-.32-.263.01.1.028.191.046.286a.617.617,0,0,0,.443.008.3.3,0,0,0,.135-.415c-.093-.135-.281-.155-.381-.28-.058-.107.082-.223.181-.162a1.941,1.941,0,0,1,.192.21q-.011-.135-.024-.269a.6.6,0,0,0-.428.024m-2.389,1.722.141.09c.009.246.008.493,0,.739l-.143.094c.174.015.349.013.523.013a.709.709,0,0,1-.122-.139c-.018-.233-.005-.467,0-.7l.137-.107c-.179,0-.358,0-.536.011m.578,0,.135.089a5.023,5.023,0,0,1,0,.741l-.137.1c.247.026.5.008.743.018.023-.1.042-.191.058-.288-.1.133-.215.252-.4.2-.005-.233-.016-.467,0-.7,0-.083.089-.116.136-.169-.178.005-.357,0-.534.011m.815,0,.137.1c0,.235.015.471,0,.706l-.135.131c.248,0,.5,0,.744,0,.017-.094.034-.188.047-.282-.1.131-.212.248-.394.206-.008-.234-.018-.468,0-.7,0-.085.087-.119.135-.173-.177.005-.354,0-.53.009m.621-.008a.553.553,0,0,1,.164.185c.107.252.2.511.295.767l.11.017c.11-.262.2-.534.32-.791a.607.607,0,0,1,.17-.178c-.137,0-.274,0-.412,0l.142.1c-.061.178-.12.356-.181.534-.076-.176-.143-.356-.212-.535l.13-.1C189.264,220.265,189.088,220.266,188.914,220.262Z" transform="translate(-173.042 -199.701)" fill="#d9d9d9"/>
    <path id="패스_2189" data-name="패스 2189" d="M280.381,216.047a1.88,1.88,0,0,1,1.206-.315c1.105,0,2.21,0,3.315,0,0,2.2,0,4.394,0,6.59-1.068.012-2.136,0-3.2.005a3.373,3.373,0,0,0-1.23.127.75.75,0,0,0-.461.59c-.031.071,0,.188-.089.221a1.116,1.116,0,0,1-.021-.223c0-1.93,0-3.859,0-5.789a1.513,1.513,0,0,1,.479-1.2m.142.731a1.127,1.127,0,0,1,.137.126,4.4,4.4,0,0,1-.031.629c0,.087-.079.131-.13.19h.371l0-.042-.123-.068a3.651,3.651,0,0,1,0-.551c.112.2.171.432.272.643l.07,0c.107-.23.173-.478.29-.7q.007.31,0,.62l-.136.1c.168,0,.337,0,.505,0l-.123-.13a6.3,6.3,0,0,1-.022-.694l.137-.121h-.382q-.108.279-.213.559a4.173,4.173,0,0,1-.259-.556c-.124,0-.247,0-.371,0m1.3,0,.116.135a5.14,5.14,0,0,1,0,.681l-.126.129h.518l-.127-.127a4.879,4.879,0,0,1,0-.688l.126-.131h-.506m.531,0a1.023,1.023,0,0,1,.156.132,3.467,3.467,0,0,1,.01.57.208.208,0,0,1-.141.224,1.053,1.053,0,0,0,.425-.01l-.174-.063a3.615,3.615,0,0,1-.015-.571c.134.146.252.306.373.463.078.1.145.226.288.222.006-.265-.01-.531.011-.8-.008-.09.093-.12.143-.175-.14,0-.28,0-.419,0,.054.037.107.076.159.116a3.517,3.517,0,0,1,.021.482c-.17-.2-.328-.406-.5-.6l-.341.008m1.007.941q.2,0,.394-.005l-.139-.09c.02-.063.04-.126.06-.189l.236,0c.023.067.044.133.067.2l-.122.083c.17.007.34.006.51,0-.058-.058-.135-.1-.162-.184-.108-.255-.179-.524-.291-.777l-.069.006c-.2.295-.2.718-.484.956m-2.184.768c0,.108-.005.215-.006.323.065-.116.142-.226.288-.231.007.26.007.52,0,.78l-.153.1a4.148,4.148,0,0,0,.575,0l-.163-.093q-.013-.392,0-.783c.143,0,.218.119.291.225q0-.153-.012-.306a2.831,2.831,0,0,1-.819-.011m.907.035.141.109c0,.236.014.473-.009.709l-.12.122c.172,0,.344,0,.516,0l-.134-.1c0-.222-.013-.445,0-.667-.01-.086.086-.116.131-.171-.175,0-.35,0-.524,0m.863.042a.518.518,0,0,0-.133.753.51.51,0,0,0,.711.046.527.527,0,0,0,0-.75.516.516,0,0,0-.577-.048m-2.006,1.7c.075.06.175.118.143.232-.027.241.035.524-.141.72a1.371,1.371,0,0,0,.377-.029c-.272-.061-.124-.4-.14-.6.131.2.174.441.292.648a5.094,5.094,0,0,0,.332-.768c-.032.244.113.567-.115.744q.248,0,.494,0l-.121-.1a5.868,5.868,0,0,1-.034-.735l.15-.105c-.132,0-.263,0-.395,0-.07.19-.144.379-.214.568-.1-.188-.174-.383-.264-.574q-.182,0-.365,0m1.287,0,.133.11c0,.234.016.469,0,.7l-.148.127c.259.008.519.007.779,0,.016-.1.03-.192.042-.288-.061.064-.115.134-.176.2a1.686,1.686,0,0,1-.235.015c-.006-.129-.009-.259-.009-.388a.325.325,0,0,1,.277.174c0-.127.005-.255,0-.382a.371.371,0,0,1-.277.152c0-.116,0-.231,0-.346.161-.038.265.064.346.189,0-.088,0-.175,0-.262-.242-.008-.483,0-.725-.006m.8.945q.185,0,.37,0c-.039-.035-.079-.069-.119-.1.02-.061.039-.122.059-.182l.241,0a.248.248,0,0,1-.024.291c.158,0,.317-.006.475-.013-.067-.057-.148-.106-.173-.2-.105-.261-.186-.532-.3-.791C283.274,220.48,283.328,220.956,283.023,221.209Z" transform="translate(-261.477 -199.701)" fill="#d9d9d9"/>
    <path id="패스_2190" data-name="패스 2190" d="M144.787,220.549a.406.406,0,0,1,.66.008c.093.195.331.19.508.256,0-.052,0-.156,0-.208h.456q0,3.485,0,6.971,2.52,0,5.04,0a.735.735,0,0,0,.393.486,1.472,1.472,0,0,0,.923,0,.728.728,0,0,0,.4-.489c1.685,0,3.371.005,5.056,0-.006-2.322,0-4.644,0-6.966h.455q0,3.713,0,7.426c-1.743,0-3.486,0-5.229,0a1.361,1.361,0,0,1-1.439.537,1.139,1.139,0,0,1-.841-.537c-1.737,0-3.474,0-5.211,0,0-.166,0-.331,0-.5-.14.057-.278.116-.414.181a.446.446,0,0,1-.479.338.417.417,0,0,1-.292-.631.445.445,0,0,1,.591-.133c.2-.083.4-.167.6-.256,0-.181,0-.362,0-.542-.135.041-.269.082-.4.126a.447.447,0,0,1-.483.291.417.417,0,0,1-.25-.666.439.439,0,0,1,.6-.066c.18-.052.358-.107.538-.16,0-.187,0-.374,0-.561-.137.023-.274.045-.411.069a.46.46,0,0,1-.472.242.417.417,0,0,1-.242-.67.441.441,0,0,1,.636-.024c.163-.025.326-.054.489-.082,0-.19,0-.382,0-.572-.144,0-.287.01-.43.017a.438.438,0,0,1-.667.069.417.417,0,0,1,.215-.691c.173-.049.316.071.45.159.144.006.287-.006.431-.011,0-.207,0-.413,0-.619-.153-.009-.306-.016-.458-.02a.469.469,0,0,1-.431.16.417.417,0,0,1-.274-.615.407.407,0,0,1,.632-.091c.134.149.353.082.53.107q0-.286,0-.57c-.168-.031-.335-.063-.5-.089a.471.471,0,0,1-.437.1.417.417,0,0,1-.221-.618.408.408,0,0,1,.648-.052c.111.176.335.146.512.189,0-.187,0-.374,0-.562-.181-.05-.357-.117-.54-.157-.141.031-.283.123-.43.057A.418.418,0,0,1,144.787,220.549Z" transform="translate(-134.108 -204.086)" fill="#d9d9d9"/>
    <path id="패스_2191" data-name="패스 2191" d="M199.349,234.992c.38-.036.442.5.245.728-.052.067-.218.119-.237,0A7.119,7.119,0,0,1,199.349,234.992Z" transform="translate(-185.584 -217.847)" fill="#d9d9d9"/>
    <path id="패스_2192" data-name="패스 2192" d="M217.094,234.767c.146-.083.263.1.281.225a.67.67,0,0,1-.082.564c-.152.1-.287-.086-.307-.222C216.953,235.148,216.93,234.9,217.094,234.767Z" transform="translate(-202.184 -217.616)" fill="#d9d9d9"/>
    <path id="패스_2193" data-name="패스 2193" d="M345.41,239.267c.034-.09.068-.178.1-.267l.088.277Z" transform="translate(-323.195 -221.624)" fill="#d9d9d9"/>
    <path id="패스_2194" data-name="패스 2194" d="M478.65,244.422c.92-.072,1.84-.157,2.761-.222.03.508.081,1.015.119,1.523l-.377.031c-.03-.363-.06-.726-.087-1.09-.252.018-.5.044-.757.054.013.346.053.689.077,1.034l-.37.028c-.025-.342-.055-.684-.083-1.025-.416.038-.832.069-1.249.1Q478.667,244.638,478.65,244.422Z" transform="translate(-448.722 -226.523)" fill="#d9d9d9"/>
    <path id="패스_2195" data-name="패스 2195" d="M23.763,245.06c.911.364,1.819.738,2.729,1.105q-.008.228-.019.457-1.4.422-2.8.835c0-.152,0-.3,0-.454.749-.216,1.5-.419,2.251-.634-.709-.315-1.448-.563-2.169-.853Z" transform="translate(-20.081 -227.333)" fill="#d9d9d9"/>
    <path id="패스_2196" data-name="패스 2196" d="M333.14,264.888a.172.172,0,0,1,.229.093.869.869,0,0,1,.054.534.2.2,0,0,1-.188.2c-.162-.038-.21-.223-.225-.366A.5.5,0,0,1,333.14,264.888Z" transform="translate(-311.509 -245.997)" fill="#d9d9d9"/>
    <path id="패스_2197" data-name="패스 2197" d="M477.493,290.644a1.606,1.606,0,0,1,1.835.732,1.252,1.252,0,0,1-.387,1.519,1.68,1.68,0,0,1-2.06-.247,1.248,1.248,0,0,1-.206-1.31,1.215,1.215,0,0,1,.819-.694m.182.415a.8.8,0,0,0-.707.765.81.81,0,0,0,.607.765,1.314,1.314,0,0,0,1.133-.049.759.759,0,0,0,.19-1.095A1.347,1.347,0,0,0,477.675,291.058Z" transform="translate(-446.768 -270.227)" fill="#d9d9d9"/>
    <path id="패스_2198" data-name="패스 2198" d="M339.55,299.4c.032-.1.065-.19.1-.285q.045.139.093.278Z" transform="translate(-317.674 -278.264)" fill="#d9d9d9"/>
    <path id="패스_2199" data-name="패스 2199" d="M677.083,302.046a7.586,7.586,0,0,1,5.721,1.731,6.948,6.948,0,0,1,1.986,2.864,7.506,7.506,0,0,1-.63,6.41,7.1,7.1,0,0,1-3.572,2.925,7.768,7.768,0,0,1-7.114-.894,6.963,6.963,0,0,1-2.753-4.136,7.455,7.455,0,0,1,1.392-6.248,7.274,7.274,0,0,1,4.971-2.653m.171.7a4.286,4.286,0,0,0-2.123.868,5.46,5.46,0,0,0-1.668,2.324,9.262,9.262,0,0,0-.577,3.886,8.32,8.32,0,0,0,.768,3.218,4.88,4.88,0,0,0,1.852,2.09,4.735,4.735,0,0,0,2.994.591,4.277,4.277,0,0,0,2.2-.916,5.529,5.529,0,0,0,1.635-2.348,9.415,9.415,0,0,0,.536-4.025,8.043,8.043,0,0,0-.861-3.218,4.742,4.742,0,0,0-1.945-1.994A4.794,4.794,0,0,0,677.253,302.744Z" transform="translate(-629.501 -280.981)" fill="#d9d9d9"/>
    <path id="패스_2200" data-name="패스 2200" d="M1451.973,302.054a7.582,7.582,0,0,1,5.836,1.781,6.947,6.947,0,0,1,1.9,2.736,7.489,7.489,0,0,1-.761,6.728,7.147,7.147,0,0,1-4.068,2.889,7.727,7.727,0,0,1-6.7-1.284,6.982,6.982,0,0,1-2.634-4.667,7.369,7.369,0,0,1,1.807-5.874,7.287,7.287,0,0,1,4.628-2.308m.227.691a4.289,4.289,0,0,0-1.825.655,5.088,5.088,0,0,0-1.8,2.141,8.664,8.664,0,0,0-.763,3.53,9.063,9.063,0,0,0,.655,3.7,5.069,5.069,0,0,0,1.8,2.252,4.577,4.577,0,0,0,2.651.739,4.409,4.409,0,0,0,2.523-.8,5.362,5.362,0,0,0,1.789-2.386,9.311,9.311,0,0,0,.584-4.082,8.052,8.052,0,0,0-.868-3.275,4.543,4.543,0,0,0-4.749-2.467Z" transform="translate(-1359.581 -280.983)" fill="#d9d9d9"/>
    <path id="패스_2201" data-name="패스 2201" d="M26.5,303.361c.913-.129,1.824-.271,2.737-.4l.063.434c-.911.137-1.822.274-2.735.4Z" transform="translate(-22.747 -281.881)" fill="#d9d9d9"/>
    <path id="패스_2202" data-name="패스 2202" d="M933.912,306h6.143c0,.17,0,.339,0,.509-.441.091-.881.183-1.322.27a.488.488,0,0,0-.313.148c-.027.132.068.243.133.346,1.061,1.513,2.115,3.029,3.177,4.542.04.107.137.049.172-.026q1.633-2.283,3.267-4.565c.092-.1.141-.291-.031-.34-.464-.161-.952-.251-1.427-.376,0-.17,0-.339,0-.509h4.938c0,.17,0,.34,0,.511-.552.153-1.123.244-1.661.443a2.607,2.607,0,0,0-1.058.975q-1.828,2.3-3.655,4.6,2.176,2.862,4.348,5.728a2.007,2.007,0,0,0,.918.812c.475.174.975.268,1.46.41,0,.168,0,.336,0,.5-2.048.007-4.1,0-6.145,0,0-.168,0-.337,0-.5.516-.121,1.046-.188,1.554-.338.181-.059.086-.264,0-.368q-1.509-2.134-3.025-4.262c-.171-.234-.327-.48-.514-.7-1.084,1.45-2.127,2.933-3.2,4.4a7.179,7.179,0,0,0-.483.7c-.055.151.138.207.244.243.43.117.866.21,1.3.326,0,.17,0,.34-.006.509q-2.465-.007-4.929,0c0-.17,0-.339,0-.509.465-.114.93-.226,1.392-.351a1.862,1.862,0,0,0,.957-.6c1.422-1.774,2.833-3.559,4.258-5.33-1.3-1.75-2.627-3.487-3.938-5.233a2.752,2.752,0,0,0-1.011-1.012,15.06,15.06,0,0,0-1.542-.445C933.912,306.335,933.912,306.165,933.912,306Z" transform="translate(-877.52 -284.741)" fill="#d9d9d9"/>
    <path id="패스_2203" data-name="패스 2203" d="M1229.25,306q5.287,0,10.575,0,0,1.751,0,3.5h-.585q-.333-1.064-.667-2.126a1.086,1.086,0,0,0-.351-.581.992.992,0,0,0-.593-.13c-1.433,0-2.866,0-4.3,0,.006,2.006,0,4.011,0,6.017h3.026a1.628,1.628,0,0,0,.874-.13,1.09,1.09,0,0,0,.4-.651c.109-.374.217-.749.327-1.122.192,0,.385,0,.578,0,.012,1.555,0,3.11.005,4.665l-.582,0c-.121-.465-.234-.932-.353-1.4a.923.923,0,0,0-.314-.538,1.046,1.046,0,0,0-.648-.166h-3.315c0,1.718,0,3.435,0,5.153a.558.558,0,0,0,.412.592c.585.142,1.176.258,1.763.394,0,.167,0,.334.006.5-2.088.013-4.176,0-6.263.006q0-.254,0-.507c.44-.1.879-.212,1.318-.318a1.149,1.149,0,0,0,.577-.266.754.754,0,0,0,.128-.509q0-5.44,0-10.882a.562.562,0,0,0-.4-.59c-.533-.163-1.081-.272-1.62-.411Q1229.25,306.248,1229.25,306Z" transform="translate(-1155.869 -284.74)" fill="#d9d9d9"/>
    <path id="패스_2204" data-name="패스 2204" d="M1726.853,306h5.452a11.522,11.522,0,0,1,3.3.3,3.71,3.71,0,0,1,2.364,2.14,3.358,3.358,0,0,1-.119,2.877,4.216,4.216,0,0,1-2.339,1.9c-.24.1-.5.135-.733.244a4.175,4.175,0,0,1,1.183,1.156c1.021,1.3,2.005,2.629,3.005,3.946a1.6,1.6,0,0,0,.939.6c.482.1.963.212,1.444.318,0,.168,0,.336,0,.5q-1.721.008-3.442,0a1.133,1.133,0,0,1-.839-.586q-1.63-2.277-3.256-4.555a2.334,2.334,0,0,0-1.255-1.054,10.538,10.538,0,0,0-1.628-.059q-.006,2.388,0,4.776a.556.556,0,0,0,.426.585c.581.139,1.167.256,1.749.39,0,.17,0,.339,0,.509q-3.127,0-6.254,0c-.005-.17-.005-.34,0-.509.54-.139,1.091-.242,1.623-.41a.555.555,0,0,0,.4-.568q.006-5.5,0-11a.562.562,0,0,0-.4-.587c-.533-.163-1.082-.272-1.622-.41q0-.254,0-.508m4.082.664c0,2.138-.006,4.276,0,6.414.608-.01,1.217,0,1.825-.006a3.854,3.854,0,0,0,1.761-.392,2.349,2.349,0,0,0,.985-.987,4.009,4.009,0,0,0,.4-1.875,3.24,3.24,0,0,0-.609-1.966,2.972,2.972,0,0,0-2.07-1.143C1732.469,306.629,1731.7,306.676,1730.935,306.664Z" transform="translate(-1624.665 -284.745)" fill="#d9d9d9"/>
    <path id="패스_2205" data-name="패스 2205" d="M1996.8,305.989h5.334a18.349,18.349,0,0,1,3.948.251,6.477,6.477,0,0,1,2.911,1.4,6.95,6.95,0,0,1,2.323,4.826,7.435,7.435,0,0,1-1.349,5.057,6,6,0,0,1-2.5,1.861,10.223,10.223,0,0,1-3.25.578c-2.471.037-4.943,0-7.414.018-.005-.171-.006-.34,0-.511.524-.13,1.055-.244,1.575-.392a.569.569,0,0,0,.444-.585q.008-5.444,0-10.888a.754.754,0,0,0-.138-.536,1.116,1.116,0,0,0-.534-.245c-.451-.107-.9-.221-1.351-.327q0-.254,0-.509m4.083.663q0,6.008,0,12.016a.848.848,0,0,0,.105.508.676.676,0,0,0,.511.143c.695,0,1.389.005,2.085-.006a7.276,7.276,0,0,0,2.62-.457,4.11,4.11,0,0,0,1.968-1.856,7.551,7.551,0,0,0,.812-3.139,10.726,10.726,0,0,0-.284-3.328,5.671,5.671,0,0,0-1.349-2.519,4.036,4.036,0,0,0-2.15-1.178A24.946,24.946,0,0,0,2000.884,306.652Z" transform="translate(-1878.985 -284.734)" fill="#d9d9d9"/>
    <path id="패스_2206" data-name="패스 2206" d="M33.26,330.942c.872-.3,1.741-.609,2.611-.912.05.131.1.263.145.4-.506.611-1,1.231-1.512,1.837q.951-.387,1.912-.758c.043.129.089.255.135.383-.856.338-1.72.653-2.574,1-.058-.132-.108-.267-.153-.4.5-.6,1-1.213,1.5-1.818-.643.217-1.281.45-1.924.669C33.353,331.2,33.306,331.071,33.26,330.942Z" transform="translate(-29.116 -307.384)" fill="#d9d9d9"/>
    <path id="패스_2207" data-name="패스 2207" d="M456.064,345.47c.839.373,1.676.754,2.514,1.132a5.736,5.736,0,0,1-.546,1.1.775.775,0,0,1-1.246-.2,1.018,1.018,0,0,1-.059-.327,6.089,6.089,0,0,1-1.457.08c.061-.139.122-.278.179-.419.361-.028.725.016,1.085-.028.241-.027.316-.29.4-.478-.351-.152-.7-.314-1.045-.468l.177-.4m1.015,1.651a.436.436,0,0,0,.676.306,2.086,2.086,0,0,0,.317-.57c-.262-.134-.535-.244-.8-.367A1.517,1.517,0,0,0,457.079,347.121Z" transform="translate(-426.695 -321.931)" fill="#d9d9d9"/>
    <path id="패스_2208" data-name="패스 2208" d="M231.342,374.438c.159-.211.292-.441.465-.64.148-.046.2.113.274.2.233.347.494.674.715,1.028-.067.135-.291.074-.416.145a9.171,9.171,0,0,0,.574.82c.252-.216.512-.424.757-.647a2.614,2.614,0,0,0-.352-.184,6.781,6.781,0,0,1,.819-.615c.129-.073.238-.225.4-.212-.181.7-.45,1.38-.655,2.075a8.406,8.406,0,0,0-4.112,0c-.2-.649-.423-1.294-.633-1.942-.043-.063-.009-.2.083-.124.393.258.789.515,1.166.8-.12.069-.242.134-.361.206.236.219.476.433.716.648.21-.26.386-.544.568-.822a2.79,2.79,0,0,0-.429-.093A4.559,4.559,0,0,1,231.342,374.438Z" transform="translate(-213.673 -348.611)" fill="#d9d9d9"/>
    <path id="패스_2209" data-name="패스 2209" d="M60.455,384.08a.965.965,0,0,1,.859-.186,1.214,1.214,0,0,1,.762,1.189.987.987,0,0,1-.48.669q-.725.523-1.456,1.036-.123-.183-.25-.364c.454-.32.905-.645,1.359-.966.159-.121.359-.236.408-.445a.644.644,0,0,0-.613-.729.936.936,0,0,0-.379.174q-.728.495-1.457.988l-.248-.357C59.459,384.754,59.953,384.41,60.455,384.08Z" transform="translate(-53.328 -358.092)" fill="#d9d9d9"/>
    <path id="패스_2210" data-name="패스 2210" d="M432.353,389.834c.2-.278.415-.539.627-.8q1.078.864,2.159,1.725a6.482,6.482,0,0,1-.926,1.043,1.211,1.211,0,0,1-1.271.08,1.517,1.517,0,0,1-.848-1.1,1.315,1.315,0,0,1,.259-.94m.2.414a.821.821,0,0,0,.152.872,1.121,1.121,0,0,0,1.051.461c.377-.084.583-.442.822-.71-.523-.421-1.044-.846-1.575-1.255A2.546,2.546,0,0,0,432.551,390.249Z" transform="translate(-404.849 -362.969)" fill="#d9d9d9"/>
    <path id="패스_2211" data-name="패스 2211" d="M244.006,422.586a8.618,8.618,0,0,1,2.2.068,1.246,1.246,0,0,1,.531.19c.089.068-.012.163-.081.192a3.154,3.154,0,0,1-.976.206,8.588,8.588,0,0,1-2.176-.073,1.146,1.146,0,0,1-.536-.2c-.057-.1.056-.157.128-.19A3.3,3.3,0,0,1,244.006,422.586Z" transform="translate(-226.67 -394.545)" fill="#d9d9d9"/>
    <path id="패스_2212" data-name="패스 2212" d="M240.38,505.894a.38.38,0,1,1,.016.671A.383.383,0,0,1,240.38,505.894Z" transform="translate(-224.066 -473.021)" fill="#d9d9d9"/>
    <path id="패스_2213" data-name="패스 2213" d="M307.02,516.806a.38.38,0,1,1-.052.644A.383.383,0,0,1,307.02,516.806Z" transform="translate(-286.834 -483.307)" fill="#d9d9d9"/>
  </g>
</svg>
