<svg xmlns="http://www.w3.org/2000/svg" xmlns:xlink="http://www.w3.org/1999/xlink" width="100" height="42.857" viewBox="0 0 100 42.857">
  <defs>
    <clipPath id="clip-path">
      <path id="path46" d="M39.022-776.609h100v-42.857h-100Z" transform="translate(-39.022 819.466)" fill="#d9d9d9"/>
    </clipPath>
    <clipPath id="clip-path-2">
      <path id="path58" d="M39.022-783.926h99.87v-35.541H39.022Z" transform="translate(-39.022 819.466)" fill="#d9d9d9"/>
    </clipPath>
  </defs>
  <g id="Exar_Corporation" data-name="Exar Corporation" transform="translate(-36.452 -25.124)">
    <g id="g54" transform="translate(36.452 25.124)">
      <g id="g56" clip-path="url(#clip-path-2)">
        <g id="g62" transform="translate(0 0)">
          <path id="path64" d="M-21.057-15.676c10.634-.305,42.378-4.712,42.378-19.52,0-8.425-13.667-16.021-41.673-16.021-47.906.752-57.82,14.34-58.2,18.377,4.8-9.524,29.46-17.417,60.989-15.78,21.857,1.171,35.7,7.49,35.7,14.894,0,12.1-30.478,17.6-39.194,18.049" transform="translate(78.548 51.217)" fill="#d9d9d9"/>
        </g>
        <g id="g66" transform="translate(0.8 13.286)">
          <path id="path68" d="M-2.064,0S-8.555,3.031-7.605,8.791c2.5,12.25,45.362,16.829,73.805,9.529-23.058,2.134-34.183,1.435-44.6-.022C-15.951,13.041-2.064,0-2.064,0" transform="translate(7.7 0)" fill="#d9d9d9"/>
        </g>
      </g>
    </g>
    <g id="g70" transform="translate(36.452 25.124)">
      <g id="g72" transform="translate(0)" clip-path="url(#clip-path)">
        <g id="g78" transform="translate(22.094 11.219)">
          <path id="path80" d="M-18.386-1.324h-4.8V1.681h3.744s1.055.159,1.055-1.107Zm5.451,11.433-4.313,0L-20.283,5h-2.9v5.115H-27.11s.056-8.387.037-12.679l0-.106S-27.1-4.961-25.122-4.9l.135-.038h10.421s.034,6.17-.023,6.535c-.423,2.7-1.873,2.294-1.556,2.847.614,1.076,3.21,5.66,3.21,5.66M-34.1-4.943c1.9-.006,5.088,0,5.088,0l.029,15.06h-3.8v-3.7h-6.489l2.533-3.276h3.694v-5.97L-41.748,8l1.483,2.087-4.565.017-4.2-5.22-4.125,5.22H-68.636C-68.65.768-68.651.768-68.651-2.879c0-2.206,1.379-2.054,1.96-2.054h9.057l.006,3.217H-64.8V.818h6.279V4.2h-6.171V6.576h9.5l3.8-4.648-5.275-6.867h4.694L-48.975-1.3l3.006-3.644h4.432l-5.17,6.813,2.69,3.275s4.894-6.138,6.7-8.4l.1-.131a3.488,3.488,0,0,1,2.944-1.545Z" transform="translate(68.651 4.945)" fill="#d9d9d9"/>
        </g>
      </g>
    </g>
  </g>
</svg>
