<svg xmlns="http://www.w3.org/2000/svg" xmlns:xlink="http://www.w3.org/1999/xlink" width="50" height="50" viewBox="0 0 50 50">
  <defs>
    <clipPath id="clip-path">
      <rect id="사각형_38" data-name="사각형 38" width="29.377" height="29.298" fill="#fff"/>
    </clipPath>
  </defs>
  <g id="_4" data-name="4" transform="translate(-0.361 -0.361)">
    <g id="사각형_35" data-name="사각형 35" transform="translate(0.361 0.361)" fill="none" stroke="#fff" stroke-width="2">
      <rect width="50" height="50" rx="10" stroke="none"/>
      <rect x="1" y="1" width="48" height="48" rx="9" fill="none"/>
    </g>
    <g id="linkedin" transform="translate(10.492 10.532)">
      <g id="그룹_12" data-name="그룹 12" clip-path="url(#clip-path)">
        <path id="패스_93" data-name="패스 93" d="M5.8,22.615c-1.763-.019-3.526-.016-5.289,0-.284,0-.367-.067-.367-.361q.01-9.424,0-18.85c0-.259.064-.351.339-.351,1.789.013,3.58.016,5.369,0,.342,0,.39.131.39.425-.01,3.13-.006,6.26-.006,9.387,0,3.1-.006,6.209.006,9.313,0,.345-.083.447-.441.444" transform="translate(0.32 6.683)" fill="#fff"/>
        <path id="패스_94" data-name="패스 94" d="M3.52,7.039A3.544,3.544,0,0,1,0,3.532,3.521,3.521,0,1,1,3.52,7.039" transform="translate(0 0.001)" fill="#fff"/>
        <path id="패스_95" data-name="패스 95" d="M22.238,22.541c0,.319-.089.406-.406.4q-2.645-.024-5.292,0c-.31,0-.377-.093-.374-.386q.014-4.887,0-9.773a8.782,8.782,0,0,0-.284-2.427,2.729,2.729,0,0,0-3-2.127A3.279,3.279,0,0,0,9.436,11.5a12.221,12.221,0,0,0-.1,1.53c0,3.168,0,6.337.01,9.505,0,.316-.077.409-.4.406-1.779-.016-3.555-.013-5.331,0-.284,0-.367-.077-.367-.364q.01-9.409,0-18.818c0-.313.1-.383.393-.383,1.69.013,3.376.016,5.062,0,.31,0,.393.1.383.393-.016.747,0,1.5,0,2.249.406-.457.741-.92,1.159-1.316A6.387,6.387,0,0,1,14.828,2.9a10.66,10.66,0,0,1,2.881.351,5.63,5.63,0,0,1,4,4.2,17.65,17.65,0,0,1,.533,4.82c.006,3.424-.01,6.848,0,10.272" transform="translate(7.137 6.352)" fill="#fff"/>
      </g>
    </g>
  </g>
</svg>
