<svg id="Arrow_Outward" data-name="Arrow Outward" xmlns="http://www.w3.org/2000/svg" width="100" height="100" viewBox="0 0 100 100">
  <g id="그룹_39" data-name="그룹 39">
    <rect id="사각형_79" data-name="사각형 79" width="100" height="100" fill="none"/>
    <rect id="사각형_80" data-name="사각형 80" width="100" height="100" fill="none"/>
  </g>
  <g id="그룹_40" data-name="그룹 40" transform="translate(27.548 30.51)">
    <path id="패스_416" data-name="패스 416" d="M7.359,9.333h0a3.343,3.343,0,0,0,3.333,3.333h25.3l-29.6,29.6a3.32,3.32,0,0,0,0,4.7h0a3.32,3.32,0,0,0,4.7,0l29.6-29.6v25.3A3.343,3.343,0,0,0,44.026,46h0a3.343,3.343,0,0,0,3.333-3.333V9.333A3.343,3.343,0,0,0,44.026,6H10.692A3.343,3.343,0,0,0,7.359,9.333Z" transform="translate(-5.418 -6)" fill="#fff"/>
  </g>
</svg>
