<svg id="embry_riddle" data-name="embry riddle" xmlns="http://www.w3.org/2000/svg" xmlns:xlink="http://www.w3.org/1999/xlink" width="45" height="45" viewBox="0 0 45 45">
  <defs>
    <clipPath id="clip-path">
      <rect id="사각형_105" data-name="사각형 105" width="45" height="45" fill="none"/>
    </clipPath>
  </defs>
  <g id="그룹_51" data-name="그룹 51" clip-path="url(#clip-path)">
    <path id="패스_2134" data-name="패스 2134" d="M57.452,42.7A14.752,14.752,0,1,0,72.186,57.452,14.775,14.775,0,0,0,57.452,42.7" transform="translate(-34.952 -34.952)" fill="#d9d9d9"/>
    <path id="패스_2135" data-name="패스 2135" d="M28.148,14.267l.744,5.425,1.669-5.208-.218,5.462L32.9,15.1l-1.161,5.353L35.1,16.136,33.029,21.2l4.046-3.683-2.921,4.627,4.627-2.921L35.1,23.267,40.16,21.2l-4.319,3.357,5.353-1.161L36.35,25.952l5.462-.218L36.6,27.4l5.425.744-5.425.744,5.208,1.669-5.462-.218L41.194,32.9l-5.353-1.161L40.16,35.1,35.1,33.029l3.683,4.046-4.627-2.921,2.921,4.627L33.029,35.1,35.1,40.16l-3.357-4.319L32.9,41.194,30.344,36.35l.218,5.462L28.892,36.6l-.744,5.425L27.4,36.6l-1.669,5.208.218-5.462-2.558,4.845,1.161-5.353L21.18,40.2l2.087-5.1-4.046,3.683,2.921-4.627-4.627,2.921L21.2,33.029,16.136,35.1l4.319-3.357L15.1,32.9l4.845-2.558-5.462.218,5.208-1.669-5.425-.744,5.425-.744-5.208-1.669,5.462.218-4.863-2.558,5.353,1.161L16.118,21.2l5.063,2.069-3.665-4.046,4.627,2.921-2.921-4.627L23.267,21.2,21.2,16.118l3.357,4.319-1.161-5.353,2.558,4.845-.218-5.462L27.4,19.674ZM49.4,28.148A21.248,21.248,0,1,1,28.148,6.9,21.242,21.242,0,0,1,49.4,28.148m-6.877,0A14.371,14.371,0,1,0,28.148,42.519,14.38,14.38,0,0,0,42.519,28.148" transform="translate(-5.648 -5.648)" fill="#2f2f2f"/>
    <path id="패스_2136" data-name="패스 2136" d="M29.45,17.565l2.758-1.778c-.145-.145-.508-.091-1.143.127C30.411,16.131,28.706,17,28.706,17A9.347,9.347,0,0,1,30.484,15.5c-.145-.163-.526-.018-.653.018-.417.127-1.669.726-2.123.835.054-.091.544-.526.581-.581a.686.686,0,0,0-.653-.018A8.45,8.45,0,0,0,25,17.891c-.817.236-2.9,1.47-4.282,4.627a9.035,9.035,0,0,1-.381-4.228,12.527,12.527,0,0,1-.581-1.252c-.345-.8-2.341-5.9-1.96-7.04-.163.073-.272.236-.381.526a5.6,5.6,0,0,0-.073,3.1,9.119,9.119,0,0,1-1.288-3.411,2.047,2.047,0,0,0-.435,1.379,6.811,6.811,0,0,0,.544,2.794c-.127-.181-1.125-1.6-1.306-1.978a2.935,2.935,0,0,1-.236-.562,1.128,1.128,0,0,0-.254.69,8.236,8.236,0,0,0,1.143,3.72A16.826,16.826,0,0,1,14.335,14.9c-.454-.6-1.034-1.415-1.034-1.415a2.775,2.775,0,0,0-.091.69,5.829,5.829,0,0,0,1.542,3.375c-.163-.073-1.8-1.4-1.942-1.524a3.2,3.2,0,0,0,.853,2.123c.78.835,1.089,1.216,1.089,1.216-.127-.073-.889-.526-.962-.581a4.57,4.57,0,0,0,.272.762,4.089,4.089,0,0,0,1,1.27,1.416,1.416,0,0,1-.98-.708,2.279,2.279,0,0,0,.653,1.524c.163.435,1.452,4.1,2.722,4.827a.9.9,0,0,0-.073.163,14.414,14.414,0,0,1-5.48.544c.109.145.254.363.435.635l1.978-.163L12.484,28c.109.145.236.308.381.472l1.8-.544-1.615.744c.127.145.272.29.417.435l1.6-.835-1.415,1c.127.109.254.236.4.345l1.56-.944-1.4,1.071c.163.109.345.236.544.345l1.506-1.034L15.1,30.266a4.278,4.278,0,0,0,.508.218,12.929,12.929,0,0,0,1.379-1.216,9.848,9.848,0,0,0-.8,1.4c.145.036.308.073.454.109a11.518,11.518,0,0,0,1.034-1.4s-.508,1.343-.508,1.47c.163.018.308.054.49.073l.708-1.4.454-.018a9.044,9.044,0,0,0,.29,1.27c.109.2.835.29,1.143.272l.8.49c.2.036.435.091.435.236.018.127-.218.308-.236.526-.018.236-.163.762-.2.98s.417.4.635.472l-.145-.581.4-.508,1.415.889.018.435s.091.018.345-.327c.363-.508-.925-1.179-.925-1.179l.853.091.181.454s.036.073.145-.381c.091-.435-1.4-.871-1.669-1a.81.81,0,0,1-.4-.381.993.993,0,0,0,.145-.181c.054-.109.018-.163-.109-.327-.109-.163-.073-.127-.508-.345-.417-.2-.744-.073-.308-.853-.036.073-.163.454-.109.544.054.109.363.2.617.308a.712.712,0,0,1,.454.4c.218.435.962.6,1.107.762a5.2,5.2,0,0,0,1.633,1.143c.4.163.635,1.071.635,1.071a2.7,2.7,0,0,1-.236.526.515.515,0,0,0-.073.49c.036.109.308.254.472.327l-.073-.508.454-.49,1.742.526c.036.163.091.508.091.508s.2-.054.417-.49c.218-.417-1.542-1-1.815-1.107,1.288-.327,1.669-.091,1.669-.091a1.3,1.3,0,0,1,.236.4s.109-.054.181-.635-2.177-.181-2.54-.2a1.61,1.61,0,0,1-.454-1.016c.018-.435-.2-.435-.49-.78a5.033,5.033,0,0,1-1.089-1.579c-.054-.417-.127-.6.4-.889.544-.272,1.2-.581,1.2-.581l-.036.127s2.413-1.071,2.958-.853c.363.145.308.254.327.345.653-1.034-.744-1.216-1-1.306.036-.254-.054-.544-.726-.653s-1.724-.218-1.724-.218l.036.073s-1.8-.091-2.069-.109l-.889-.109A19.944,19.944,0,0,0,25.2,24.188a19.678,19.678,0,0,0,2.3-2.468A9.62,9.62,0,0,1,30.611,19a11.056,11.056,0,0,1,3.919-1.651c-.091-.127-.236-.327-1.161-.145-.871.181-2.722.708-2.9.744a16.457,16.457,0,0,1,1.56-.8c.526-.218,1.633-.6,1.742-.617-.091-.145-.617-.308-1.361-.127a18.357,18.357,0,0,0-2.958,1.161m-1.96,8.673c.054.036.054.091,0,.2l-.744-.218a5.155,5.155,0,0,1,.744.018M22.5,0A22.5,22.5,0,1,0,45,22.5,22.5,22.5,0,0,0,22.5,0m0,43.748A21.248,21.248,0,1,1,43.748,22.5,21.242,21.242,0,0,1,22.5,43.748" fill="#d9d9d9"/>
    <path id="패스_2137" data-name="패스 2137" d="M40.554,14.661a1.3,1.3,0,0,0-.544-.617L39.5,13.7,38.395,15.35l.49.327a1.343,1.343,0,0,0,.835.308,1.1,1.1,0,0,0,.69-.49,1.031,1.031,0,0,0,.145-.835M12.338,31.917c-.036,0-.054-.018-.091-.018l-.708-.218.091.69.617-.381a.138.138,0,0,1,.073-.036c.018-.018.054-.018.073-.036ZM19.2,16.167a.265.265,0,0,0-.308-.091,1.393,1.393,0,0,0-.272.2l-.98.871.417.49,1.016-.889a.972.972,0,0,0,.2-.218.326.326,0,0,0-.073-.363m14.444-4.736a.514.514,0,0,0-.327-.163l-1.089-.181-.109.671.98.163c.2.036.526.091.581-.236a.309.309,0,0,0-.036-.254M22.935,12.52a.354.354,0,0,0-.181-.181.613.613,0,0,0-.363.036l-1,.454.272.617.907-.417c.2-.054.508-.2.363-.508M14.008,37.052l-.308-.708-.454.2.327.726c.036.091.145.272.345.163a.34.34,0,0,0,.127-.109c.018-.018.036-.091-.036-.272m4.155-21.847a.273.273,0,0,0-.29-.073.885.885,0,0,0-.218.145l-.944.835.381.435.925-.835a.868.868,0,0,0,.2-.2.258.258,0,0,0-.054-.308M44.31,39.5a.346.346,0,0,0-.145-.054c-.054,0-.127.018-.236.163l-.454.635.4.29.472-.653c.054-.091.145-.254-.036-.381M29.25,47.286c-.018-.036-.036-.054-.036-.073,0-.036-.018-.054-.018-.091,0,.036-.018.054-.018.073-.018.018-.018.054-.036.073l-.308.653.708.018Zm-10.4-3.847c-.036.018-.054.036-.073.036l-.653.345.544.435.163-.708c0-.036.018-.054.018-.091,0-.018.018-.036.036-.073,0,.036-.018.036-.036.054M15.3,39.248a.7.7,0,0,0-.98-.181.626.626,0,0,0-.272.345.615.615,0,0,0,.091.635.7.7,0,1,0,1.161-.8m-1.288-2.2-.308-.708-.454.2.327.726c.036.091.145.272.345.163a.34.34,0,0,0,.127-.109c.018-.018.036-.091-.036-.272m-1.669-5.135c-.036,0-.054-.018-.091-.018l-.708-.218.091.69.617-.381a.138.138,0,0,1,.073-.036c.018-.018.054-.018.073-.036ZM19.2,16.167a.265.265,0,0,0-.308-.091,1.393,1.393,0,0,0-.272.2l-.98.871.417.49,1.016-.889a.972.972,0,0,0,.2-.218.326.326,0,0,0-.073-.363m-.98-.653a.258.258,0,0,0-.054-.308.273.273,0,0,0-.29-.073.885.885,0,0,0-.218.145l-.944.835.381.435.925-.835c.163-.127.181-.163.2-.2m4.718-2.994a.354.354,0,0,0-.181-.181.613.613,0,0,0-.363.036l-1,.454.272.617.907-.417c.2-.054.508-.2.363-.508m10.706-1.089a.514.514,0,0,0-.327-.163l-1.089-.181-.109.671.98.163c.2.036.526.091.581-.236a.309.309,0,0,0-.036-.254m6.913,3.23a1.3,1.3,0,0,0-.544-.617L39.5,13.7,38.395,15.35l.49.327a1.343,1.343,0,0,0,.835.308,1.1,1.1,0,0,0,.69-.49,1.031,1.031,0,0,0,.145-.835m3.538,3.048-.4-.49-1.542,1.27.363.454a1.283,1.283,0,0,0,.726.526,1.125,1.125,0,0,0,.8-.272.969.969,0,0,0,.381-.744,1.052,1.052,0,0,0-.327-.744M29.7,8.8a20.9,20.9,0,1,0,20.9,20.9A20.932,20.932,0,0,0,29.7,8.8M49.354,28.016l-.817.163-.49-2.54-.6.109.454,2.341-.835.163-.454-2.359L46.034,26l.49,2.595-.835.163-.744-3.9,3.647-.69Zm-1.851-6.6L44.945,22.59l.78,1.724-.817.381-1.343-2.94,3.375-1.542ZM44.437,29.7A14.743,14.743,0,1,1,29.7,14.951,14.76,14.76,0,0,1,44.437,29.7m.454-12.411a2.173,2.173,0,0,1,.581,2.087,2.085,2.085,0,0,1-.617.853,2.2,2.2,0,0,1-.762.4,1.361,1.361,0,0,1-1.016-.073,2.3,2.3,0,0,1-.907-.726L40.681,18l2.885-2.359Zm-4.246-3.865a2.124,2.124,0,0,1,1.161,1.833,1.829,1.829,0,0,1-.363.98,2.219,2.219,0,0,1-.617.617,1.523,1.523,0,0,1-.98.236,2.383,2.383,0,0,1-1.071-.435l-1.96-1.325,2.069-3.085Zm-3.067-1.706L36.2,15.169l-1.234-.49,1.379-3.448Zm-6.786-.163.254-1.542,2.685.454a1.63,1.63,0,0,1,.98.417,1.2,1.2,0,0,1,.272,1,1.048,1.048,0,0,1-.345.653,1.071,1.071,0,0,1-.671.236l.671,1.615-1.452-.254-.526-1.47-.708-.127-.236,1.343-1.306-.236.218-1.325-1.851-.29.635-.726Zm-4.9-1.125.78,1.016c.127.181.145.2.254.381.054-.218.073-.272.145-.526l.417-1.125,1.524-.236-1.27,2.831.163,1.089-1.306.2-.163-1.089-2.087-2.3ZM22.336,11.5a1.778,1.778,0,0,1,1.034-.218,1.175,1.175,0,0,1,.78.69,1.065,1.065,0,0,1,.073.744,1.185,1.185,0,0,1-.435.581l1.47.98-1.343.6-1.252-.925-.653.29.563,1.234-1.216.544-1.524-3.393Zm-4.845,2.813a1.653,1.653,0,0,1,.78-.435.785.785,0,0,1,.69.308.811.811,0,0,1,.018,1.107,1.013,1.013,0,0,1,.708-.236.765.765,0,0,1,.563.327.971.971,0,0,1,.127,1.161,3.2,3.2,0,0,1-.635.744L17.6,19.161l-2.45-2.794Zm-5.371,6.6L14.7,21.3l-1.651-2.014.853-1.542,3.23,1.815L16.475,20.7l-2.05-1.161,1.651,1.942-.508.889-2.486-.4,2.069,1.161-.635,1.125-3.248-1.815Zm-1.325,3.1.835.163-.49,2.54.6.109.435-2.359.835.163L12.574,27l.581.109.49-2.595.835.163-.744,3.9-3.665-.69Zm.163,8.782.345-.218-.127-1.016-.4-.127-.073-.544,2.1.708.073.544-1.869,1.216Zm.2,1.052,1.923-.526.49,1.8-.345.091-.363-1.306-.435.109.345,1.27-.345.091-.345-1.27-.472.127.381,1.361-.345.091Zm2.232,3.81-.508.889-.236-.544.508-.817-.236-.526L12.193,37l-.2-.454,1.815-.817.563,1.252a.708.708,0,0,1,.054.635.522.522,0,0,1-.29.272.578.578,0,0,1-.49,0,.511.511,0,0,1-.254-.218m.454,2.577a1.081,1.081,0,0,1,.2-1.615,1.055,1.055,0,0,1,1.524.363,1.277,1.277,0,0,1,.272,1.125,1.007,1.007,0,0,1-.417.544,1.059,1.059,0,0,1-1.579-.417m2.377,2.831.145-1.488a3.013,3.013,0,0,1,.054-.4,2.892,2.892,0,0,1-.236.236l-.8.762-.327-.345,1.47-1.361.345.363-.145,1.47c-.018.181-.036.218-.054.417.127-.145.163-.181.29-.308l.744-.69.327.345-1.47,1.361Zm2.7,2.3-.435-.345.109-.4L17.8,44l-.363.181L17,43.838l2-.98.417.327Zm2.758.635a.823.823,0,0,1-.454.435,1.288,1.288,0,0,1-.925-.181,1.537,1.537,0,0,1-.345-.254,1.355,1.355,0,0,1-.236-.29.765.765,0,0,1,.073-.78l.581-1,.435.236L20.231,45.2a.41.41,0,0,0-.018.472,1.069,1.069,0,0,0,.363.29.6.6,0,0,0,.417.054c.073-.018.145-.054.236-.236l.581-1.016.435.236Zm1.379,1.47L22.59,47.3l.6-1.524-.69-.272.127-.345,1.851.708-.127.345-.69-.272Zm1.615.526-.49-.145.563-1.923.49.145Zm1.742.073a.64.64,0,0,0,.69-.254l.526.091a.85.85,0,0,1-.327.381,1.318,1.318,0,0,1-.98.145c-.708-.127-1.125-.581-.98-1.27a1.061,1.061,0,0,1,1.4-.817,1.211,1.211,0,0,1,1.016.817l-.544-.036a.664.664,0,0,0-.526-.435.655.655,0,0,0-.817.563.625.625,0,0,0,.544.817m3.411.617-.163-.381-1.016-.036-.181.381-.544-.018,1.016-1.978.544.018.907,2.032Zm1.161-.054-.218-2,.508-.054.163,1.633,1.107-.109.036.363Zm5.19-1.325a1.276,1.276,0,0,1-.762.563,1.68,1.68,0,0,1-.417.073.966.966,0,0,1-.381-.036.757.757,0,0,1-.526-.581l-.345-1.107.472-.145.363,1.125c.054.163.127.308.345.327a.922.922,0,0,0,.454-.073.563.563,0,0,0,.327-.272c.036-.073.036-.145-.018-.327l-.363-1.125L35.8,45.6l.345,1.107a.728.728,0,0,1,.036.617m2.486-.889-1.4-.562c-.145-.073-.218-.091-.381-.163.073.127.091.163.163.29l.49.98-.435.218-.889-1.8.435-.236,1.379.563c.163.073.2.091.381.163a1.8,1.8,0,0,1-.2-.363L37.76,44.6l.435-.218.889,1.8Zm1.2-.69-1.089-1.669.417-.272,1.089,1.669Zm1.506-1.071-1.96-1,.435-.345,1.234.69a.515.515,0,0,1,.163.109,1.882,1.882,0,0,0-.073-.181l-.4-1.361.417-.327.544,2.123ZM42.75,43.53l-1.433-1.4L42.6,40.79l.254.254-.944.98.327.308.925-.944.254.254-.925.944.345.327.98-1.016.254.254Zm2.7-3.212-.962-.036-.327.454.653.472-.29.4-1.615-1.179.817-1.125a.7.7,0,0,1,.526-.363.6.6,0,0,1,.381.109.522.522,0,0,1,.236.417.868.868,0,0,1-.091.345h1.034Zm1.2-1.923a1.1,1.1,0,0,1-1,.708l.109-.454c.272.018.454-.218.581-.454.054-.109.218-.454,0-.581-.127-.073-.218.036-.29.127-.054.073-.29.4-.363.472-.109.145-.4.526-.8.308a.462.462,0,0,1-.218-.2,1,1,0,0,1,.091-.925,1.7,1.7,0,0,1,.472-.581.831.831,0,0,1,.435-.145l-.109.472a.434.434,0,0,0-.236.073,1.331,1.331,0,0,0-.254.327c-.109.2-.163.417,0,.508.109.054.2-.036.308-.145.054-.073.308-.4.363-.472.145-.181.4-.49.78-.29.563.345.236,1.034.127,1.252m.635-1.542-1.869-.726.181-.472,1.869.726Zm.6-1.687-1.579-.435-.2.708-.345-.109.544-1.905.345.109-.2.708,1.579.454Zm.6-2.758L47.74,32.3l-1.361.78.073-.617.817-.435a.153.153,0,0,1,.109-.036c-.036-.018-.036-.036-.073-.054l-.69-.635.073-.6,1.125,1.107.744.091Zm-4.319,7.04c-.054,0-.127.018-.236.163l-.454.635.4.29.472-.653c.073-.091.163-.254-.018-.381a.577.577,0,0,0-.163-.054m-1.633-20.5a1.283,1.283,0,0,0,.726.526,1.125,1.125,0,0,0,.8-.272.969.969,0,0,0,.381-.744,1.148,1.148,0,0,0-.345-.744l-.4-.49-1.542,1.27Zm-3.665-3.266a1.343,1.343,0,0,0,.835.308,1.1,1.1,0,0,0,.69-.49.98.98,0,0,0,.163-.835,1.3,1.3,0,0,0-.544-.617L39.5,13.7,38.395,15.35ZM33.7,11.667a.315.315,0,0,0-.054-.254.514.514,0,0,0-.327-.163l-1.089-.181-.109.671.98.163c.2.036.526.109.6-.236M29.213,47.213c0-.036-.018-.054-.018-.091,0,.036-.018.054-.018.073-.018.018-.018.054-.036.073l-.308.653.708.018-.272-.653a.1.1,0,0,1-.054-.073M22.59,13.046c.181-.091.49-.218.363-.526a.354.354,0,0,0-.181-.181.613.613,0,0,0-.363.036l-1,.454.272.617Zm-4.554,4.591,1.016-.889a.972.972,0,0,0,.2-.218.317.317,0,0,0-.054-.381.265.265,0,0,0-.308-.091,1.393,1.393,0,0,0-.272.2l-.98.871Zm.744,25.839-.653.345.544.435.163-.708c0-.036.018-.054.018-.091,0-.018.018-.036.036-.073-.018.018-.036.036-.054.036a.058.058,0,0,1-.054.054m-.562-27.962a.258.258,0,0,0-.054-.308.273.273,0,0,0-.29-.073.885.885,0,0,0-.218.145l-.944.835.381.435.925-.835c.163-.127.181-.163.2-.2M15.3,39.248a.7.7,0,0,0-.98-.181.626.626,0,0,0-.272.345.615.615,0,0,0,.091.635.7.7,0,1,0,1.161-.8m-1.4-1.8a.34.34,0,0,0,.127-.109c.036-.054.054-.109-.036-.29l-.308-.708-.454.2.327.726c.054.109.145.272.345.181M12.248,31.9l-.708-.218.091.69.617-.381a.138.138,0,0,1,.073-.036c.018-.018.054-.018.073-.036-.036,0-.054,0-.073-.018-.018.018-.036,0-.073,0M15.3,39.248a.7.7,0,0,0-.98-.181.626.626,0,0,0-.272.345.615.615,0,0,0,.091.635.7.7,0,1,0,1.161-.8M44.31,39.5a.346.346,0,0,0-.145-.054c-.054,0-.127.018-.236.163l-.454.635.4.29.472-.653c.054-.091.145-.254-.036-.381M18.852,43.439c-.036.018-.054.036-.073.036l-.653.345.544.435.163-.708c0-.036.018-.054.018-.091,0-.018.018-.036.036-.073,0,.036-.018.036-.036.054m10.4,3.847c-.018-.036-.036-.054-.036-.073,0-.036-.018-.054-.018-.091,0,.036-.018.054-.018.073-.018.018-.018.054-.036.073l-.308.653.708.018ZM44.092,17.709l-.4-.49-1.542,1.27.363.454a1.283,1.283,0,0,0,.726.526,1.125,1.125,0,0,0,.8-.272.969.969,0,0,0,.381-.744,1.052,1.052,0,0,0-.327-.744" transform="translate(-7.203 -7.203)" fill="#d9d9d9"/>
    <path id="패스_2138" data-name="패스 2138" d="M133.844,55.063a.65.65,0,0,0-.526.2.451.451,0,0,1,.145-.363.468.468,0,0,1,.29-.109.351.351,0,0,1,.345.181l.417-.036a.545.545,0,0,0-.109-.2.8.8,0,0,0-.635-.236.821.821,0,0,0-.871.871.735.735,0,0,0,.835.8.851.851,0,0,0,.6-.2.531.531,0,0,0,.163-.381c.018-.272-.2-.526-.653-.526" transform="translate(-108.785 -44.611)"/>
    <path id="패스_2139" data-name="패스 2139" d="M135.681,59.626a.435.435,0,0,1-.345-.127.244.244,0,0,1-.036-.145c0-.145.145-.254.345-.254.163,0,.417.036.417.254.018.218-.181.272-.381.272" transform="translate(-110.75 -48.376)"/>
    <path id="패스_2140" data-name="패스 2140" d="M123.6,55.625c.363-.127.544-.181.653-.327a.57.57,0,0,0,.109-.29c0-.49-.6-.508-.762-.508a1.1,1.1,0,0,0-.508.109.568.568,0,0,0-.236.454h.4a.29.29,0,0,1,.054-.145c.054-.091.145-.109.272-.109.109,0,.327.018.327.2,0,.145-.109.181-.218.236-.109.036-.2.073-.308.109a.848.848,0,0,0-.454.308.8.8,0,0,0-.127.472h1.524v-.308h-1.052c.054-.091.109-.127.327-.2" transform="translate(-100.518 -44.611)"/>
    <path id="패스_2141" data-name="패스 2141" d="M113.48,54.4c-.508,0-.78.254-.78.581,0,.236.145.508.635.508a.976.976,0,0,0,.4-.073.3.3,0,0,0,.163-.127.573.573,0,0,1-.127.345.5.5,0,0,1-.327.127c-.254,0-.327-.127-.345-.181l-.4.036a.413.413,0,0,0,.145.254.844.844,0,0,0,.563.2.828.828,0,0,0,.817-.435,1.253,1.253,0,0,0,.073-.454.793.793,0,0,0-.218-.6.94.94,0,0,0-.6-.181" transform="translate(-92.25 -44.529)"/>
    <path id="패스_2142" data-name="패스 2142" d="M115.245,56.526c-.127,0-.345-.036-.345-.254,0-.181.163-.254.363-.272.145,0,.417.018.417.254-.018.218-.236.272-.435.272" transform="translate(-94.051 -45.839)"/>
    <path id="패스_2143" data-name="패스 2143" d="M105.2,54.936v.29a1.355,1.355,0,0,0,.454-.127v1.2h.4V54.7h-.363a.711.711,0,0,1-.49.236" transform="translate(-86.111 -44.775)"/>
    <path id="패스_2144" data-name="패스 2144" d="M133.844,55.063a.65.65,0,0,0-.526.2.451.451,0,0,1,.145-.363.468.468,0,0,1,.29-.109.351.351,0,0,1,.345.181l.417-.036a.545.545,0,0,0-.109-.2.8.8,0,0,0-.635-.236.821.821,0,0,0-.871.871.735.735,0,0,0,.835.8.851.851,0,0,0,.6-.2.531.531,0,0,0,.163-.381c.018-.272-.2-.526-.653-.526" transform="translate(-108.785 -44.611)"/>
    <path id="패스_2145" data-name="패스 2145" d="M135.681,59.626a.435.435,0,0,1-.345-.127.244.244,0,0,1-.036-.145c0-.145.145-.254.345-.254.163,0,.417.036.417.254.018.218-.181.272-.381.272" transform="translate(-110.75 -48.376)"/>
    <path id="패스_2146" data-name="패스 2146" d="M123.6,55.625c.363-.127.544-.181.653-.327a.57.57,0,0,0,.109-.29c0-.49-.6-.508-.762-.508a1.1,1.1,0,0,0-.508.109.568.568,0,0,0-.236.454h.4a.29.29,0,0,1,.054-.145c.054-.091.145-.109.272-.109.109,0,.327.018.327.2,0,.145-.109.181-.218.236-.109.036-.2.073-.308.109a.848.848,0,0,0-.454.308.8.8,0,0,0-.127.472h1.524v-.308h-1.052c.054-.091.109-.127.327-.2" transform="translate(-100.518 -44.611)"/>
    <path id="패스_2147" data-name="패스 2147" d="M113.48,54.4c-.508,0-.78.254-.78.581,0,.236.145.508.635.508a.976.976,0,0,0,.4-.073.3.3,0,0,0,.163-.127.573.573,0,0,1-.127.345.5.5,0,0,1-.327.127c-.254,0-.327-.127-.345-.181l-.4.036a.413.413,0,0,0,.145.254.844.844,0,0,0,.563.2.828.828,0,0,0,.817-.435,1.253,1.253,0,0,0,.073-.454.793.793,0,0,0-.218-.6.94.94,0,0,0-.6-.181" transform="translate(-92.25 -44.529)"/>
    <path id="패스_2148" data-name="패스 2148" d="M115.245,56.526c-.127,0-.345-.036-.345-.254,0-.181.163-.254.363-.272.145,0,.417.018.417.254-.018.218-.236.272-.435.272" transform="translate(-94.051 -45.839)"/>
    <path id="패스_2149" data-name="패스 2149" d="M105.2,54.936v.29a1.355,1.355,0,0,0,.454-.127v1.2h.4V54.7h-.363a.711.711,0,0,1-.49.236" transform="translate(-86.111 -44.775)"/>
    <path id="패스_2150" data-name="패스 2150" d="M114.061,54.581a.9.9,0,0,0-.581-.181c-.508,0-.78.254-.78.581,0,.236.145.508.635.508a.976.976,0,0,0,.4-.073.3.3,0,0,0,.163-.127.573.573,0,0,1-.127.345.5.5,0,0,1-.327.127c-.254,0-.327-.127-.345-.181l-.4.036a.413.413,0,0,0,.145.254.844.844,0,0,0,.563.2.828.828,0,0,0,.817-.435,1.253,1.253,0,0,0,.073-.454.912.912,0,0,0-.236-.6" transform="translate(-92.25 -44.529)" fill="#2f2f2f"/>
    <path id="패스_2151" data-name="패스 2151" d="M115.245,56.526c-.127,0-.345-.036-.345-.254,0-.181.163-.254.363-.272.145,0,.417.018.417.254-.018.218-.236.272-.435.272" transform="translate(-94.051 -45.839)" fill="#d9d9d9"/>
    <path id="패스_2152" data-name="패스 2152" d="M105.69,54.7a.64.64,0,0,1-.49.236v.29a1.355,1.355,0,0,0,.454-.127v1.2h.4V54.7Z" transform="translate(-86.111 -44.775)" fill="#2f2f2f"/>
    <path id="패스_2153" data-name="패스 2153" d="M133.844,55.063a.65.65,0,0,0-.526.2.451.451,0,0,1,.145-.363.468.468,0,0,1,.29-.109.351.351,0,0,1,.345.181l.417-.036a.545.545,0,0,0-.109-.2.8.8,0,0,0-.635-.236.821.821,0,0,0-.871.871.735.735,0,0,0,.835.8.851.851,0,0,0,.6-.2.531.531,0,0,0,.163-.381c.018-.272-.2-.526-.653-.526" transform="translate(-108.785 -44.611)" fill="#2f2f2f"/>
    <path id="패스_2154" data-name="패스 2154" d="M135.681,59.626a.435.435,0,0,1-.345-.127.244.244,0,0,1-.036-.145c0-.145.145-.254.345-.254.163,0,.417.036.417.254.018.218-.181.272-.381.272" transform="translate(-110.75 -48.376)" fill="#d9d9d9"/>
    <path id="패스_2155" data-name="패스 2155" d="M123.6,55.625c.363-.127.544-.181.653-.327a.57.57,0,0,0,.109-.29c0-.49-.6-.508-.762-.508a1.1,1.1,0,0,0-.508.109.568.568,0,0,0-.236.454h.4a.29.29,0,0,1,.054-.145c.054-.091.145-.109.272-.109.109,0,.327.018.327.2,0,.145-.109.181-.218.236-.109.036-.2.073-.308.109a.848.848,0,0,0-.454.308.8.8,0,0,0-.127.472h1.524v-.308h-1.052c.054-.091.109-.127.327-.2" transform="translate(-100.518 -44.611)" fill="#2f2f2f"/>
  </g>
</svg>
