<svg xmlns="http://www.w3.org/2000/svg" width="100" height="51.399" viewBox="0 0 100 51.399">
  <g id="Purdue_University_Fort_Wayne_logo" transform="translate(-290.536 825.608)">
    <g id="그룹_46" data-name="그룹 46" transform="translate(290.536 -825.608)">
      <path id="패스_2112" data-name="패스 2112" d="M.936.873V2.321H1.5c1.679,0,2.14.691,2.14,2.5V17.1c0,1.81-.461,2.5-2.14,2.5H.936v1.448c1.514-.066,3-.066,4.509-.066s3.028,0,4.542.066V19.6H9.461c-1.712,0-2.173-.658-2.173-2.5V12.292h2.7c4.9,0,7.273-1.711,7.273-5.693,0-3.95-2.567-5.726-7.865-5.726H.936ZM7.288,2.781H9.3c2.9,0,4.409,1.316,4.409,3.753,0,2.7-1.447,3.982-4.442,3.982H7.288V2.781ZM18.456,4.907V6.066h.423c1.158,0,1.448.632,1.448,2v7.4c0,3.923,2.184,5.951,6.37,5.951,4.449,0,6.24-1.949,6.24-6.319V8.067c0-1.4.317-2,1.448-2h.475V4.907c-1.028.027-2.081.053-3.134.053-1.079,0-2.159-.026-3.291-.053V6.066h.422c1.527,0,1.817.526,1.817,2.08v7.108c0,2.948-.948,4.318-3.713,4.318-2.817,0-3.738-1.37-3.738-4.371V8.067c0-1.5.264-2,1.712-2h.447V4.907c-1.132.027-2.264.053-3.422.053s-2.319-.026-3.5-.053Zm51.554,0V6.066h.423c1.159,0,1.448.632,1.448,2v7.4c0,3.923,2.184,5.951,6.372,5.951,4.448,0,6.239-1.949,6.239-6.319V8.067c0-1.4.316-2,1.449-2h.472V4.907c-1.028.027-2.08.053-3.132.053-1.081,0-2.159-.026-3.292-.053V6.066h.423c1.526,0,1.816.526,1.816,2.08v7.108c0,2.948-.949,4.318-3.712,4.318-2.818,0-3.739-1.37-3.739-4.371V8.067c0-1.5.264-2,1.712-2h.447V4.907c-1.132.027-2.265.053-3.423.053s-2.318-.026-3.5-.053Zm-33.68,0V6.066h.423c1.343,0,1.737.553,1.737,2v9.821c0,1.474-.369,2-1.737,2h-.423v1.157c1.212-.052,2.4-.051,3.607-.051s2.423,0,3.635.051V19.889h-.448c-1.343,0-1.711-.527-1.711-2V13.727h1.474c2.186,0,2.685.632,3.291,2.369a44.013,44.013,0,0,0,1.316,4.949h4.344V19.889h-.263c-1.343,0-1.791-.791-2.238-2.607-.632-2.527-.79-3.975-2.818-4.317A3.7,3.7,0,0,0,49.469,9.2c0-3.054-2.053-4.291-6.372-4.291H36.331Zm16.429,0V6.066h.421c1.343,0,1.737.553,1.737,2v9.821c0,1.447-.394,2-1.737,2H52.76v1.157h7.713c5.977,0,8.9-2.685,8.9-8.267,0-5.343-3.055-7.871-9.321-7.871H52.76Zm35.1.079v1.08h.447c1.369,0,1.712.552,1.712,2v9.821c0,1.447-.316,2-1.712,2h-.553v1.158h13.138V16.23H99.577c-.025,2.9-.447,3.212-2.921,3.212H92.943v-6h1.29c1.923,0,2.395.186,2.422,2.16H97.84V9.857H96.628c0,2.027-.447,2.16-2.447,2.16H92.943V6.567H96.76c2.106,0,2.686.158,2.686,2.21V9.2h1.341V4.986H87.861ZM57.842,6.435h1.843c4.449,0,6.556,1.948,6.556,6.319,0,4.607-2.054,6.74-6.423,6.74H57.842V6.435Zm-16.428.027H43.1c2.476,0,3.581.9,3.581,3.027,0,2.053-1.291,2.844-3.949,2.844H41.414V6.461ZM16.139,40.525c-3.823,0-5.38,1.889-5.4,5.865.015,3.993,1.556,5.882,5.4,5.882s5.381-1.889,5.4-5.882C21.52,42.414,19.962,40.525,16.139,40.525ZM.925,40.747h0v.618l.759.065c.557.036.623.387.623.6v8.017h0v.45a1.453,1.453,0,0,1-.089.582.741.741,0,0,1-.27.326,1,1,0,0,1-.4.145,1.909,1.909,0,0,1-.378.036H.925v.572h4.7v-.572H5.274a2.851,2.851,0,0,1-.477-.039.977.977,0,0,1-.4-.162.8.8,0,0,1-.266-.349,1.585,1.585,0,0,1-.1-.6v-.543h0v-3H5.752c.352,0,.507.089.507.418a12.156,12.156,0,0,1-.085,1.3H7.19c-.028-.7-.085-1.421-.085-2.124s.056-1.42.085-2.123H6.174a10.04,10.04,0,0,1,.085,1.226c0,.329-.155.419-.507.419H4.038V41.513H4.52c2.973,0,3.728.072,4.037,1.166l.361,1.642H9.932V40.746H.925Zm78.239,0v.614c1.421.088,1.455.123,1.455,1.052v3.776s0,0,0,0v3.3a7.674,7.674,0,0,1-.066,1.172,1,1,0,0,1-.254.566,1.926,1.926,0,0,1-.783.355v.572h3.442v-.572a2.692,2.692,0,0,1-.632-.243.88.88,0,0,1-.292-.3,1.621,1.621,0,0,1-.141-.495,10.441,10.441,0,0,1-.038-1.051V47.508l0-4.7c2.213,3.132,4.326,6.166,6.531,9.353h1.245V44.236a16.314,16.314,0,0,1,.1-2.1c.106-.72.526-.7,1.386-.773v-.613H86.916v.613c.982.07,1.613.018,1.717.754a16.417,16.417,0,0,1,.106,2.122v5.42l-.018-.036c-2.14-2.982-4.436-6.366-6.172-8.874H79.164Zm12.81,0v.616l.586.059c.535.072.745.133.745.741v8.2l0,0v.151a1.347,1.347,0,0,1-.1.566.756.756,0,0,1-.271.325,1.017,1.017,0,0,1-.4.144,3.091,3.091,0,0,1-.479.036H91.7v.572h9.22v-3.4h-.794l-.4,1.509c-.346,1.037-.673,1.164-3.818,1.164h-.658V46.84H97c.354,0,.51.09.51.418a12.237,12.237,0,0,1-.085,1.3h1.021c-.029-.7-.085-1.416-.085-2.118s.057-1.416.085-2.118H97.421a10.129,10.129,0,0,1,.085,1.223c0,.328-.156.418-.51.418h-1.74V41.511h.709c2.989,0,3.266.091,3.559,1.165l.4,1.637h1V40.747h-8.95Zm-70.532,0v.614c1.438.088,1.456.121,1.456,1.051v7.762a3.865,3.865,0,0,1-.046.488,1.107,1.107,0,0,1-.148.4.768.768,0,0,1-.237.245,1.419,1.419,0,0,1-.366.155q-.227.065-.524.123v.572H26.1v-.572a4.166,4.166,0,0,1-.712-.18.965.965,0,0,1-.365-.263,1.228,1.228,0,0,1-.2-.457,3.726,3.726,0,0,1-.059-.749l-.022-.991v-2.2h1.035a2.576,2.576,0,0,1,.906.158l.029.017a1.7,1.7,0,0,1,.443.465,9.206,9.206,0,0,1,.623,1.039l.829,1.549q.311.585.633,1.152a8.063,8.063,0,0,0,.679,1.032h2.613v-.571a1.806,1.806,0,0,1-.727-.26,2.314,2.314,0,0,1-.537-.538,5.635,5.635,0,0,1-.633-.879l-.849-1.522a6.334,6.334,0,0,0-.915-1.336,2.69,2.69,0,0,0-.981-.668v-.051a2.818,2.818,0,0,0,2.358-2.761c0-1.526-.771-2.823-3.577-2.823H21.442Zm9.95,0v2.861h.936a7.06,7.06,0,0,1,.379-1.085,2.2,2.2,0,0,1,.454-.666,1.194,1.194,0,0,1,.529-.312,3.077,3.077,0,0,1,.736-.074h1.026V49.91a3.683,3.683,0,0,1-.057.747,1.131,1.131,0,0,1-.142.4.76.76,0,0,1-.227.246,1.291,1.291,0,0,1-.35.157q-.217.065-.5.123v.572H38.5v-.572a3.783,3.783,0,0,1-.681-.181.932.932,0,0,1-.35-.263,1.283,1.283,0,0,1-.19-.461,4.124,4.124,0,0,1-.056-.772V41.471h1.057a2.529,2.529,0,0,1,.775.089,1.375,1.375,0,0,1,.492.3,2.124,2.124,0,0,1,.425.625,6.821,6.821,0,0,1,.416,1.118h.927V40.747H31.392Zm20.829,0c-.736,2.6-1.648,6.231-2.472,9.23h-.036c-.894-2.894-1.56-5.314-2.174-7.874-.141-.544-.088-.615.245-.649l.895-.088v-.613H44.4v.613c.947.053,1.1.122,1.367,1.052.964,3.279,1.824,6.436,2.7,9.733h1.454c.738-2.438,1.878-6.576,2.509-8.715h.036c.946,3,1.77,5.838,2.594,8.715h1.118a.025.025,0,0,0,0-.007H56.7l3.311-10.172c.232-.544.491-.547,1.34-.606v-.613H57.531v.613l1.141.105c.306.033.3.312.207.621h0L56.3,50.011c-.1-.324-1.9-6.381-2.748-9.264H52.221Zm11.12,0c-1.157,3.261-2.385,6.769-3.612,9.926-.263.683-.4.86-1.42.912v.574H61.99v-.574l-.893-.071c-.457-.052-.457-.193-.387-.421.28-.982.649-1.981,1.035-3.156h3.63c.175.421.772,2.122,1.035,2.91.176.457.088.649-.421.684l-.806.054v.572h4.4v-.572c-.895-.069-1.069-.089-1.368-.931-.877-2.437-2.525-7.154-3.455-9.907H63.341Zm4.128,0v.613c.878.035,1.053.123,1.456.824.947,1.666,1.981,3.561,2.823,5.14a2.1,2.1,0,0,1,.245,1v1.611a6.226,6.226,0,0,1-.053.7,1.123,1.123,0,0,1-.146.4.774.774,0,0,1-.233.247,1.34,1.34,0,0,1-.36.157c-.149.043-.321.086-.515.123v.572h4.44v-.572a4.028,4.028,0,0,1-.7-.181.966.966,0,0,1-.36-.263,1.247,1.247,0,0,1-.194-.46,4.052,4.052,0,0,1-.059-.773v-.021h0V48.218a1.932,1.932,0,0,1,.21-.982c.842-1.684,2.053-4.017,2.6-4.894.544-.895.6-.93,1.684-.983v-.613H74.59v.613l.982.088c.264.018.245.211.157.456-.4,1-1.386,3.087-2.334,4.894h-.034c-.93-1.684-1.876-3.333-2.595-4.824-.157-.3-.106-.491.14-.508l1-.106v-.613H67.469Zm-51.33.467c2.807,0,3.3,2.153,3.3,5.175s-.492,5.175-3.3,5.191c-2.808-.016-3.3-2.168-3.3-5.191S13.332,41.215,16.139,41.215Zm9.6.251c1.192,0,2.561.017,2.561,2.263,0,1.666-.807,2.3-2.316,2.3H24.738V42.274C24.738,41.589,24.685,41.466,25.737,41.466Zm37.8,1.123h.052c.351.982,1.193,3.455,1.543,4.612h-3.14c.508-1.631,1.071-3.209,1.544-4.612Z" transform="translate(-0.924 -0.873)" fill="#d9d9d9"/>
      <path id="패스_2113" data-name="패스 2113" d="M.923,56.261v.949h100v-.949H.923ZM68.328,59.8c-1.352,0-2.092.6-2.092,1.542,0,.686.414,1.073,1.248,1.434l1.006.431c.422.18.6.369.6.739,0,.515-.352.8-1,.8-.8,0-1.212-.343-1.212-1.022,0-.035.009-.078.009-.122h-.629V65.09a8.535,8.535,0,0,0,1.893.225c1.392,0,2.14-.577,2.14-1.573a1.48,1.48,0,0,0-1.118-1.394l-1.092-.437c-.456-.181-.662-.388-.662-.759,0-.455.387-.773,1.007-.773.713,0,1.039.293,1.039.946a1.169,1.169,0,0,1-.009.172h.663V60.043a7.722,7.722,0,0,0-1.8-.242Zm-66.685.121v.456h.1c.344,0,.421.223.421.67v2.436c0,1.22.7,1.831,2.116,1.831,1.513,0,2.107-.638,2.107-2.049V61.048c0-.455.12-.67.43-.67h.128v-.456c-.344.008-.688.017-1.049.017s-.7-.008-1.075-.017v.456h.1c.438,0,.549.2.549.67v2.3c0,.834-.327,1.229-1.108,1.229-.809,0-1.075-.386-1.075-1.212V61.048c0-.5.086-.67.558-.67h.1v-.456c-.37.008-.757.017-1.145.017s-.774-.008-1.169-.017Zm11.327,0v.456h.1c.439,0,.558.2.558.671v3.011c0,.473-.12.679-.558.679h-.1v.456c.377-.017.748-.017,1.117-.017s.74,0,1.11.017v-.456h-.1c-.447,0-.551-.206-.551-.679l-.017-3.165,2.021,4.3h1.461V61.049c0-.473.111-.671.55-.671h.1v-.456c-.378.009-.749.017-1.127.017s-.731-.008-1.1-.017v.456h.1c.447,0,.55.2.55.671l.026,3.19-2.021-4.316H12.97Zm11.807,0v.456h.1c.44,0,.55.2.55.67v3.011c0,.473-.11.679-.55.679h-.1v.455c.413-.017.826-.017,1.239-.017s.818,0,1.23.017v-.455h-.112c-.439,0-.551-.206-.551-.679V61.048c0-.473.112-.67.551-.67h.112v-.456c-.413.008-.826.017-1.23.017S25.19,59.93,24.777,59.922Zm8.385,0v.456c.293.026.413.206.55.585l1.6,4.318h1.246l1.548-4.353c.112-.327.242-.489.551-.55v-.456c-.309.008-.644.017-1,.017s-.74-.008-1.152-.017v.456c.421,0,.62.086.62.31a.81.81,0,0,1-.035.225l-1.11,3.344-1.161-3.362a.745.745,0,0,1-.051-.232c0-.241.182-.266.62-.284v-.456c-.473.008-.9.017-1.273.017s-.688-.008-.954-.017Zm21.948,0v.456h.1c.438,0,.55.2.55.671v3.011c0,.473-.113.679-.55.679h-.1v.456c.413-.017.826-.017,1.238-.017s.818,0,1.231.017v-.456h-.112c-.438,0-.55-.206-.55-.679v-1.2h.412c.473,0,.74.137.859.482a16.168,16.168,0,0,0,.509,1.848h1.582v-.456h-.043a.67.67,0,0,1-.551-.224,3.446,3.446,0,0,1-.352-1.1c-.146-.541-.267-.791-.757-.86a1.141,1.141,0,0,0,.93-1.211c0-1.042-.706-1.42-2.21-1.42H55.11Zm21.4,0v.456h.1c.438,0,.55.2.55.67v3.011c0,.473-.113.679-.55.679h-.1v.455c.414-.017.825-.017,1.238-.017s.816,0,1.23.017v-.455h-.112c-.439,0-.551-.206-.551-.679V61.048c0-.473.111-.67.551-.67h.112v-.456c-.414.008-.826.017-1.23.017S76.92,59.93,76.506,59.922Zm8.539,0v1.591h.543a1.885,1.885,0,0,1-.01-.223c0-.577.2-.732.775-.732h.463v3.5c0,.473-.11.679-.549.679h-.181v.455c.44-.017.879-.017,1.316-.017s.87,0,1.308.017v-.455h-.181c-.439,0-.551-.206-.551-.679v-3.5h.379c.636,0,.824.137.824.817v.138h.568V59.922c-.92,0-1.471.017-1.65.017H86.646c-.172,0-.706-.017-1.6-.017Zm10.553,0v.456c.351.018.525.215.73.568l1.2,2.09v1.084c0,.455-.094.619-.584.619h-.121v.455c.422-.017.843-.017,1.255-.017s.834,0,1.239.017v-.455H99.2c-.5,0-.585-.164-.585-.619V63.052l1.283-2.1c.231-.378.393-.576.669-.576h.035v-.456c-.336.008-.679.017-1.024.017s-.7-.008-1.075-.017v.456c.291,0,.421.077.421.276a.8.8,0,0,1-.094.326L98.16,62.3l-.67-1.359a.749.749,0,0,1-.1-.31c0-.172.121-.249.4-.249h.044v-.456c-.388.008-.774.017-1.144.017s-.732-.008-1.083-.017Zm-51.024.017v.439h.1c.438,0,.55.2.55.67v3.011c0,.455-.086.679-.55.679h-.1v.455h4.317v-1.65H48.41c-.017.92-.206,1.031-1.065,1.031H46.38V62.751h.336c.533,0,.662.1.688.67h.465V61.513H47.4c-.01.585-.155.688-.722.688h-.3V60.558h1.058c.636,0,.92.1.92.6v.233h.49V59.939H44.575Zm12.343.621h.439c.722,0,1.048.241,1.048.894,0,.628-.344.851-1.093.851h-.394V60.559Z" transform="translate(-0.923 -33.928)" fill="#d9d9d9"/>
    </g>
  </g>
</svg>
