<svg xmlns="http://www.w3.org/2000/svg" width="55.246" height="25" viewBox="0 0 55.246 25">
  <g id="SRI" transform="translate(-83.51 -20.82)">
    <path id="패스_2131" data-name="패스 2131" d="M159.26,21.59h6.86V45.563h-6.86Z" transform="translate(-27.364 -0.278)" fill="#d9d9d9"/>
    <path id="패스_2132" data-name="패스 2132" d="M136.994,36.748l6.643,8.815h-8.119L129.29,37.3h0v8.266h-6.86V21.59h10.8c5.857,0,9.594,3.315,9.594,8.2a6.539,6.539,0,0,1-5.832,6.956Zm-4.8-9.735H129.29v5.142H132.2c1.935,0,3.283-.715,3.283-2.574s-1.348-2.568-3.283-2.568Z" transform="translate(-14.059 -0.278)" fill="#d9d9d9"/>
    <path id="패스_2133" data-name="패스 2133" d="M98.131,28.849S98.055,26.1,94.561,26.1c-1.942,0-3.13.8-3.13,2.025S92.095,30,97.045,30.81s8.719,2.581,8.719,7.275-3.551,7.882-11.249,7.729c-10.744-.217-11.006-8-11.006-8h7.582a3.391,3.391,0,0,0,3.564,2.734c2.644.057,3.52-.747,3.52-1.872,0-1.891-2.325-2.172-5.519-2.708-4.733-.792-8.764-2.766-8.764-7.371,0-1.2.147-7.78,10.674-7.78s10.712,8.023,10.712,8.023H98.138Z" fill="#d9d9d9"/>
  </g>
</svg>
