<svg xmlns="http://www.w3.org/2000/svg" width="100" height="44.509" viewBox="0 0 100 44.509">
  <g id="stanford-university-vector-logo" transform="translate(-20.8 -187.6)">
    <path id="패스_2124" data-name="패스 2124" d="M47.212,208.48c-3.566,0-3.849-2.716-3.849-3.516A3.521,3.521,0,0,1,45.9,201.4c2.316-.85,2.816-.95,4.466-1.466v-.4a3.339,3.339,0,0,0-.183-1.466,2.365,2.365,0,0,0-2.433-1.533,2.928,2.928,0,0,0-2.666,1.65l-.667-.4c.4-1.466,1.916-2.933,4.516-2.933,1.8,0,3.049.517,3.783,1.65a6.722,6.722,0,0,1,.617,3.4c0,1.133-.067,2.383-.067,3.4,0,.667-.067,1.316-.067,1.683,0,.917.183,1.65.917,1.65.333,0,.4-.117.667-.283l.4.517a3.324,3.324,0,0,1-2.783,1.65,2.044,2.044,0,0,1-2.05-1.35A3.87,3.87,0,0,1,47.212,208.48Zm3.149-6.916a14.365,14.365,0,0,0-2.883,1.066,2.121,2.121,0,0,0-1.133,2.083,1.769,1.769,0,0,0,1.983,1.916,3.719,3.719,0,0,0,2.083-.617v-4.466h-.05ZM20.917,207.78c0-1.316,0-2.433-.117-3.783h.8a2.54,2.54,0,0,0,.617,1.866,4.5,4.5,0,0,0,3.049,1.017c2.483,0,3.666-.95,3.666-3,0-1.75-1.066-2.483-2.533-3.516l-.217-.183L24.6,199.115c-2.2-1.466-3.333-2.6-3.333-4.916,0-1.133.45-4.866,5.932-4.866a35.284,35.284,0,0,1,4.3.333c0,.183-.067,1.016-.067,1.75,0,.85,0,1.066.067,2.083h-.667a2.508,2.508,0,0,0-.667-1.866,4.5,4.5,0,0,0-2.933-.8c-2.933,0-3.266,1.466-3.266,2.6,0,1.533.8,2.083,2.533,3.216l1.983,1.316c1.683,1.133,3.266,2.2,3.266,5.033,0,4.749-4.466,5.249-6.332,5.249A9.62,9.62,0,0,1,20.917,207.78ZM56.411,195.7a10.41,10.41,0,0,0,2.666-.183,7.483,7.483,0,0,0,1.75-.55l.283.183v1.016a6.3,6.3,0,0,1,3.849-1.25c2.383,0,3.916,1.133,4.349,3.116a14.587,14.587,0,0,1,.183,2.383v3.849c0,2.15.117,2.783.517,3.166a2.074,2.074,0,0,0,1.316.4v.617c-.85-.067-2.383-.117-3.266-.117-1.183,0-2.533.067-3.266.117v-.617a2.752,2.752,0,0,0,1.316-.45c.4-.4.45-1.133.517-2.783,0-.517.067-1.533.067-2.266a26.367,26.367,0,0,0-.117-3,2.463,2.463,0,0,0-2.783-2.483,5.413,5.413,0,0,0-2.483.55v6.9c0,2.15.117,2.783.517,3.166a2.172,2.172,0,0,0,1.25.4v.617c-1.066-.067-2.383-.117-3.216-.117-1.75,0-2.316.067-3.333.117v-.65a1.959,1.959,0,0,0,1.416-.55c.4-.45.45-1.583.45-3.783v-3.916a6.022,6.022,0,0,0-.283-2.666c-.183-.283-.617-.517-1.533-.517v-.733h-.117v.033Zm16.347,12.048a1.833,1.833,0,0,0,1.416-.55c.4-.45.45-1.583.45-3.783v-6.582H72.941V196.1a5.878,5.878,0,0,0,1.683-.917,24.224,24.224,0,0,1,.217-3.516c.517-2.716,2.266-4.066,5.249-4.066a5.6,5.6,0,0,1,3.333,1.066l.067.283-1.316,1.8H81.84a2.355,2.355,0,0,0-2.316-1.683,2.036,2.036,0,0,0-1.316.45c-.55.55-.667,1.416-.667,3.116v2.533h2.933v1.65H77.541v7.3a7.282,7.282,0,0,0,.283,2.933c.333.55,1.533.617,2.083.617v.667c-.95-.067-2.483-.117-3.566-.117-1.65,0-2.716.067-3.566.117l-.017-.583Zm15.147.833c-4,0-6.382-2.483-6.382-6.666,0-3.266,1.75-7.065,6.666-7.065,4,0,6.382,2.483,6.382,6.666C94.571,204.78,92.8,208.58,87.905,208.58Zm.167-12.215a2.707,2.707,0,0,0-1.866.617c-1.066.917-1.583,2.483-1.583,4.8,0,.917.183,5.316,3.4,5.316a2.707,2.707,0,0,0,1.866-.617c1.066-.917,1.583-2.483,1.583-4.8C91.455,200.781,91.3,196.365,88.072,196.365Zm7.849-.733a13.387,13.387,0,0,0,2.883-.217,4.456,4.456,0,0,0,1.583-.45l.217.117v1.133a4.288,4.288,0,0,1,3.049-1.25,3.368,3.368,0,0,1,2.316.8v.4l-1.133,2.05h-.55a2.661,2.661,0,0,0-3.616-.783v6.732a7.019,7.019,0,0,0,.283,2.883c.333.55,1.466.617,2.083.55v.733c-.917-.067-2.483-.117-3.566-.117a34.267,34.267,0,0,0-3.566.117v-.667a1.9,1.9,0,0,0,1.416-.55c.4-.45.45-1.533.45-3.783v-3.666c0-1.65,0-2.316-.283-2.666-.217-.283-.667-.45-1.533-.45v-.85l-.033-.067Zm18.5-7.232a21.728,21.728,0,0,0,3.116-.4,13.283,13.283,0,0,0,1.416-.333l.217.117c-.117,1.066-.117,3.516-.117,5.249v10.732a8.506,8.506,0,0,0,.217,2.933,1.824,1.824,0,0,0,1.533.517v.667a17.892,17.892,0,0,0-2.816.283,8.582,8.582,0,0,0-1.466.333l-.333-.117v-1.133a5.965,5.965,0,0,1-3.666,1.25c-3.616,0-5.932-2.483-5.932-6.382a9.126,9.126,0,0,1,.667-3.566,6.589,6.589,0,0,1,6.266-3.733,14.693,14.693,0,0,1,2.533.217v-2.783c0-1.65,0-2.483-.283-2.883-.183-.283-.45-.4-1.416-.45v-.533h.067Zm-.467,18.247a3.621,3.621,0,0,0,2.15-.517v-8.8a3.576,3.576,0,0,0-2.6-.917c-2.533,0-3.783,1.75-3.783,5.382C109.669,203.314,110.118,206.647,113.951,206.647Zm-71.888.4A4.243,4.243,0,0,1,38.5,208.58c-2.05,0-3.166-.733-3.666-2.383a10.552,10.552,0,0,1-.217-2.666c0-2.083,0-3.783.067-5.766v-.917H32.915v-.517a7,7,0,0,0,1.65-.917A9.129,9.129,0,0,0,37,192.249h.55v2.933h4.466v1.65H37.547v6.9c0,2.083.4,3.216,2.316,3.216a3.24,3.24,0,0,0,1.866-.517Z" transform="translate(0 0)" fill="#d9d9d9"/>
    <path id="패스_2125" data-name="패스 2125" d="M157.871,357.383a1.033,1.033,0,0,0-.667.217.413.413,0,0,0-.183.4,2.794,2.794,0,0,0,.217.85l1.25,3.266c.183.517.333.917.4,1.183l1.533-4.466a2.227,2.227,0,0,0,.217-.85.486.486,0,0,0-.183-.333,1.221,1.221,0,0,0-.667-.217v-.517a2.734,2.734,0,0,1,.733.067c.183,0,.517.067.8.067.55,0,1.35-.067,1.683-.067v.517c-.217.067-.733-.067-1.183,1.25l-3.216,8.582c-.45,1.25-1.066,2.783-3.266,2.783a2.892,2.892,0,0,1-2.05-.667v-.217l.8-.95h.217a1.264,1.264,0,0,0,1.316.733c1.017,0,1.466-.917,2.15-2.716l.183-.517-2.7-7.049a.925.925,0,0,0-.117-.283c-.067-.183-.217-.517-.217-.517a.824.824,0,0,0-.8-.45v-.517a18.09,18.09,0,0,0,1.866.067,8.1,8.1,0,0,0,1.183-.067c.217,0,.617-.067.8-.067v.45H157.9v.033Zm-29.928-.117a6.238,6.238,0,0,0,1.8-.183,5.523,5.523,0,0,0,1.017-.283l.183.067v.733a2.636,2.636,0,0,1,1.916-.8,2.067,2.067,0,0,1,1.466.517v.283l-.667,1.316h-.333a1.449,1.449,0,0,0-1.416-.733,1.846,1.846,0,0,0-.917.283v4.249a5.01,5.01,0,0,0,.183,1.866c.217.333.917.4,1.316.4v.45c-.55-.067-1.583-.067-2.266-.067a13.611,13.611,0,0,0-2.266.117v-.45a1.38,1.38,0,0,0,.917-.333c.283-.283.283-.95.283-2.433v-2.383c0-1.016,0-1.466-.183-1.683-.117-.183-.45-.283-.95-.283V357.3h-.083v-.033Zm-37.627,8.2c-2.383,0-3.783-.733-4.3-2.316a8.146,8.146,0,0,1-.283-2.6v-4.516c0-1.35-.067-1.583-.333-1.8a1.64,1.64,0,0,0-.8-.283v-.45c.55.067,1.533.117,2.083.117a11.358,11.358,0,0,0,2.15-.117v.517a1.289,1.289,0,0,0-.917.333c-.283.283-.283.8-.283,2.266v4c0,2.383.217,3.916,2.883,3.916,2.716,0,2.883-1.583,2.883-4v-4.4c0-1.35-.067-1.583-.333-1.8a2.319,2.319,0,0,0-.8-.283v-.45c.517,0,1.183.067,1.866.067a11.994,11.994,0,0,0,1.983-.117v.517a1.289,1.289,0,0,0-.917.333c-.283.283-.283.8-.283,2.266v3.4a10.205,10.205,0,0,1-.333,3.216C94.048,364.731,92.682,365.465,90.316,365.465Zm16.114-.517a1.561,1.561,0,0,0,.95-.333c.283-.283.283-.95.283-2.433V359.8c0-1.017,0-1.533-.183-1.75-.117-.183-.333-.283-.95-.333V357.2a8.072,8.072,0,0,0,1.916-.183,5.429,5.429,0,0,0,.917-.283l.183.183c-.067.55-.067,1.75-.067,3.333v2.433a5.01,5.01,0,0,0,.183,1.866,1.287,1.287,0,0,0,1.016.4v.4a18.308,18.308,0,0,0-2.05-.067c-.85,0-1.75.067-2.2.117v-.45Zm2.083-9.665a.968.968,0,0,1-1.066-1.017,1.051,1.051,0,0,1,1.133-1.066.968.968,0,0,1,1.066,1.016A1.042,1.042,0,0,1,108.513,355.283Zm33.644,9.665a1.562,1.562,0,0,0,.95-.333c.283-.283.283-.95.283-2.433V359.8c0-1.017,0-1.533-.183-1.75-.117-.183-.333-.283-.95-.333V357.2a8.072,8.072,0,0,0,1.916-.183,4,4,0,0,0,.917-.283l.183.183c-.067.55-.067,1.75-.067,3.333v2.433a5.01,5.01,0,0,0,.183,1.866,1.287,1.287,0,0,0,1.017.4v.4a19.583,19.583,0,0,0-2.083-.067c-.85,0-1.75.067-2.2.117v-.45Zm2.083-9.665a.968.968,0,0,1-1.066-1.017,1.051,1.051,0,0,1,1.133-1.066.968.968,0,0,1,1.066,1.016A1.033,1.033,0,0,1,144.24,355.283Zm-8.932,9.782c0-.85-.067-1.75-.117-2.2h.55a1.542,1.542,0,0,0,.333,1.066,1.667,1.667,0,0,0,1.466.55h.117c.917,0,1.416-.4,1.416-1.183,0-.617-.4-.917-1.066-1.316l-1.183-.733a2.424,2.424,0,0,1-1.35-2.15,2.185,2.185,0,0,1,1.183-2.083,3.836,3.836,0,0,1,1.683-.283,14.682,14.682,0,0,1,2.2.217,5.213,5.213,0,0,0-.067,1.017,6.467,6.467,0,0,0,.067,1.133h-.55a1.569,1.569,0,0,0-.333-.95,1.745,1.745,0,0,0-1.35-.45c-.85,0-1.316.333-1.316,1.066,0,.55.45.85.85,1.133h.067l1.133.667a2.7,2.7,0,0,1,1.683,2.316c0,2.2-2.05,2.533-3.216,2.533A6.843,6.843,0,0,1,135.308,365.065Zm17.747-.55a2.92,2.92,0,0,1-2.266.95c-1.316,0-2.05-.45-2.316-1.533a8.017,8.017,0,0,1-.117-1.683v-4.216h-1.133V357.7a5.771,5.771,0,0,0,1.066-.55,6.932,6.932,0,0,0,1.583-2.05h.4v1.866h2.816v1.016h-2.816v4.4c0,1.316.217,2.083,1.466,2.083a2.176,2.176,0,0,0,1.183-.333Zm-38.227-7.582a3.523,3.523,0,0,0-.8.067c-.45,0-.917.067-1.25.067-.617,0-1.533-.067-1.8-.067v.517a.814.814,0,0,1,.85.517,2.672,2.672,0,0,1,.217.517.72.72,0,0,1,.117.283l2.716,6.782.85-.183,3-6.666c0-.067.067-.117.117-.217.067-.067.067-.183.283-.517a1.017,1.017,0,0,1,.85-.517V357c-.333,0-1.066.067-1.65.067a3.729,3.729,0,0,1-.85-.067c-.217,0-.55-.067-.8-.067v.45a1.125,1.125,0,0,1,.667.217.6.6,0,0,1,.183.333,3.7,3.7,0,0,1-.217.85l-1.65,4c-.067-.217-.183-.55-.333-1.016l-1.133-3a1.993,1.993,0,0,1-.217-.85c0-.117,0-.217.117-.283a1.033,1.033,0,0,1,.733-.283v-.45h0Zm-18.464.333a5.534,5.534,0,0,0,1.683-.117,7.146,7.146,0,0,0,1.133-.333l.183.117v.667a4.037,4.037,0,0,1,2.433-.8,2.564,2.564,0,0,1,2.783,1.983,10.265,10.265,0,0,1,.117,1.533v2.433c0,1.35.067,1.75.333,2.05a1.312,1.312,0,0,0,.8.217v.4c-.55,0-1.533-.067-2.083-.067a20.269,20.269,0,0,0-2.083.117v-.4a2.62,2.62,0,0,0,.85-.283c.217-.217.283-.733.333-1.75v-1.466a18.254,18.254,0,0,0-.067-1.916,1.559,1.559,0,0,0-1.75-1.583,3.746,3.746,0,0,0-1.583.333v4.433c0,1.35.067,1.75.333,2.05a1.312,1.312,0,0,0,.8.217v.4a9.2,9.2,0,0,0-2.15-.183,9.675,9.675,0,0,0-2.083.117v-.4a1.289,1.289,0,0,0,.917-.333,5.2,5.2,0,0,0,.283-2.433v-2.383c0-1.017,0-1.466-.183-1.683-.117-.183-.4-.333-.95-.283v-.633h-.05Zm27.462,8.2c-2.533,0-3.916-1.466-3.916-4.133,0-.45.117-4.583,3.949-4.583a2.906,2.906,0,0,1,2.6,1.25,3.888,3.888,0,0,1,.55,2.266v.517H121.76a5.44,5.44,0,0,0,.117,1.066,2.555,2.555,0,0,0,2.783,2.433,3.347,3.347,0,0,0,1.983-.517l.217.4A3.721,3.721,0,0,1,123.827,365.465Zm-2.033-5.649h3.266c0-1.016-.183-2.15-1.65-2.15C122.127,357.733,121.86,358.949,121.794,359.816Z" transform="translate(-53.168 -138.005)" fill="#d9d9d9"/>
  </g>
</svg>
