<svg id="US_ARMY" data-name="US ARMY" xmlns="http://www.w3.org/2000/svg" xmlns:xlink="http://www.w3.org/1999/xlink" width="40" height="53.463" viewBox="0 0 40 53.463">
  <defs>
    <clipPath id="clip-path">
      <rect id="사각형_106" data-name="사각형 106" width="40" height="53.463" fill="none"/>
    </clipPath>
  </defs>
  <g id="그룹_52" data-name="그룹 52" clip-path="url(#clip-path)">
    <path id="패스_2156" data-name="패스 2156" d="M2.485,0A2.392,2.392,0,0,0,.1,2.4V35.864a2.393,2.393,0,0,0,2.387,2.4H37.613A2.392,2.392,0,0,0,40,35.864V2.4A2.391,2.391,0,0,0,37.613,0H2.485ZM2.462,39.512A2.763,2.763,0,0,0,0,42.5v7.975a2.764,2.764,0,0,0,2.462,2.99H37.536A2.762,2.762,0,0,0,40,50.472V42.5a2.76,2.76,0,0,0-2.459-2.986Z" fill="#2f2f2f"/>
    <path id="패스_2157" data-name="패스 2157" d="M14.512,12.5a2.1,2.1,0,0,0-2.1,2.1V46.568a2.1,2.1,0,0,0,2.1,2.1H48.48a2.1,2.1,0,0,0,2.1-2.1V14.595a2.094,2.094,0,0,0-2.1-2.1Zm1.2,1.3H47.245a2.1,2.1,0,0,1,2.1,2.1V45.372a2.1,2.1,0,0,1-2.1,2.1H15.707a2.1,2.1,0,0,1-2.1-2.1V15.894A2.1,2.1,0,0,1,15.707,13.8ZM14.549,52.076a2.094,2.094,0,0,0-2.094,2.1v7.7a2.094,2.094,0,0,0,2.094,2.093H48.572a2.094,2.094,0,0,0,2.093-2.093v-7.7a2.1,2.1,0,0,0-2.093-2.1Zm.17,1.022H48.261a1.254,1.254,0,0,1,1.255,1.257v7.432a1.252,1.252,0,0,1-1.249,1.254H14.719a1.255,1.255,0,0,1-1.257-1.254V54.355A1.257,1.257,0,0,1,14.719,53.1M31.582,15.605,28.128,26.656l-11.805.063,9.546,6.591L22.35,44.361l9.168-6.591L41,44.424,37.421,33.31l9.168-6.591H35.158Zm-.063,3.83,2.385,8.6H42.57L35.662,33.06l3.016,8.1-7.285-5.212-6.532,5.023,2.575-8.225-6.656-4.772,8.413.063Z" transform="translate(-11.494 -11.57)" fill="#d9d9d9"/>
    <path id="패스_2158" data-name="패스 2158" d="M87.111,179.432l.019,6.311,1.376-.018V183.2H89.1l.018,2.525,1.3.018V183.2l-.651-.612.651-.592v-1.684l-.92-.879Zm1.394,1.205H89.1V182l-.594.018Zm-4.742-1.223-.842,6.291h1.415l.076-1.146H85.2l.115,1.146h1.4l-.9-6.291Zm1.013,1.356.325,2.584h-.574Zm-9.944,3.768-.019,1.187h1.4v-1.187Zm6.292-.018.018,1.184h1.377v-1.184Zm12.889-5.088-.5,3.022-.518-3H91.357l-.018,6.273H92.62v-4l.61,4h.554l.613-4v4h1.3l-.038-6.293Zm-16.121,0-.851.852v1.96l.9.9H79V184.5h-.574v-.8H77.013v1.128l.9.9H79.48l.918-.92v-1.93l-.937-.936H78.449v-1.32h.516l.019.821h1.358v-1.128l-.956-.879Zm18.273-.009,1.155,3.623.029,2.667h1.415v-2.667l1.178-3.623H98.567l-.508,2.2-.5-2.2Zm-23.571-.009v5.106h-.554v-5.088l-1.435-.016v5.427l.918.882h1.625l.88-.92v-5.391Zm12.817-32.545-1.738,6.43-6.291-.046,4.977,3.565-1.925,6.148,4.882-3.754,5.443,3.9-2.254-6.055,5.165-3.754h-6.48Z" transform="translate(-65.363 -135.963)" fill="#fff"/>
  </g>
</svg>
