<svg xmlns="http://www.w3.org/2000/svg" xmlns:xlink="http://www.w3.org/1999/xlink" width="37.332" height="45" viewBox="0 0 37.332 45">
  <defs>
    <clipPath id="clip-path">
      <rect id="사각형_104" data-name="사각형 104" width="37.332" height="45" fill="none"/>
    </clipPath>
  </defs>
  <g id="Windener_University" data-name="Windener University" transform="translate(0 0)">
    <g id="그룹_49" data-name="그룹 49" transform="translate(0 0)" clip-path="url(#clip-path)">
      <path id="패스_2126" data-name="패스 2126" d="M0,0V25.049C0,33.842,9.836,39.827,18.667,45c8.828-5.173,18.665-11.158,18.665-19.951V0ZM34.886,24.494c0,7.642-8.547,12.842-16.219,17.338-7.673-4.5-16.223-9.7-16.223-17.338V2.43H34.886Z" transform="translate(0 0)" fill="#d0d0d0"/>
      <rect id="사각형_103" data-name="사각형 103" width="18.622" height="2.4" transform="translate(9.356 10.679)" fill="#d0d0d0"/>
      <path id="패스_2127" data-name="패스 2127" d="M8.494,28.083c-.623,0-1.616,0-2.062.059-.088.029-.046-.28,0-.28.92-.106,1.322-.134,1.322-1.367V22.757c0-1.232-.4-1.278-1.322-1.381-.046,0-.088-.3,0-.268.446.06,1.44.06,2.062.06.446,0,1.425-.015,1.737-.06.088-.03.075.268.028.268-.965.089-1.305.222-1.305,1.381V26.5c0,1.159.34,1.277,1.305,1.367.046,0,.06.309-.028.28-.311-.045-1.291-.059-1.737-.059" transform="translate(-0.573 -1.896)" fill="#d0d0d0"/>
      <path id="패스_2128" data-name="패스 2128" d="M12.958,26.529c0-1.1.847-2.049,2.27-2.642-.948-.609-1.749-1.275-1.749-2.39a2.684,2.684,0,0,1,2.863-2.64,2.3,2.3,0,0,1,2.434,2.166c0,1.039-.623,1.738-1.84,2.39,1.053.653,2.048,1.394,2.048,2.7a2.931,2.931,0,0,1-3.146,2.864,2.661,2.661,0,0,1-2.88-2.448m1.143,0a1.9,1.9,0,0,0,1.914,1.988,1.759,1.759,0,0,0,1.945-1.765c0-1.276-1.143-1.916-2.257-2.582a2.445,2.445,0,0,0-1.6,2.359m.445-5.685c0,1.083.934,1.693,1.944,2.3A2.363,2.363,0,0,0,17.723,21.1a1.665,1.665,0,0,0-1.648-1.8,1.453,1.453,0,0,0-1.528,1.542" transform="translate(-1.164 -1.693)" fill="#d0d0d0"/>
      <path id="패스_2129" data-name="패스 2129" d="M27.188,28.128c-.475,0-1.484-.059-2.419-.059-1.276,0-2.167,0-3.1.059-.076,0-.194-.327-.119-.371,2.553-1.335,3.932-2.581,3.932-4.2a1.552,1.552,0,0,0-1.526-1.764,2.289,2.289,0,0,0-1.737.83c-.06.06-.238-.133-.178-.208a3.076,3.076,0,0,1,2.4-1.484,2.126,2.126,0,0,1,2.226,2.152c0,1.455-1.617,3.013-3.116,3.9h2.093c1.41,0,1.631-.117,1.72-1.008,0-.03.254-.044.254,0a10.678,10.678,0,0,1-.135,1.9c-.046.164-.119.253-.3.253" transform="translate(-1.933 -1.88)" fill="#d0d0d0"/>
      <path id="패스_2130" data-name="패스 2130" d="M32.1,28.083c-.623,0-1.617,0-2.062.059-.09.029-.046-.28,0-.28.918-.106,1.321-.134,1.321-1.367V22.757c0-1.232-.4-1.278-1.321-1.381-.046,0-.09-.3,0-.268.444.06,1.439.06,2.062.06.446,0,1.425-.015,1.737-.06.09-.03.075.268.03.268-.964.089-1.305.222-1.305,1.381V26.5c0,1.159.341,1.277,1.305,1.367.045,0,.06.309-.03.28-.311-.045-1.291-.059-1.737-.059" transform="translate(-2.694 -1.896)" fill="#d0d0d0"/>
    </g>
  </g>
</svg>
