<svg id="Close" xmlns="http://www.w3.org/2000/svg" width="40" height="40" viewBox="0 0 40 40">
  <path id="패스_353" data-name="패스 353" d="M0,0H40V40H0Z" fill="none"/>
  <path id="패스_354" data-name="패스 354" d="M33.945,6.077a2.2,2.2,0,0,0-3.121,0L20,16.879,9.176,6.055A2.207,2.207,0,0,0,6.055,9.176L16.879,20,6.055,30.824a2.207,2.207,0,0,0,3.121,3.121L20,23.121,30.824,33.945a2.207,2.207,0,0,0,3.121-3.121L23.121,20,33.945,9.176A2.218,2.218,0,0,0,33.945,6.077Z" transform="translate(0 0)" fill="#fff"/>
</svg>
