<?xml version="1.0" encoding="UTF-8"?>
<svg id="_레이어_1" data-name="레이어_1" xmlns="http://www.w3.org/2000/svg" version="1.1" viewBox="0 0 362.13 124.49">
  <!-- Generator: Adobe Illustrator 29.6.0, SVG Export Plug-In . SVG Version: 2.1.1 Build 207)  -->
  <defs>
    <style>
      .st0 {
        fill: #fff;
      }
    </style>
  </defs>
  <g id="Calque_2">
    <g id="Calque_1-2">
      <g>
        <polygon class="st0" points="36.32 2.62 36.53 2.5 32.09 4.74 37.37 15.17 42.08 12.78 36.32 2.62"/>
        <polygon class="st0" points="42.55 12.52 42.24 12.7 46.77 10.4 41.5 -.02 36.8 2.36 42.55 12.52"/>
      </g>
      <g>
        <polygon class="st0" points="58.62 2.39 53.35 12.81 53.34 12.81 58 15.17 63.28 4.74 58.62 2.39"/>
        <polygon class="st0" points="58.14 2.14 53.87 -.02 48.6 10.4 52.87 12.57 58.14 2.14"/>
      </g>
      <polygon class="st0" points="47.65 10.39 47.87 32.65 47.33 32.65 47.11 10.39 42.18 10.39 42.18 32.75 52.72 32.75 52.72 10.39 47.65 10.39"/>
      <g>
        <polygon class="st0" points="17.66 28.56 17.6 28.81 18.82 23.97 7.49 21.14 6.21 26.25 17.66 28.56"/>
        <polygon class="st0" points="6.09 26.77 6.16 26.45 4.93 31.36 16.26 34.2 17.54 29.08 6.09 26.77"/>
      </g>
      <polygon class="st0" points="25.35 7.79 20.5 9.77 24.93 20.58 24.43 20.78 20 9.98 15.59 11.78 20.01 22.59 29.77 18.6 25.35 7.79"/>
      <polygon class="st0" points="19.03 23.74 19.38 23.33 36.37 37.82 39.58 34.11 22.68 19.46 15.78 27.43 32.68 42.07 36.01 38.23 19.03 23.74"/>
      <polygon class="st0" points="15.51 60.33 7.26 68.34 6.88 67.95 15.15 59.92 11.87 56.21 3.11 63.93 10.09 71.84 18.84 64.11 15.51 60.33"/>
      <polygon class="st0" points="2.24 41.66 1.13 46.76 12.54 49.24 12.43 49.77 1.01 47.29 0 51.96 11.41 54.44 13.65 44.14 2.24 41.66"/>
      <path class="st0" d="M32,44.83l-21.64,5.62,2.65,10.2,21.64-5.62-2.65-10.2ZM11.79,55.9l-.14-.52,21.57-5.8.14.52-21.57,5.8Z"/>
      <polygon class="st0" points="74.5 9.47 71.09 20.52 70.58 20.37 73.99 9.29 69.5 7.66 65.53 18.64 75.44 22.23 79.41 11.25 74.5 9.47"/>
      <polygon class="st0" points="89.48 25.22 78.3 28.55 78.14 28.03 89.33 24.7 87.98 20.15 76.78 23.47 79.78 33.57 90.98 30.25 89.48 25.22"/>
      <path class="st0" d="M72.4,18.78l-16.26,15.35,7.24,7.66,16.26-15.35-7.24-7.66ZM60,38.21l-.37-.39,16.13-15.46.37.39-16.13,15.46Z"/>
      <g>
        <polygon class="st0" points="95.22 47.67 95.31 48.02 94.3 43.03 82.85 45.33 83.89 50.49 95.22 47.67"/>
        <polygon class="st0" points="95.34 48.2 84.01 51.02 83.95 50.79 84.93 55.66 96.38 53.36 95.34 48.2"/>
      </g>
      <g>
        <rect class="st0" x="80.8" y="61.38" width="5.22" height="11.68" transform="translate(-22.45 83.59) rotate(-47.66)"/>
        <rect class="st0" x="84.75" y="57.28" width="4.78" height="11.68" transform="translate(-18.21 85.02) rotate(-47.66)"/>
      </g>
      <path class="st0" d="M64.62,45.27l-2.81,10.16,21.55,5.97,2.81-10.16-21.55-5.97ZM63.13,50.7l.14-.52,21.57,5.8-.14.52-21.57-5.8Z"/>
      <path class="st0" d="M41.12,64.99s-1.26,40-22.66,59.52c0,0,18.89-18.08,20-59.72-.1-.73.4-1.4,1.13-1.51.12-.02.24-.02.35,0,1.49.08,1.18,1.71,1.18,1.71Z"/>
      <path class="st0" d="M55.48,64.99s1.26,40,22.66,59.52c0,0-18.89-18.08-20-59.72.1-.73-.4-1.4-1.13-1.51-.12-.02-.24-.02-.35,0-1.49.08-1.18,1.71-1.18,1.71Z"/>
      <path class="st0" d="M131.9,33.55v40.81h19.84v9h-30v-49.81h10.16Z"/>
      <path class="st0" d="M172.93,33.55v49.77h-10.31v-49.77h10.31Z"/>
      <path class="st0" d="M223.45,62.81c-1.03-1.73-2.45-3.2-4.16-4.27-1.44-.91-3-1.61-4.64-2.09,2.07-.81,3.91-2.11,5.35-3.81,1.47-1.85,2.24-4.15,2.17-6.51.05-1.92-.38-3.82-1.24-5.54-.83-1.57-2.03-2.91-3.49-3.91-1.61-1.1-3.4-1.89-5.29-2.35-2.21-.54-4.48-.8-6.76-.78h-16.61v49.77h17.57c3.31.06,6.6-.44,9.74-1.49,2.6-.86,4.88-2.48,6.54-4.66,1.65-2.36,2.48-5.19,2.37-8.07.06-2.2-.48-4.37-1.55-6.29ZM204.45,41.65c1.88-.11,3.73.43,5.26,1.53,1.29,1.04,2,2.64,1.92,4.3.08,2.29-1.27,4.39-3.38,5.27-1.2.5-2.5.74-3.8.71h-5.45v-11.81h5.45ZM213.28,71.99c-.8,1.11-1.91,1.95-3.2,2.42-1.47.54-3.03.81-4.59.78h-6.49v-14.34h6.54c1.2-.01,2.4.13,3.56.43,1.01.25,1.97.67,2.84,1.24.8.54,1.45,1.27,1.89,2.13.47.99.7,2.08.67,3.17.05,1.48-.38,2.94-1.22,4.17Z"/>
      <path class="st0" d="M249.08,33.55v49.77h-10.31v-49.77h10.31Z"/>
      <path class="st0" d="M264,47.99c1.26-3.08,3.14-5.86,5.52-8.18,2.4-2.32,5.24-4.15,8.35-5.37,6.72-2.56,14.15-2.56,20.87,0,3.1,1.24,5.94,3.06,8.35,5.37,2.41,2.31,4.32,5.09,5.59,8.18,1.33,3.31,1.99,6.85,1.95,10.41.03,3.55-.63,7.08-1.95,10.38-2.49,6.32-7.49,11.33-13.8,13.83-6.79,2.61-14.32,2.61-21.11,0-3.11-1.24-5.94-3.1-8.32-5.47-2.36-2.36-4.22-5.18-5.45-8.29-1.3-3.32-1.95-6.86-1.92-10.42-.06-3.57.6-7.12,1.92-10.44ZM274,64.99c.71,1.94,1.8,3.71,3.2,5.23,1.38,1.47,3.05,2.63,4.91,3.41,4.01,1.61,8.5,1.61,12.51,0,1.86-.78,3.53-1.94,4.91-3.41,1.4-1.51,2.48-3.27,3.2-5.2.78-2.09,1.16-4.31,1.14-6.54.02-2.21-.35-4.41-1.07-6.5-.66-1.94-1.73-3.73-3.13-5.23-1.38-1.47-3.05-2.63-4.9-3.41-4.07-1.61-8.59-1.61-12.66,0-1.86.78-3.53,1.94-4.91,3.41-1.39,1.49-2.47,3.24-3.2,5.14-1.52,4.23-1.52,8.87,0,13.1Z"/>
      <path class="st0" d="M335.43,71.37c1.18,1.32,2.59,2.42,4.16,3.24,1.52.78,3.2,1.18,4.91,1.17,1.23.03,2.46-.21,3.59-.71,2.01-.87,3.29-2.89,3.23-5.08.06-1.34-.36-2.66-1.17-3.73-.95-1.1-2.13-1.97-3.45-2.56-1.52-.73-3.39-1.53-5.62-2.38-1.23-.48-2.6-1.07-4.12-1.78-1.58-.75-3.05-1.7-4.37-2.84-1.41-1.2-2.58-2.64-3.45-4.27-.94-1.86-1.41-3.92-1.35-6-.07-2.63.71-5.21,2.21-7.37,1.5-2.1,3.54-3.76,5.9-4.8,2.65-1.17,5.52-1.76,8.42-1.71,2.81-.06,5.6.48,8.18,1.6,2.18.97,4.15,2.35,5.8,4.06,1.43,1.49,2.64,3.17,3.59,5l-8,4.55c-.7-1.17-1.52-2.27-2.45-3.27-.89-.98-1.97-1.77-3.16-2.35-1.25-.58-2.62-.87-4-.85-1.13-.02-2.25.22-3.28.7-.81.36-1.5.94-2,1.67-.45.69-.69,1.49-.68,2.31,0,.88.24,1.74.71,2.49.55.84,1.26,1.55,2.1,2.1,1.09.73,2.26,1.35,3.48,1.84,1.4.6,3,1.23,4.87,1.89,1.62.57,3.2,1.29,4.7,2.13,1.49.85,2.86,1.9,4.05,3.13,1.19,1.25,2.16,2.71,2.84,4.3,1.55,3.88,1.4,8.23-.39,12-.95,1.85-2.3,3.48-3.94,4.76-1.68,1.32-3.58,2.34-5.62,3-2.09.68-4.27,1.02-6.47,1-2.94.03-5.86-.55-8.57-1.71-2.56-1.08-4.89-2.65-6.86-4.62-1.9-1.88-3.44-4.1-4.55-6.54l7.33-5.2c.95,1.74,2.1,3.36,3.43,4.83Z"/>
      <path class="st0" d="M185.73,106.58c.32.84.8,1.6,1.42,2.25.59.63,1.31,1.13,2.11,1.46.82.35,1.7.53,2.59.52.72,0,1.44-.08,2.13-.27.62-.17,1.21-.43,1.75-.77.52-.34.99-.74,1.4-1.21v1.73c-.66.59-1.43,1.06-2.26,1.38-.97.32-1.98.48-3,.45-1.09.01-2.17-.2-3.17-.62-.96-.4-1.82-.99-2.54-1.74-.74-.77-1.32-1.68-1.7-2.68-.81-2.18-.81-4.57,0-6.75.38-1,.96-1.9,1.7-2.67.72-.75,1.58-1.35,2.54-1.75,1-.42,2.08-.63,3.17-.62,1.02-.03,2.03.13,3,.45.83.32,1.6.79,2.26,1.38v1.71c-.41-.47-.88-.88-1.41-1.21-.54-.34-1.14-.6-1.76-.76-.69-.18-1.4-.26-2.11-.26-.89,0-1.77.17-2.59.52-.8.33-1.52.83-2.11,1.46-.62.65-1.1,1.41-1.42,2.25-.69,1.85-.69,3.9,0,5.75h0Z"/>
      <path class="st0" d="M201.93,111.91h-1.22v-10.78h1.22v10.78ZM204.85,102.17c-.24-.09-.49-.14-.74-.13-.47-.02-.93.14-1.28.45-.34.32-.58.74-.69,1.19-.15.54-.22,1.11-.21,1.67h-.56c-.02-.78.12-1.56.4-2.29.23-.61.6-1.15,1.09-1.58.42-.38.97-.59,1.53-.59.34,0,.68.05,1,.15.31.11.59.28.83.51l-.68,1c-.21-.15-.45-.28-.69-.38h0Z"/>
      <path class="st0" d="M207.72,105.77h8c.02-.7-.14-1.38-.46-2-.3-.55-.74-1.02-1.28-1.35-.56-.34-1.21-.51-1.87-.49-.67,0-1.34.17-1.93.49-.6.33-1.1.82-1.44,1.41-.38.67-.56,1.43-.54,2.2v.43c-.02.81.15,1.62.5,2.36.6,1.33,1.94,2.18,3.4,2.14.6.02,1.19-.09,1.74-.32.46-.19.87-.47,1.22-.82.33-.33.62-.69.86-1.09l1,.63c-.32.48-.68.93-1.08,1.34-.43.43-.95.77-1.52,1-.75.28-1.54.42-2.34.39-.9,0-1.79-.25-2.55-.74-.76-.5-1.38-1.19-1.79-2-.45-.9-.68-1.89-.66-2.89v-.73c.02-.23.06-.46.12-.68.15-.79.48-1.54.95-2.19.45-.63,1.05-1.14,1.75-1.48.73-.36,1.53-.54,2.34-.53.89-.02,1.76.22,2.52.67.75.45,1.36,1.09,1.77,1.86.46.87.68,1.84.66,2.82v.29c0,.1,0,.19,0,.29h-9.31l-.06-1.01Z"/>
      <path class="st0" d="M220.39,110.04c.25.36.6.63,1,.79.43.18.89.27,1.35.26.59,0,1.17-.14,1.68-.42.52-.29.94-.72,1.23-1.24.33-.62.49-1.3.47-2l.28,1c.03.74-.19,1.47-.61,2.08-.39.54-.92.96-1.53,1.23-.58.26-1.21.4-1.85.4-.6,0-1.2-.13-1.74-.39-.55-.25-1.02-.65-1.36-1.15-.37-.56-.56-1.22-.53-1.89-.06-1.3.7-2.5,1.9-3,.68-.29,1.41-.42,2.15-.41.62,0,1.24.07,1.83.25.44.13.87.32,1.27.55.25.14.48.32.68.52v.77c-.51-.38-1.08-.66-1.69-.84-.62-.18-1.26-.27-1.9-.26-.54-.01-1.07.08-1.57.26-.42.15-.79.42-1.05.78-.26.39-.4.86-.38,1.33-.02.49.11.97.37,1.38ZM219.45,102.18c.5-.35,1.03-.64,1.59-.87.76-.3,1.57-.44,2.39-.42.72-.02,1.43.12,2.09.4.55.24,1.01.64,1.34,1.15.33.55.49,1.19.47,1.83v7.64h-1.22v-7.48c0-.31-.05-.61-.14-.9-.1-.29-.26-.56-.46-.79-.24-.25-.53-.44-.86-.56-.42-.15-.86-.22-1.31-.21-.48,0-.97.06-1.43.19-.38.1-.75.25-1.09.44-.26.15-.52.32-.76.5l-.61-.92Z"/>
      <path class="st0" d="M233.75,101.13v1.14h-4.75v-1.14h4.75ZM232,97.37v14.54h-1.22v-14.54h1.22Z"/>
      <path class="st0" d="M236.06,95.64c.16-.17.39-.26.62-.26.47-.01.86.36.87.83,0,.01,0,.03,0,.04,0,.23-.08.45-.24.61-.17.17-.39.26-.63.26-.23,0-.46-.09-.62-.26-.16-.16-.25-.38-.25-.61,0-.23.09-.45.25-.61ZM237.29,101.13v10.78h-1.22v-10.78h1.22Z"/>
      <path class="st0" d="M247.9,103.4c-.16-.42-.45-.77-.83-1-.43-.25-.93-.37-1.43-.35-.58,0-1.14.15-1.63.45-.47.29-.86.7-1.12,1.18-.28.51-.42,1.09-.41,1.68v6.56h-1.22v-10.79h1.22v2.25c.27-.73.74-1.36,1.36-1.83.6-.44,1.33-.67,2.08-.66.67-.02,1.32.14,1.9.48.52.33.93.8,1.17,1.37.28.66.42,1.37.4,2.09v7.08h-1.22v-6.92c.02-.54-.08-1.08-.27-1.59Z"/>
      <path class="st0" d="M252.86,103.52c.43-.83,1.08-1.53,1.89-2,.8-.45,1.7-.69,2.62-.68,1.3-.02,2.53.58,3.31,1.61.42.54.73,1.14.93,1.79.44,1.45.44,3.01,0,4.46-.2.65-.51,1.25-.93,1.79-.39.5-.88.91-1.44,1.19-.58.28-1.22.43-1.87.42-.92,0-1.82-.23-2.62-.68-.8-.48-1.46-1.17-1.89-2-.93-1.89-.93-4.11,0-6v.1ZM253.66,112.62c0,.63.15,1.25.47,1.8.32.54.77.97,1.32,1.27.62.32,1.3.48,2,.47.66,0,1.32-.16,1.9-.48.61-.35,1.12-.85,1.46-1.47.41-.78.61-1.65.58-2.53v-10.55h1.21v10.55c.04,1.08-.21,2.15-.72,3.1-.44.8-1.1,1.45-1.9,1.89-.78.42-1.65.64-2.53.64-.91.02-1.81-.19-2.62-.59-.74-.37-1.35-.94-1.77-1.65-.43-.74-.65-1.59-.63-2.45h1.23ZM253.97,108.92c.35.64.87,1.18,1.5,1.54.63.36,1.34.55,2.06.54.5,0,.99-.12,1.44-.34.47-.23.88-.55,1.23-.94.37-.42.67-.9.86-1.43.22-.58.33-1.2.32-1.82,0-.59-.1-1.18-.32-1.73-.2-.52-.49-.99-.86-1.41-.34-.41-.76-.75-1.23-1-.45-.23-.94-.34-1.44-.34-.72,0-1.43.18-2.06.53-.64.36-1.16.89-1.5,1.53-.4.74-.59,1.58-.57,2.42-.02.86.18,1.7.6,2.45h-.03Z"/>
      <path class="st0" d="M279.86,103.4c-.16-.41-.45-.76-.83-1-.43-.25-.93-.37-1.43-.35-.58,0-1.14.15-1.63.45-.47.29-.86.69-1.12,1.18-.29.51-.43,1.09-.42,1.68v6.56h-1.22v-10.79h1.22v2.25c.28-.73.75-1.36,1.37-1.83.6-.44,1.33-.67,2.08-.66.67-.02,1.32.14,1.9.48.52.33.93.8,1.17,1.37.28.66.42,1.37.4,2.09v7.08h-1.22v-6.92c.02-.54-.08-1.08-.27-1.59Z"/>
      <path class="st0" d="M286.53,111.42c-.76-.49-1.37-1.19-1.77-2-.44-.91-.66-1.91-.64-2.92-.01-.77.11-1.54.37-2.27.24-.65.6-1.26,1.07-1.77.46-.5,1.02-.89,1.64-1.16.67-.28,1.38-.42,2.1-.41.91-.02,1.81.22,2.59.68.74.45,1.35,1.1,1.74,1.88.43.87.64,1.82.62,2.79v.32c0,.09,0,.17,0,.26h-9.31v-1h8.4l-.52.73c0-.08.07-.19.11-.33.04-.12.06-.25.06-.38.01-.7-.15-1.38-.47-2-.63-1.19-1.88-1.91-3.22-1.85-.55-.01-1.1.1-1.61.32-.47.21-.89.52-1.24.9-.36.41-.64.89-.81,1.41-.2.59-.29,1.21-.28,1.83-.02.82.15,1.64.48,2.39.29.65.77,1.2,1.36,1.6.61.39,1.32.6,2.05.58.76.02,1.51-.17,2.17-.54.68-.42,1.25-1,1.66-1.69l1,.63c-.53.86-1.25,1.57-2.12,2.08-.87.46-1.85.69-2.83.67-.92.01-1.83-.25-2.6-.75Z"/>
      <path class="st0" d="M296.36,101.13l2.9,8.34,3.1-9,3.33,9,2.91-8.37h1.4l-4.2,11.42-3.38-9-3.19,9-4.23-11.39h1.36Z"/>
      <path class="st0" d="M320.27,111.91h-1.22v-10.78h1.22v10.78ZM323.19,102.17c-.24-.09-.49-.14-.74-.13-.47-.02-.92.14-1.27.45-.34.32-.58.74-.7,1.19-.15.54-.22,1.11-.21,1.67h-.56c-.02-.78.12-1.56.4-2.29.23-.61.6-1.15,1.09-1.58.42-.38.97-.59,1.54-.59.34,0,.68.05,1,.15.31.11.59.28.83.51l-.68,1c-.22-.16-.45-.29-.7-.38Z"/>
      <path class="st0" d="M328.07,109.59c.16.43.45.8.83,1.05.43.25.93.38,1.43.36.58,0,1.14-.15,1.63-.45.48-.29.87-.7,1.13-1.19.27-.51.42-1.09.41-1.67v-6.56h1.22v10.78h-1.22v-2.25c-.26.73-.73,1.36-1.34,1.83-.61.45-1.35.68-2.11.66-.67.02-1.33-.15-1.9-.49-.52-.34-.93-.83-1.17-1.4-.28-.68-.42-1.41-.4-2.15v-7h1.22v6.88c-.01.55.08,1.09.27,1.6Z"/>
      <path class="st0" d="M339.64,93.62v18.29h-1.22v-18.29h1.22Z"/>
      <path class="st0" d="M344.83,111.42c-.77-.49-1.38-1.18-1.78-2-.44-.91-.65-1.91-.64-2.92,0-.77.12-1.54.37-2.27.24-.65.6-1.26,1.07-1.77.46-.5,1.02-.89,1.64-1.16.67-.28,1.38-.42,2.1-.41.91-.02,1.81.22,2.59.68.74.45,1.35,1.1,1.74,1.88.43.87.64,1.82.62,2.79v.32c0,.09,0,.17,0,.26h-9.31v-1h8.4l-.52.73c0-.08.07-.19.11-.33.04-.12.06-.25.06-.38.01-.7-.15-1.38-.47-2-.3-.56-.74-1.03-1.29-1.36-.57-.33-1.22-.5-1.88-.49-.55-.01-1.1.1-1.6.32-.48.21-.9.51-1.25.9-.36.41-.64.89-.81,1.41-.19.59-.29,1.21-.28,1.83-.02.82.15,1.64.48,2.39.29.65.77,1.2,1.36,1.6.61.39,1.32.6,2.05.58.76.02,1.51-.17,2.17-.54.68-.42,1.25-1,1.66-1.69l1,.63c-.52.86-1.25,1.57-2.12,2.08-.87.46-1.85.69-2.83.67-.94.02-1.86-.24-2.64-.75Z"/>
      <path class="st0" d="M355.9,109.92c.28.33.62.6,1,.8.46.21.96.31,1.46.3.57.03,1.13-.15,1.58-.49.41-.35.63-.87.6-1.41.01-.4-.12-.79-.38-1.09-.28-.31-.62-.56-1-.73-.43-.2-.87-.37-1.32-.52-.5-.17-1-.38-1.47-.62-.45-.24-.85-.58-1.15-1-.61-.93-.61-2.14,0-3.07.31-.4.73-.72,1.21-.9.5-.2,1.03-.31,1.57-.31.56,0,1.12.1,1.64.31.46.19.88.46,1.24.8.34.31.61.68.8,1.1l-1,.61c-.26-.48-.61-.9-1.05-1.22-.51-.36-1.13-.54-1.76-.52-.48-.01-.94.12-1.34.39-.38.27-.59.72-.56,1.19,0,.36.12.72.35,1,.26.29.58.52.94.67.39.17.8.33,1.24.49.55.19,1.09.43,1.61.7.46.24.87.59,1.19,1,.32.44.48.97.46,1.51.01.58-.14,1.16-.44,1.66-.3.48-.73.86-1.24,1.11-.56.27-1.18.41-1.81.4-.69.02-1.37-.12-2-.4-.52-.23-.98-.57-1.35-1-.33-.39-.57-.84-.72-1.32l1-.56c.17.41.41.79.7,1.12Z"/>
    </g>
  </g>
</svg>