<?xml version="1.0" encoding="UTF-8"?>
<svg xmlns="http://www.w3.org/2000/svg" version="1.1" xmlns:cc="http://creativecommons.org/ns#" xmlns:dc="http://purl.org/dc/elements/1.1/" xmlns:inkscape="http://www.inkscape.org/namespaces/inkscape" xmlns:rdf="http://www.w3.org/1999/02/22-rdf-syntax-ns#" xmlns:sodipodi="http://sodipodi.sourceforge.net/DTD/sodipodi-0.dtd" xmlns:svg="http://www.w3.org/2000/svg" viewBox="0 0 401.25 104.29">
  <!-- Generator: Adobe Illustrator 29.6.0, SVG Export Plug-In . SVG Version: 2.1.1 Build 207)  -->
  <defs>
    <style>
      .st0 {
        fill: #fff;
      }
    </style>
  </defs>
  <g id="svg2" sodipodi:docname="University-Wordmark-Full-Color-RGB.eps">
    <sodipodi:namedview id="namedview4" bordercolor="#666666" borderopacity="1" gridtolerance="10" guidetolerance="10" inkscape:pageopacity="0" inkscape:pageshadow="2" inkscape:window-height="480" inkscape:window-width="640" objecttolerance="10" pagecolor="#ffffff"/>
    <g id="g10" inkscape:groupmode="layer" inkscape:label="ink_ext_XXXXXX">
      <g id="g12">
        <path class="st0" d="M72.2,28.08V0H0v28.08h16.05v48.14H0v28.08h72.2v-28.08h-16.04V28.08h16.04ZM53.16,78.85c.57.64,1.32,1.11,2.19,1.29.26.05.53.08.81.08h12.03v20.05H4.01v-20.05h12.03c.28,0,.55-.03.81-.08.87-.18,1.63-.65,2.19-1.29.62-.71,1.01-1.62,1.01-2.64V28.08c0-.55-.11-1.08-.32-1.56-.61-1.44-2.04-2.45-3.69-2.45H4.01V4.01h0s64.18,0,64.18,0h0v20.06h-12.03c-1.66,0-3.09,1.01-3.7,2.45-.2.48-.32,1.01-.32,1.56v48.13c0,1.02.39,1.93,1.01,2.64Z"/>
        <path id="path18" class="st0" d="M128.83,76.8v-43.24h9.51v43.24h-9.51"/>
        <path id="path20" class="st0" d="M149.65,76.8v-43.24h9.51v34.59h21.56v8.65h-31.07"/>
        <path id="path22" class="st0" d="M187.69,76.8v-43.24h9.51v34.59h21.56v8.65h-31.07"/>
        <path id="path24" class="st0" d="M225.94,76.8v-43.24h9.51v43.24h-9.51"/>
        <path id="path26" class="st0" d="M277.09,76.8l-20.94-27.49v27.49h-9.39v-43.24h8.77l20.26,26.62v-26.62h9.39v43.24h-8.09"/>
        <path id="path28" class="st0" d="M330.2,55.18c0-7.41-5.43-13.59-13.1-13.59s-12.97,6.05-12.97,13.47v.12c0,7.41,5.44,13.59,13.1,13.59s12.97-6.05,12.97-13.47v-.13ZM317.1,77.54c-13.34,0-22.92-9.95-22.92-22.24v-.13c0-12.29,9.7-22.36,23.04-22.36s22.92,9.95,22.92,22.24v.12c0,12.3-9.7,22.36-23.04,22.36"/>
        <path id="path30" class="st0" d="M349.35,76.8v-43.24h9.52v43.24h-9.52"/>
        <path id="path32" class="st0" d="M385.38,77.42c-6.55,0-13.16-2.28-18.35-6.92l5.62-6.73c3.89,3.21,7.97,5.25,12.91,5.25,3.89,0,6.24-1.54,6.24-4.08v-.12c0-2.41-1.48-3.64-8.71-5.5-8.71-2.22-14.33-4.63-14.33-13.22v-.12c0-7.85,6.3-13.03,15.13-13.03,6.3,0,11.68,1.98,16.06,5.5l-4.94,7.17c-3.83-2.66-7.6-4.26-11.24-4.26s-5.56,1.67-5.56,3.77v.12c0,2.84,1.85,3.77,9.33,5.68,8.77,2.29,13.71,5.44,13.71,12.97v.12c0,8.59-6.55,13.4-15.88,13.4"/>
        <path id="path34" class="st0" d="M134.68,21.26c-4.53,0-7.31-2.53-7.31-7.5V4.11h3.72v9.55c0,2.75,1.37,4.17,3.64,4.17s3.64-1.38,3.64-4.05V4.11h3.71v9.53c0,5.11-2.87,7.62-7.4,7.62"/>
        <path id="path36" class="st0" d="M164.57,20.99l-8.17-10.73v10.73h-3.67V4.11h3.43l7.91,10.39V4.11h3.67v16.88h-3.16"/>
        <path id="path38" class="st0" d="M178.65,20.99V4.11h3.71v16.88h-3.71"/>
        <path id="path40" class="st0" d="M201.62,21.11h-3.28l-6.82-17h4.1l4.41,11.89,4.41-11.89h4.01l-6.83,17"/>
        <path id="path42" class="st0" d="M217.56,20.99V4.11h12.73v3.3h-9.04v3.42h7.96v3.3h-7.96v3.55h9.16v3.3h-12.85"/>
        <path id="path44" class="st0" d="M250.92,9.88c0-1.59-1.11-2.41-2.92-2.41h-3.69v4.85h3.76c1.81,0,2.85-.96,2.85-2.39v-.05ZM250.85,20.99l-3.62-5.4h-2.92v5.4h-3.71V4.11h7.72c3.98,0,6.37,2.1,6.37,5.57v.05c0,2.72-1.47,4.44-3.62,5.23l4.12,6.03h-4.34"/>
        <path id="path46" class="st0" d="M270.62,21.24c-2.56,0-5.14-.89-7.16-2.7l2.19-2.63c1.52,1.25,3.11,2.05,5.04,2.05,1.52,0,2.44-.6,2.44-1.59v-.05c0-.94-.58-1.42-3.4-2.15-3.4-.87-5.59-1.81-5.59-5.16v-.05c0-3.06,2.46-5.09,5.91-5.09,2.46,0,4.56.77,6.27,2.15l-1.93,2.8c-1.49-1.04-2.96-1.66-4.39-1.66s-2.17.65-2.17,1.47v.05c0,1.11.72,1.47,3.64,2.22,3.42.89,5.35,2.12,5.35,5.06v.05c0,3.35-2.56,5.23-6.2,5.23"/>
        <path id="path48" class="st0" d="M286.84,20.99V4.11h3.71v16.88h-3.71"/>
        <path id="path50" class="st0" d="M308.69,7.54v13.45h-3.71V7.54h-5.14v-3.43h13.99v3.43h-5.14"/>
        <path id="path52" class="st0" d="M332.35,14.27v6.73h-3.71v-6.66l-6.49-10.23h4.34l4.03,6.78,4.1-6.78h4.22l-6.49,10.15"/>
        <path id="path54" class="st0" d="M374.27,12.55c0-2.89-2.12-5.31-5.11-5.31s-5.06,2.36-5.06,5.26v.05c0,2.89,2.12,5.3,5.11,5.3s5.06-2.36,5.06-5.26v-.05ZM369.16,21.28c-5.21,0-8.95-3.88-8.95-8.68v-.05c0-4.8,3.78-8.73,8.99-8.73s8.95,3.88,8.95,8.68v.05c0,4.8-3.79,8.73-8.99,8.73"/>
        <path id="path56" class="st0" d="M391.82,7.49v3.59h8.05v3.38h-8.05v6.53h-3.71V4.11h12.85v3.38h-9.14"/>
        <path id="path58" class="st0" d="M128.8,95.6v-6.23h2.4v6.16c0,1.77.89,2.69,2.35,2.69s2.35-.89,2.35-2.61v-6.24h2.4v6.15c0,3.3-1.85,4.92-4.78,4.92s-4.72-1.63-4.72-4.84"/>
        <path id="path60" class="st0" d="M152.04,94.67c1.17,0,1.84-.62,1.84-1.54v-.03c0-1.03-.72-1.56-1.88-1.56h-2.38v3.13h2.43ZM147.21,89.38h4.98c1.39,0,2.46.39,3.18,1.11.61.61.93,1.46.93,2.49v.03c0,1.76-.95,2.86-2.33,3.38l2.66,3.89h-2.8l-2.34-3.49h-1.88v3.49h-2.4v-10.9"/>
        <path id="path62" class="st0" d="M170.05,95.78h-2.77v2.4h2.85c1.06,0,1.7-.37,1.7-1.18v-.03c0-.73-.55-1.18-1.77-1.18h0ZM171.21,92.6c0-.72-.56-1.12-1.57-1.12h-2.37v2.3h2.21c1.06,0,1.73-.34,1.73-1.15v-.03ZM164.94,89.38h5.06c1.25,0,2.23.34,2.85.97.5.5.75,1.1.75,1.85v.03c0,1.23-.65,1.91-1.43,2.35,1.26.48,2.04,1.21,2.04,2.68v.03c0,1.99-1.62,2.99-4.08,2.99h-5.18v-10.9"/>
        <path id="path64" class="st0" d="M188.91,95.71l-1.45-3.53-1.45,3.53h2.9ZM186.39,89.3h2.21l4.67,10.97h-2.51l-1-2.44h-4.61l-1,2.44h-2.44l4.67-10.97"/>
        <path id="path66" class="st0" d="M201.42,89.38h2.21l5.11,6.71v-6.71h2.37v10.9h-2.04l-5.28-6.93v6.93h-2.37v-10.9"/>
        <path id="path68" class="st0" d="M226.45,95.71l-1.45-3.53-1.45,3.53h2.9ZM223.93,89.3h2.21l4.67,10.97h-2.51l-1-2.44h-4.61l-1,2.44h-2.44l4.67-10.97"/>
        <path id="path70" class="st0" d="M238.12,94.31h4.79v2.27h-4.79v-2.27"/>
        <path id="path72" class="st0" d="M250.37,94.86v-.03c0-3.1,2.33-5.63,5.68-5.63,2.05,0,3.29.68,4.3,1.68l-1.53,1.76c-.84-.76-1.7-1.23-2.79-1.23-1.84,0-3.16,1.53-3.16,3.39v.03c0,1.87,1.29,3.42,3.16,3.42,1.24,0,2.01-.5,2.86-1.28l1.53,1.54c-1.12,1.2-2.37,1.95-4.47,1.95-3.21,0-5.59-2.47-5.59-5.6"/>
        <path id="path74" class="st0" d="M268.81,89.38h2.4v4.31h4.42v-4.31h2.4v10.9h-2.4v-4.37h-4.42v4.37h-2.4v-10.9"/>
        <path id="path76" class="st0" d="M293.37,95.71l-1.45-3.53-1.45,3.53h2.89ZM290.85,89.3h2.21l4.67,10.97h-2.51l-1-2.44h-4.61l-1,2.44h-2.44l4.67-10.97"/>
        <path id="path78" class="st0" d="M305.88,89.38h2.58l2.86,4.61,2.86-4.61h2.58v10.9h-2.38v-7.11l-3.07,4.65h-.06l-3.04-4.61v7.07h-2.35v-10.9"/>
        <path id="path80" class="st0" d="M330.16,94.87c1.2,0,1.9-.72,1.9-1.65v-.03c0-1.07-.75-1.65-1.95-1.65h-1.85v3.33h1.9ZM325.87,89.38h4.45c2.6,0,4.17,1.54,4.17,3.77v.03c0,2.52-1.96,3.83-4.41,3.83h-1.82v3.27h-2.4v-10.9"/>
        <path id="path82" class="st0" d="M347.9,95.71l-1.45-3.53-1.45,3.53h2.89ZM345.38,89.3h2.21l4.67,10.97h-2.51l-1-2.44h-4.61l-1,2.44h-2.44l4.67-10.97"/>
        <path id="path84" class="st0" d="M360.53,89.38h2.4v10.9h-2.4v-10.9"/>
        <path id="path86" class="st0" d="M371.64,94.86v-.03c0-3.1,2.41-5.63,5.71-5.63,1.96,0,3.14.53,4.28,1.49l-1.51,1.82c-.84-.7-1.59-1.11-2.85-1.11-1.74,0-3.13,1.54-3.13,3.39v.03c0,1.99,1.37,3.46,3.3,3.46.87,0,1.65-.22,2.26-.65v-1.56h-2.41v-2.07h4.73v4.73c-1.12.95-2.66,1.73-4.65,1.73-3.39,0-5.73-2.38-5.73-5.6"/>
        <path id="path88" class="st0" d="M390.8,89.38h2.21l5.11,6.71v-6.71h2.37v10.9h-2.04l-5.28-6.93v6.93h-2.37v-10.9"/>
      </g>
    </g>
  </g>
</svg>