<?xml version="1.0" encoding="UTF-8"?>
<svg id="_레이어_1" data-name="레이어_1" xmlns="http://www.w3.org/2000/svg" version="1.1" viewBox="0 0 250 81.85">
  <!-- Generator: Adobe Illustrator 29.6.0, SVG Export Plug-In . SVG Version: 2.1.1 Build 207)  -->
  <defs>
    <style>
      .st0 {
        fill: #fff;
      }
    </style>
  </defs>
  <path class="st0" d="M1.07,57.59c-.31-2.6-.16-6.4-.16-8.3L4.89,4.51h14.61l-3.97,45.18c-.85,9.81,2.98,16.75,12.76,16.75s15.21-7.02,16.04-15.72l4.21-46.21h14.67l-4.05,45.59c-1.67,17.61-13.29,30.72-32.1,30.72-14.68,0-24.15-9.47-25.99-23.22M69.17,42.43c1.91-21.48,16.44-39.34,41.43-39.34,6.65,0,12.99,1.51,19.27,5.62l-1.69,17.77c-5.73-7.67-12.61-8.84-18.96-8.84-15.59,0-24.15,10.83-25.38,24.49-1.15,13.42,5.73,24.24,20.87,24.24,6.58,0,13.53-1.9,20.87-9.24l-1.61,18.24c-7.11,3.87-13.76,5.61-20.4,5.61-24.85,0-36.23-18.41-34.41-38.54M141.64,4.51h14.6l-5.36,60.82h20.95c1.53,0,6.5-.07,7.87-.07-.07.71-1.37,13.97-1.37,13.97h-43.35l6.66-74.72M221.59,1.12h-1.06l-40.05,78.12h15.59l5.57-11.86h28.29l3.52,11.85h15.43L221.62,1.12M217.88,32.39c.46-1.03.84-2.37,1.06-3.08h.24c.07.95.23,2.06.53,3.16.76,3.4,6.5,22.28,6.5,22.28h-18.51s9.94-21.81,10.18-22.36h0Z"/>
</svg>