<?xml version="1.0" encoding="UTF-8"?>
<svg id="svg3355" xmlns="http://www.w3.org/2000/svg" version="1.1" xmlns:cc="http://creativecommons.org/ns#" xmlns:dc="http://purl.org/dc/elements/1.1/" xmlns:rdf="http://www.w3.org/1999/02/22-rdf-syntax-ns#" viewBox="0 0 576.88 103.85">
  <!-- Generator: Adobe Illustrator 29.6.0, SVG Export Plug-In . SVG Version: 2.1.1 Build 207)  -->
  <defs>
    <style>
      .st0 {
        fill: #fff;
      }
    </style>
  </defs>
  <g id="g3363">
    <g id="g4311">
      <path id="path3365" class="st0" d="M239.4.31h3.49v103.37h-3.49V.31Z"/>
      <g id="g3367">
        <path id="path3369" class="st0" d="M3.31,3.94h74.93v27.59h-23.73v-6.41h-19.9v18.41h22.78v19.85h-22.78v15.88h6.71v20.74H3.31v-20.74h7.14V25.13H3.31s0-21.19,0-21.19ZM0,28.52h7.11s0,47.35,0,47.35L0,75.89v27.46h44.59v-27.43h-6.58v-9.08l22.8.04v-26.68l-22.8-.05v-11.69h12.86v6.43h30.81V.63H0S0,28.52,0,28.52ZM88.61,3.94h38.02v21.19h-6.85v54.14h6.85v20.74h-37.86v-20.74h6.85V25.13h-7.01s0-21.19,0-21.19ZM85.3,28.45h7v47.45h-7v27.42h44.59v-27.42h-6.78V28.45h6.83V.63h-44.65s0,27.82,0,27.82ZM218.32,25.13h-6.84v56.73s-17.36,18.15-17.36,18.15h-33.24l-17.33-18.15V25.13h-6.85V3.94h35.04v21.19h-4.02v52.09h0s1.98,2.05,1.98,2.05h15.62l1.99-2.07V25.13h-4.02V3.94h35.03v21.19h0ZM179.2.63v27.83h4.79s0,47.46,0,47.46h-12.86V28.46h4.27V.63h-41.97v27.82h6.77v55.09l18.87,19.81h37.01l18.72-19.81V28.45h6.91V.63h-42.5Z"/>
      </g>
      <g id="g3383">
        <g id="g3385">
          <g id="g3391">
            <path id="path3393" class="st0" d="M273.79.64c2.56,0,4.8-.04,5.64-.12,0,.88,0,3.88.08,5.76-.16.32-.88.4-1.28.16-.4-2.32-1.04-3.48-2.56-3.88-1.08-.28-2.08-.32-3.36-.32h-2.04c-1.68,0-1.68.08-1.68,2.32v7.16c0,1,.04,1.08.96,1.08h2.36c3.48,0,4.08-.08,4.48-1.76l.32-1.36c.24-.28,1-.28,1.2.04-.04,1.04-.12,2.52-.12,4s.08,2.92.12,4.16c-.2.32-.96.32-1.2.04l-.32-1.56c-.36-1.68-1-1.76-4.48-1.76h-2.36c-.92,0-.96.08-.96,1.08v5.6c0,4.24.36,4.28,2.24,4.52l1.68.2c.28.28.24,1-.08,1.16-2.56-.08-4.36-.12-6.12-.12s-3.56.04-5.4.12c-.32-.16-.36-.88-.08-1.16l.88-.12c1.88-.24,2.24-.36,2.24-4.6V6.4c0-4.24-.36-4.36-2.24-4.64l-.52-.08c-.28-.28-.24-1,.08-1.16,1.4.08,3.2.12,4.96.12,0,0,7.56,0,7.56,0Z"/>
          </g>
          <g id="g3395">
            <path id="path3397" class="st0" d="M289.9,20.44c0,2,.08,3.44.68,4.12.48.56,1.12.88,4.32.88,4.44,0,5.08-.2,6.92-4.32.4-.2,1.04-.08,1.24.24-.32,1.68-1.2,4.72-1.68,5.8-1.68-.08-5.12-.12-9.6-.12h-4.16c-2.04,0-4.04.04-5.72.12-.32-.16-.44-.96-.08-1.16l1.2-.2c1.88-.32,2.24-.36,2.24-4.52V6.4c0-4.16-.36-4.28-2.24-4.56l-1.12-.16c-.28-.2-.28-1,.08-1.16,2,.08,3.8.12,5.64.12s3.56-.04,5.32-.12c.36.16.4.96.08,1.16l-.88.16c-1.88.32-2.24.4-2.24,4.56,0,0,0,14.04,0,14.04Z"/>
          </g>
          <g id="g3399">
            <path id="path3401" class="st0" d="M309.31,13.04c0,5.52,2.36,13.04,9.2,13.04,4.56,0,8.24-3.4,8.24-11.44,0-6.04-2.72-13.04-9.08-13.04-4,0-8.36,2.92-8.36,11.44M332.19,13.92c0,7.88-6,13.76-14.08,13.76-9.04,0-14.24-6.36-14.24-13.48C303.87,6.04,309.79,0,318.19,0c9.24,0,14,6.64,14,13.92"/>
          </g>
          <g id="g3403">
            <path id="path3405" class="st0" d="M341.31,12.41c0,1.28,0,1.36,1.92,1.36,3.92,0,5.72-1.92,5.72-5.72,0-3.16-2.04-5.92-5.52-5.92-2.08,0-2.12.12-2.12,1.96,0,0,0,8.32,0,8.32ZM336.67,6.65c0-3.84-.04-4.32-1.92-4.52l-1.04-.12c-.28-.28-.28-.92.04-1.12,2.52-.24,5.92-.36,9.2-.36s5.84.4,7.6,1.36c2.04,1.08,3.52,2.96,3.52,5.84,0,3.68-2.84,5.52-4.8,6.32-.24.12-.16.44,0,.68,3.2,5.4,5.2,8.8,7.08,10.36,1.12.96,2.28,1.2,2.76,1.24.2.16.2.6.08.8-.48.12-1.24.24-2.64.24-3.84,0-5.92-1.56-8.36-5.28-1.08-1.68-2.2-3.88-3.16-5.44-.72-1.2-1.16-1.36-2.48-1.36-1.2,0-1.24.04-1.24.88v5.12c0,4.24.36,4.36,2.24,4.6l.88.12c.28.28.24,1-.08,1.16-1.76-.08-3.56-.12-5.32-.12s-3.56.04-5.4.12c-.32-.16-.44-.88-.08-1.16l.88-.12c1.88-.24,2.24-.36,2.24-4.6,0,0,0-14.64,0-14.64Z"/>
          </g>
          <g id="g3407">
            <path id="path3409" class="st0" d="M367.55,21.28c0,4.24.36,4.36,2.24,4.6l.88.12c.28.28.24,1-.08,1.16-1.76-.08-3.56-.12-5.32-.12s-3.64.04-5.4.12c-.32-.16-.36-.88-.08-1.16l.88-.12c1.88-.24,2.24-.36,2.24-4.6V6.4c0-4.24-.36-4.36-2.24-4.6l-.88-.12c-.28-.28-.24-1,.08-1.16,1.76.08,3.56.12,5.4.12s3.56-.04,5.32-.12c.32.16.36.88.08,1.16l-.88.12c-1.88.24-2.24.36-2.24,4.6v14.88Z"/>
          </g>
          <g id="g3411">
            <path id="path3413" class="st0" d="M381.71,19.72c0,3.88.28,5.96,4.52,5.96,7.12,0,10.32-5.04,10.32-11.8,0-7.92-4.6-11.76-11.28-11.76-1.68,0-2.96.32-3.24.56-.28.24-.32,1.08-.32,2.96,0,0,0,14.08,0,14.08ZM377.07,6.64c0-3.84-.04-4.4-1.92-4.56l-.84-.08c-.28-.2-.28-.92.04-1.12,2.88-.24,6.08-.36,10-.36s6.52.32,9.44,1.36c4.8,1.76,8.2,6,8.2,11.96,0,4.44-2.2,9-7.16,11.52-2.84,1.44-6.28,1.92-9.92,1.92-2.44,0-4.32-.24-5.8-.24s-3.32.04-5.08.12c-.32-.16-.36-.88-.08-1.16l.88-.12c1.88-.24,2.24-.36,2.24-4.6,0,0,0-14.64,0-14.64Z"/>
          </g>
          <g id="g3415">
            <path id="path3417" class="st0" d="M414.79,15.44c1.12,0,1.28-.08.96-1.04l-1.68-4.8c-.72-2.12-.92-2.88-1.12-3.16h-.08c-.16.28-.52,1.28-1.2,3.16l-1.68,4.68c-.4,1.16-.32,1.16.64,1.16h4.16ZM409.99,17.24c-1.04,0-1,0-1.36,1.08l-1.64,4.8c-.8,2.36-.64,2.44.84,2.68l1.16.2c.28.28.24,1-.08,1.16-1.28-.08-2.6-.08-4.24-.12-1.32,0-2.56.04-3.96.12-.28-.2-.32-.8-.04-1.16l1.2-.2c1.16-.2,1.6-.52,2.2-1.84.48-1.04,1.12-2.72,1.96-4.88l5.48-14.24c.48-1.28.88-2.24.76-2.92,1.4-.28,2.72-1.92,2.8-1.92.32,0,.52.12.68.32.64,1.8,1.16,3.68,1.8,5.48l5.76,16.76c.92,2.68,1.12,2.92,3.16,3.32l.6.12c.32.28.32.96.04,1.16-1.64-.08-3.12-.12-5.2-.12-1.72,0-3.48.08-4.88.12-.32-.2-.36-.92-.12-1.16l.88-.12c1.44-.2,1.64-.44,1.04-2.12l-1.88-5.44c-.36-1.08-.52-1.08-1.64-1.08,0,0-5.32,0-5.32,0Z"/>
          </g>
          <g id="g3419">
            <path id="path3421" class="st0" d="M268.59,59.28c0,4.24.36,4.36,2.24,4.6l.88.12c.28.28.24,1-.08,1.16-1.76-.08-3.56-.12-5.32-.12s-3.64.04-5.4.12c-.32-.16-.36-.88-.08-1.16l.88-.12c1.88-.24,2.24-.36,2.24-4.6v-14.88c0-4.24-.36-4.36-2.24-4.6l-.88-.12c-.28-.28-.24-1,.08-1.16,1.76.08,3.56.12,5.4.12s3.56-.04,5.32-.12c.32.16.36.88.08,1.16l-.88.12c-1.88.24-2.24.36-2.24,4.6,0,0,0,14.88,0,14.88Z"/>
          </g>
          <g id="g3423">
            <path id="path3425" class="st0" d="M300.1,58.24c0,1.2,0,6.12.12,7.04-.32.44-.88.6-1.36.56-.64-.84-1.8-2.2-4.68-5.48l-9.36-10.68c-2.56-2.96-3.88-4.44-4.56-5.04-.12,0-.12.44-.12,2.56v7.8c0,3,.04,6.68.72,7.88.36.6,1.04.88,2.04,1l.88.12c.36.28.32,1.04-.08,1.16-1.48-.08-3.04-.12-4.56-.12-1.68,0-2.76.04-4.16.12-.32-.2-.4-.88-.08-1.16l.88-.2c.76-.16,1.48-.28,1.76-.92.52-1.24.52-4.72.52-7.88v-9.48c0-3.12.04-3.76-1.32-4.92-.44-.36-1.56-.68-2.12-.8l-.6-.12c-.28-.24-.24-1.04.16-1.16,1.52.16,3.72.12,4.72.12.84,0,1.8-.04,2.76-.12.68,1.72,5.04,6.76,6.44,8.28l4,4.32c1.68,1.84,5.4,6.08,5.8,6.32.12-.12.12-.32.12-.96v-7.8c0-3-.04-6.68-.76-7.88-.36-.6-1-.88-2-1l-.92-.12c-.36-.28-.32-1.04.08-1.16,1.56.08,3.04.12,4.6.12,1.72,0,2.76-.04,4.2-.12.32.2.4.88.08,1.16l-.92.2c-.76.16-1.44.28-1.72.92-.56,1.24-.56,4.72-.56,7.88,0,0,0,9.56,0,9.56Z"/>
          </g>
          <g id="g3427">
            <path id="path3429" class="st0" d="M315.19,42.01c0-1.68-.04-1.76-1.08-1.76h-2.24c-3.68,0-4.76.44-6.24,3.68-.28.24-1.12.12-1.28-.28.68-2.16,1.28-4.64,1.56-6.04.08-.12.24-.16.44-.16.16,0,.32.04.4.16.2,1,.76,1.04,3.48,1.04h16.32c1.96,0,2.56-.12,3.04-1.04.16-.08.32-.16.48-.16.24,0,.44.08.52.2-.4,1.64-.72,5.08-.6,6.36-.2.32-.88.4-1.24.12-.52-3.12-1.28-3.88-5.56-3.88h-2.28c-1.04,0-1.08.08-1.08,1.76v17.28c0,4.24.36,4.36,2.24,4.56l1.44.16c.28.28.24,1-.08,1.16-2.32-.08-4.12-.12-5.88-.12s-3.64.04-6.2.12c-.32-.16-.36-.96-.08-1.16l1.68-.2c1.88-.24,2.24-.28,2.24-4.52,0,0,0-17.28,0-17.28Z"/>
          </g>
          <g id="g3431">
            <path id="path3433" class="st0" d="M334.99,44.41c0-4.24-.36-4.4-2.24-4.64l-.64-.08c-.28-.28-.24-1,.08-1.16,1.52.08,3.4.12,5.16.12h7.64c2.56,0,4.88-.04,5.4-.12.16.68.4,3.84.64,5.56-.16.32-.96.4-1.28.16-.64-2.32-1.24-3.28-2.52-3.64-.92-.24-2.12-.36-3.2-.36h-2.68c-1.72,0-1.72.08-1.72,2.36v6.76c0,1.04.04,1.08.96,1.08h1.92c3.48,0,4.08-.04,4.44-1.76l.28-1.36c.32-.28,1.08-.28,1.28.04-.04,1.08-.12,2.52-.12,4s.08,2.92.12,4.2c-.2.28-.96.28-1.28.04l-.28-1.6c-.28-1.68-.96-1.76-4.44-1.76h-1.92c-.92,0-.96.08-.96,1.08v5.08c0,2.04.08,3.48.68,4.16.48.56,1.16.84,4.52.88,5.08.04,5.96-1.08,7.36-4.32.36-.28,1.04-.16,1.28.24-.24,1.68-1.12,4.72-1.68,5.8-1.76-.08-5.2-.12-9.88-.12h-4.56c-1.76,0-4.2.04-6,.12-.32-.16-.36-.88-.08-1.16l1.48-.16c1.88-.2,2.24-.32,2.24-4.56,0,0,0-14.88,0-14.88Z"/>
          </g>
          <g id="g3435">
            <path id="path3437" class="st0" d="M362.02,50.41c0,1.28,0,1.36,1.92,1.36,3.92,0,5.72-1.92,5.72-5.72,0-3.16-2.04-5.92-5.52-5.92-2.08,0-2.12.12-2.12,1.96,0,0,0,8.32,0,8.32ZM357.38,44.65c0-3.84-.04-4.32-1.92-4.52l-1.04-.12c-.28-.28-.28-.92.04-1.12,2.52-.24,5.92-.36,9.2-.36s5.84.4,7.6,1.36c2.04,1.08,3.52,2.96,3.52,5.84,0,3.68-2.84,5.52-4.8,6.32-.24.12-.16.44,0,.68,3.2,5.4,5.2,8.8,7.08,10.36,1.12.96,2.28,1.2,2.76,1.24.2.16.2.6.08.8-.48.12-1.24.24-2.64.24-3.84,0-5.92-1.56-8.36-5.28-1.08-1.68-2.2-3.88-3.16-5.44-.72-1.2-1.16-1.36-2.48-1.36-1.2,0-1.24.04-1.24.88v5.12c0,4.24.36,4.36,2.24,4.6l.88.12c.28.28.24,1-.08,1.16-1.76-.08-3.56-.12-5.32-.12s-3.56.04-5.4.12c-.32-.16-.44-.88-.08-1.16l.88-.12c1.88-.24,2.24-.36,2.24-4.6,0,0,0-14.64,0-14.64Z"/>
          </g>
          <g id="g3439">
            <path id="path3441" class="st0" d="M405.63,58.24c0,1.2,0,6.12.12,7.04-.32.44-.88.6-1.36.56-.64-.84-1.8-2.2-4.68-5.48l-9.36-10.68c-2.56-2.96-3.88-4.44-4.56-5.04-.12,0-.12.44-.12,2.56v7.8c0,3,.04,6.68.72,7.88.36.6,1.04.88,2.04,1l.88.12c.36.28.32,1.04-.08,1.16-1.48-.08-3.04-.12-4.56-.12-1.68,0-2.76.04-4.16.12-.32-.2-.4-.88-.08-1.16l.88-.2c.76-.16,1.48-.28,1.76-.92.52-1.24.52-4.72.52-7.88v-9.48c0-3.12.04-3.76-1.32-4.92-.44-.36-1.56-.68-2.12-.8l-.6-.12c-.28-.24-.24-1.04.16-1.16,1.52.16,3.72.12,4.72.12.84,0,1.8-.04,2.76-.12.68,1.72,5.04,6.76,6.44,8.28l4,4.32c1.68,1.84,5.4,6.08,5.8,6.32.12-.12.12-.32.12-.96v-7.8c0-3-.04-6.68-.76-7.88-.36-.6-1-.88-2-1l-.92-.12c-.36-.28-.32-1.04.08-1.16,1.56.08,3.04.12,4.6.12,1.72,0,2.76-.04,4.2-.12.32.2.4.88.08,1.16l-.92.2c-.76.16-1.44.28-1.72.92-.56,1.24-.56,4.72-.56,7.88,0,0,0,9.56,0,9.56Z"/>
          </g>
          <g id="g3443">
            <path id="path3445" class="st0" d="M422.35,53.44c1.12,0,1.28-.08.96-1.04l-1.68-4.8c-.72-2.12-.92-2.88-1.12-3.16h-.08c-.16.28-.52,1.28-1.2,3.16l-1.68,4.68c-.4,1.16-.32,1.16.64,1.16,0,0,4.16,0,4.16,0ZM417.55,55.24c-1.04,0-1,0-1.36,1.08l-1.64,4.8c-.8,2.36-.64,2.44.84,2.68l1.16.2c.28.28.24,1-.08,1.16-1.28-.08-2.6-.08-4.24-.12-1.32,0-2.56.04-3.96.12-.28-.2-.32-.8-.04-1.16l1.2-.2c1.16-.2,1.6-.52,2.2-1.84.48-1.04,1.12-2.72,1.96-4.88l5.48-14.24c.48-1.28.88-2.24.76-2.92,1.4-.28,2.72-1.92,2.8-1.92.32,0,.52.12.68.32.64,1.8,1.16,3.68,1.8,5.48l5.76,16.76c.92,2.68,1.12,2.92,3.16,3.32l.6.12c.32.28.32.96.04,1.16-1.64-.08-3.12-.12-5.2-.12-1.72,0-3.48.08-4.88.12-.32-.2-.36-.92-.12-1.16l.88-.12c1.44-.2,1.64-.44,1.04-2.12l-1.88-5.44c-.36-1.08-.52-1.08-1.64-1.08,0,0-5.32,0-5.32,0Z"/>
          </g>
          <g id="g3447">
            <path id="path3449" class="st0" d="M441.64,42.01c0-1.68-.04-1.76-1.08-1.76h-2.24c-3.68,0-4.76.44-6.24,3.68-.28.24-1.12.12-1.28-.28.68-2.16,1.28-4.64,1.56-6.04.08-.12.24-.16.44-.16.16,0,.32.04.4.16.2,1,.76,1.04,3.48,1.04h16.32c1.96,0,2.56-.12,3.04-1.04.16-.08.32-.16.48-.16.24,0,.44.08.52.2-.4,1.64-.72,5.08-.6,6.36-.2.32-.88.4-1.24.12-.52-3.12-1.28-3.88-5.56-3.88h-2.28c-1.04,0-1.08.08-1.08,1.76v17.28c0,4.24.36,4.36,2.24,4.56l1.44.16c.28.28.24,1-.08,1.16-2.32-.08-4.12-.12-5.88-.12s-3.64.04-6.2.12c-.32-.16-.36-.96-.08-1.16l1.68-.2c1.88-.24,2.24-.28,2.24-4.52,0,0,0-17.28,0-17.28Z"/>
          </g>
          <g id="g3451">
            <path id="path3453" class="st0" d="M466.04,59.28c0,4.24.36,4.36,2.24,4.6l.88.12c.28.28.24,1-.08,1.16-1.76-.08-3.56-.12-5.32-.12s-3.64.04-5.4.12c-.32-.16-.36-.88-.08-1.16l.88-.12c1.88-.24,2.24-.36,2.24-4.6v-14.88c0-4.24-.36-4.36-2.24-4.6l-.88-.12c-.28-.28-.24-1,.08-1.16,1.76.08,3.56.12,5.4.12s3.56-.04,5.32-.12c.32.16.36.88.08,1.16l-.88.12c-1.88.24-2.24.36-2.24,4.6,0,0,0,14.88,0,14.88Z"/>
          </g>
          <g id="g3455">
            <path id="path3457" class="st0" d="M477.08,51.04c0,5.52,2.36,13.04,9.2,13.04,4.56,0,8.24-3.4,8.24-11.44,0-6.04-2.72-13.04-9.08-13.04-4,0-8.36,2.92-8.36,11.44M499.95,51.92c0,7.88-6,13.76-14.08,13.76-9.04,0-14.24-6.36-14.24-13.48,0-8.16,5.92-14.2,14.32-14.2,9.24,0,14,6.64,14,13.92"/>
          </g>
          <g id="g3459">
            <path id="path3461" class="st0" d="M526,58.24c0,1.2,0,6.12.12,7.04-.32.44-.88.6-1.36.56-.64-.84-1.8-2.2-4.68-5.48l-9.36-10.68c-2.56-2.96-3.88-4.44-4.56-5.04-.12,0-.12.44-.12,2.56v7.8c0,3,.04,6.68.72,7.88.36.6,1.04.88,2.04,1l.88.12c.36.28.32,1.04-.08,1.16-1.48-.08-3.04-.12-4.56-.12-1.68,0-2.76.04-4.16.12-.32-.2-.4-.88-.08-1.16l.88-.2c.76-.16,1.48-.28,1.76-.92.52-1.24.52-4.72.52-7.88v-9.48c0-3.12.04-3.76-1.32-4.92-.44-.36-1.56-.68-2.12-.8l-.6-.12c-.28-.24-.24-1.04.16-1.16,1.52.16,3.72.12,4.72.12.84,0,1.8-.04,2.76-.12.68,1.72,5.04,6.76,6.44,8.28l4,4.32c1.68,1.84,5.4,6.08,5.8,6.32.12-.12.12-.32.12-.96v-7.8c0-3-.04-6.68-.76-7.88-.36-.6-1-.88-2-1l-.92-.12c-.36-.28-.32-1.04.08-1.16,1.56.08,3.04.12,4.6.12,1.72,0,2.76-.04,4.2-.12.32.2.4.88.08,1.16l-.92.2c-.76.16-1.44.28-1.72.92-.56,1.24-.56,4.72-.56,7.88,0,0,0,9.56,0,9.56Z"/>
          </g>
          <g id="g3463">
            <path id="path3465" class="st0" d="M542.36,53.44c1.12,0,1.28-.08.96-1.04l-1.68-4.8c-.72-2.12-.92-2.88-1.12-3.16h-.08c-.16.28-.52,1.28-1.2,3.16l-1.68,4.68c-.4,1.16-.32,1.16.64,1.16h4.16ZM537.56,55.24c-1.04,0-1,0-1.36,1.08l-1.64,4.8c-.8,2.36-.64,2.44.84,2.68l1.16.2c.28.28.24,1-.08,1.16-1.28-.08-2.6-.08-4.24-.12-1.32,0-2.56.04-3.96.12-.28-.2-.32-.8-.04-1.16l1.2-.2c1.16-.2,1.6-.52,2.2-1.84.48-1.04,1.12-2.72,1.96-4.88l5.48-14.24c.48-1.28.88-2.24.76-2.92,1.4-.28,2.72-1.92,2.8-1.92.32,0,.52.12.68.32.64,1.8,1.16,3.68,1.8,5.48l5.76,16.76c.92,2.68,1.12,2.92,3.16,3.32l.6.12c.32.28.32.96.04,1.16-1.64-.08-3.12-.12-5.2-.12-1.72,0-3.48.08-4.88.12-.32-.2-.36-.92-.12-1.16l.88-.12c1.44-.2,1.64-.44,1.04-2.12l-1.88-5.44c-.36-1.08-.52-1.08-1.64-1.08,0,0-5.32,0-5.32,0Z"/>
          </g>
          <g id="g3467">
            <path id="path3469" class="st0" d="M563.72,58.44c0,2,.08,3.44.68,4.12.48.56,1.12.88,4.32.88,4.44,0,5.08-.2,6.92-4.32.4-.2,1.04-.08,1.24.24-.32,1.68-1.2,4.72-1.68,5.8-1.68-.08-5.12-.12-9.6-.12h-4.16c-2.04,0-4.04.04-5.72.12-.32-.16-.44-.96-.08-1.16l1.2-.2c1.88-.32,2.24-.36,2.24-4.52v-14.88c0-4.16-.36-4.28-2.24-4.56l-1.12-.16c-.28-.2-.28-1,.08-1.16,2,.08,3.8.12,5.64.12s3.56-.04,5.32-.12c.36.16.4.96.08,1.16l-.88.16c-1.88.32-2.24.4-2.24,4.56,0,0,0,14.04,0,14.04Z"/>
          </g>
          <g id="g3471">
            <path id="path3473" class="st0" d="M263.7,82.41c0-4.24-.36-4.32-2.24-4.64l-.68-.12c-.28-.28-.24-.96.08-1.12,1.6.08,3.4.12,5.16.12s3.6-.04,5.36-.12c.32.16.36.84.08,1.12l-.88.12c-1.88.24-2.24.4-2.24,4.64v9.16c0,5.52,1.68,10.16,7.24,10.16,5.24,0,7.4-3.96,7.4-10.04v-5c0-3-.04-6.72-.76-7.88-.36-.6-1-.88-2-1.04l-.8-.12c-.36-.28-.32-1,.08-1.12,1.36.08,2.88.12,4.44.12,1.68,0,2.76-.04,4.24-.12.32.2.4.84.08,1.12l-.88.2c-.76.16-1.48.32-1.76.96-.56,1.2-.56,4.72-.56,7.88v4.76c0,3.64-.56,7-2.64,9.24-2.08,2.24-5.08,3-7.84,3-3.76,0-6.4-.8-8.24-2.56-1.8-1.72-2.64-4.52-2.64-8.56,0,0,0-10.16,0-10.16Z"/>
          </g>
          <g id="g3475">
            <path id="path3477" class="st0" d="M315.7,96.24c0,1.2,0,6.12.12,7.04-.32.44-.88.6-1.36.56-.64-.84-1.8-2.2-4.68-5.48l-9.36-10.68c-2.56-2.96-3.88-4.44-4.56-5.04-.12,0-.12.44-.12,2.56v7.8c0,3,.04,6.68.72,7.88.36.6,1.04.88,2.04,1l.88.12c.36.28.32,1.04-.08,1.16-1.48-.08-3.04-.12-4.56-.12-1.68,0-2.76.04-4.16.12-.32-.2-.4-.88-.08-1.16l.88-.2c.76-.16,1.48-.28,1.76-.92.52-1.24.52-4.72.52-7.88v-9.48c0-3.12.04-3.76-1.32-4.92-.44-.36-1.56-.68-2.12-.8l-.6-.12c-.28-.24-.24-1.04.16-1.16,1.52.16,3.72.12,4.72.12.84,0,1.8-.04,2.76-.12.68,1.72,5.04,6.76,6.44,8.28l4,4.32c1.68,1.84,5.4,6.08,5.8,6.32.12-.12.12-.32.12-.96v-7.8c0-3-.04-6.68-.76-7.88-.36-.6-1-.88-2-1l-.92-.12c-.36-.28-.32-1.04.08-1.16,1.56.08,3.04.12,4.6.12,1.72,0,2.76-.04,4.2-.12.32.2.4.88.08,1.16l-.92.2c-.76.16-1.44.28-1.72.92-.56,1.24-.56,4.72-.56,7.88,0,0,0,9.56,0,9.56Z"/>
          </g>
          <g id="g3479">
            <path id="path3481" class="st0" d="M329.55,97.28c0,4.24.36,4.36,2.24,4.6l.88.12c.28.28.24,1-.08,1.16-1.76-.08-3.56-.12-5.32-.12s-3.64.04-5.4.12c-.32-.16-.36-.88-.08-1.16l.88-.12c1.88-.24,2.24-.36,2.24-4.6v-14.88c0-4.24-.36-4.36-2.24-4.6l-.88-.12c-.28-.28-.24-1,.08-1.16,1.76.08,3.56.12,5.4.12s3.56-.04,5.32-.12c.32.16.36.88.08,1.16l-.88.12c-1.88.24-2.24.36-2.24,4.6,0,0,0,14.88,0,14.88Z"/>
          </g>
          <g id="g3483">
            <path id="path3485" class="st0" d="M352.26,93.13c-1.64,3.64-3.48,8.32-4.16,10.36-.08.12-.4.2-.68.2s-.56-.08-.76-.2c-.48-1.6-1.12-3.56-1.84-5.24l-7-16.84c-1.12-2.68-1.48-3.24-3.08-3.56l-.96-.2c-.28-.28-.28-1,.12-1.12,1.56.08,3.28.12,4.84.12,1.8,0,3.16-.04,5.28-.12.36.24.4.88.04,1.16l-1,.24c-.88.2-1.2.4-1.2.72,0,.36.32,1.24,1.96,5.32l2.88,7.12c.72,1.8,1.8,4.16,2.2,5.08,2.16-5.04,4.56-10.56,6.68-16,.64-1.6.52-1.92-.68-2.2l-1.16-.28c-.28-.32-.24-.96.08-1.16,1.64.08,3,.12,4.28.12,1.44,0,2.76-.04,3.88-.12.32.2.28.84.08,1.16l-1,.2c-.92.2-1.8.48-2.48,1.64-1.12,1.92-2.24,4.6-4.08,8.64,0,0-2.24,4.96-2.24,4.96Z"/>
          </g>
          <g id="g3487">
            <path id="path3489" class="st0" d="M365.88,82.41c0-4.24-.36-4.4-2.24-4.64l-.64-.08c-.28-.28-.24-1,.08-1.16,1.52.08,3.4.12,5.16.12h7.64c2.56,0,4.88-.04,5.4-.12.16.68.4,3.84.64,5.56-.16.32-.96.4-1.28.16-.64-2.32-1.24-3.28-2.52-3.64-.92-.24-2.12-.36-3.2-.36h-2.68c-1.72,0-1.72.08-1.72,2.36v6.76c0,1.04.04,1.08.96,1.08h1.92c3.48,0,4.08-.04,4.44-1.76l.28-1.36c.32-.28,1.08-.28,1.28.04-.04,1.08-.12,2.52-.12,4s.08,2.92.12,4.2c-.2.28-.96.28-1.28.04l-.28-1.6c-.28-1.68-.96-1.76-4.44-1.76h-1.92c-.92,0-.96.08-.96,1.08v5.08c0,2.04.08,3.48.68,4.16.48.56,1.16.84,4.52.88,5.08.04,5.96-1.08,7.36-4.32.36-.28,1.04-.16,1.28.24-.24,1.68-1.12,4.72-1.68,5.8-1.76-.08-5.2-.12-9.88-.12h-4.56c-1.76,0-4.2.04-6,.12-.32-.16-.36-.88-.08-1.16l1.48-.16c1.88-.2,2.24-.32,2.24-4.56,0,0,0-14.88,0-14.88Z"/>
          </g>
          <g id="g3491">
            <path id="path3493" class="st0" d="M394.51,88.41c0,1.28,0,1.36,1.92,1.36,3.92,0,5.72-1.92,5.72-5.72,0-3.16-2.04-5.92-5.52-5.92-2.08,0-2.12.12-2.12,1.96,0,0,0,8.32,0,8.32ZM389.87,82.65c0-3.84-.04-4.32-1.92-4.52l-1.04-.12c-.28-.28-.28-.92.04-1.12,2.52-.24,5.92-.36,9.2-.36s5.84.4,7.6,1.36c2.04,1.08,3.52,2.96,3.52,5.84,0,3.68-2.84,5.52-4.8,6.32-.24.12-.16.44,0,.68,3.2,5.4,5.2,8.8,7.08,10.36,1.12.96,2.28,1.2,2.76,1.24.2.16.2.6.08.8-.48.12-1.24.24-2.64.24-3.84,0-5.92-1.56-8.36-5.28-1.08-1.68-2.2-3.88-3.16-5.44-.72-1.2-1.16-1.36-2.48-1.36-1.2,0-1.24.04-1.24.88v5.12c0,4.24.36,4.36,2.24,4.6l.88.12c.28.28.24,1-.08,1.16-1.76-.08-3.56-.12-5.32-.12s-3.56.04-5.4.12c-.32-.16-.44-.88-.08-1.16l.88-.12c1.88-.24,2.24-.36,2.24-4.6,0,0,0-14.64,0-14.64Z"/>
          </g>
          <g id="g3495">
            <path id="path3497" class="st0" d="M414.04,102.01c-.72-.84-1.24-3.6-1.2-6.08.24-.4.92-.44,1.24-.16.72,2.04,2.88,6.32,6.8,6.32,3.04,0,4.76-1.84,4.76-4.28,0-2.28-1.08-4.12-4.08-5.8l-1.72-.96c-3-1.68-5.64-4.12-5.64-7.72,0-3.96,2.96-7.32,8.8-7.32,2.08,0,3.6.48,5.48.84.44.88.84,3.52.84,5.4-.2.36-.92.4-1.28.12-.6-2.08-2-4.76-5.4-4.76-3.2,0-4.52,2.08-4.52,4.2,0,1.68,1.16,3.48,3.8,4.88l2.48,1.32c2.6,1.36,5.48,3.84,5.48,7.88,0,4.56-3.48,7.8-9.28,7.8-3.68,0-5.76-1.2-6.56-1.68"/>
          </g>
          <g id="g3499">
            <path id="path3501" class="st0" d="M440.91,97.28c0,4.24.36,4.36,2.24,4.6l.88.12c.28.28.24,1-.08,1.16-1.76-.08-3.56-.12-5.32-.12s-3.64.04-5.4.12c-.32-.16-.36-.88-.08-1.16l.88-.12c1.88-.24,2.24-.36,2.24-4.6v-14.88c0-4.24-.36-4.36-2.24-4.6l-.88-.12c-.28-.28-.24-1,.08-1.16,1.76.08,3.56.12,5.4.12s3.56-.04,5.32-.12c.32.16.36.88.08,1.16l-.88.12c-1.88.24-2.24.36-2.24,4.6,0,0,0,14.88,0,14.88Z"/>
          </g>
          <g id="g3503">
            <path id="path3505" class="st0" d="M457.11,80.01c0-1.68-.04-1.76-1.08-1.76h-2.24c-3.68,0-4.76.44-6.24,3.68-.28.24-1.12.12-1.28-.28.68-2.16,1.28-4.64,1.56-6.04.08-.12.24-.16.44-.16.16,0,.32.04.4.16.2,1,.76,1.04,3.48,1.04h16.32c1.96,0,2.56-.12,3.04-1.04.16-.08.32-.16.48-.16.24,0,.44.08.52.2-.4,1.64-.72,5.08-.6,6.36-.2.32-.88.4-1.24.12-.52-3.12-1.28-3.88-5.56-3.88h-2.28c-1.04,0-1.08.08-1.08,1.76v17.28c0,4.24.36,4.36,2.24,4.56l1.44.16c.28.28.24,1-.08,1.16-2.32-.08-4.12-.12-5.88-.12s-3.64.04-6.2.12c-.32-.16-.36-.96-.08-1.16l1.68-.2c1.88-.24,2.24-.28,2.24-4.52,0,0,0-17.28,0-17.28Z"/>
          </g>
          <g id="g3507">
            <path id="path3509" class="st0" d="M483.07,94.93c0-2.24-.2-2.84-1.28-4.96l-4.8-9.48c-.88-1.72-1.2-2.16-3-2.56l-1.04-.24c-.24-.28-.16-1.04.16-1.16,1.72.08,3.4.12,5.04.12,1.76,0,4.2-.04,5.12-.12.32.16.4.88.08,1.16l-1.2.2c-.64.12-.84.2-.84.52s.12.76.72,2.08c1.56,3.44,3.04,6.68,4.64,9.6,1.64-3.04,3.12-5.84,4.68-8.84.68-1.36,1.08-2.24,1.08-2.68,0-.4-.36-.52-.92-.6l-1.2-.28c-.28-.28-.28-.96.12-1.16,1.76.08,3,.12,4.2.12s2.52-.04,3.8-.12c.36.2.36.84.08,1.16l-1.16.24c-1.8.36-2.28,1.08-4.36,4.6-1.36,2.28-2.56,4.48-3.8,6.72-1.2,2.08-1.48,2.92-1.48,5.64v2.4c0,4.24.36,4.36,2.32,4.56l1.52.16c.28.28.24,1-.08,1.16-2.48-.08-4.28-.12-6.04-.12s-3.64.04-5.8.12c-.32-.16-.36-.88-.08-1.16l1.28-.16c1.88-.24,2.24-.32,2.24-4.56,0,0,0-2.36,0-2.36Z"/>
          </g>
        </g>
      </g>
    </g>
  </g>
</svg>