<?xml version="1.0" encoding="UTF-8"?>
<svg xmlns="http://www.w3.org/2000/svg" version="1.1" xmlns:cc="http://creativecommons.org/ns#" xmlns:dc="http://purl.org/dc/elements/1.1/" xmlns:inkscape="http://www.inkscape.org/namespaces/inkscape" xmlns:rdf="http://www.w3.org/1999/02/22-rdf-syntax-ns#" xmlns:sodipodi="http://sodipodi.sourceforge.net/DTD/sodipodi-0.dtd" xmlns:svg="http://www.w3.org/2000/svg" viewBox="0 0 553.92 146.83">
  <!-- Generator: Adobe Illustrator 29.6.0, SVG Export Plug-In . SVG Version: 2.1.1 Build 207)  -->
  <defs>
    <style>
      .st0 {
        fill: #fff;
      }
    </style>
  </defs>
  <g id="svg1629" inkscape:version="0.92.0 r15299" sodipodi:docname="university of new hampshire.svg">
    <sodipodi:namedview id="base" bordercolor="#666666" borderopacity="1.0" fit-margin-bottom="0" fit-margin-left="0" fit-margin-right="0" fit-margin-top="0" inkscape:current-layer="layer1" inkscape:cx="367.38868" inkscape:cy="96.000076" inkscape:document-units="mm" inkscape:pageopacity="0.0" inkscape:pageshadow="2" inkscape:window-height="744" inkscape:window-maximized="1" inkscape:window-width="1280" inkscape:window-x="-4" inkscape:window-y="-4" inkscape:zoom="1.220778" pagecolor="#ffffff" showgrid="false"/>
    <g id="layer1" inkscape:groupmode="layer" inkscape:label="Layer 1">
      <path id="path1300" class="st0" d="M148.76,2.98h15.5v4.68h-4.63v17.68c0,2.65-.05,5.15,1.35,7.44,1.35,2.18,3.64,3.12,6.19,3.12,1.3,0,2.18-.26,3.38-.78,1.93-.78,3.02-2.96,3.59-4.83.47-1.72.36-3.74.36-5.46V7.66h-4.58V2.98h14.82v4.68h-3.74v16.54c0,2.81.16,6.03-.99,8.69-1.14,2.6-3.07,4.78-5.51,6.19-1.98,1.2-5.67,1.77-8.01,1.77s-5.62-.68-7.59-1.77c-2.18-1.14-3.8-3.02-4.94-5.15-1.51-2.7-1.46-5.77-1.46-8.79V7.66h-3.74V2.98" inkscape:connector-curvature="0"/>
      <path id="path1302" class="st0" d="M196.44,17.07c1.77-3.54,4.42-5.2,8.32-5.2,4.26,0,7.49,2.65,8.11,5.2.36,1.46.36,2.55.36,3.75v14.98h3.43v4.42h-13.57v-4.42h3.22v-12.43c0-1.35.05-2.44-.36-3.79-.47-1.67-1.87-2.91-3.69-2.91-5.05,0-5.36,4.73-5.36,8.58v10.56h3.33v4.42h-13.89v-4.42h3.64v-18.83h-3.64v-4.42h10.09v4.52" inkscape:connector-curvature="0"/>
      <path id="path1304" class="st0" d="M223.67,1.99h6.92v6.34h-6.92V1.99ZM219.98,40.21v-4.42h3.69v-18.83h-3.69v-4.42h10.61v23.25h3.22v4.42h-13.83" inkscape:connector-curvature="0"/>
      <path id="path1306" class="st0" d="M235.11,12.55h13v4.42h-3.43l5.15,17.63h.05l5.83-17.63h-3.49v-4.42h12.17v4.42h-2.13l-8.17,23.25h-8.58l-8.22-23.25h-2.18v-4.42" inkscape:connector-curvature="0"/>
      <path id="path1308" class="st0" d="M284.9,23.78c-.05-3.12-1.3-7.59-5.25-7.59-4.37,0-5.77,3.95-6.08,7.59h11.34ZM273.41,27.79c-.05,3.95,1.61,8.53,6.34,8.53,2.76,0,4.68-1.87,5.15-4.53h6.61c-.47,6.09-6.5,9.05-12.12,9.05-1.77,0-4.16-.57-5.77-1.3-1.82-.83-3.02-1.87-4.21-3.49-2.18-2.81-3.02-6.45-3.02-9.93,0-7.59,4.32-14.25,12.69-14.25,3.69,0,7.18.99,9.73,3.69,2.24,2.39,2.91,6.29,3.07,9.41.05.83.16,1.61.05,2.39,0,.15-.05.26-.05.42h-18.46" inkscape:connector-curvature="0"/>
      <path id="path1310" class="st0" d="M304.8,18.43c1.09-4.84,4.37-6.81,9.21-6.34v6.76c-.78-.21-1.61-.42-2.44-.42-2.55,0-4.78,1.56-5.67,3.9-.68,1.87-.68,4.42-.68,6.34v7.13h4.42v4.42h-14.98v-4.42h3.64v-18.83h-3.64v-4.42h10.14v5.88" inkscape:connector-curvature="0"/>
      <path id="path1312" class="st0" d="M333.04,21.44c-.31-2.97-1.4-5.41-4.73-5.41-2.24,0-4.32.99-4.32,3.54,0,.88.26,1.46.83,2.13.47.36,1.04.52,1.56.78,2.96.83,8.53,1.25,10.61,3.85,1.4,1.71,1.92,3.33,1.92,5.51.05,1.61-.68,4.11-1.72,5.56-1.25,1.72-4.26,3.43-8.17,3.43-2.6,0-5.41-1.2-6.81-3.43v2.81h-4.99v-9.62h5.41c.21,3.43,1.72,5.83,5.41,5.83,1.92,0,3.9-1.35,3.9-3.43,0-1.04-.31-2.29-1.35-2.81-3.12-1.51-6.92-1.14-9.88-3.12-2.55-1.77-3.54-4.16-3.54-7.23-.26-2.29,1.09-3.95,1.82-4.99,1.04-1.46,4.47-2.96,7.7-2.96,2.39,0,5.1,1.04,6.55,2.96v-2.29h4.89v8.89h-5.1" inkscape:connector-curvature="0"/>
      <path id="path1314" class="st0" d="M346.12,1.99h6.92v6.34h-6.92V1.99ZM342.43,40.21v-4.42h3.69v-18.83h-3.69v-4.42h10.61v23.25h3.23v4.42h-13.83" inkscape:connector-curvature="0"/>
      <path id="path1316" class="st0" d="M376.66,32.93c0,3.28-1.04,6.29-4.47,7.39-.57.21-2.29.52-2.86.52-1.25,0-1.98-.21-3.17-.52-2.39-.73-3.69-2.39-4.21-4.73-.26-1.14-.21-3.59-.21-4.84v-13.78h-4.11v-4.42h4.11v-4.73l6.92-2.34v7.07h6.92v4.42h-6.92v17.32c0,.52.31,1.56.83,1.77,3.17,1.3,2.96-3.12,2.91-4.99h4.26v1.87" inkscape:connector-curvature="0"/>
      <path id="path1318" class="st0" d="M378.92,12.55h13.26v4.42h-3.59l5.31,14.61.26.68,5.3-15.29h-3.43v-4.42h12.27v4.42h-2.18l-9.88,24.96c-1.66,4.32-3.28,7.38-8.48,7.38-1.4,0-2.81,0-4.16-.26v-4.78c.94.05,1.87.16,2.81.16,2.5,0,3.02-.83,3.9-2.97l.36-.88-9.52-23.61h-2.24v-4.42" inkscape:connector-curvature="0"/>
      <path id="path1320" class="st0" d="M429.01,26.33c0,2.29.21,4.37,1.3,6.45.99,1.98,2.76,3.48,5.1,3.48,2.5,0,4.21-1.77,5.15-3.9.78-1.82.99-4.21.99-6.14,0-2.29-.21-4.26-1.25-6.34-.99-1.93-2.65-3.43-4.99-3.43-4.99,0-6.29,6.03-6.29,9.88ZM424.95,36.26c-2.29-2.86-3.17-6.5-3.17-10.09,0-3.9.94-7.43,3.64-10.35,2.44-2.6,6.14-3.95,9.67-3.95,8.89,0,13.68,6.19,13.68,14.56s-4.94,14.4-13.47,14.4c-3.74,0-8.01-1.66-10.35-4.58" inkscape:connector-curvature="0"/>
      <path id="path1322" class="st0" d="M450.91,16.97v-4.42h4.06v-2.39c0-2.55.52-5.25,2.81-6.71,2.24-1.51,4.37-2.03,7.07-2.03,1.3,0,2.6.31,3.9.68v4.68c-.94-.16-1.82-.31-2.76-.31-1.4,0-2.55.31-3.54,1.4-.62.83-.57,2.76-.57,3.64v1.04h4.73v4.42h-4.73v18.83h4.58v4.42h-15.24v-4.42h3.74v-18.83h-4.06" inkscape:connector-curvature="0"/>
      <path id="path1324" class="st0" d="M149.33,92.43v-4.68h4.32v-27.87h-4.32v-4.68h13.83l13.83,29.28h.05v-24.6h-4.37v-4.68h14.67v4.68h-4.06v32.56h-9.21l-14.15-30.06h-.05v25.38h4.11v4.68h-14.67" inkscape:connector-curvature="0"/>
      <path id="path1326" class="st0" d="M207.53,76c-.05-3.12-1.3-7.59-5.25-7.59-4.37,0-5.77,3.95-6.08,7.59h11.34ZM196.04,80c-.05,3.95,1.61,8.53,6.34,8.53,2.76,0,4.68-1.87,5.15-4.52h6.61c-.47,6.09-6.5,9.05-12.12,9.05-1.77,0-4.16-.57-5.77-1.3-1.82-.83-3.02-1.87-4.21-3.49-2.18-2.81-3.02-6.45-3.02-9.93,0-7.59,4.32-14.25,12.69-14.25,3.69,0,7.18.99,9.72,3.69,2.24,2.39,2.91,6.29,3.07,9.42.05.83.16,1.61.05,2.39,0,.16-.05.26-.05.42h-18.46" inkscape:connector-curvature="0"/>
      <path id="path1328" class="st0" d="M229.43,64.76v4.42h-3.69l3.95,17.89h.05l5.88-22.31h8.42l5.15,22.31h.05l4.68-17.89h-3.54v-4.42h12.27v4.42h-2.55l-6.66,23.25h-8.74l-4.99-20.75-5.67,20.75h-8.74l-6.66-23.25h-2.44v-4.42h13.21" inkscape:connector-curvature="0"/>
      <path id="path1330" class="st0" d="M276.09,92.43v-4.68h4.26v-27.87h-4.26v-4.68h15.91v4.68h-4.53v11.34h15.08v-11.34h-4.52v-4.68h15.97v4.68h-4.32v27.87h4.32v4.68h-15.97v-4.68h4.52v-11.86h-15.08v11.86h4.53v4.68h-15.91" inkscape:connector-curvature="0"/>
      <path id="path1332" class="st0" d="M331.12,79.64c-3.54,0-6.76.83-6.76,5.05,0,2.13,1.4,3.85,3.64,3.85,5.05,0,6.24-4.84,6.4-8.89h-3.28ZM334.92,88.01c-1.56,3.48-4.89,5.04-8.63,5.04s-7.59-2.19-8.22-5.04c-.57-1.82-.62-2.76-.62-3.59,0-2.34.94-4.68,2.7-6.24,1.35-1.25,4.47-2.34,6.29-2.39,1.3-.05,2.7-.26,4-.26s2.5.16,3.74.21c.37-3.33-.1-7.49-4.42-7.49-3.02,0-4.47,2.08-4.42,4.99h-6.87c.16-6.76,5.2-9.15,11.29-9.15,4.32,0,8.37,1.14,10.25,5.41.42.94.52,1.51.67,2.6.16,1.19.21,2.34.21,3.54v12.43h3.59v4.37h-9.57v-4.42" inkscape:connector-curvature="0"/>
      <path id="path1334" class="st0" d="M357.7,69.29c1.77-3.54,4.68-5.2,8.69-5.2,3.69,0,6.4,1.4,7.7,5.2,1.51-3.54,4.47-5.2,8.06-5.2,3.95,0,6.76,1.82,8.11,5.2.68,1.71.47,2.96.47,4.32v14.41h3.38v4.42h-13.57v-4.42h3.28v-12.33c0-2.81-.37-6.5-4.11-6.5-2.03,0-3.48.94-4.37,2.81-.89,1.82-.89,3.38-.89,5.36v10.66h3.23v4.42h-13.31v-4.42h3.17v-12.79c0-1.56,0-2.76-.68-4.21-.52-1.09-1.87-1.82-3.07-1.82-2.91,0-4.47,1.77-5.25,4.37-.36,1.35-.36,2.65-.36,4.06v10.4h3.33v4.42h-13.89v-4.42h3.64v-18.83h-3.64v-4.42h10.09v4.52" inkscape:connector-curvature="0"/>
      <path id="path1336" class="st0" d="M407.29,71.94c-1.2,2.29-1.66,4.53-1.66,6.76,0,3.9,1.51,9.67,6.4,9.67s6.19-5.46,6.19-9.41-.78-10.35-5.98-10.35c-2.24,0-4.11,1.56-4.94,3.33ZM405.62,69.44c1.92-3.74,4.89-5.35,8.17-5.35,4.21,0,7.02,1.72,9.52,5.35,1.09,1.62,2.03,5.05,2.03,8.79,0,4.16-.42,6.76-2.6,10.35-1.77,2.91-5.51,4.47-8.84,4.47-3.07,0-5.77-1.35-7.85-4.78v8.17h3.9v4.42h-14.46v-4.42h3.64v-27.25h-3.64v-4.42h10.14v4.68" inkscape:connector-curvature="0"/>
      <path id="path1338" class="st0" d="M445.43,73.66c-.31-2.97-1.41-5.41-4.73-5.41-2.24,0-4.32.99-4.32,3.54,0,.88.26,1.46.83,2.13.47.36,1.04.52,1.56.78,2.97.83,8.53,1.25,10.61,3.85,1.4,1.71,1.92,3.33,1.92,5.51.05,1.61-.68,4.11-1.72,5.56-1.25,1.72-4.26,3.43-8.17,3.43-2.6,0-5.41-1.2-6.81-3.43v2.81h-4.99v-9.62h5.41c.21,3.43,1.72,5.83,5.41,5.83,1.92,0,3.9-1.35,3.9-3.43,0-1.04-.31-2.29-1.35-2.81-3.12-1.51-6.92-1.15-9.88-3.12-2.55-1.77-3.54-4.16-3.54-7.23-.26-2.29,1.09-3.95,1.82-4.99,1.04-1.46,4.47-2.96,7.7-2.96,2.39,0,5.1,1.04,6.55,2.96v-2.29h4.89v8.89h-5.1" inkscape:connector-curvature="0"/>
      <path id="path1340" class="st0" d="M454.52,92.43v-4.42h3.54v-29.02h-3.54v-4.42h10.45v13.78c1.92-3.07,4.26-4.27,7.91-4.27,2.29,0,5.04.68,6.6,2.44,1.66,1.87,1.92,4.16,1.92,6.55v14.93h3.49v4.42h-13.78v-4.42h3.38v-12.43c0-1.04-.1-2.13-.26-3.17-.16-1.98-1.77-3.59-3.8-3.59-2.5,0-3.9,1.3-4.73,3.54-.78,1.92-.73,3.85-.73,5.88v9.78h3.38v4.42h-13.83" inkscape:connector-curvature="0"/>
      <path id="path1342" class="st0" d="M491.87,54.21h6.92v6.34h-6.92v-6.34ZM488.18,92.43v-4.42h3.69v-18.83h-3.69v-4.42h10.61v23.25h3.23v4.42h-13.83" inkscape:connector-curvature="0"/>
      <path id="path1352" class="st0" d="M515.45,70.64c1.09-4.84,4.37-6.81,9.2-6.35v6.76c-.78-.21-1.61-.42-2.44-.42-2.55,0-4.78,1.56-5.67,3.9-.68,1.87-.68,4.42-.68,6.34v7.13h4.42v4.42h-14.98v-4.42h3.64v-18.83h-3.64v-4.42h10.14v5.88" inkscape:connector-curvature="0"/>
      <path id="path1354" class="st0" d="M545.44,76c-.05-3.12-1.3-7.59-5.25-7.59-4.37,0-5.77,3.95-6.08,7.59h11.34ZM533.94,80c-.05,3.95,1.61,8.53,6.34,8.53,2.76,0,4.68-1.87,5.15-4.52h6.6c-.47,6.09-6.5,9.05-12.12,9.05-1.77,0-4.16-.57-5.77-1.3-1.82-.83-3.02-1.87-4.21-3.49-2.18-2.81-3.02-6.45-3.02-9.93,0-7.59,4.32-14.25,12.69-14.25,3.69,0,7.18.99,9.73,3.69,2.24,2.39,2.91,6.29,3.07,9.42.05.83.16,1.61.05,2.39,0,.16-.05.26-.05.42h-18.46" inkscape:connector-curvature="0"/>
      <path id="path1368" class="st0" d="M25.8,92.46v-58.84h13.19l8.94,26.06h.16v-26.06h11.8v58.84h-12.79l-9.34-30.48h-.16v30.48h-11.8" inkscape:connector-curvature="0"/>
      <path class="st0" d="M59.9,3.02H1.42v70.32c-.01,18.45,5.05,33.12,15.47,44.86,8.65,9.74,21.28,21.45,43.01,27.21,21.72-5.76,34.35-17.47,43-27.21,10.42-11.74,15.49-26.41,15.47-44.86V3.02h-58.47ZM93.99,92.46h-12.19v-23.69h-9.69v23.69h-12.21v39.02c-16.08-5.05-25.68-13.92-33-22.17h0c-8.26-9.3-12.1-20.73-12.09-35.96V16.41h45.1v17.21h12v23.05h9.68v-23.05h12.4v58.84Z"/>
    </g>
  </g>
</svg>