<?xml version="1.0" encoding="UTF-8"?>
<svg id="layer" xmlns="http://www.w3.org/2000/svg" version="1.1" viewBox="0 0 652 652">
  <!-- Generator: Adobe Illustrator 29.6.0, SVG Export Plug-In . SVG Version: 2.1.1 Build 207)  -->
  <defs>
    <style>
      .st0 {
        fill: #fff;
      }
    </style>
  </defs>
  <path class="st0" d="M251.9,278.4l-10.6,29.2h-4.3l-7.6-20.7c-2.5,6.8-5.2,13.9-7.6,20.7h-4.2l-10.6-29.2h5.7l7.1,19.3,7.1-19.3h5.2l7.1,19.3,7-19.3h5.7Z"/>
  <path class="st0" d="M336.4,286.3h-5.4v-2.3c0-.2-.1-.3-.3-.3h-17.9c-.2,0-.3.1-.3.3v18c0,.2.1.3.3.3h17.9c.2,0,.3-.1.3-.3v-5.5h-6.6v-5.4h12v10.9c0,3.1-2.6,5.6-5.7,5.6h-17.9c-3.1,0-5.6-2.5-5.6-5.6v-17.9c0-3.1,2.5-5.6,5.6-5.6h17.9c3.1,0,5.7,2.5,5.7,5.6v2.2Z"/>
  <polygon class="st0" points="380.3 283.8 358.9 283.8 358.9 290.3 376.1 290.3 376.1 295.7 358.9 295.7 358.9 302.3 380.3 302.3 380.3 307.6 353.5 307.6 353.5 278.4 380.3 278.4 380.3 283.8"/>
  <polygon class="st0" points="420.3 278.4 425.7 278.4 425.7 307.6 419.8 307.6 401.8 286.2 401.8 307.6 396.5 307.6 396.5 278.4 402.3 278.4 420.3 299.8 420.3 278.4"/>
  <rect class="st0" x="441.4" y="278.4" width="5.3" height="29.2"/>
  <polygon class="st0" points="487.1 278.4 492.5 278.4 492.5 307.6 486.6 307.6 468.6 286.2 468.6 307.6 463.3 307.6 463.3 278.4 469.1 278.4 487.1 299.8 487.1 278.4"/>
  <path class="st0" d="M537.6,286.3h-5.4v-2.3c0-.2-.1-.3-.3-.3h-17.9c-.2,0-.3.1-.3.3v18c0,.2.1.3.3.3h17.9c.2,0,.3-.1.3-.3v-5.5h-6.6v-5.4h12v10.9c0,3.1-2.6,5.6-5.7,5.6h-17.9c-3.1,0-5.6-2.5-5.6-5.6v-17.9c0-3.1,2.5-5.6,5.6-5.6h17.9c3.1,0,5.7,2.5,5.7,5.6v2.2h0Z"/>
  <polygon class="st0" points="581 283.8 559.5 283.8 559.5 290.3 576.8 290.3 576.8 295.7 559.5 295.7 559.5 302.3 581 302.3 581 307.6 554.2 307.6 554.2 278.4 581 278.4 581 283.8"/>
  <polygon class="st0" points="620.4 278.4 625.8 278.4 625.8 307.6 620 307.6 602 286.2 602 307.6 596.6 307.6 596.6 278.4 602.5 278.4 620.4 299.8 620.4 278.4"/>
  <path class="st0" d="M287.3,284.1c-1.2-3.4-2.5-5.6-5.6-5.6h-8.8c-3.1,0-4.5,2.2-5.6,5.6l-8.5,23.6h5.5l3.5-9.8h18.9l3.6,9.8h5.4l-8.4-23.6ZM269.6,292.5l2.9-8.4c.1-.2.1-.3.3-.3h8.9c.2,0,.2.1.3.3l2.9,8.4h-15.3Z"/>
  <path class="st0" d="M223.8,330.6h2.6v14.2c0,1.7-1.4,3.1-3.1,3.1h-11c-1.7,0-3.1-1.4-3.1-3.1v-14.2h2.6v14.2c0,.3.2.5.5.5h11c.3,0,.5-.2.5-.5v-14.2Z"/>
  <polygon class="st0" points="247.5 330.6 250 330.6 250 347.9 247 347.9 235.4 334.1 235.4 347.9 232.8 347.9 232.8 330.6 235.8 330.6 247.5 344.5 247.5 330.6"/>
  <rect class="st0" x="256.5" y="330.6" width="2.6" height="17.3"/>
  <polygon class="st0" points="281.6 330.6 284.6 330.6 274.6 347.9 272 347.9 262 330.6 265 330.6 273.3 345 281.6 330.6"/>
  <polygon class="st0" points="302.8 333.2 289.5 333.2 289.5 338 300.2 338 300.2 340.6 289.5 340.6 289.5 345.3 302.8 345.3 302.8 347.9 286.9 347.9 286.9 330.6 302.8 330.6 302.8 333.2"/>
  <path class="st0" d="M326.3,338.6c0,1.7-1.4,3.1-3.1,3.1h-1.7l4.9,5.8v.4h-3.1l-5.2-6.2h-5.9c-.2,0-.4,0-.5-.1v6.2h-2.7v-17.3h14.2c1.7,0,3.1,1.4,3.1,3.1v5h0ZM311.6,333.3v5.9h11.6c.3,0,.5-.2.5-.5v-4.9c0-.3-.2-.5-.5-.5h-11.6Z"/>
  <path class="st0" d="M467.1,338.6c0,1.7-1.4,3.1-3.1,3.1h-1.8l4.9,5.8v.4h-3.1l-5.2-6.2h-5.9c-.2,0-.4,0-.5-.1v6.2h-2.6v-17.3h14.2c1.7,0,3.1,1.4,3.1,3.1v5ZM452.4,333.3v5.9h11.6c.3,0,.5-.2.5-.5v-4.9c0-.3-.2-.5-.5-.5h-11.6Z"/>
  <path class="st0" d="M580,338.6c0,1.7-1.4,3.1-3.1,3.1h-1.8l4.9,5.8v.4h-3.1l-5.2-6.2h-5.9c-.2,0-.4,0-.5-.1v6.2h-2.6v-17.3h14.2c1.7,0,3.1,1.4,3.1,3.1v5h0ZM565.3,333.3v5.9h11.6c.3,0,.5-.2.5-.5v-4.9c0-.3-.2-.5-.5-.5h-11.6Z"/>
  <path class="st0" d="M349.7,334.8h-2.6v-1c0-.3-.2-.5-.5-.5h-11c-.3,0-.5.2-.5.5v3.7c0,.3.2.5.5.5h11c1.7,0,3.1,1.4,3.1,3.1v3.7c0,1.7-1.4,3.1-3.1,3.1h-11c-1.7,0-3.1-1.4-3.1-3.1v-1h2.6v1c0,.3.2.5.5.5h11c.3,0,.5-.2.5-.5v-3.7c0-.3-.2-.5-.5-.5h-11c-1.7,0-3.1-1.4-3.1-3.1v-3.7c0-1.7,1.4-3.1,3.1-3.1h11c1.7,0,3.1,1.4,3.1,3.1v1Z"/>
  <rect class="st0" x="356.1" y="330.6" width="2.6" height="17.3"/>
  <polygon class="st0" points="380.2 330.6 380.2 333.2 372.9 333.2 372.9 347.9 370.3 347.9 370.3 333.2 362.9 333.2 362.9 330.6 380.2 330.6"/>
  <polygon class="st0" points="400.5 330.6 392.6 341.4 392.6 347.9 390 347.9 390 341.4 382 330.6 385.1 330.6 391.3 338.5 397.5 330.6 400.5 330.6"/>
  <polygon class="st0" points="489.2 333.2 476 333.2 476 338 486.7 338 486.7 340.6 476 340.6 476 345.3 489.2 345.3 489.2 347.9 473.4 347.9 473.4 330.6 489.2 330.6 489.2 333.2"/>
  <path class="st0" d="M511.8,334.8h-2.6v-1c0-.3-.2-.5-.5-.5h-11c-.3,0-.5.2-.5.5v3.7c0,.3.2.5.5.5h11c1.7,0,3.1,1.4,3.1,3.1v3.7c0,1.7-1.4,3.1-3.1,3.1h-11c-1.7,0-3.1-1.4-3.1-3.1v-1h2.6v1c0,.3.2.5.5.5h11c.3,0,.5-.2.5-.5v-3.7c0-.3-.2-.5-.5-.5h-11c-1.7,0-3.1-1.4-3.1-3.1v-3.7c0-1.7,1.4-3.1,3.1-3.1h11c1.7,0,3.1,1.4,3.1,3.1v1Z"/>
  <polygon class="st0" points="534 333.2 520.8 333.2 520.8 338 531.4 338 531.4 340.6 520.8 340.6 520.8 345.3 534 345.3 534 347.9 518.2 347.9 518.2 330.6 534 330.6 534 333.2"/>
  <path class="st0" d="M550.6,330.6c1.7,0,2.7,1.3,3.4,3.1l5,14.2h-2.7l-2.3-6.1h-12l-2.2,6.1h-2.6l5.2-14.2c.7-1.9,1.4-3.1,3.1-3.1h5.1ZM553.3,339.3l-2.1-5.5c-.1-.3-.2-.5-.5-.5h-5c-.3,0-.4.2-.5.5l-2.1,5.5h10.2Z"/>
  <path class="st0" d="M589,333.2c-.3,0-.5.2-.5.5v11c0,.3.2.5.5.5h14.1v2.6h-14.1c-1.7,0-3.1-1.4-3.1-3.1v-11c0-1.7,1.4-3.1,3.1-3.1h14.1v2.6h-14.1Z"/>
  <polygon class="st0" points="625.9 330.6 625.9 347.9 623.3 347.9 623.3 340.6 610.8 340.6 610.8 347.9 608.2 347.9 608.2 330.6 610.8 330.6 610.8 338 623.3 338 623.3 330.6 625.9 330.6"/>
  <path class="st0" d="M434,345.4l-3-1.9v-5h-2.6v3.3s-9.4-5.9-9.5-6h0c-.2-.1-.3-.3-.3-.5v-1.6c0-.3.2-.5.5-.5h6.4c.3,0,.5.2.5.5v1.1h2.6v-1.7c-.3-1.5-1.6-2.6-3.1-2.6h-6.4c-1.7,0-3.1,1.4-3.1,3.1v1.9c.1.9.5,1.2,1.3,1.7h-.5c-1.7,0-3.1.5-3.1,2.2v5.2c0,1.7,1.4,3.1,3.1,3.1h11c1.4,0,2.5-.8,2.9-2h0l3.2,2v-2.3h.1ZM428.4,344.8c0,.3-.2.5-.5.5h-11c-.3,0-.5-.2-.5-.5v-5.4c.1-.2.3-.3.6-.3h3.1l8.3,5.2v.5h0Z"/>
  <path class="st0" d="M190.3,348.1c1.7-1.5-3.7-3.4-3.7-3.4,0,0-5.8-2.7-28.7-4.5v7.9h-35.5v-9.1c-7.1-.2-21.1-.1-30.8,0v9.1h-35.4v-7.9c-15.4,1-25.5,3-25.5,3,0,0-1.7,1.4-1.9,1.6-1.9,1.3,0,1.8,1.3,2.4.5.3.5.4.4.9-.1.4-1.3.7-1.1,1.4.5,1.5,2.6.1,2.5,2-.2,2.3-5.3,1-5.8,3.2-.4,1.7,1.9.1,1.9,3.4s2.4,6.5,9,8.2c1.6.4,9,.3,5.2,2.5-.5.3-2,.2-2.5.3-.7.1-2.4,0-2.9.7-.7,1,.8,1,.6,2-.9.1-2.7.1-1.9,1.6.4.7,1.8,1.2,2.6,1.1,4.2-.2,3.6.1,4.9.3-2.3.5-4.4,2.9,4.3,2.6.2,1.3,2.5,1.2,3.4,1,54.4-12.1,77.9-6.9,78.1-10.3-.8-1.6-8.4-1.5-9.7-1.5-5-.2-15.6.3-14.9-1,.3-3,55.4-2.2,48.9-.4-.3.1-4.2.7-4.6,1-3,1.6,8.4,1.9,9.6,2,1.4.1,4.8,0,4.2,1.5-.2.5-4.3-.1-4.1.6.1.5,2.5.2,2.7.6,1.7,2.6-20.3,1.3-31.6,1.6-3.3.1-9.8.4-13.2.9-5.7.8-.9,2.1,8.1,2.9,4.8.4,29.4,2.4,50.2,5.2,6.3,1.1,8.1-1.9,6.7-2.8-.8-.5,2.6-2.2-1.2-3.9-2.4-1-.4-1.5-.3-1.4.4.1,5.3,1.3,3.5-.4-1.2-1.1.8-.4,1.2-.5,4.6-.3,3.5-2.1,3.8-1.8-1.4-1.4,2.3-2.3,1.5-5.3-.3-.9-5.6-.7-2.1-1.4.4-.1,5.3,0,.8-2.6-1-.6-2-.6-3.5-1-3.3-.8-.8-2.4.8-2.2,2,.3,4.1-1,3.7-3-.8-2.7-1.7-6.5,1-7.1"/>
  <polygon class="st0" points="61.4 267.5 61.4 348.1 91.5 348.1 91.5 297.9 122.3 297.9 122.3 348.1 152.5 348.1 152.5 267.5 61.4 267.5"/>
</svg>