<?xml version="1.0" encoding="UTF-8"?>
<svg id="_레이어_1" data-name="레이어_1" xmlns="http://www.w3.org/2000/svg" version="1.1" viewBox="0 0 600 275">
  <!-- Generator: Adobe Illustrator 29.6.0, SVG Export Plug-In . SVG Version: 2.1.1 Build 207)  -->
  <defs>
    <style>
      .st0 {
        fill: #fff;
      }
    </style>
  </defs>
  <path class="st0" d="M523.76,156.45h31.07v28.9c-5.7,2.17-16.89,4.35-27.5,4.35-34.37,0-45.8-17.45-45.8-52.87s10.88-53.71,45.22-53.71c19.14,0,29.99,6,38.99,17.45l23.74-21.81c-14.5-20.67-39.8-26.94-63.56-26.94-53.41-.02-81.5,29.11-81.5,84.72s25.38,85.33,81.21,85.33c25.64,0,50.7-6.53,64.34-16.09v-80.14h-66.22v30.8ZM360.78,187.25h79.07v32.17h-117.23V54.25h38.16v133Z"/>
  <path class="st0" d="M228.04,47.2c-49.88-49.88-130.76-49.89-180.63,0-49.88,49.88-49.88,130.76,0,180.63,49.88,49.88,130.76,49.89,180.63,0h0c49.88-49.88,49.88-130.76,0-180.63ZM168.99,191.27h-26.1v.06h-9.67v-107.76h9.65v98.07h26.1l.02,9.62ZM138.29,242.45c-58.23,0-105.46-46.93-105.46-104.9s47.21-104.9,105.45-104.9c1.54,0,3.07.03,4.59.09v9.55c-1.52-.07-3.05-.1-4.58-.1-52.93,0-95.86,42.69-95.86,95.35s42.92,95.36,95.86,95.36,93.54-40.39,95.77-91.07v-.27s-64.95,0-64.95,0v-9.62h74.47c.1,1.86.15,3.73.15,5.61,0,57.94-47.22,104.9-105.45,104.9ZM98.97,112.6h0,0c-1.94,0-3.86-.37-5.66-1.11-1.79-.74-3.43-1.82-4.8-3.19-1.38-1.37-2.47-2.99-3.22-4.79-.75-1.79-1.13-3.71-1.14-5.65,0-2.91.86-5.76,2.48-8.18,1.62-2.42,3.91-4.31,6.6-5.43,2.69-1.12,5.65-1.41,8.51-.85,2.86.56,5.48,1.96,7.55,4.01,2.06,2.05,3.47,4.67,4.05,7.53.58,2.85.3,5.82-.81,8.51-1.1,2.69-2.98,5-5.4,6.63-2.41,1.63-5.26,2.51-8.17,2.52h0Z"/>
</svg>