<?xml version="1.0" encoding="UTF-8"?>
<svg id="_레이어_1" data-name="레이어_1" xmlns="http://www.w3.org/2000/svg" version="1.1" viewBox="0 0 1574 481">
  <!-- Generator: Adobe Illustrator 29.6.0, SVG Export Plug-In . SVG Version: 2.1.1 Build 207)  -->
  <defs>
    <style>
      .st0, .st1 {
        fill: #fff;
      }

      .st1 {
        fill-rule: evenodd;
      }
    </style>
  </defs>
  <g id="Clip-Path:_Page_1">
    <g id="Page_1">
      <path id="Path_1" class="st1" d="M613.4,150.9c27.9-27.2,63-41.4,102.8-41.4s73.8,14.7,101,42c28.4,27.8,43.7,64.1,43.7,102.7s-14.7,76.6-40.8,103.8c-27.9,28.4-64.8,43.7-103.9,43.7-42,0-77.8-14.7-105.6-44.2-26.1-27.8-39.7-63-39.7-104.4,0-39.2,14.7-75,42.5-102.2h0ZM789.4,255.6c0-42.2-33-76.3-73.8-76.3s-73.8,34.1-73.8,76.3,33,76.3,73.8,76.3,73.8-34.1,73.8-76.3ZM895.6,115.2h62.4v281.4h-62.4V115.2ZM1157.2,373.4c-18.7,18.2-37.4,25-63,25s-47.87-8.33-66.4-25c-25-21.6-37.5-49.9-37.5-83.4,0-30.7,12-57.9,34.1-79.5,19.9-19.2,44.3-29.5,71-29.5s45.9,9.1,60.1,27.3v-23.9h62.5v212.8h-60.8v-23.8ZM1157.8,289.2c0-29.1-23.5-52.5-52.5-52.5s-52.5,23.4-52.5,52.5,23.5,52.5,52.5,52.5,52.5-23.5,52.5-52.5ZM1259.4,397.3v-212.8h56.8v28.3c13-21.5,31.7-32.3,57.9-32.3s44.8,10.8,59,34c22.1-23.2,39.2-34,65.8-34,47.7,0,75,26.7,75,76.6v140.2h-61.3v-115.2c0-30.1-6.3-43.2-29.6-43.2s-36.9,14.2-36.9,43.2v115.2h-61.3v-115.2c0-30.1-6.2-43.2-29.5-43.2s-36.9,14.2-36.9,43.2v115.2h-59Z"/>
      <path id="Path_2" class="st1" d="M481.2,240.6c-132.8,0-240.1,107.2-240.1,239.4,132.2,0,240.1-107.2,240.1-239.4ZM1,240.6c0,132.2,107.3,239.4,240.1,239.4,0-132.2-107.3-239.4-240.1-239.4Z"/>
      <path id="Path_3" class="st0" d="M10.1,174.2c9-31.2,24.4-60.2,44.8-85.1,106.7,38,186.2,182.1,186.2,295.6,0-113.5,79.4-257.6,186.2-295.6,20.4,24.9,35.2,53.9,44.2,85.1-128.2,5.7-230.4,131.1-230.4,260.4,0-129.3-102.8-254.7-231-260.4h0ZM115.1,36.3C151.4,13.6,194.5.5,241.1.5s89.1,13.1,126,35.8c-74.9,73.2-126,207.1-126,298.5,0-91.4-51.1-225.3-126-298.5h0Z"/>
    </g>
  </g>
</svg>