<?xml version="1.0" encoding="UTF-8"?>
<svg id="svg1" xmlns="http://www.w3.org/2000/svg" version="1.1" xmlns:svg="http://www.w3.org/2000/svg" viewBox="0 0 1800 480">
  <!-- Generator: Adobe Illustrator 29.6.0, SVG Export Plug-In . SVG Version: 2.1.1 Build 207)  -->
  <defs>
    <style>
      .st0 {
        fill: #fff;
      }
    </style>
  </defs>
  <g id="g1">
    <path id="Logo_ratio" class="st0" d="M120,294.76v-17.1h59.91v21.75c-.4,24.89,38.97,28.1,44.07,5.09,1.6-5.47,1.47-11.31-.39-16.69-11.6-29.16-90.83-42.36-100.89-87.81-2.05-9.98-2.18-20.27-.38-30.3,6.18-36.49,38.25-49.69,78.06-49.69,31.69,0,75.37,7.38,75.37,56.31v15.93h-55.65v-13.98c1.49-24.41-37-28.08-41.35-5.06-.63,3.87-.49,7.83.39,11.65,6.56,26.01,91.22,40.01,100.5,87,2.32,12.18,2.45,24.68.37,36.9-5.41,37.26-38.65,51.24-78.84,51.24-42.18,0-81.18-15.15-81.18-65.23ZM845.88,294v-17.1h59.15v21.36c-.81,24.67,38.39,28.21,43.62,5.43,1.6-5.34,1.47-11.06-.38-16.32-11.22-28.72-89.69-42-99.72-87.37-2.05-9.85-2.19-20.01-.39-29.91,6.23-36.11,38.34-49.3,77.34-49.3,31.32,0,74.59,7.77,74.59,55.92v15.54h-55.26v-13.59c1.57-24.18-36.63-28.12-40.58-5.43-.63,3.87-.5,7.83.38,11.66,6.18,26.01,90,39.62,99.35,86.21,2.32,12.05,2.44,24.42.38,36.51-5.42,37.29-38.26,50.88-78,50.88-41.8.03-80.48-15.17-80.48-64.47ZM1057.7,302.18c-.54-4.91-.66-9.85-.38-14.78V126.6h56.43v165.82c-.07,2.86.05,5.71.38,8.55,5.85,21.73,36.67,21.73,42.52,0,.33-2.84.47-5.69.39-8.55V126.6h56.46v160.77c0,4.27-.39,12.43-.39,14.77-3.86,42-36.72,55.5-77.69,55.5s-73.86-13.57-77.73-55.5v.03ZM1522.3,299.84c-.57-4.92-.83-9.88-.78-14.84v-94.32c0-3.88.38-10.87.77-14.78,5.02-41.93,38.66-55.12,78.47-55.12s74.2,13.2,78.09,55.14c.46,4.91.59,9.85.38,14.77v7.3h-56.43v-12.36c0-2.87-.25-5.73-.77-8.55-6.82-21.78-37.64-21.78-44.46,0-.65,3.46-.91,6.98-.77,10.5v102.51c-.07,2.86.06,5.71.39,8.55,5.88,22.35,41.31,22.33,46.37.05.52-2.82.38-5.7.39-8.55v-32.67h-22.8v-32.63h78.85v60.15c.06,4.93-.2,9.86-.78,14.76-3.86,40.77-39,55.14-78.47,55.14s-74.59-14.32-78.45-55.1v.03ZM735.73,350.67l-1.5-207.37-38.7,207.37h-56.43l-38.28-207.38-1.5,207.38h-55.69l4.64-223.68h90.84l28.22,174.76,28.22-174.77h90.83l5.02,223.68h-55.65ZM438.88,350.67l-30.15-207.37-30.93,207.37h-60.28l40.98-223.68h99.34l40.98,223.68h-59.94ZM1383.54,348.34l-56.04-186.01,3.09,186h-54.9V126.99h82.71l52.5,180.19-3.01-180.19h55.27v221.37l-79.62-.02Z"/>
  </g>
</svg>