<?xml version="1.0" encoding="utf-8"?>
<!-- Generator: Adobe Illustrator 29.6.0, SVG Export Plug-In . SVG Version: 9.03 Build 0)  -->
<svg version="1.0" id="레이어_1" xmlns="http://www.w3.org/2000/svg" xmlns:xlink="http://www.w3.org/1999/xlink" x="0px"
	 y="0px" viewBox="0 0 646 170.3" style="enable-background:new 0 0 646 170.3;" xml:space="preserve">
<style type="text/css">
	.st0{fill:#FFFFFF;}
</style>
<path class="st0" d="M45,0C20,0,0,20,0,45v125h40V45c0-4,5-6,8.5-3.5l104.9,115.1c29,29,77,8,77-31v-126h-40v126c0,4-5,6-8.3,3.5
	L77.6,14.1c-10-10-18-14-32.5-14 M250.2,0v125c0,24.85,20.15,45,45,45l0,0H463c28.99,0,52.5-23.51,52.5-52.5S491.99,65,463,65H357.8
	c-6.9,0-12.5-5.6-12.5-12.5S350.9,40,357.8,40h177.5v130h40V40h70V0H357.8c-28.99,0-52.5,23.51-52.5,52.5s23.51,52.5,52.5,52.5h105
	c6.9,0,12.5,5.6,12.5,12.5s-5.6,12.5-12.5,12.5H295.3c-2.76,0-5-2.24-5-5V0H250.2z"/>
</svg>
