<?xml version="1.0" encoding="UTF-8"?>
<svg id="Layer_1" xmlns="http://www.w3.org/2000/svg" version="1.1" viewBox="0 0 563.8 99.6">
  <!-- Generator: Adobe Illustrator 29.6.0, SVG Export Plug-In . SVG Version: 2.1.1 Build 207)  -->
  <defs>
    <style>
      .st0 {
        fill: #fff;
      }
    </style>
  </defs>
  <path class="st0" d="M398.5,56.95c-.6,1.8-1.3,3.4-2.4,4.8-1,1.3-2.1,2.2-3.4,2.8-1.3.6-2.7.9-4.1.9s-2.7-.3-4-.8c-1.3-.6-2.4-1.5-3.5-2.8-1-1.3-1.8-2.9-2.4-4.8-.6-1.9-.9-4.3-.9-7.2s.3-5.2.9-7.3c.6-2,1.4-3.7,2.4-4.9,1.1-1.3,2.2-2.3,3.4-2.8s2.5-.8,4-.8c1.4,0,2.7.3,4,.8,1.3.6,2.4,1.5,3.4,2.8s1.8,2.9,2.3,4.9c.6,2,.9,4.4.9,7.2.3,3,0,5.4-.6,7.2ZM405.5,31.65c-4.1-4.4-9.7-6.6-16.8-6.6s-12.7,2.2-16.8,6.6c-4.1,4.4-6.1,10.4-6.1,18.1s2,13.6,6.1,18c4.1,4.4,9.7,6.7,16.8,6.7s12.7-2.2,16.8-6.6c4.1-4.4,6.1-10.4,6.1-18.1s-2-13.7-6.1-18.1Z"/>
  <path class="st0" d="M193.8,73.45h-14.5l-12.9-19.2-2.3,3.2v16h-11.9V26.05h11.9v21.1l15.2-21.1h13.8l-16.9,22,17.6,25.4Z"/>
  <path class="st0" d="M224.5,56.95c-.6,1.8-1.3,3.4-2.4,4.8-1,1.3-2.1,2.2-3.4,2.8s-2.7.9-4.1.9-2.7-.3-4-.8c-1.3-.6-2.4-1.5-3.5-2.8-1-1.3-1.8-2.9-2.4-4.8-.6-1.9-.9-4.3-.9-7.2s.3-5.2.9-7.3c.6-2,1.4-3.7,2.4-4.9,1.1-1.3,2.2-2.3,3.4-2.8s2.5-.8,4-.8c1.4,0,2.7.3,4,.8,1.3.6,2.4,1.5,3.4,2.8s1.8,2.9,2.3,4.9c.6,2,.9,4.4.9,7.2.2,3-.1,5.4-.6,7.2ZM231.4,31.65c-4.1-4.4-9.7-6.6-16.8-6.6s-12.7,2.2-16.8,6.6c-4.1,4.4-6.1,10.4-6.1,18.1s2,13.6,6.1,18c4.1,4.4,9.7,6.7,16.8,6.7s12.7-2.2,16.8-6.6c4.1-4.4,6.1-10.4,6.1-18.1s-2-13.7-6.1-18.1Z"/>
  <path class="st0" d="M311.7,55.65l-5.7-1.3c-2-.4-3.9-1-5.6-1.6-3.9-1.4-6.7-3.2-8.3-5.4l-.1-.1c-1.7-2.3-2.5-4.6-2.5-8,0-3.1.9-5.8,2.6-8.1v-5.1h-13.8l-10.5,23.4-10.5-23.4h-13.7v47.4h11.2v-31.4l8.6,20.3h8.1l8.6-20.3v31.4h11.9v-10.7c1.9,1.3,4,2.4,6.2,3.2,3.2,1.2,6.4,1.8,9.4,1.8.8,0,1.8-.1,3-.2h0c1.3-.2,2.3-.4,3.1-.8,1-.4,1.8-1,2.5-1.8s1-1.9,1.1-3.2c.2-1.9-.5-4.7-5.6-6.1Z"/>
  <path class="st0" d="M338.6,37.65c1.3-1.3,2.7-2.3,4.1-2.8,1.4-.5,3-.8,4.7-.8,1.4,0,2.8.2,4.1.7s2.5,1,3.6,1.7,2.1,1.3,3,2,1.6,1.3,2.2,1.8h1.2v-11.2c-.8-.4-1.8-.9-3.1-1.4-1.3-.6-2.4-1-3.5-1.3-1.4-.4-2.8-.7-4.3-.9s-3.2-.3-5.1-.3c-7.1,0-12.8,2.2-16.9,6.7-.4.4-.7.8-1,1.2-.8,1-1.6,2.1-2.2,3.3-1.6-1.1-3.4-2-5.3-2.8-2.9-1.2-5.9-1.8-8.9-1.8-1.2,0-2.2.1-3.2.3-1,.2-2,.5-3,1-.9.4-1.7,1-2.3,1.8-.7.8-1,1.8-1,2.8,0,1.5.5,2.7,1.6,3.6,1,.8,2.9,1.6,5.7,2.2l5.1,1.2c1.6.4,3.3.9,5.2,1.5,1.1.4,2.2.9,3.1,1.4,2,1,3.6,2.3,4.7,3.7,1.7,2.1,2.5,4.9,2.5,8.4,0,2.8-.6,5.3-1.9,7.5.3.3.5.6.8.9,4.2,4.3,9.8,6.5,16.9,6.5,2.3,0,4.1-.1,5.3-.3,1.3-.2,2.7-.6,4.2-1,1.2-.4,2.4-.8,3.5-1.3s2.2-1,3-1.4v-11.4h-1.1c-.6.5-1.3,1.1-2.1,1.8s-1.7,1.3-2.8,2c-1,.6-2.2,1.2-3.6,1.7-1.4.5-2.9.8-4.5.8-1.5,0-3-.3-4.5-.8s-2.9-1.4-4.1-2.6c-1.3-1.2-2.3-2.8-3.1-4.8s-1.2-4.5-1.2-7.4.4-5.2,1.1-7.3c.9-2.1,1.9-3.7,3.1-4.9Z"/>
</svg>