<?xml version="1.0" encoding="utf-8"?>
<!-- Generator: Adobe Illustrator 29.6.0, SVG Export Plug-In . SVG Version: 9.03 Build 0)  -->
<svg version="1.0" id="svg2" xmlns:svg="http://www.w3.org/2000/svg"
	 xmlns="http://www.w3.org/2000/svg" xmlns:xlink="http://www.w3.org/1999/xlink" x="0px" y="0px" viewBox="0 0 200 45"
	 style="enable-background:new 0 0 200 45;" xml:space="preserve">
<style type="text/css">
	.st0{fill-rule:evenodd;clip-rule:evenodd;fill:#FFFFFF;}
</style>
<g id="layer1" transform="translate(-149.46679,-308.88511)">
	<g id="g2416" transform="matrix(1.7576858,0,0,1.7576858,-1372.6412,-893.15041)">
		<path id="path2384" class="st0" d="M877.49,687.15v-2.41h-10.82v2.41h3.71v10.47h3.35v-10.47H877.49z M919.2,697.62
			c-0.09-0.85-0.14-1.51-0.14-1.96v-4.33c0-1.8-1.32-2.92-3.07-2.92c-1.27,0.02-2.37,0.59-2.98,1.59c-0.37-1-1.48-1.53-2.51-1.53
			c-1.25,0-2.3,0.41-2.89,1.53l-0.07-1.34h-3.07v8.97h3.17v-5.4c0-0.28-0.12-1.82,1.34-1.82c0.98,0,1.21,0.87,1.21,1.73v5.49h3.15
			v-5.4c0-0.28-0.12-1.82,1.34-1.82c0.98,0,1.21,0.87,1.21,1.73v5.49H919.2L919.2,697.62z M903.75,691.29v-2.73
			c-1.37-0.02-2.43,0.43-2.84,1.8l-0.07-1.71h-3.17c0.07,0.73,0.07,1.71,0.07,2.3v6.67h3.17v-3.92c0-1.48,0.43-2.39,2.18-2.42
			C903.3,691.27,903.51,691.27,903.75,691.29 M924.67,688.4c-2.92,0-4.83,1.62-4.83,4.71c0,3.17,1.93,4.76,4.83,4.76
			s4.83-1.59,4.83-4.76C929.5,690.02,927.6,688.4,924.67,688.4 M924.67,690.29c1.34,0,1.59,1.37,1.59,2.78
			c0,1.64-0.28,2.92-1.59,2.92s-1.59-1.28-1.59-2.92c0-1.43,0.25-2.8,1.59-2.8V690.29z M887.26,697.62
			c-0.09-0.85-0.12-1.46-0.12-1.96v-4.33c0-1.8-1.34-2.92-3.08-2.92c-0.54,0-1.05,0.09-1.5,0.28c-0.41,0.2-0.8,0.48-1.14,0.91v-4.85
			h-3.17v12.87h3.17v-5.4c0-0.28-0.12-1.82,1.34-1.82c1,0,1.21,0.87,1.21,1.73v5.49L887.26,697.62L887.26,697.62z M896.96,693.75
			c0.02-3.23-0.95-5.35-4.53-5.35c-2.83,0-4.53,1.75-4.53,4.47c0,3.35,1.19,4.99,4.69,4.99c1.09,0,2.05-0.25,2.78-0.75
			c0.79-0.52,1.43-1.34,1.52-2.46h-3c-0.09,0.82-0.57,1.37-1.52,1.37c-1.21,0-1.46-1.16-1.44-2.28H896.96z M893.93,692.02h-2.94
			c0.07-0.95,0.28-1.91,1.46-1.96c0.53-0.02,0.89,0.23,1.12,0.62c0.25,0.37,0.36,0.87,0.36,1.35V692.02z"/>
		<path id="path2386" class="st0" d="M979.16,691.13v-2.73c-1.37-0.02-2.43,0.43-2.84,1.8l-0.07-1.55h-3.17
			c0.07,0.73,0.07,1.71,0.07,2.3v6.67h3.17v-3.92c0-1.48,0.43-2.55,2.17-2.59C978.72,691.11,978.93,691.11,979.16,691.13
			 M962.65,697.62c-0.09-0.86-0.12-1.46-0.12-1.96v-4.33c0-1.8-1.34-2.92-3.08-2.92c-0.54,0-1.02,0.09-1.46,0.28
			c-0.41,0.2-0.84,0.48-1.18,0.91v-4.85h-3.18v12.87h3.18v-5.4c0-0.29-0.12-1.82,1.34-1.82c1,0,1.21,0.87,1.21,1.73v5.49
			L962.65,697.62L962.65,697.62z M952.85,694.94c0-1.39-0.73-2.07-1.75-2.44c-1.91-0.68-3.33-0.71-3.33-1.43
			c0-0.53,0.3-0.84,0.82-0.84c0.41,0,0.68,0.11,0.86,0.28c0.16,0.18,0.23,0.46,0.23,0.86h3.01c-0.07-2.35-1.92-2.98-3.96-2.98
			c-1.73,0-3.98,0.61-3.98,2.77c0,3.14,5.08,2.32,5.08,3.99c0,0.59-0.48,0.85-1.1,0.85c-0.36,0-0.64-0.18-0.82-0.43
			c-0.18-0.23-0.25-0.57-0.2-0.87h-3.03c-0.05,2.67,1.92,3.16,4.12,3.16C950.86,697.87,952.85,697.12,952.85,694.94 M972.37,693.75
			c0.02-3.23-0.94-5.35-4.53-5.35c-2.83,0-4.53,1.75-4.53,4.48c0,3.35,1.19,4.99,4.69,4.99c1.09,0,2.05-0.25,2.78-0.75
			c0.78-0.52,1.43-1.34,1.52-2.46h-2.99c-0.09,0.82-0.57,1.37-1.52,1.37c-1.21,0-1.46-1.16-1.45-2.28H972.37z M969.34,692.02h-2.94
			c0.07-0.95,0.29-1.91,1.46-1.96c0.53-0.02,0.89,0.23,1.12,0.62c0.25,0.38,0.36,0.87,0.36,1.36V692.02z M943.88,688.65h-3.17v8.97
			h3.17V688.65z M939.72,687.12l0.75-2.37h-8.53v12.87h3.35v-5.06H938l0.75-2.37h-3.45v-3.07L939.72,687.12L939.72,687.12z
			 M943.88,687.11l0.75-2.37h-3.14l-0.75,2.37H943.88z"/>
		<rect id="rect2388" x="895.79" y="701.39" class="st0" width="1.16" height="7.3"/>
		<path id="path2390" class="st0" d="M974.15,708.81c-2.43,0-4.25-1.35-4.25-3.72c0-2.4,2.04-3.86,4.33-3.86
			c0.82,0,1.72,0.27,2.29,0.64l-0.6,0.71c-0.52-0.28-1.07-0.47-1.68-0.48c-0.87-0.01-1.73,0.26-2.31,0.89
			c-0.47,0.52-0.74,1.19-0.74,2.14c0,1.02,0.32,1.59,0.87,2.13c0.56,0.55,1.41,0.7,2.25,0.7c0.67,0,1.33-0.25,1.85-0.52l0.57,0.68
			C976.12,708.53,975.12,708.81,974.15,708.81"/>
		<rect id="rect2392" x="961.91" y="701.39" class="st0" width="1.16" height="7.3"/>
		<polygon id="polygon2394" class="st0" points="935.59,702.26 932.88,702.26 932.88,708.69 931.74,708.69 931.74,702.26 
			929.04,702.26 929.04,701.39 935.72,701.39 		"/>
		<path id="path2396" class="st0" d="M874.96,708.43c-0.56,0.28-1.25,0.41-2.06,0.41c-1.03,0-2.08-0.23-2.95-0.66l0.48-0.83
			c0.85,0.42,1.65,0.61,2.55,0.61c0.58,0,0.97-0.1,1.33-0.3c0.42-0.23,0.64-0.54,0.64-0.94c0-0.61-0.47-0.99-1.6-1.25l-1.19-0.28
			c-1.18-0.28-1.92-1.01-1.92-1.88c0-1.24,1.22-2.13,2.97-2.13c1.02,0,2.1,0.26,2.8,0.7l-0.53,0.76c-0.71-0.39-1.46-0.58-2.21-0.58
			c-1.04,0-1.76,0.4-1.76,1.09c0,0.53,0.44,0.84,1.46,1.09l1.1,0.26c0.62,0.15,1.26,0.41,1.62,0.74c0.34,0.31,0.57,0.82,0.57,1.3
			C876.25,707.29,875.77,708.02,874.96,708.43"/>
		<path id="path2398" class="st0" d="M921.71,708.69l-2.9-3.89c-0.54-0.73-1.46-2.15-1.46-2.15s0.1,1.23,0.11,2.31l0.03,3.73h-1.16
			v-7.3h1.38l2.93,3.97c0.57,0.78,1.36,2,1.36,2s-0.17-1.35-0.18-2.31l-0.03-3.66h1.15v7.3H921.71L921.71,708.69z"/>
		<rect id="rect2400" x="941.7" y="701.39" class="st0" width="1.16" height="7.3"/>
		<polygon id="polygon2402" class="st0" points="955.56,702.25 951.56,702.25 951.56,704.41 954.94,704.41 954.94,705.27 
			951.56,705.27 951.56,708.69 950.39,708.69 950.39,701.39 955.71,701.39 		"/>
		<polygon id="polygon2404" class="st0" points="904.48,708.69 904.48,701.39 909.86,701.39 909.7,702.26 905.64,702.26 
			905.64,704.44 909.1,704.44 909.1,705.31 905.65,705.31 905.65,707.77 910,707.77 910,708.69 		"/>
		<path id="path2406" class="st0" d="M886.79,708.81c-2.43,0-4.25-1.35-4.25-3.72c0-2.4,2.04-3.86,4.33-3.86
			c0.82,0,1.72,0.27,2.29,0.64l-0.6,0.71c-0.51-0.28-1.07-0.47-1.68-0.48c-0.87-0.01-1.73,0.26-2.31,0.89
			c-0.47,0.52-0.74,1.19-0.74,2.14c0,1.02,0.32,1.59,0.87,2.13c0.56,0.55,1.41,0.7,2.25,0.7c0.67,0,1.33-0.25,1.85-0.52l0.57,0.68
			C888.76,708.53,887.76,708.81,886.79,708.81"/>
	</g>
</g>
</svg>
