<?xml version="1.0" encoding="UTF-8"?>
<svg id="_레이어_1" data-name="레이어_1" xmlns="http://www.w3.org/2000/svg" version="1.1" viewBox="0 0 2500 682">
  <!-- Generator: Adobe Illustrator 29.6.0, SVG Export Plug-In . SVG Version: 2.1.1 Build 207)  -->
  <defs>
    <style>
      .st0 {
        fill: #fff;
      }
    </style>
  </defs>
  <path class="st0" d="M876.22,269.51c-17.68.1-35.31-1.66-52.62-5.27-13.72-2.69-27.12-6.8-39.98-12.27l12.27-55.07h6.5c10.89,9.85,23.6,17.47,37.41,22.45,14.78,5.37,30.39,8.07,46.12,7.97,12.64.73,25.27-1.63,36.8-6.87,7.56-3.65,12.34-11.35,12.27-19.75.1-2.87-.58-5.7-1.96-8.22-1.85-2.91-4.43-5.28-7.48-6.87-4.85-3.01-10.04-5.44-15.45-7.24-6.38-2.21-14.72-4.78-24.53-7.6-10.48-2.68-20.8-5.95-30.91-9.81-8.13-3.21-15.77-7.54-22.69-12.88-5.91-4.72-10.72-10.66-14.1-17.42-3.36-7.43-5-15.52-4.78-23.67-.37-22.49,11.21-43.49,30.42-55.19,25.17-15.03,54.25-22.21,83.53-20.61,16.12-.1,32.22,1.3,48.08,4.17,13.41,2.16,26.51,5.95,39,11.28l-12.27,52.99h-6.26c-9.35-8.09-20.12-14.37-31.77-18.52-13.79-5.05-28.37-7.58-43.05-7.48-12.01-.56-23.98,1.7-34.96,6.62-7.33,3.14-12.14,10.3-12.27,18.28-.11,3.09.52,6.16,1.84,8.95,1.86,2.98,4.48,5.39,7.6,6.99,4.93,2.82,10.15,5.08,15.58,6.75,7.11,2.33,15.45,4.91,24.53,7.48,19.85,4.29,38.6,12.64,55.07,24.53,11.07,9.21,17.27,23.02,16.8,37.41.26,12.29-2.83,24.42-8.95,35.08-6.01,10.09-14.44,18.52-24.53,24.53-11.63,6.88-24.31,11.81-37.53,14.6-15.68,3.31-31.68,4.88-47.71,4.66Z"/>
  <path class="st0" d="M1124.47,247.07l-12.27,8.22c-4.41,2.9-9.05,5.44-13.86,7.6-5.26,2.18-10.67,3.99-16.19,5.4-6.9,1.41-13.94,2.02-20.97,1.84-12.9.53-25.53-3.85-35.32-12.27-9.11-7.94-14.16-19.56-13.74-31.64-.39-12.33,2.99-24.48,9.69-34.83,7.3-10.19,17.33-18.1,28.95-22.81,13.55-6.03,27.88-10.16,42.56-12.27,16.35-2.29,34.26-4.01,53.72-5.15v-3.07c.2-1.55.2-3.11,0-4.66-.09-6.22-3.91-11.78-9.69-14.1-9.76-3.42-20.09-4.92-30.42-4.42-10.25.1-20.44,1.59-30.29,4.42-11.04,3.11-19.22,5.68-24.53,7.73h-5.03l8.22-41.09c6.5-1.59,16.44-3.43,30.05-5.52,13.43-2.05,27.01-3.08,40.6-3.07,20.49-1.44,41.03,2.09,59.85,10.3,12.32,6.27,19.81,19.19,19.13,32.99.15,2.7.15,5.4,0,8.09-.31,2.89-.8,5.76-1.47,8.59l-27.23,117.99h-56.3l4.54-18.28ZM1139.31,183.53c-9.98.74-19.3,1.72-27.96,2.94-7.56.81-15,2.46-22.2,4.91-5.64,1.73-10.67,5.05-14.47,9.57-3.53,4.73-5.3,10.54-5.03,16.44-.33,5.02,2.25,9.78,6.62,12.27,5.98,2.78,12.55,4.04,19.13,3.68,6.08-.1,12.08-1.39,17.66-3.8,6.23-2.5,12.16-5.71,17.66-9.57l8.59-36.43ZM1423.61,131.16c.23,3.35.23,6.71,0,10.06-.45,3.79-1.1,7.56-1.96,11.28l-25.88,112.84h-56.3l19.62-85.86c1.47-6.38,2.58-12.27,3.43-16.44.78-4.04,1.19-8.15,1.23-12.27.45-5.39-1.37-10.73-5.03-14.72-5.54-3.63-12.17-5.24-18.77-4.54-5.23.1-10.41,1.05-15.33,2.82-6.73,2.3-13.26,5.18-19.5,8.59l-28.21,122.65h-56.54l40.11-173.06h55.93l-4.54,19.13c9.93-6.68,20.39-12.55,31.28-17.54,9.8-4.34,20.43-6.52,31.15-6.38,13.24-.92,26.35,3.1,36.8,11.28,8.72,8.33,13.31,20.1,12.51,32.13h0ZM1498.06,329h-61.33l44.28-67.09-28.46-169.38h56.79l15.09,113.57,66.11-113.57h58.75l-151.23,236.47ZM1829.59,155.45c.07,15.58-2.72,31.05-8.22,45.63-10.22,27.75-31.56,49.98-58.87,61.33-15.12,6.03-31.31,8.95-47.59,8.59-21.51,1.35-42.75-5.43-59.49-19.01-14.09-13.21-21.63-31.98-20.61-51.27-.08-15.02,2.54-29.94,7.73-44.03,5.04-13.68,12.8-26.2,22.81-36.8,10.19-10.58,22.47-18.94,36.06-24.53,15.41-6.27,31.94-9.28,48.57-8.83,21.23-1.27,42.2,5.22,58.99,18.27,14.07,12.97,21.62,31.54,20.61,50.65h0ZM1757.23,212.23c4.8-7.29,8.44-15.27,10.79-23.67,2.62-10.17,3.81-20.65,3.56-31.15.55-8.72-1.87-17.37-6.87-24.53-5.65-6.1-13.79-9.26-22.08-8.59-7.32-.12-14.52,1.88-20.73,5.76-6.28,4.23-11.59,9.75-15.58,16.19-4.7,7.56-8.1,15.85-10.06,24.53-2.36,9.63-3.55,19.52-3.56,29.44-.94,9.18,1.89,18.34,7.85,25.39,5.87,5.36,13.65,8.15,21.59,7.73,6.84-.04,13.54-1.95,19.38-5.52,6.35-3.93,11.72-9.26,15.7-15.58h0Z"/>
  <path class="st0" d="M1015.55,644.46c-26.05,1.68-51.77-6.56-72-23.06-17.68-17.09-26.97-41.08-25.39-65.62-.28-20.98,3.55-41.82,11.28-61.33,7.03-17.74,17.49-33.91,30.79-47.59,13.06-13.22,28.72-23.58,45.99-30.42,17.85-7.37,36.99-11.12,56.3-11.04,14.86-.13,29.68,1.52,44.15,4.91,12.89,2.93,25.29,7.72,36.8,14.23l-13.61,55.56h-6.87c-8.27-9.4-18.16-17.25-29.19-23.18-10.62-5.12-22.31-7.65-34.1-7.36-22.24-.36-43.33,9.89-56.79,27.6-15.42,20.15-23.32,45.05-22.32,70.4-1.35,14.39,3.06,28.72,12.27,39.86,10.06,8.97,23.37,13.4,36.8,12.27,13.8.09,27.44-2.84,39.98-8.59,12.63-5.79,24.49-13.13,35.32-21.83h6.26l-13.49,54.95-16.19,6.75c-5.78,2.52-11.72,4.65-17.78,6.38-7.48,2.21-14.35,3.8-20.73,5.03-9.09,1.44-18.27,2.14-27.47,2.09h0Z"/>
  <path class="st0" d="M1337.15,505.49v9.57c-.42,3.92-1.07,7.81-1.96,11.65l-26.74,112.96h-56.3l19.99-85.86c1.35-6.62,2.58-12.27,3.31-16.8.8-4.04,1.21-8.15,1.23-12.27.61-5.56-1.22-11.11-5.03-15.21-5.57-3.58-12.18-5.18-18.77-4.54-5.23.16-10.41,1.15-15.33,2.94-6.68,2.23-13.13,5.11-19.26,8.59l-28.33,122.65h-56.05l55.32-240.03h56.05l-19.87,85.86c9.93-6.72,20.39-12.63,31.28-17.66,9.83-4.25,20.45-6.38,31.15-6.26,13.29-1,26.45,3.12,36.8,11.53,8.89,8.53,13.48,20.59,12.51,32.87h0ZM1452.19,644.46c-24.4,1.58-48.59-5.36-68.44-19.62-16.29-13.17-25.39-33.28-24.53-54.21-.19-14.88,2.48-29.66,7.85-43.54,5.17-13,12.93-24.81,22.81-34.71,10.06-10.09,22.14-17.95,35.45-23.06,14.94-5.76,30.84-8.64,46.85-8.46,20.71-1.52,41.33,4.01,58.5,15.7,13.63,11.35,20.97,28.55,19.75,46.24,0,6.92-.7,13.82-2.09,20.61-1.37,6.79-3.21,13.47-5.52,19.99h-128.66v3.56c-.63,10.82,3.93,21.29,12.27,28.21,11.45,7.66,25.14,11.25,38.88,10.18,11.81.1,23.53-1.98,34.59-6.13,10.19-3.61,20.01-8.22,29.31-13.74h6.13l-10.3,44.64c-10.97,4.84-22.45,8.42-34.22,10.67-12.72,2.55-25.66,3.78-38.64,3.68h0ZM1494.75,530.76c0-1.88.25-3.6.74-5.15v-4.78c.4-7.08-2.39-13.96-7.6-18.77-6.32-4.7-14.1-7-21.95-6.5-10.4-.37-20.61,2.93-28.82,9.32-8.25,6.77-14.42,15.75-17.78,25.88h75.43ZM1875.46,504.88c-.02,3.45-.26,6.89-.74,10.3-.42,3.89-1.12,7.74-2.09,11.53l-26.12,112.96h-56.42l20.11-86.71c1.35-5.89,2.58-11.65,3.68-17.17.99-4.35,1.57-8.79,1.72-13.25.37-4.91-1.47-9.72-5.03-13.12-5.19-3.27-11.31-4.74-17.42-4.17-4.68.13-9.3,1.13-13.61,2.94-6.33,2.42-12.48,5.29-18.4,8.59l-28.33,122.65h-56.42l20.11-86.71c1.23-5.03,2.33-10.43,3.43-16.31,1.02-4.43,1.59-8.95,1.72-13.49.43-4.99-1.26-9.94-4.66-13.61-5.18-3.41-11.37-4.93-17.54-4.29-5.02.15-9.97,1.23-14.6,3.19-6.07,2.38-11.97,5.17-17.66,8.34l-28.46,122.65h-55.93l39.98-172.94h55.93l-4.17,18.77c9.79-6.6,20.04-12.51,30.66-17.66,9.24-4.2,19.29-6.34,29.44-6.26,10.19-.38,20.26,2.27,28.95,7.6,7.9,5.33,13.68,13.28,16.31,22.45,11.56-8.62,23.87-16.17,36.8-22.57,9.87-4.78,20.68-7.33,31.64-7.48,12.63-.87,25.11,3.17,34.83,11.28,8.59,8.55,13.07,20.4,12.27,32.5h0ZM1987.69,466.24l-40.23,173.43h-55.93l40.23-173.43h55.93ZM2004.74,399.15l-9.44,42.31h-59.12l10.06-42.31h58.5ZM2084.09,644.46c-11.23.09-22.42-1.4-33.24-4.42-9.86-2.68-19.07-7.31-27.11-13.61-7.63-6.13-13.69-13.99-17.66-22.94-4.39-10.05-6.57-20.92-6.38-31.89-.09-14.9,2.96-29.65,8.95-43.3,5.73-13.22,14.08-25.16,24.53-35.08,11.2-10.17,24.28-18.05,38.51-23.18,25.87-9.36,53.88-11.11,80.7-5.03,10.08,2.21,19.85,5.67,29.07,10.3l-12.27,47.47h-7.85c-5.52-6.95-12.57-12.53-20.61-16.31-8.13-3.66-16.96-5.5-25.88-5.4-16.18-.57-31.72,6.3-42.19,18.64-10.75,13.06-16.38,29.58-15.82,46.48-.86,10.59,2.69,21.06,9.81,28.95,8.49,7.06,19.42,10.49,30.42,9.57,10.15.18,20.19-2.05,29.31-6.5,8.4-4.05,16.27-9.12,23.43-15.09h7.97l-12.27,47.34c-9.46,4.3-19.26,7.79-29.31,10.43-10.54,2.43-21.32,3.62-32.13,3.56ZM2292.35,621.28l-12.27,8.22c-4.38,2.94-9.02,5.49-13.86,7.6-5.24,2.27-10.65,4.12-16.19,5.52-7.14,1.46-14.43,2.08-21.71,1.84-12.9.53-25.53-3.85-35.32-12.27-9.08-7.91-14.12-19.48-13.74-31.52-.41-12.33,2.98-24.49,9.69-34.83,7.3-10.19,17.33-18.1,28.95-22.81,13.58-5.82,27.91-9.74,42.56-11.65,16.56-2.33,34.46-4.05,53.72-5.27.1-1,.3-1.99.61-2.94.2-1.59.2-3.2,0-4.78.35-6.79-3.78-13.02-10.18-15.33-9.76-3.42-20.09-4.92-30.42-4.42-10.26.18-20.45,1.75-30.29,4.66-11.16,3.07-19.38,5.64-24.53,7.73h-5.03l8.22-41.09c6.5-1.59,16.44-3.56,30.05-5.52,13.43-2.09,27-3.16,40.6-3.19,20.52-1.33,41.06,2.33,59.85,10.67,12.32,6.33,19.8,19.28,19.13,33.12v7.97c-.3,2.93-.79,5.84-1.47,8.71l-27.23,117.99h-55.32l4.17-18.4ZM2307.07,557.87c-9.93.74-19.26,1.72-27.84,2.82-7.55.91-14.99,2.59-22.2,5.03-5.64,1.73-10.67,5.05-14.47,9.57-3.53,4.68-5.31,10.46-5.03,16.31-.3,5.01,2.27,9.76,6.62,12.27,5.98,2.78,12.55,4.04,19.13,3.68,6.07-.16,12.06-1.45,17.66-3.8,6.24-2.55,12.16-5.8,17.66-9.69l8.46-36.18ZM2500,399.15l-55.56,240.4h-55.93l55.56-240.4h55.93Z"/>
  <path class="st0" d="M521.15,44.57c-1.23-.98-2.7-1.84-4.17-2.82-2.75-1.54-5.57-2.93-8.46-4.17l-2.45-.86c-2.08-.86-4.21-1.6-6.38-2.21l-4.78-1.1-4.54-1.1h-19.5c-3.07,0-6.26,0-9.32,1.1h-.86c-34.34,4.91-72.12,29.93-101.06,78.99-.74,1.23-1.47,2.21-2.09,3.43-2.58,4.42-5.03,8.95-7.24,13.37-.74,1.47-1.35,2.94-1.96,4.42s-2.94,6.13-4.17,9.2-1.47,3.56-2.09,5.27-2.58,5.76-2.58,8.46-1.23,3.92-1.96,5.76l-2.45,7.97c0,1.96-1.1,3.92-1.59,6.01s-1.35,5.15-1.96,7.73-.86,4.05-1.23,6.01-1.1,5.03-1.47,7.6l-1.1,6.13c0,2.45,0,4.78-.98,7.24l-.74,6.38c0,2.33,0,4.54-.61,6.87s0,4.29-.61,6.5,0,4.05,0,6.13v10.79c-.2,14.38.5,28.76,2.09,43.05v.74c0,3.43.74,6.87,1.23,10.3v.61l1.47,10.18c.86,5.27,1.84,10.43,2.82,15.33s0,0,0,.98c.98,4.91,1.84,9.81,2.7,14.72l.74,5.52c.78,4.79,1.31,9.62,1.59,14.47v4.17c8.78,61.78-10.57,124.24-52.74,170.24l-1.1,1.23-4.66,4.78-5.4,5.15-1.1.98c-24.53,22.32-38.51,23.55-47.59,20.48h-1.96c-1.26-.54-2.49-1.15-3.68-1.84-8.09-4.66-18.52-10.79-11.28-41.7,0-1.35.61-2.7.98-4.17.49-1.96,1.1-4.05,1.84-6.26-18.98-14.46-35.54-31.85-49.06-51.51-41.58,76.53-24.53,140.31,14.72,166.81l4.29,2.82c2.69,1.56,5.48,2.95,8.34,4.17l2.09.74c2.24.9,4.54,1.68,6.87,2.33,1.47,0,3.07.74,4.66,1.1l4.54,1.1c2.15.33,4.32.53,6.5.61,1.07-.06,2.13-.18,3.19-.37h9.93l9.32-1.1h.74c34.34-5.76,71.63-30.79,101.06-79.97.61-1.23,1.35-2.21,2.09-3.43,2.58-4.42,4.91-8.83,7.11-13.37l2.09-4.42c1.47-3.07,2.82-6.13,4.17-9.2s1.35-3.56,2.09-5.27,2.21-5.64,3.19-8.34l1.84-5.76c.86-2.7,1.72-5.27,2.45-7.97s1.1-3.92,1.59-5.89,1.35-5.27,1.96-7.85.86-4.05,1.35-6.01l1.47-7.6c0-1.96.74-4.05.98-6.13s.74-4.78.98-7.24,0-4.29.86-6.38,0-4.54,0-6.87v-23.55c.1-14.34-.64-28.67-2.21-42.93v-.74c0-3.43-.86-6.87-1.35-10.3,0-3.56-.98-6.99-1.59-10.3-.86-5.27-1.72-10.43-2.7-15.33-.27-1.17-.48-2.36-.61-3.56-.9-4.01-1.64-8.09-2.21-12.27,0-1.84,0-3.68-.74-5.52-.61-4.91-1.35-9.69-1.59-14.6v-4.17c-8.61-62.13,11.21-124.83,53.97-170.73.47-.34.88-.76,1.23-1.23l4.54-4.78,5.52-5.15.98-.98c24.53-22.32,38.51-23.55,47.59-20.36l1.59.74,3.68,1.84c8.09,4.66,18.64,10.92,11.41,41.7,0,1.35,0,2.7-.98,4.17-.65,1.96-1.27,4.05-1.84,6.26,18.91,14.5,35.43,31.88,48.94,51.51,41.7-76.53,24.53-140.31-14.6-166.81h0Z"/>
  <path class="st0" d="M181.04,41.99l-4.54,2.21c-2.69,1.6-5.31,3.32-7.85,5.15l-1.96,1.72c-1.72,1.47-3.56,2.82-5.15,4.42-1.17,1.13-2.27,2.31-3.31,3.56-1.13,1.08-2.19,2.23-3.19,3.43-1.35,1.72-2.58,3.43-3.8,5.27s-1.35,1.59-1.96,2.58-2.7,4.54-3.92,6.99l-.98,1.59c-1.37,2.8-2.6,5.66-3.68,8.59v.74c-12.27,32.63-9.2,77.39,18.77,127.56l1.84,3.43c2.62,4.42,5.31,8.71,8.09,12.88.87,1.4,1.81,2.75,2.82,4.05,1.84,2.7,3.8,5.52,5.89,8.09s2.33,3.07,3.56,4.54,3.68,4.66,5.64,6.87,2.58,3.07,3.92,4.54,3.8,4.17,5.76,6.13l4.29,4.42,5.76,5.52,4.54,4.17,5.89,5.03,4.78,3.92,5.76,4.54,5.15,3.8,5.52,4.05,5.52,3.68,5.03,3.31,6.13,3.8,3.19,1.84c12.33,7.33,25.11,13.89,38.27,19.62h.74l9.57,4.05,9.69,3.68c4.91,1.96,9.93,3.68,14.6,5.27h.98c4.66,1.72,9.44,3.31,14.1,5.15l5.03,2.09c4.54,1.84,9.08,3.68,13.37,5.89l3.92,1.72c57.88,23.28,102.3,71.25,121.06,130.75v1.59c.74,2.21,1.35,4.42,1.84,6.38s1.35,5.03,1.84,7.36c.06.49.06.98,0,1.47,6.99,32.5,1.23,45.01-6.01,51.27l-1.1.86c-1.09.82-2.24,1.56-3.43,2.21-8.09,4.78-18.64,10.67-41.7-10.92l-3.68-1.35c-1.56-1.47-3.04-3.02-4.42-4.66-21.98,9.01-45.24,14.51-68.93,16.31,45.5,74.2,109.04,91.62,151.84,70.52l4.54-2.21c2.67-1.57,5.25-3.29,7.73-5.15l1.72-1.35,5.64-5.03c1.1-1.1,2.09-2.33,3.19-3.56,2.68-2.64,5.06-5.56,7.11-8.71l1.84-2.58c1.47-2.21,2.7-4.54,4.05-6.99,0,0,0-.98.86-1.59,1.35-2.82,2.58-5.64,3.8-8.71,12.27-32.63,9.2-77.39-18.64-127.56,0-1.1-1.1-2.21-1.84-3.43-2.58-4.42-5.27-8.71-7.97-12.27l-2.82-4.05-5.89-8.09-3.56-4.54c-1.84-2.33-3.68-4.66-5.64-6.87l-4.05-4.54c-1.84-2.09-3.68-4.17-5.64-6.13l-4.29-4.29-5.27-6.87-4.29-4.05-5.76-5.03c-1.59-1.35-3.19-2.7-4.91-3.92s-3.8-3.07-5.76-4.54-3.31-2.58-5.03-3.8l-5.64-4.05-5.4-3.68-5.15-3.31-6.01-3.8-3.31-1.96c-12.53-7.32-25.52-13.83-38.88-19.5h-.61l-9.57-4.05h-.61c-3.19-1.23-6.38-2.58-9.57-3.68-5.03-1.96-9.93-3.68-14.6-5.27l-3.43-1.23-11.65-4.29-5.15-2.09c-4.54-1.84-8.95-3.68-13.37-5.89l-3.92-1.72c-57.83-23.31-102.2-71.27-120.93-130.75-.04-.53-.04-1.06,0-1.59,0-2.21-1.35-4.42-1.84-6.38s-1.23-5.03-1.84-7.36c.06-.45.06-.9,0-1.35-6.87-32.63-1.1-45.14,6.13-51.39l1.35-1.1,3.43-2.21c8.22-4.78,18.77-10.67,41.82,10.92.98.98,2.09,1.96,3.07,3.07,1.47,1.35,2.94,2.94,4.54,4.66,21.97-9.04,45.24-14.54,68.93-16.31-45.63-75.19-109.28-92.6-151.96-71.51Z"/>
  <path class="st0" d="M8.34,335.25c-.14,1.67-.14,3.36,0,5.03,0,3.28.21,6.56.61,9.81-.06.86-.06,1.72,0,2.58.23,2.24.64,4.45,1.23,6.62,0,1.59.86,3.19,1.35,4.66s.86,3.07,1.47,4.54,1.72,3.92,2.58,5.89l1.35,2.94c1.21,2.41,2.56,4.74,4.05,6.99,0,0,.61.98.86,1.59,1.72,2.58,3.68,5.03,5.64,7.48-.04.24-.04.49,0,.74,22.08,26.74,62.43,46.61,119.71,47.47h24.16l10.06-.98,5.64-.86,8.71-1.47,6.01-1.23,8.09-1.84,6.01-1.59,7.6-2.21,5.89-1.84,7.24-2.58,6.01-2.21,6.75-2.7c1.96-.86,3.92-1.59,5.89-2.58l6.13-2.82,6.01-2.82,5.4-2.82,6.38-3.31,3.19-1.84c12.48-7.1,24.56-14.88,36.18-23.3h.61l8.22-6.26c2.82-2.21,5.52-4.29,8.09-6.5,4.17-3.31,8.09-6.75,12.27-9.93l.74-.74c3.8-3.19,7.6-6.5,11.53-9.57,1.35-1.23,2.82-2.33,4.29-3.43,3.8-2.94,7.73-5.89,12.27-8.59l3.43-2.45c48.93-39.38,113-54.61,174.41-41.46h1.59l6.5,1.59,7.24,2.21h1.47c31.64,10.3,39.49,21.46,41.33,30.91.06.24.06.49,0,.74v5.4c0,9.44,0,21.59-30.42,30.79l-4.17,1.23-6.26,1.47c-3.24,23.54-10.15,46.43-20.48,67.83,87.08-2.33,134.06-49.06,137.12-96.16v-5.15c.18-3.1.18-6.22,0-9.32-.06-.69-.06-1.39,0-2.09-.32-2.39-.77-4.77-1.35-7.11,0-1.59-.98-3.07-1.47-4.66s-.86-2.94-1.35-4.42c-.77-2.06-1.67-4.06-2.7-6.01-.36-1-.77-1.98-1.23-2.94-1.23-2.37-2.58-4.7-4.05-6.99l-.98-1.59c-1.73-2.6-3.62-5.1-5.64-7.48v-.61c-22.2-26.86-62.43-46.73-119.83-47.59h-24.16l-9.93,1.1-5.64.74-8.83,1.47-5.89,1.23-8.22,1.84-5.89,1.59-7.73,2.21-5.89,1.84-7.24,2.58-5.89,2.21-6.75,2.7-5.89,2.58-6.26,2.82-6.01,2.82-5.27,2.82-6.38,3.31-3.31,1.84c-12.5,7.04-24.55,14.86-36.06,23.43l-8.34,6.26-7.97,6.5-12.27,9.93-2.82,2.33-9.44,7.97-4.42,3.43c-3.92,2.94-7.73,5.89-12.27,8.59l-3.43,2.45c-48.85,39.43-112.88,54.75-174.29,41.7h-1.59l-6.5-1.59-7.24-2.21h-1.23c-31.77-10.3-39.74-21.59-41.58-31.03-.06-.61-.06-1.23,0-1.84-.11-1.35-.11-2.7,0-4.05,0-9.44,0-21.59,30.42-30.66l3.19-2.21,6.26-1.59c3.21-23.53,10.08-46.42,20.36-67.83-86.71,2.33-133.57,48.69-137,96.28Z"/>
</svg>