<?xml version="1.0" encoding="UTF-8"?>
<svg id="_레이어_1" data-name="레이어_1" xmlns="http://www.w3.org/2000/svg" version="1.1" viewBox="0 0 850 135.66">
  <!-- Generator: Adobe Illustrator 29.6.0, SVG Export Plug-In . SVG Version: 2.1.1 Build 207)  -->
  <defs>
    <style>
      .st0 {
        fill: #fff;
      }
    </style>
  </defs>
  <path class="st0" d="M561.3,0c-35.26-.23-78.25,14.39-78.47,67.49-.23,52.57,43.66,69.17,78.47,68.12,32.36-.96,68.08-9.96,69.71-49.53l-35.77.08c-1.01,24.87-20.85,29.8-33.95,29.84-13.44.05-40.78-2.78-41.21-47.98-.41-42.67,24.69-48.7,41.21-48.52,16.52.18,32.91,7.89,33.09,27.31l35.53-.03C629.56,23.01,609,.32,561.3,0ZM0,2.41v130.63h34.58v-57.65h69.99v57.65h34.75V2.41h-34.75v52.28H34.58V2.41H0ZM168.01,2.41v130.62h34.82V2.41h-34.82ZM215.72,2.41v21.61h50.72v108.99h34.45V24.02h50.73V2.41h-135.89ZM647.97,2.41v130.63h34.58v-57.65h69.99v57.65h34.58V2.41h-34.58v52.28h-69.99V2.41h-34.59ZM815.14,2.41v130.62h34.86V2.41h-34.86ZM383.78,2.6l-61.93,130.43h38.86l12.08-29.31,65.43-.02,12.05,29.33h38.95L427.57,2.6h-43.79ZM405.56,24.66l23.93,58.28-48.06.03,24.13-58.31Z"/>
</svg>