<?xml version="1.0" encoding="UTF-8"?>
<svg id="_레이어_1" data-name="레이어_1" xmlns="http://www.w3.org/2000/svg" version="1.1" viewBox="0 0 247 169.58">
  <!-- Generator: Adobe Illustrator 29.6.0, SVG Export Plug-In . SVG Version: 2.1.1 Build 207)  -->
  <defs>
    <style>
      .st0 {
        fill: #fff;
      }
    </style>
  </defs>
  <path class="st0" d="M211.5,1.23s-27.17,63.43-29.13,67.35c-1.03,1.96-1.96,3.1-4.85,5.06h14.25c-2.79-1.24-3.3-2.69-2.37-5.17.21-1.14,2.69-7.23,5.78-14.26h25.31c2.89,7.02,5.58,13.33,5.89,14.36.72,2.17.21,3.62-2.48,5.06h22.11c-3.41-1.76-4.13-2.89-5.17-5.06-1.86-3.93-29.34-67.35-29.34-67.35h0ZM86.95,2.26c-9.4,0-22.52,5.58-22.52,19.63,0,7.85,4.13,13.43,13.64,18.7,9.4,5.06,18.39,6.4,18.39,16.32,0,5.06-3.1,12.4-13.33,12.4-10.74,0-16.94-9.71-18.9-17.04l.51,17.46c3.62,1.76,10.43,4.96,19.83,4.96,12.71,0,24.07-8.78,24.07-21.69,0-14.36-10.02-17.77-19.63-22.31-9.71-4.44-14.15-6.82-14.15-13.12,0-4.44,3.1-9.92,10.95-9.92,9.92,0,15.8,8.26,17.25,13.74l-.51-15.29c-5.27-3.1-12.09-3.82-15.6-3.82h0ZM1.02,3.4c1.65.83,3.3,2.27,3.3,4.65v42.97c0,18.29,15.39,23.66,27.48,23.66,14.05,0,24.48-6.82,24.48-24.38l.31-42.25c0-2.38,1.14-3.82,2.68-4.65h-11.98c1.55.83,2.79,2.27,2.79,4.65l.21,42.46c0,10.23-4.44,18.28-16.73,18.28-13.43,0-15.91-10.22-15.91-17.46V8.05c0-2.38,1.55-3.82,3.2-4.65H1.02ZM115.46,3.4c1.55.83,2.68,2.27,2.68,4.65v60.95c0,2.27-1.13,3.72-2.68,4.65h26.55c27.89,0,41.73-18.18,41.73-36.16,0-10.02-6.82-34.09-40.8-34.09h-27.48ZM140.77,8.56c21.38,0,28.62,16.53,28.62,28.92,0,15.08-6.51,30.78-29.85,30.78h-8.26V8.77c1.55-.21,7.02-.21,9.5-.21h0ZM207.58,23.54s5.68,13.84,10.54,25.31h-20.87c3.31-7.75,10.33-25.31,10.33-25.31h0Z"/>
  <path class="st0" d="M236.28,83.5c-29.99-.07-154.82,2.27-232.72,43.78,0,0,94.35-37.31,239.35-33.58v-10.13s-2.35-.06-6.63-.07h0ZM3.56,83.57v9.59c17.59-2.66,82.09,2.67,82.09,2.67-31.45-11.73-82.09-12.26-82.09-12.26ZM33.67,99.52c-15.96-.05-30.12.57-30.12.57v9.6c5.33-2.67,58.1-9.06,58.1-9.06-8.2-.8-18.42-1.07-27.99-1.11h0ZM228.49,101.6c-3.07.01-6.59.05-10.5.12h-.77c-43.71.85-135.38,6.13-213.63,33.77v33.31l239.35-.04v-67.04s-5.23-.16-14.45-.12h0Z"/>
</svg>