<?xml version="1.0" encoding="UTF-8"?>
<svg id="svg8" xmlns="http://www.w3.org/2000/svg" version="1.1" xmlns:cc="http://creativecommons.org/ns#" xmlns:dc="http://purl.org/dc/elements/1.1/" xmlns:rdf="http://www.w3.org/1999/02/22-rdf-syntax-ns#" xmlns:svg="http://www.w3.org/2000/svg" viewBox="0 0 336.88 211.04">
  <!-- Generator: Adobe Illustrator 29.6.0, SVG Export Plug-In . SVG Version: 2.1.1 Build 207)  -->
  <defs>
    <style>
      .st0 {
        fill: #fff;
      }
    </style>
  </defs>
  <g id="g293534">
    <g id="g23279">
      <path id="path4" class="st0" d="M249.3,211.04l58.61-105.63L249.52,0h14.6C272.2,0,281.86,5.76,285.68,12.62l51.2,92.79-51.43,92.79c-3.82,7.09-13.7,12.62-21.56,12.62h-14.6v.22Z"/>
      <path id="path22970" class="st0" d="M19.54,0C8.76,0,0,8.64,0,19.49v172.06c0,10.63,8.76,19.49,19.54,19.49h215.14l58.61-105.63L234.68,0H19.54ZM32.79,58.46h17.52l43.12,69.53h.22V58.46h15.72v94.33h-17.51l-42.89-69.31h-.45v69.31h-15.72V58.46ZM125.76,58.46h16.62v94.33h-16.62V58.46ZM158.77,58.46h16.62v37.43h43.12v-37.43h16.39v94.33h-16.62v-42.52h-42.89v42.52h-16.62V58.46Z"/>
    </g>
  </g>
</svg>