<?xml version="1.0" encoding="UTF-8"?>
<svg id="_레이어_1" data-name="레이어_1" xmlns="http://www.w3.org/2000/svg" version="1.1" xmlns:v="https://vecta.io/nano" viewBox="0 0 302 81.99">
  <!-- Generator: Adobe Illustrator 29.6.0, SVG Export Plug-In . SVG Version: 2.1.1 Build 207)  -->
  <defs>
    <style>
      .st0 {
        fill: #fff;
      }
    </style>
  </defs>
  <path class="st0" d="M1,3.46h24.14c5.52,0,12.03,5.16,14.94,8l42.36,46.97V3.46h14.39v74.99h-25.19c-4.49-.15-8.89-1.07-14.03-6.12L15.32,25.27v53.17H1V3.46ZM301,78.96c-17.23,2.35-34.67,2.58-52.14,1.12-10.23-.9-20.25-3.01-29.43-7.8-11.59-6.01-15.29-19.51-15.13-31.75.13-11.3,3.49-23.36,13.57-29.93,6.61-4.34,13.66-5.76,21.16-7.12,20.47-3.61,40.98-2.79,60.95-.61v10.7c-23.55-4.58-48.43-3.44-56.88,7.38-5.28,6.73-6.03,13.43-6.03,19.07,0,10.16,3.48,25.58,24.13,28.57,13.47,1.98,26.81.48,39.8-1.89v12.25h0ZM153.52,67.29h45.64v11.2c-22.44.86-44.01,1.24-66.68.3-19.24-.79-22.55-10.47-22.92-19.76V3.46h88.53v10.68h-57.27v19.09h52.2v10.42h-52.2c0,5.64.19,12.03.24,13.18.31,7.27,3.68,9.94,12.47,10.46"/>
</svg>