<?xml version="1.0" encoding="UTF-8"?>
<svg id="Layer_1" xmlns="http://www.w3.org/2000/svg" version="1.1" viewBox="0 0 592 840">
  <!-- Generator: Adobe Illustrator 29.6.0, SVG Export Plug-In . SVG Version: 2.1.1 Build 207)  -->
  <defs>
    <style>
      .st0 {
        fill: #fff;
      }
    </style>
  </defs>
  <g>
    <path class="st0" d="M84.66,282.14v3.48c.07-.25.12-.4.14-.47s.08-.19.16-.35c.45-1.2,1.29-2,2.51-2.43.43-.15.94-.27,1.52-.35.58-.08,1.27-.12,2.06-.12,3,0,5.12.64,6.35,1.92.72.75,1.2,1.78,1.43,3.08.07.43.12.91.16,1.42.04.52.05,1.18.05,2v6.77h-5.38v-6.94c0-1.5-.31-2.48-.93-2.96-.62-.48-1.65-.72-3.08-.72-2,0-3.3.3-3.92.89-.71.72-1.07,1.81-1.07,3.24v6.49h-5.38v-14.94h5.38Z"/>
    <path class="st0" d="M109.95,291.43c0,1.09.48,1.79,1.45,2.07.66.17,1.58.26,2.76.26.4,0,.81,0,1.24-.02.43,0,.9-.03,1.4-.05.52,0,.94-.14,1.26-.43.31-.28.52-.69.63-1.23h5.41v.28c0,1.08-.3,2.01-.9,2.8-.6.79-1.38,1.32-2.36,1.6-.63.19-1.5.33-2.63.44-1.13.11-2.47.16-4.02.16-1.66,0-3.12-.09-4.37-.26-2.74-.39-4.38-1.78-4.91-4.18-.11-.48-.19-.97-.24-1.47-.06-.5-.09-1.02-.09-1.57,0-1.48.12-2.72.35-3.73.31-1.43.98-2.44,2-3.04.68-.39,1.62-.68,2.82-.88,1.2-.2,2.69-.3,4.49-.3,2.66,0,4.53.12,5.61.37,2.16.46,3.46,1.67,3.92,3.63.09.39.16.71.19.95.04.24.05.55.05.91l.09,1.84-.02,1.23h-14.12v.61ZM118.7,287.64l-.07-.51c-.09-.51-.33-.9-.7-1.19-.37-.29-.88-.43-1.53-.43l-2.09-.06c-.79,0-1.46.02-2,.06-.77,0-1.37.19-1.81.56-.44.37-.66.89-.66,1.56h8.86Z"/>
    <path class="st0" d="M135.05,282.14v2.85c.42-1.39,1.27-2.28,2.57-2.65.45-.13,1.01-.23,1.67-.32.66-.08,1.4-.12,2.23-.12,2.77,0,4.9.43,6.38,1.29,1.48.86,2.23,2.82,2.23,5.88,0,.87-.03,1.65-.09,2.34s-.16,1.36-.3,2c-.54,2.61-3.08,3.92-7.63,3.92-.34,0-.7,0-1.08,0-.38,0-.9-.05-1.54-.13-1.68-.17-2.93-.72-3.77-1.63-.13-.13-.25-.26-.36-.4-.11-.14-.21-.27-.31-.39v8.94h-5.37v-21.57h5.37ZM135.24,289.35c0,1.71.25,2.78.75,3.21.34.31.81.46,1.41.46h4.6c.51,0,.82-.03.93-.09.98-.18,1.56-.84,1.75-1.98l.06-1.6c0-.88-.09-1.49-.26-1.84-.25-.49-.76-.83-1.54-1.02-.78-.19-2.01-.28-3.69-.28-.86,0-1.55.05-2.07.14-.52.09-.92.24-1.2.44-.49.41-.73,1.27-.73,2.56Z"/>
    <path class="st0" d="M160.48,291.43c0,1.09.48,1.79,1.45,2.07.66.17,1.58.26,2.76.26.4,0,.81,0,1.24-.02.43,0,.9-.03,1.4-.05.52,0,.94-.14,1.26-.43.31-.28.52-.69.63-1.23h5.41v.28c0,1.08-.3,2.01-.9,2.8-.6.79-1.38,1.32-2.36,1.6-.63.19-1.5.33-2.63.44-1.13.11-2.47.16-4.02.16-1.66,0-3.12-.09-4.37-.26-2.74-.39-4.38-1.78-4.91-4.18-.11-.48-.19-.97-.24-1.47-.06-.5-.09-1.02-.09-1.57,0-1.48.12-2.72.35-3.73.31-1.43.98-2.44,2-3.04.68-.39,1.62-.68,2.82-.88,1.2-.2,2.69-.3,4.49-.3,2.66,0,4.53.12,5.61.37,2.16.46,3.46,1.67,3.92,3.63.09.39.16.71.19.95.04.24.05.55.05.91l.09,1.84-.02,1.23h-14.12v.61ZM169.22,287.64l-.07-.51c-.09-.51-.33-.9-.7-1.19-.37-.29-.88-.43-1.53-.43l-2.09-.06c-.79,0-1.46.02-2,.06-.77,0-1.37.19-1.81.56s-.66.89-.66,1.56h8.86Z"/>
    <path class="st0" d="M185.17,292.08c.17.94.81,1.46,1.92,1.56l1.31.19h1.67c.96,0,1.78-.06,2.44-.19.43,0,.76-.09.98-.27.23-.18.34-.43.34-.75,0-.56-.25-.93-.75-1.1-.26-.08-.73-.15-1.43-.22l-1.95-.1-3.32-.12c-1.02,0-1.9-.05-2.64-.17-.74-.11-1.3-.26-1.68-.44-1.37-.59-2.05-1.8-2.05-3.61,0-2.78,1.24-4.35,3.72-4.7.52-.07,1.21-.13,2.06-.19.85-.05,1.7-.08,2.53-.08.38,0,1.3.04,2.76.12.83.05,1.45.07,1.84.07.81,0,1.56.08,2.26.23.56.12,1.03.28,1.43.47.62.29,1.11.69,1.44,1.18.34.5.5,1.11.5,1.83v.91h-5.4l-.24-.41c-.31-.44-.88-.7-1.71-.78h-3.1c-.55,0-1.14.04-1.78.1-.64.07-.96.35-.96.83,0,.31.1.55.3.71.2.16.51.24.91.24l1.65.12,3.39.12h2.21c.5,0,.98.04,1.43.13s.93.21,1.42.38c1.66.53,2.49,1.87,2.49,4.01s-.53,3.47-1.6,4.16c-.48.31-1.09.55-1.84.73-.75.18-1.62.27-2.61.27h-3.04c-2.92,0-5.01-.1-6.27-.3-1.25-.2-2.25-.62-2.98-1.26-.73-.64-1.1-1.48-1.1-2.52v-1.14l5.4-.03Z"/>
    <path class="st0" d="M235.85,286.84c-.39-.27-.89-.44-1.48-.52-.29,0-.6-.01-.94-.04-.84-.06-1.37-.09-1.59-.09-1.44,0-2.47.11-3.1.32-.8.27-1.2,1.15-1.2,2.65,0,.78.06,1.53.19,2.23.13.7.65,1.18,1.57,1.44.44.12,1.24.18,2.41.18h2.72c1.27-.14,1.97-.61,2.13-1.42l.07-.71h5.4c0,1.76-.3,3.12-.89,4.06-.66,1.05-1.82,1.75-3.48,2.07-.5.09-.93.17-1.3.22-.37.05-.77.08-1.18.08h-2c-2.88,0-4.95-.11-6.23-.33-2.33-.42-3.78-1.73-4.35-3.92-.28-1.05-.42-2.15-.42-3.27,0-1.49.18-2.85.54-4.1.3-1.05.82-1.87,1.55-2.45.58-.46,1.31-.77,2.19-.95,1.43-.28,3.29-.42,5.59-.42,1.55,0,2.91.07,4.05.2,1.15.13,2.08.32,2.8.56.64.21,1.17.55,1.61,1.01.44.46.77,1.02,1.02,1.67.24.65.37,1.39.37,2.2l.02.74h-5.4c-.14-.73-.36-1.21-.65-1.42Z"/>
    <path class="st0" d="M247.29,285.81c.28-1.37,1.06-2.34,2.33-2.9,1.52-.68,4.06-1.02,7.62-1.02,2.09,0,4.05.16,5.9.48,1.84.32,3.07,1.11,3.69,2.37.49.98.73,2.48.73,4.48,0,.8-.02,1.53-.07,2.19-.05.66-.12,1.26-.22,1.8-.24,1.45-.99,2.48-2.23,3.08-1.51.69-4.11,1.04-7.8,1.04-1.82,0-3.35-.07-4.57-.22s-2.23-.38-3.02-.71c-1.25-.53-2.05-1.48-2.38-2.85-.11-.48-.19-1.04-.24-1.69-.06-.64-.09-1.37-.09-2.18,0-1.59.12-2.88.35-3.87ZM252.32,289.52c0,.87.06,1.49.18,1.88.19.62.6,1.04,1.24,1.27s1.88.34,3.72.34c1.21,0,2.14-.06,2.78-.19,1.07-.18,1.7-.78,1.87-1.81.06-.45.09-.94.09-1.48,0-1.1-.13-1.86-.4-2.29-.17-.32-.42-.56-.75-.73-.33-.17-.75-.26-1.26-.26l-2.52-.06c-1.87,0-3.05.1-3.57.3-.92.32-1.38,1.32-1.38,3.02Z"/>
    <path class="st0" d="M278.49,282.14v2.87l.4-.83c.81-1.52,2.45-2.29,4.9-2.29.81,0,1.6.05,2.36.16,1.44.19,2.52.84,3.23,1.95.5.8.75,2.07.75,3.79v1.16h-5.42l-.07-.69c-.11-.76-.4-1.27-.89-1.51-.19-.09-.44-.17-.74-.22-.31-.05-.66-.08-1.04-.08-.54,0-1.02.05-1.44.14-.43.09-.76.24-1,.44-.24.2-.43.5-.57.9-.14.4-.21.91-.21,1.52v7.63h-5.37v-14.94h5.12Z"/>
    <path class="st0" d="M300.63,282.14v2.85c.42-1.39,1.27-2.28,2.57-2.65.45-.13,1.01-.23,1.67-.32.66-.08,1.4-.12,2.23-.12,2.77,0,4.89.43,6.38,1.29,1.48.86,2.22,2.82,2.22,5.88,0,.87-.03,1.65-.09,2.34-.06.69-.16,1.36-.29,2-.54,2.61-3.08,3.92-7.63,3.92-.34,0-.7,0-1.08,0-.38,0-.89-.05-1.54-.13-1.68-.17-2.93-.72-3.77-1.63-.13-.13-.25-.26-.36-.4-.11-.14-.21-.27-.31-.39v8.94h-5.37v-21.57h5.37ZM300.82,289.35c0,1.71.25,2.78.75,3.21.34.31.81.46,1.42.46h4.6c.51,0,.82-.03.93-.09.98-.18,1.56-.84,1.75-1.98l.06-1.6c0-.88-.09-1.49-.26-1.84-.25-.49-.76-.83-1.54-1.02-.78-.19-2.01-.28-3.69-.28-.86,0-1.55.05-2.07.14-.52.09-.92.24-1.2.44-.49.41-.73,1.27-.73,2.56Z"/>
    <path class="st0" d="M321.09,285.81c.28-1.37,1.05-2.34,2.33-2.9,1.52-.68,4.06-1.02,7.62-1.02,2.09,0,4.05.16,5.9.48,1.85.32,3.07,1.11,3.69,2.37.49.98.73,2.48.73,4.48,0,.8-.02,1.53-.07,2.19-.05.66-.12,1.26-.23,1.8-.24,1.45-.99,2.48-2.23,3.08-1.51.69-4.11,1.04-7.8,1.04-1.82,0-3.34-.07-4.57-.22s-2.23-.38-3.02-.71c-1.25-.53-2.05-1.48-2.38-2.85-.11-.48-.19-1.04-.24-1.69-.06-.64-.09-1.37-.09-2.18,0-1.59.12-2.88.35-3.87ZM326.12,289.52c0,.87.06,1.49.17,1.88.19.62.6,1.04,1.24,1.27.64.23,1.88.34,3.72.34,1.21,0,2.14-.06,2.78-.19,1.07-.18,1.7-.78,1.87-1.81.06-.45.09-.94.09-1.48,0-1.1-.13-1.86-.4-2.29-.18-.32-.43-.56-.75-.73-.33-.17-.75-.26-1.26-.26l-2.52-.06c-1.87,0-3.05.1-3.56.3-.92.32-1.38,1.32-1.38,3.02Z"/>
    <path class="st0" d="M352.29,282.14v2.87l.4-.83c.81-1.52,2.45-2.29,4.9-2.29.81,0,1.6.05,2.36.16,1.44.19,2.52.84,3.23,1.95.5.8.75,2.07.75,3.79v1.16h-5.43l-.07-.69c-.11-.76-.4-1.27-.89-1.51-.19-.09-.44-.17-.74-.22-.31-.05-.66-.08-1.04-.08-.54,0-1.02.05-1.44.14-.43.09-.76.24-1,.44-.24.2-.43.5-.57.9-.14.4-.21.91-.21,1.52v7.63h-5.38v-14.94h5.12Z"/>
    <path class="st0" d="M382.19,286.62c-.29-.78-.96-1.17-2.02-1.17h-3.93c-1.18,0-1.84.42-1.97,1.25h-5.39c0-.28.01-.5.04-.64.02-.15.06-.36.12-.62.24-1.39,1.07-2.31,2.48-2.77.88-.27,2.18-.49,3.89-.65.14,0,.6-.02,1.38-.06.78-.04,1.5-.06,2.16-.06,1.56,0,2.83.05,3.8.14,1.32,0,2.39.29,3.2.88.81.58,1.33,1.38,1.56,2.38.09.43.17.85.22,1.26.05.4.08.84.08,1.32l.06,2.66v6.55h-5.44v-2.06c-.7,1.03-1.66,1.69-2.89,1.97-.46.11-.99.19-1.57.25-.59.06-1.24.09-1.97.09-1.63,0-3.08-.11-4.33-.33-2.16-.35-3.23-1.85-3.23-4.49s.88-4.08,2.64-4.54c.6-.16,1.41-.29,2.43-.38,1.01-.09,2.18-.13,3.5-.13s2.23.04,2.9.13c.67.09,1.35.45,2.04,1.09l.49.47c0-1.24-.08-2.08-.24-2.53ZM373.81,292.43c0,.6.23.99.7,1.17.29.11.77.16,1.44.16h4.62c.67,0,1.16-.28,1.48-.84.14-.24.21-.5.21-.77,0-.23-.07-.45-.21-.67-.14-.22-.36-.4-.65-.52s-.66-.19-1.1-.19h-2.24c-.97,0-1.82.05-2.55.16-1.12.16-1.68.67-1.68,1.51Z"/>
    <path class="st0" d="M395.06,282.14v-3.5h5.37v3.5h8.64v3.87h-8.64v5.23c0,.68.12,1.14.36,1.39.24.25.72.37,1.44.37l1.04-.06c.41,0,.74-.15.98-.46.24-.31.36-.74.36-1.3l.07-.68h4.99v.84c0,1.01-.11,1.84-.31,2.51-.43,1.39-1.34,2.37-2.74,2.93-.91.35-2.27.53-4.08.53-4.26,0-6.67-.93-7.23-2.79l-.12-.58c-.05-.23-.08-.49-.11-.76-.02-.28-.04-.51-.04-.71v-6.47h-2.87v-3.87h2.87Z"/>
    <path class="st0" d="M420.45,275.83v4.19h-5.62v-4.19h5.62ZM420.32,282.08v15h-5.37v-15h5.37Z"/>
    <path class="st0" d="M426.24,285.81c.28-1.37,1.06-2.34,2.33-2.9,1.52-.68,4.06-1.02,7.62-1.02,2.09,0,4.05.16,5.9.48,1.84.32,3.07,1.11,3.69,2.37.49.98.73,2.48.73,4.48,0,.8-.02,1.53-.07,2.19-.05.66-.12,1.26-.22,1.8-.24,1.45-.99,2.48-2.23,3.08-1.51.69-4.11,1.04-7.8,1.04-1.82,0-3.35-.07-4.57-.22s-2.23-.38-3.02-.71c-1.25-.53-2.05-1.48-2.38-2.85-.11-.48-.19-1.04-.24-1.69-.06-.64-.09-1.37-.09-2.18,0-1.59.12-2.88.35-3.87ZM431.27,289.52c0,.87.06,1.49.18,1.88.19.62.6,1.04,1.24,1.27s1.88.34,3.72.34c1.21,0,2.14-.06,2.78-.19,1.07-.18,1.7-.78,1.87-1.81.06-.45.09-.94.09-1.48,0-1.1-.13-1.86-.4-2.29-.17-.32-.42-.56-.75-.73-.33-.17-.75-.26-1.26-.26l-2.52-.06c-1.87,0-3.05.1-3.57.3-.92.32-1.38,1.32-1.38,3.02Z"/>
    <path class="st0" d="M457.76,282.14v3.48c.07-.25.12-.4.14-.47.02-.07.08-.19.16-.35.45-1.2,1.29-2,2.51-2.43.43-.15.94-.27,1.52-.35.58-.08,1.27-.12,2.06-.12,3,0,5.12.64,6.35,1.92.72.75,1.2,1.78,1.43,3.08.07.43.12.91.16,1.42.04.52.05,1.18.05,2v6.77h-5.37v-6.94c0-1.5-.31-2.48-.93-2.96-.62-.48-1.64-.72-3.08-.72-2,0-3.3.3-3.92.89-.71.72-1.07,1.81-1.07,3.24v6.49h-5.37v-14.94h5.37Z"/>
  </g>
  <g>
    <path class="st0" d="M114.44,202.55c6.41,0,10.25,1.76,12.43,4.1,1.93,2.07,1.78,6.21,1.78,11.54v24.71h18.46v-23.96c0-2.91-.06-5.27-.18-7.1-.12-1.83-.3-3.51-.54-5.05-.8-4.6-2.44-8.23-4.93-10.89-4.25-4.52-11.53-6.78-21.86-6.78-2.72,0-5.09.15-7.09.43-2.01.3-3.75.71-5.22,1.25-4.21,1.51-7.09,4.39-8.66,8.65-.28.58-.46,1-.54,1.25-.08.26-.24.82-.48,1.69v-12.3h-18.47v52.81h18.47v-23.09c0-5.11,1.22-8.96,3.68-11.54,2.13-2.12,6.26-5.71,13.14-5.71Z"/>
    <path class="st0" d="M392.6,220.56l.06-4.32-.29-6.45c0-1.29-.07-2.34-.2-3.2-.11-.86-.35-1.95-.67-3.32-1.58-6.87-6.15-11.11-13.71-12.72-3.78-.88-10.32-1.31-19.63-1.31-6.31,0-11.55.35-15.73,1.05-4.19.69-7.48,1.72-9.88,3.08-3.58,2.1-5.92,5.66-7.01,10.67-.81,3.53-1.22,7.88-1.22,13.07,0,1.94.1,3.77.31,5.52.21,1.75.49,3.46.85,5.14,1.87,8.43,7.6,13.33,17.19,14.68,4.39.62,9.49.92,15.3.92,5.45,0,10.14-.18,14.08-.55,3.94-.37,7.01-.88,9.22-1.55,3.41-.98,6.16-2.86,8.25-5.62,2.1-2.77,3.14-6.04,3.14-9.83v-.98h-18.96c-.37,1.9-1.1,3.37-2.21,4.39-1.1,1.01-2.57,1.52-4.4,1.52-1.76.08-3.39.15-4.9.18-1.5.05-2.95.06-4.35.06-4.11,0-7.34-.31-9.66-.92-3.39-1.03-5.08-3.47-5.08-7.37v-2.15h49.48ZM342.73,208.86c0-2.2.77-3.91,2.31-5.15,1.54-1.23,3.66-1.86,6.34-1.86,1.91-.15,4.25-.23,7.01-.23l7.32.23c2.27,0,4.05.47,5.37,1.41,1.3.94,2.11,2.25,2.43,3.91l.25,1.68h-31.03Z"/>
    <path class="st0" d="M451.88,229.39c-.8.65-1.97.97-3.49.97-2.35.33-5.23.49-8.66.49h-5.94l-4.64-.49c-3.92-.36-5.67-2.58-6.29-5.8h-18.92v4.57c0,3.68,1.3,6.65,3.89,8.9,2.59,2.25,6.1,3.74,10.55,4.43,4.44.7,11.07,1.05,21.44,1.05h10.79c3.5,0,6.58-.32,9.26-.96,2.67-.64,4.85-1.5,6.54-2.58,3.79-2.44,5.68-7.32,5.68-14.65s-2.96-12.23-8.86-14.1c-1.73-.57-3.42-1.02-5.05-1.33-1.62-.31-3.33-.47-5.11-.47-.25,0-1.3-.04-3.16-.12-1.86-.08-3.42-.12-4.7-.12l-12.08-.48-5.89-.11c-1.44,0-2.52-.28-3.25-.86-.72-.57-1.09-1.42-1.09-2.52,0-1.73,1.14-2.72,3.4-2.97,2.27-.24,4.37-.36,6.31-.36h11.02c2.92.29,4.95,1.25,6.05,2.88l.88,1.51h19.17v-3.22c0-2.56-.6-4.72-1.79-6.46-1.19-1.75-2.89-3.14-5.12-4.17-1.4-.7-3.21-1.48-5.16-1.98-1.92-.49-4.69-1.21-8.31-1.21h-6.12c-5.19,0-8.47-.02-9.82-.02-2.95,0-5.95.09-8.97.27-3.02.19-5.46.4-7.31.65-8.8,1.23-13.21,6.68-13.21,16.31,0,6.31,2.44,10.5,7.31,12.56,1.36.62,3.36,1.13,5.98,1.52,2.62.39,5.75.59,9.38.59l11.84.48,6.94.36c2.48.24,4.17.52,5.08.79,1.77.6,2.67,1.94,2.67,3.96,0,1.13-.41,2.02-1.21,2.68Z"/>
    <path class="st0" d="M226.74,220.43l.06-4.32-.29-6.45c0-1.29-.07-2.34-.2-3.2-.11-.86-.35-1.95-.67-3.32-1.58-6.87-6.15-11.11-13.71-12.72-3.78-.88-10.32-1.31-19.63-1.31-6.3,0-11.55.35-15.73,1.05-4.19.69-7.48,1.72-9.88,3.08-3.58,2.1-5.91,5.66-7.01,10.67-.81,3.53-1.22,7.88-1.22,13.07,0,1.94.1,3.77.31,5.52.2,1.75.49,3.46.85,5.14,1.87,8.43,7.6,13.33,17.19,14.68,4.39.62,9.49.92,15.3.92,5.45,0,10.14-.18,14.08-.55,3.94-.37,7.01-.88,9.22-1.55,3.41-.98,6.16-2.86,8.25-5.62,2.1-2.77,3.14-6.04,3.14-9.83v-.98h-18.96c-.37,1.9-1.11,3.37-2.21,4.39-1.1,1.01-2.57,1.52-4.4,1.52-1.76.08-3.39.15-4.9.18-1.5.05-2.95.06-4.35.06-4.11,0-7.34-.31-9.66-.92-3.38-1.03-5.08-3.47-5.08-7.37v-2.15h49.48ZM176.87,208.73c0-2.2.77-3.91,2.31-5.15,1.55-1.23,3.66-1.86,6.34-1.86,1.92-.15,4.25-.23,7.02-.23l7.32.23c2.27,0,4.05.47,5.37,1.41,1.3.94,2.11,2.25,2.43,3.91l.25,1.68h-31.03Z"/>
    <path class="st0" d="M303.57,182.02c-1.29-1.3-3.02-2.01-4.86-2.01-1.84,0-3.56.72-4.87,2.01,0,0-5.68,5.68-5.66,5.66-1.31,1.31-2.03,3.03-2.03,4.88s.72,3.58,2.03,4.88c1.27,1.28,3,1.99,4.83,2,1.84,0,3.58-.71,4.87-2.01l5.68-5.69c2.68-2.68,2.68-7.05,0-9.73Z"/>
    <path class="st0" d="M303.36,226.29s-5.71-5.7-5.71-5.7c-1.3-1.3-3.03-2.02-4.87-2.02s-3.56.72-4.86,2.04c-2.66,2.65-2.67,7.01,0,9.7.02.01,5.69,5.69,5.69,5.69,2.68,2.68,7.03,2.68,9.72,0,2.67-2.69,2.67-7.04.02-9.71Z"/>
    <path class="st0" d="M264.86,187.69s-5.68-5.68-5.69-5.69c-2.69-2.66-7.03-2.66-9.71.01-2.68,2.68-2.68,7.04-.01,9.72.01,0,5.7,5.69,5.7,5.69,1.28,1.29,3.02,2.01,4.86,2.01s3.57-.72,4.87-2.02c1.29-1.28,2-3.01,2-4.85s-.71-3.57-2.01-4.87Z"/>
    <g>
      <path class="st0" d="M259.7,208.09c-.11-.75-.34-1.46-.68-2.12h-20.26c-.34.65-.57,1.37-.68,2.12h21.62Z"/>
      <path class="st0" d="M238.1,210.32c.12.68.34,1.32.65,1.92h20.26c.31-.59.53-1.24.65-1.92h-21.56Z"/>
      <path class="st0" d="M257.19,203.73c-1.18-.94-2.66-1.51-4.28-1.51h-8.03c-1.62,0-3.11.56-4.29,1.51h16.6Z"/>
      <path class="st0" d="M240.59,214.47c1.18.94,2.67,1.5,4.29,1.5h8.03c1.62,0,3.11-.56,4.28-1.5h-16.6Z"/>
    </g>
    <g>
      <path class="st0" d="M293.41,210.3c.12.68.34,1.32.65,1.92h20.26c.31-.59.53-1.24.65-1.92h-21.56Z"/>
      <path class="st0" d="M315.01,208.07c-.11-.75-.34-1.46-.68-2.12h-20.26c-.34.65-.57,1.37-.68,2.12h21.62Z"/>
      <path class="st0" d="M295.89,214.46c1.18.94,2.67,1.5,4.28,1.5h8.03c1.62,0,3.11-.56,4.29-1.5h-16.6Z"/>
      <path class="st0" d="M312.5,203.72c-1.18-.94-2.67-1.51-4.29-1.51h-8.03c-1.62,0-3.11.56-4.28,1.51h16.61Z"/>
    </g>
    <g>
      <g>
        <path class="st0" d="M275.3,171.5c-.68.12-1.32.34-1.92.64v20.29c.6.3,1.24.52,1.92.64v-21.56Z"/>
        <path class="st0" d="M271.15,173.93c-.97,1.18-1.56,2.69-1.56,4.34v8.04c0,1.65.59,3.16,1.56,4.34v-16.71Z"/>
      </g>
      <g>
        <path class="st0" d="M279.66,172.19c-.64-.33-1.33-.58-2.07-.7v21.59c.73-.12,1.43-.36,2.07-.7v-20.19Z"/>
        <path class="st0" d="M281.89,174.05v16.46c.91-1.16,1.46-2.62,1.46-4.21v-8.04c0-1.59-.54-3.05-1.46-4.21Z"/>
      </g>
    </g>
    <g>
      <g>
        <path class="st0" d="M275.29,224.75c-.68.11-1.32.34-1.91.64v20.29c.6.3,1.24.52,1.91.63v-21.56Z"/>
        <path class="st0" d="M271.14,227.17c-.97,1.18-1.56,2.69-1.56,4.34v8.03c0,1.65.59,3.16,1.56,4.34v-16.71Z"/>
      </g>
      <g>
        <path class="st0" d="M279.77,225.43c-.64-.33-1.33-.58-2.07-.7v21.58c.74-.12,1.43-.36,2.07-.69v-20.19Z"/>
        <path class="st0" d="M282.01,227.3v16.46c.91-1.16,1.46-2.62,1.46-4.21v-8.03c0-1.59-.55-3.05-1.46-4.22Z"/>
      </g>
    </g>
    <path class="st0" d="M254.46,226.1h-11.86c-1.68,0-3.26-.38-4.66-1.05v46.85h21.75v-47.15c-1.53.85-3.31,1.35-5.23,1.35Z"/>
  </g>
</svg>