<?xml version="1.0" encoding="UTF-8"?>
<svg id="Layer_1" xmlns="http://www.w3.org/2000/svg" version="1.1" viewBox="0 0 507.43 100.53">
  <!-- Generator: Adobe Illustrator 29.6.0, SVG Export Plug-In . SVG Version: 2.1.1 Build 207)  -->
  <defs>
    <style>
      .st0 {
        fill: #fff;
      }
    </style>
  </defs>
  <path class="st0" d="M241.91,16.36v62.85h17.78c21.24,0,34.85-8.58,34.85-31.81s-13.27-31.03-33.11-31.03h-19.52ZM261.52,27.37c11.7,0,19.59,6.07,19.59,19.68,0,16.21-7.8,20.89-21.15,20.89h-4.7V27.37h6.26ZM299.57,15.93v10.14h12.74v-10.14h-12.74ZM299.66,35.52v43.69h12.57v-43.69h-12.57ZM353.32,38.29c-5.11-2.34-10.05-3.81-17.16-3.81-12.22,0-18.72,5.2-18.72,13.26s5.29,11.96,12.05,13.52l4.94,1.13c4.42.95,7.2,2.43,7.2,4.59,0,2.69-2.77,4.08-6.76,4.08-5.03,0-10.92-1.65-14.56-3.73l-3.2,9.01c4.42,2.34,9.96,4.07,17.68,4.07,11.7,0,18.89-4.59,18.89-14.22,0-6.41-3.98-10.05-9.27-11.61-1.48-.43-4.16-1.22-6.07-1.65-4.59-.95-9.19-1.9-9.19-5.37,0-2.6,2.77-3.99,7.28-3.99,5.03,0,9.88,1.3,13.35,3.21l3.55-8.5ZM358.69,35.43v64.7l12.48-1.65v-19.8c2.17.87,6.24,1.56,8.84,1.56,15.26,0,20.2-8.76,20.2-24.27,0-13.78-6.85-21.58-17.86-21.58-4.07,0-8.84,1.39-11.35,3.29v-2.25h-12.31ZM371.26,69.93v-23.84c2.08-1.3,4.33-1.91,6.42-1.91,5.64,0,10.23,2.6,10.23,13,0,11.79-4.94,14.04-11.01,14.04-2,0-4.08-.61-5.64-1.3h0ZM447.62,50.43v1.39h-5.98c-11.53,0-19.59,3.9-19.59,14.74,0,6.85,2.25,13.7,14.91,13.7,4.16,0,9.1-1.91,12.14-4.85,2.77,3.29,6.15,4.33,11.1,4.33,1.04,0,2.77-.09,3.55-.26v-9.1c-2.78-.09-3.29-.95-3.29-5.2v-12.22c0-13.78-4.6-18.72-17.68-18.72-7.8,0-14.21,1.82-18.9,4.33l2.51,8.15c3.47-1.82,7.98-3.21,12.92-3.21,6.33,0,8.32,3.29,8.32,6.93h0ZM447.62,60.05v8.06c-2.17,2.08-4.94,3.12-7.37,3.12-3.47,0-5.46-2.25-5.46-5.37,0-3.47,2.69-5.9,7.02-5.9,1.47,0,4.42,0,5.81.09h0ZM404.71,16.1v63.11h12.66V16.1h-12.66ZM494.95,35.52l-8.67,29.04h-1.65l-9.27-29.04h-13.35l17.6,43.77c-2.6,9.36-6.07,11.1-12.57,11.1-1.3,0-2.51-.09-3.38-.26l-1.47,9.8c1.99.52,4.33.61,6.59.61,11.44,0,16.9-5.89,21.24-17.6l17.42-47.41h-12.48Z"/>
  <path class="st0" d="M48.25,0C21.59,0,0,21.58,0,48.22s21.59,48.2,48.25,48.2,48.25-21.56,48.25-48.2S74.88,0,48.25,0ZM59.76,65.56v3.8h-13.45V27.06h3.88v38.5h9.57ZM76.79,76.77c-7.63,7.6-17.76,11.8-28.53,11.8s-20.95-4.2-28.59-11.8c-7.61-7.62-11.81-17.75-11.81-28.56C7.87,25.95,25.99,7.81,48.26,7.81c.46,0,1.42.03,1.92.06h0v3.76c-.47-.02-1.5-.02-1.92-.02-9.79,0-18.98,3.81-25.89,10.71-6.94,6.91-10.76,16.13-10.76,25.88s3.82,18.98,10.76,25.87c6.91,6.92,16.1,10.73,25.89,10.73,19.35,0,35.24-15.07,36.51-34.1.02-.1.02-.5.02-.58h-25v-3.72h28.85v1.8c0,10.81-4.22,20.94-11.85,28.56ZM38.62,32.83c0,3.18-2.58,5.78-5.78,5.78s-5.78-2.6-5.78-5.78,2.58-5.79,5.78-5.79,5.78,2.61,5.78,5.79Z"/>
  <path class="st0" d="M132.79,16.23h-14.5v62.77h44.53v-12.22h-30.04V16.23ZM194.72,55.08h11.81v10.97c-2.18.83-6.42,1.65-10.46,1.65-13.05,0-17.4-6.63-17.4-20.09s4.14-20.4,17.19-20.4c7.25,0,11.39,2.28,14.81,6.63l9.01-8.29c-5.49-7.87-15.12-10.25-24.13-10.25-20.3,0-30.97,11.08-30.97,32.21s9.63,32.41,30.86,32.41c9.73,0,19.26-2.48,24.44-6.11v-30.45h-25.16v11.71Z"/>
</svg>