<?xml version="1.0" encoding="UTF-8"?>
<svg xmlns="http://www.w3.org/2000/svg" version="1.1" xmlns:cc="http://creativecommons.org/ns#" xmlns:dc="http://purl.org/dc/elements/1.1/" xmlns:inkscape="http://www.inkscape.org/namespaces/inkscape" xmlns:rdf="http://www.w3.org/1999/02/22-rdf-syntax-ns#" xmlns:sodipodi="http://sodipodi.sourceforge.net/DTD/sodipodi-0.dtd" xmlns:svg="http://www.w3.org/2000/svg" viewBox="0 0 2542 1179">
  <!-- Generator: Adobe Illustrator 29.6.0, SVG Export Plug-In . SVG Version: 2.1.1 Build 207)  -->
  <defs>
    <style>
      .st0 {
        fill: #fff;
      }
    </style>
  </defs>
  <g id="svg8" inkscape:version="0.92.4 (5da689c313, 2019-01-14)" sodipodi:docname="DSTL-logo.svg">
    <sodipodi:namedview id="base" bordercolor="#666666" borderopacity="1.0" fit-margin-bottom="0" fit-margin-left="0" fit-margin-right="0" fit-margin-top="0" inkscape:current-layer="layer1" inkscape:cx="2048.7622" inkscape:cy="694.46666" inkscape:document-units="mm" inkscape:pagecheckerboard="false" inkscape:pageopacity="0.0" inkscape:pageshadow="2" inkscape:window-height="1001" inkscape:window-maximized="1" inkscape:window-width="1920" inkscape:window-x="-9" inkscape:window-y="-9" inkscape:zoom="0.35" pagecolor="#ffffff" showgrid="false"/>
    <g id="layer1" inkscape:groupmode="layer" inkscape:label="Calque 1">
      <g id="g39">
        <path id="path53" class="st0" d="M0,589.5V0h319v130h-130v921h130v128H0v-589.5ZM2223,1115v-64h130V130h-130V0h319v1179h-319v-64ZM1123.5,953.9c-61.62-3.3-128.28-16.27-177.75-34.58l-12.75-4.72v-71.8c0-39.49.25-71.8.56-71.8s5.82,2.3,12.25,5.1c47.91,20.91,94.97,33.76,147,40.14,24.15,2.96,80.49,3.17,100.7.37,26.53-3.68,40.8-8.94,50.66-18.67,4.69-4.64,6.01-6.74,7.75-12.37,3.28-10.63,2.53-22.36-2.07-32.24-2.97-6.38-11.85-15.08-19.5-19.11-3.39-1.79-32.19-11.98-64-22.65-102.2-34.29-105.98-35.66-129.83-47.01-53.36-25.4-84.79-58.94-97.43-103.98-5.18-18.46-6.55-29.73-6.55-54.08,0-18.78.33-23.61,2.23-33.02,12.12-59.97,56.07-103.48,127.68-126.37,35.19-11.25,71.58-15.86,116.58-14.78,56.43,1.36,97.89,7.77,148,22.86,12.44,3.75,45.44,15.45,54.25,19.23l3.75,1.61v129.83l-8.25-3.06c-58.3-21.61-99.76-32.43-145.75-38.02-14.24-1.73-23.18-2.13-48-2.16-27.06-.03-31.8.21-42.02,2.12-22.73,4.24-37.79,10.49-47.93,19.88-9.12,8.45-12.83,18.82-11.1,31.08,1.63,11.5,6.44,18.75,17.28,26,14.67,9.81,31.19,15.51,101.18,34.87,80.13,22.17,91.5,25.89,116.09,37.9,43.78,21.4,69.27,48.71,82.56,88.48,5.49,16.43,7.99,31.91,8.66,53.59,1.75,57.19-14.43,101.72-49.13,135.21-14.64,14.13-26.59,22.48-46.09,32.23-48.4,24.19-111.04,34.11-189,29.93h0ZM1694.31,953.89c-26.96-1.82-56.17-7.67-76.81-15.37-13.86-5.17-33.2-15.3-44.47-23.3-12.08-8.57-27.63-24.12-36.27-36.25-12.97-18.22-24.46-44.99-29.63-69.02-5.94-27.62-5.52-4.4-5.86-329.7l-.31-297.25h146.04v169h196v128h-196.07l.32,133.75c.29,120.34.49,134.66,2.01,142.81,3.71,19.93,9.33,32.72,18.84,42.89,10.37,11.08,23.79,17.62,43.4,21.13,19.51,3.5,70.73,1.75,108-3.68,14.3-2.08,38.82-6.78,48.25-9.24l5.25-1.37v131.46l-2.75.58c-1.51.32-9.49,2.17-17.73,4.11-42.22,9.95-108.97,14.78-158.21,11.44h0ZM556.19,945.98c-68.14-4.64-128.52-30.27-173.06-73.48-47.53-46.1-73.74-104.9-82.8-185.75-2.13-18.99-2.41-74.04-.49-95.75,10.19-115.18,50.69-189.62,124.67-229.09,54.17-28.91,132.73-36.65,201.24-19.84,20.37,5,48.27,14.41,59.51,20.08l3.75,1.89v-234.04h146l-.25,386.08-.25,386.08-7,3.01c-11.59,4.98-43.96,15.42-61,19.67-41.77,10.41-88.3,17.31-135.5,20.09-25.13,1.48-61.07,1.98-74.81,1.05h0ZM643.5,812.67c11.46-2.08,19.32-4.17,33.25-8.85l12.25-4.11v-296.63l-6.25-5.21c-29.1-24.26-72.76-37.71-115.25-35.48-48.16,2.52-79.26,21.97-97.55,60.98-14.09,30.08-21.2,75.69-19.57,125.64,1.65,50.56,11.53,85.64,32.25,114.5,6.12,8.53,12.07,14.81,13.3,14.05.6-.37.83-.08.53.7-.84,2.19,13.03,12.8,25.66,19.63,15.18,8.21,34.22,13.93,54.88,16.49,8.13,1.01,58.71-.28,66.5-1.7h0ZM1993,599.5v-337.5h-83v-132h230v674h83v133h-230v-337.5Z" inkscape:connector-curvature="0"/>
        <path id="path51" class="st0" d="M0,589V0h318v129h-130v923h130v126H0v-589ZM2224,1114.5v-63.5h130V129h-130V0h318v1178h-318v-63.5ZM1140.78,954.5c-.15-.12-7.7-.52-16.78-.88-52.39-2.09-115.53-13.49-164-29.61-9.62-3.2-19.64-6.75-22.25-7.88l-4.75-2.05v-71.64c0-56.92.26-71.54,1.25-71.13.69.28,6.65,2.85,13.25,5.71,39.4,17.06,79.49,28.97,121.02,35.94,22.89,3.84,38.95,5.22,67.02,5.76,71.26,1.37,105.24-7.63,115.84-30.66,1.73-3.77,2.09-6.45,2.06-15.55-.05-14.59-2.26-20.49-10.89-29.13-8.21-8.22-15.76-11.84-43.84-21.03-49.12-16.08-123.87-41.79-138.21-47.55-17.22-6.91-38.78-17.46-50.37-24.65-47.68-29.57-72-68.75-77.07-124.14-3.23-35.28,1.1-62.25,14.38-89.5,32.97-67.65,121.86-107.42,232.7-104.11,71.78,2.15,123.94,12.68,192.86,38.95l11.5,4.38.26,64.64c.15,37.18-.12,64.64-.63,64.64s-5.33-1.63-10.76-3.61c-57.61-21.08-98.84-31.71-143.39-36.94-20.99-2.47-63.56-3.05-79.52-1.09-48.57,5.97-72.89,24.59-68.58,52.52,2.24,14.53,9.36,22.69,27.63,31.67,15.1,7.42,32.41,12.97,93.5,29.95,65.31,18.15,72.91,20.42,89.18,26.57,59.7,22.59,94.45,55.89,108.45,103.93,5.21,17.9,6.66,29.64,6.77,55,.11,24.67-1.01,35.44-5.55,53.5-4.51,17.97-13.53,37.9-24.21,53.5-6.35,9.27-25.59,28.79-35.63,36.15-40.17,29.44-93.26,44.94-164,47.9-21.08.88-36.46,1.07-37.22.45h0ZM1697,953.89c-108.67-7.02-173.94-58.56-190.93-150.76-4.75-25.79-4.57-13.15-4.57-325.13V183.5l72.75-.26,72.75-.26v169.01h196v128h-196.07l.33,134.75c.3,124.36.46,135.44,2.11,143.75,5.55,28.08,16.29,44.19,35.88,53.87,16.79,8.3,36.59,11.18,69.27,10.1,41.84-1.39,69.11-4.96,116.26-15.22l2.26-.49-.26,65.34-.26,65.34-9,2.32c-24.72,6.37-56.78,11.25-87,13.23-21.51,1.41-64.1,1.89-79.5.9h0ZM561.5,945.86c-68.24-2.73-132.22-29.02-178.19-73.22-46.95-45.13-75.11-108.51-82.72-186.14-6.09-62.18.06-133.76,16.03-186.32,14.08-46.36,39.67-86.96,71.85-113.96,41.26-34.63,96.32-52.28,164.03-52.57,29.84-.13,53.58,3.1,84,11.41,14.42,3.94,38.2,12.27,45.5,15.93,1.93.97,4.52,2.07,5.77,2.46l2.27.7-.04-115.82c-.02-63.7-.03-116.39-.02-117.07.02-.99,15.2-1.25,72.52-1.25h72.5v771.81l-7.3,3.04c-32.53,13.54-78.62,25.5-125.71,32.6-44,6.64-100.35,10.01-140.49,8.41h0ZM644.5,812.6c12.28-2.27,22.1-4.94,34.25-9.32l10.25-3.7v-296.47l-5.55-4.81c-28.31-24.52-71.4-37.94-115.53-35.97-34.47,1.54-56.79,10.31-76.53,30.05-11.3,11.3-18.5,22.42-24.72,38.11-11.64,29.41-16.18,59.63-16.12,107.5.04,31.88,1.15,43.93,6.06,65.92,14.09,63.01,52.79,100.35,113.56,109.56,13.25,2.01,61.79,1.44,74.31-.88ZM1993,599.51v-337.49l-41.25-.26-41.25-.26-.21-65.75-.21-65.75h229.91v674h83v133h-230v-337.49Z" inkscape:connector-curvature="0"/>
        <path id="path49" class="st0" d="M0,589V0h318v129h-130v923h130v126H0v-589ZM2224,1114.5v-63.5h130V129h-130V0h318v1178h-318v-63.5ZM1133,953.95c-50.09-1.88-101.43-9.69-148.5-22.6-14.68-4.03-36.03-11-45-14.69l-6-2.47-.26-71.59c-.14-39.38-.01-71.59.28-71.59s2.66,1.07,5.26,2.38c16.12,8.14,59.3,23.52,84.22,30.01,42.95,11.18,77.47,15.58,122.5,15.59,44.15.02,68.05-3.31,86-11.97,9.49-4.58,15.8-10.45,19.39-18.01,2.34-4.94,2.61-6.68,2.61-17s-.19-11.89-3.11-18c-4.86-10.15-13.99-18.09-26.57-23.09-2.92-1.16-36.82-12.69-75.32-25.62-76.39-25.65-92.4-31.6-115-42.73-50.3-24.76-78.72-54.4-92.44-96.38-9.64-29.51-11.52-70.33-4.56-99.03,6.98-28.75,19.71-50.51,42.36-72.39,34.07-32.92,84.42-53.34,150.14-60.91,13.57-1.56,62.01-1.53,82,.05,58.98,4.67,112.17,17.39,169.75,40.6l4.25,1.71v64.51c0,60.97-.1,64.48-1.75,63.99-.96-.28-10.57-3.69-21.34-7.57-48.6-17.49-88.39-27.51-129.91-32.7-16.9-2.11-64.53-3.06-78.61-1.57-36.55,3.87-60.22,14.88-68.6,31.9-2.99,6.08-3.28,7.49-3.25,15.7.03,7.76.43,9.89,2.91,15.31,5.12,11.21,15.55,18.85,37.56,27.5,14.45,5.68,26.18,9.19,89.5,26.74,71.05,19.7,83.7,23.96,108.55,36.55,39.34,19.93,63.84,45.91,77.26,81.91,12.67,33.99,13.96,84.55,3.11,122.24-8.22,28.57-20.82,49.97-41.4,70.26-13.47,13.29-25.68,21.99-44.03,31.37-38.59,19.73-79.57,29.11-138.24,31.64-12.24.53-22.71.9-23.26.82s-9.77-.47-20.5-.87h0ZM1702.5,953.96c-52.63-2.53-92.94-14.39-127-37.36-12.74-8.59-32.37-28.39-40.78-41.11-17.32-26.22-27.73-57.23-31.9-94.99-1.07-9.68-1.32-68.49-1.32-304.5V183.5l72.75-.26,72.75-.26v169.01h196v128h-196.07l.34,135.75c.34,134.06.37,135.87,2.46,145.25,5.42,24.28,13.34,37.58,28.26,47.5,13.7,9.11,29.97,13.26,55.5,14.18,35.43,1.27,87.1-3.97,125.86-12.76,7.07-1.6,13.04-2.92,13.26-2.92s.28,29.33.14,65.19l-.26,65.19-7,1.8c-22.12,5.7-51.1,10.53-77,12.84-10.26.91-67.08,3.19-70,2.8-.55-.07-7.75-.46-16-.85h0ZM546,944.93c-54.14-5.97-101.34-23.93-140.5-53.47-57.53-43.39-92.61-109.06-103.47-193.7-6.37-49.67-3.94-115.12,6.07-163.27,24.96-120.11,95.08-186.69,209.61-199.05,19.95-2.15,52.96-2.17,69.79-.03,31.63,4.01,64.39,12.78,91.62,24.53,5.16,2.23,9.72,4.05,10.13,4.05.41,0,.75-52.65.75-117v-117h145v771.73l-12.75,5.05c-45.95,18.21-105.46,30.77-174.25,36.78-20.75,1.81-89.58,2.73-102,1.36h0ZM621.12,815c23.78-1.52,38.27-4.47,59.37-12.1l8.52-3.08v-296.87l-3.62-3.22c-16.71-14.84-42.06-27.43-66.81-33.17-18.33-4.25-45.5-5.71-64.06-3.45-28.2,3.44-52.37,15.32-67.84,33.34-15.01,17.48-25.4,41.86-31.12,73.06-4.15,22.63-5.04,34.98-4.99,69,.05,34.6,1.32,47.44,6.9,69.78,11.07,44.36,36.11,77.33,70.72,93.1,26.01,11.85,54.69,16.06,92.95,13.61h0ZM1993,599.5v-337.5h-82v-132h229v674h83v133h-230v-337.5Z" inkscape:connector-curvature="0"/>
        <path id="path47" class="st0" d="M0,589V0h318v129h-130v923h130v126H0v-589ZM2224,1114.5v-63.5h130V129h-130V0h317v1178h-317v-63.5ZM1113.5,952.92c-52.15-3.79-106.25-13.9-150.5-28.13-8.52-2.74-18.76-6.33-22.75-7.98l-7.25-2.99v-142.84l3.25,1.41c1.79.77,5.95,2.63,9.25,4.13,44.42,20.16,103.71,35.78,156,41.1,19.05,1.94,65.43,2.21,82,.48,26.51-2.76,44.06-7.37,54.5-14.31,11.77-7.82,16.49-17.83,15.81-33.54-.45-10.36-2.21-15.84-7.56-23.59-3.15-4.56-12.88-11.73-20.38-15.01-2.95-1.29-31.7-11.16-63.87-21.92-103.86-34.73-118.16-40.29-146.99-57.08-40.24-23.44-64.04-52.49-75.48-92.13-8.08-27.98-9.31-65.21-3.06-92.77,15.09-66.59,77.35-114.96,167.55-130.16,21.79-3.67,34.72-4.57,65.49-4.56,48.91.02,86.75,4.4,130.5,15.1,16.75,4.1,59.5,17.91,75,24.23l8.5,3.47.26,64.57.26,64.57-11.26-4.1c-68.55-24.96-116.98-35.92-171.76-38.87-61.17-3.29-104.48,8.86-116.55,32.69-2.72,5.37-2.95,6.64-2.86,15.84.11,12.01,1.94,16.95,9.09,24.59,5.77,6.17,14.55,11.51,27.77,16.89,15.2,6.18,26.84,9.72,88.82,26.99,65.49,18.24,74.63,21.04,91.78,28.09,50.7,20.83,81.05,48.42,96.88,88.08,7.88,19.75,11.36,40.59,11.4,68.36.04,26.85-2.87,46.34-10.01,66.91-25.02,72.12-94.69,114.34-202.27,122.56-15.34,1.17-65.13,1.14-81.55-.05h0ZM1686.5,952.86c-22.55-1.95-52.45-8.43-70.05-15.17-66.4-25.45-104.38-76.98-112.92-153.19-1.4-12.46-1.54-46.31-1.3-307.26l.27-293.26h72s72,0,72,0l.26,84.01.26,84.01h195.99v128h-196v130.78c0,83.65.37,133.83,1.03,139.25,1.63,13.4,4.76,24.71,9.68,34.97,10.42,21.73,29.09,33,61.26,36.96,31.46,3.87,104.55-2.68,145.19-13.01,4.22-1.07,7.93-1.95,8.25-1.95s.58,29.22.58,64.93v64.93l-5.75,1.67c-23.2,6.76-59.11,12.18-95.75,14.46-18.92,1.18-70.77,1.09-85-.14h0ZM553.5,945.44c-1.65-.23-7.72-.91-13.5-1.52-31.29-3.31-63.76-12.83-93.61-27.46-60.9-29.84-105.31-81.33-128.28-148.72-7.97-23.39-12.87-45.36-16.78-75.24-1.54-11.74-1.82-20.85-1.78-56.5.05-46.05,1.21-61.32,7.04-92.93,23.43-126.93,96.65-197.32,216.41-208.04,16.82-1.5,48.49-1.27,63.51.47,31.11,3.6,68.18,13.61,95.87,25.89,3.23,1.43,6.27,2.6,6.75,2.6s.88-50.54.88-116.5v-116.5h145v770.7l-14.25,5.56c-47.97,18.72-108.35,31.06-179.75,36.73-13.6,1.08-81.92,2.21-87.5,1.44h0ZM639.54,813.5c12.93-1.88,29.94-6.22,41.16-10.51l8.03-3.07.64-6.11c.35-3.36.64-69.99.64-148.06v-141.95l-3.25-3.03c-18.1-16.91-43.34-29.1-73.25-35.37-16.06-3.37-46.88-4.39-62-2.05-58.93,9.11-88.94,46.87-99.06,124.65-2.18,16.73-3.05,62.5-1.53,80.07,5.74,66.15,30.49,110.02,74.59,132.17,14.38,7.22,35.28,12.84,54.9,14.75,12.81,1.25,46.11.41,59.14-1.48h0ZM1993.75,599.25l-.25-337.75-41.25-.26-41.25-.26v-130.98h229v674h83v133h-229l-.25-337.75Z" inkscape:connector-curvature="0"/>
        <path id="path45" class="st0" d="M1113.5,952.92c-52.15-3.79-106.25-13.9-150.5-28.13-8.52-2.74-18.76-6.33-22.75-7.98l-7.25-2.99v-142.84l3.25,1.41c1.79.77,5.95,2.63,9.25,4.13,44.42,20.16,103.71,35.78,156,41.1,19.05,1.94,65.43,2.21,82,.48,26.51-2.76,44.06-7.37,54.5-14.31,11.77-7.82,16.49-17.83,15.81-33.54-.45-10.36-2.21-15.84-7.56-23.59-3.15-4.56-12.88-11.73-20.38-15.01-2.95-1.29-31.7-11.16-63.87-21.92-103.86-34.73-118.16-40.29-146.99-57.08-40.24-23.44-64.04-52.49-75.48-92.13-8.08-27.98-9.31-65.21-3.06-92.77,15.09-66.59,77.35-114.96,167.55-130.16,21.79-3.67,34.72-4.57,65.49-4.56,48.91.02,86.75,4.4,130.5,15.1,16.75,4.1,59.5,17.91,75,24.23l8.5,3.47.26,64.57.26,64.57-11.26-4.1c-68.55-24.96-116.98-35.92-171.76-38.87-61.17-3.29-104.48,8.86-116.55,32.69-2.72,5.37-2.95,6.64-2.86,15.84.11,12.01,1.94,16.95,9.09,24.59,5.77,6.17,14.55,11.51,27.77,16.89,15.2,6.18,26.84,9.72,88.82,26.99,65.49,18.24,74.63,21.04,91.78,28.09,50.7,20.83,81.05,48.42,96.88,88.08,7.88,19.75,11.36,40.59,11.4,68.36.04,26.85-2.87,46.34-10.01,66.91-25.02,72.12-94.69,114.34-202.27,122.56-15.34,1.17-65.13,1.14-81.55-.05h0ZM1686.5,952.86c-22.55-1.95-52.45-8.43-70.05-15.17-66.4-25.45-104.38-76.98-112.92-153.19-1.4-12.46-1.54-46.31-1.3-307.26l.27-293.26h72s72,0,72,0l.26,84.01.26,84.01h195.99v128h-196v130.78c0,83.65.37,133.83,1.03,139.25,1.63,13.4,4.76,24.71,9.68,34.97,10.42,21.73,29.09,33,61.26,36.96,31.46,3.87,104.55-2.68,145.19-13.01,4.22-1.07,7.93-1.95,8.25-1.95s.58,29.22.58,64.93v64.93l-5.75,1.67c-23.2,6.76-59.11,12.18-95.75,14.46-18.92,1.18-70.77,1.09-85-.14h0ZM553.5,945.44c-1.65-.23-7.72-.91-13.5-1.52-31.29-3.31-63.76-12.83-93.61-27.46-60.9-29.84-105.31-81.33-128.28-148.72-7.97-23.39-12.87-45.36-16.78-75.24-1.54-11.74-1.82-20.85-1.78-56.5.05-46.05,1.21-61.32,7.04-92.93,23.43-126.93,96.65-197.32,216.41-208.04,16.82-1.5,48.49-1.27,63.51.47,31.11,3.6,68.18,13.61,95.87,25.89,3.23,1.43,6.27,2.6,6.75,2.6s.88-50.54.88-116.5v-116.5h145v770.7l-14.25,5.56c-47.97,18.72-108.35,31.06-179.75,36.73-13.6,1.08-81.92,2.21-87.5,1.44h0ZM639.54,813.5c12.93-1.88,29.94-6.22,41.16-10.51l8.03-3.07.64-6.11c.35-3.36.64-69.99.64-148.06v-141.95l-3.25-3.03c-18.1-16.91-43.34-29.1-73.25-35.37-16.06-3.37-46.88-4.39-62-2.05-58.93,9.11-88.94,46.87-99.06,124.65-2.18,16.73-3.05,62.5-1.53,80.07,5.74,66.15,30.49,110.02,74.59,132.17,14.38,7.22,35.28,12.84,54.9,14.75,12.81,1.25,46.11.41,59.14-1.48h0ZM1993.75,599.25l-.25-337.75-41.25-.26-41.25-.26v-130.98h229v674h83v133h-229l-.25-337.75Z" inkscape:connector-curvature="0"/>
        <path id="path43" class="st0" d="M1121,953.31c-33.47-1.97-67.27-6.75-108.93-15.39-21.65-4.49-53.34-14.02-73.82-22.19l-5.25-2.09v-71.35c0-67.63.09-71.3,1.75-70.44,3.75,1.96,13.19,6.08,22.75,9.93,50.31,20.27,96.7,31.62,148.5,36.34,16.8,1.53,62.46,1.53,78.5,0,40.29-3.85,60.94-13.31,67.54-30.94,2.42-6.48,2.88-20.03.93-27.3-3.52-13.09-12.6-22.21-28.97-29.09-4.68-1.97-22.9-8.32-40.5-14.12-56.9-18.75-108.12-36.37-122.73-42.21-14.31-5.72-36.48-16.35-46.77-22.42-40.03-23.63-65.29-55.67-75.45-95.73-8.77-34.54-7.81-75.97,2.41-103.8,14.61-39.83,42.68-69.01,87.55-91.02,27.06-13.27,55.1-21.38,90.5-26.16,19-2.57,83.15-2.57,106,0,41.07,4.61,77.01,12.05,107,22.14,5.78,1.94,11.34,3.74,12.36,4,2.1.53,20.12,7.18,31.89,11.77l7.75,3.02v128.66l-6.75-2.59c-40.72-15.61-89.33-29.43-122.45-34.8-31.64-5.13-68.18-7.32-92.71-5.55-26.55,1.92-44.72,6.41-59.3,14.66-9.15,5.18-14.9,10.86-18.59,18.37-2.36,4.8-2.7,6.7-2.7,15,0,19.68,7.91,29.49,32.5,40.29,9,3.95,25.08,9.93,30,11.15.82.2,8.7,2.41,17.5,4.91,26.84,7.61,46.95,13.21,70.5,19.62,51.46,14.02,77.31,23.78,101.5,38.32,13.73,8.25,20.32,13.44,32.04,25.16,11.62,11.63,17.49,19.58,24.38,32.98,11.92,23.21,17.42,48.95,17.42,81.57,0,45.09-10.32,78.69-33.93,110.5-33.31,44.87-95.27,71.98-179.36,78.46-12.13.94-59.25,1.16-73.05.34h0ZM1688.06,952.91c-29.62-2.85-54.17-8.5-77.32-17.79-7.17-2.88-20.56-9.45-25.22-12.38-22.49-14.15-35.11-25.87-49.13-45.59-18.25-25.68-29.26-58.04-33.38-98.15-.61-5.95-.98-118.94-.99-302.25l-.02-292.75h145v168h196v128h-196.06l.32,136.75c.32,135.43.34,136.84,2.45,145.75,4.63,19.57,10.26,30.5,20.79,40.34,14.92,13.96,31.81,19,66.53,19.88,40.57,1.02,85.98-3.93,129.2-14.1,3.15-.74,5.96-1.11,6.25-.82.68.68.69,129.2.01,129.2-.29,0-3.87.9-7.97,2-26.29,7.04-59.18,11.94-93.87,13.96-20.42,1.19-70.03,1.17-82.58-.04h0ZM545.5,944.48c-66.61-7.08-125.56-34.3-167.05-77.14-7.82-8.07-19.18-21.37-22.56-26.4-1.32-1.96-5.23-7.81-8.71-13-12.8-19.11-26.64-50.2-34.03-76.44-10.02-35.55-14.15-68.81-14.15-113.8.01-87.26,16.17-154.17,49.56-205.26,9.98-15.27,17.29-24.1,30.59-36.94,42.3-40.83,101.05-61.46,175.13-61.49,19.02,0,30.11.91,49.21,4.09,23.2,3.86,58.63,14.28,76.29,22.44,4.12,1.9,8.1,3.46,8.85,3.46,1.14,0,1.36-18.98,1.36-116.5v-116.5h145v770.07l-4.75,2.07c-43.23,18.87-106.94,33.27-173.75,39.28-41.2,3.71-87.42,4.56-111,2.06h0ZM633.01,814.54c18.92-2.21,32.41-5.53,51.74-12.73l5.25-1.95v-296.69l-4.57-4.03c-13.14-11.56-31.77-22-50.31-28.17-47.84-15.93-103.22-11.52-132.69,10.57-32.73,24.53-48.45,64.83-52.46,134.46-2.4,41.74,2.7,84.89,13.39,113.24,18.75,49.75,58.03,79.35,113.64,85.65,12.45,1.41,42.56,1.22,56.01-.35ZM1993.75,599.25l-.25-337.75-41.25-.26-41.25-.26v-130.99l114.25.25,114.25.25.25,336.74.25,336.74,41.25.26,41.25.26v132l-114.25.25-114.25.25-.25-337.75Z" inkscape:connector-curvature="0"/>
        <path id="path41" class="st0" d="M1126.5,953.34c-3.3-.19-11.17-.82-17.5-1.39s-12.18-1.06-13-1.09c-5.84-.19-30.5-3.38-45.5-5.89-16.96-2.83-48.48-9.45-52.5-11.02-.27-.11-.8-.15-1.17-.1-2.49.34-38.07-10.74-38.64-12.03-.17-.39-.9-.49-1.61-.21-.71.27-6.08-1.39-11.94-3.69l-10.64-4.19.02-71.11c0-39.11.35-70.66.75-70.11s1.22,1.09,1.8,1.19c.59.1,8.23,3.17,16.99,6.82,8.75,3.65,20.42,8.18,25.93,10.08,5.51,1.9,10.69,3.74,11.51,4.09.82.35,1.84.57,2.25.48s.75.32.75.9.4.81.88.51c.49-.3,3.52.36,6.74,1.47,10.83,3.73,45.74,12.03,62.97,14.97,29.87,5.11,45.67,6.35,80.92,6.38,44.62.03,67.67-3,86.01-11.32,3.84-1.74,7.21-3.24,7.49-3.32.27-.08,1.27-1.07,2.22-2.2.94-1.13,1.73-1.63,1.75-1.12.02.51,1.77-1.39,3.88-4.23,2.12-2.84,4.22-4.83,4.66-4.43.44.4.49.18.1-.5-.39-.68-.14-2.25.55-3.5.69-1.25,1.13-2.88.98-3.62-.15-.74.12-1.1.61-.8.5.31.74-4.5.56-11.15-.39-13.87-.6-16.2-1.45-16.2-.35,0-.9-1.02-1.21-2.27-.6-2.39-6.59-12.01-7.82-12.54-2-.88-7.7-6-7.3-6.55.26-.35.2-.45-.12-.21-.32.23-4.11-1.28-8.4-3.36-7.88-3.81-11.88-5.37-13.26-5.17-.41.06-.75-.37-.75-.95s-.37-.83-.82-.55c-.71.44-6.71-1.22-11.18-3.09-.82-.35-1.73-.68-2-.74-4.67-1.03-10-3.03-10-3.75,0-.51-.39-.69-.86-.4-.87.54-22.21-6.21-23.14-7.32-.27-.33-1.26-.65-2.19-.73-2.82-.22-45.26-14.67-45.92-15.64-.34-.5-1.01-.84-1.5-.77-2.08.32-13.19-3.48-12.66-4.34.32-.52.11-.65-.46-.3-.87.54-8.92-1.71-14.27-3.99-.83-.35-2.33-.8-3.35-1-1.02-.2-4.62-1.43-8-2.74s-10.05-3.89-14.83-5.72c-5.64-2.17-8.27-3.64-7.5-4.2.75-.55.52-.65-.63-.27-2.22.72-21.3-7.92-20.91-9.47.15-.6-.1-.85-.56-.56-.95.59-11.39-4.15-12.32-5.6-.34-.52-1.01-.97-1.5-.99-1.7-.1-5.39-2.11-5.39-2.94,0-.46-.61-.84-1.35-.84-1.77,0-16.65-9.92-16.65-11.09,0-.5-.56-.79-1.25-.66-.69.14-1.14-.31-1-1,.14-.69-.18-1.14-.69-1-1.74.46-16.54-12.9-23.69-21.38-9.72-11.52-13.69-17.57-19.93-30.37-8.34-17.12-12.95-33.58-15.39-55-1.45-12.7-1.19-38.44.48-48.5.78-4.68,1.67-10.02,1.97-11.89.31-1.86.87-3.89,1.25-4.5s.72-1.56.75-2.11c.13-2.4,1.72-7.5,2.33-7.5.37,0,.73-1.07.81-2.37.21-3.57,9.48-22.68,10.66-21.95.57.35.71.13.32-.5-.92-1.48,2.3-6.35,3.65-5.52.61.38.75.16.33-.52-.67-1.09,2.9-7.25,4.62-7.98.43-.18.79-.85.79-1.49,0-1.25.59-1.91,13.04-14.68,4.56-4.67,8.67-8.39,9.12-8.25.46.14.72-.11.58-.55-.92-2.96,36.64-28.03,40.04-26.73.72.28,1.08.12.79-.35-.73-1.18,17.19-9.38,18.6-8.51.63.39.86.26.52-.29-.52-.85,16.88-7.43,23.66-8.95,2.86-.64,3.86-.94,5.65-1.7,2.81-1.19,18.39-4.62,18.85-4.15.25.26.95.06,1.56-.44.6-.5,3.12-1.15,5.59-1.45s8.55-1.22,13.5-2.05c35.39-5.92,97.34-4.42,145,3.51,13.19,2.19,26.16,4.75,28.5,5.62.82.31,2.85.73,4.5.94,1.65.21,3.13.78,3.3,1.26.16.48,1.08.67,2.03.42.95-.25,3.07.1,4.7.77,1.63.67,3.27,1.16,3.63,1.09,2.68-.53,47.63,14.11,67.34,21.94l11,4.37.26,63.75c.14,35.06-.12,63.75-.58,63.75s-3.5-1.07-6.76-2.39c-10.87-4.39-44.73-15.66-61.92-20.63-37.93-10.96-70.02-16.7-106-18.97-68.13-4.29-111.8,7.23-125.05,32.98-2.31,4.49-3.13,18.37-1.51,25.61.66,2.95,1.27,5.71,1.36,6.13.41,2.01,8.84,11.34,12.92,14.3,2.04,1.48,3.51,2.98,3.25,3.33-.26.35-.18.43.16.17s3.61,1.06,7.25,2.91c12.72,6.48,26.41,11.41,50.09,18.05,5.21,1.46,9.91,2.93,10.46,3.26.54.34,1.94.71,3.11.84,2,.21,23.66,6.15,38.96,10.68,3.85,1.14,8.03,2.24,9.29,2.43s3.51.88,5,1.51,3.44,1.22,4.32,1.32c2.49.27,6.52,1.36,9.59,2.6,1.54.62,3.69,1.25,4.79,1.41,4.95.69,25.07,6.79,25.7,7.78.38.61,1.02.79,1.41.4.39-.39,1.32-.21,2.05.4.74.61,1.34.85,1.34.53,0-.79,18.58,5.72,25.77,9.02,3.15,1.45,6.07,2.56,6.48,2.48.41-.09.75.29.75.84s.34.91.75.8c1.76-.48,8.22,2.44,7.6,3.44-.4.64-.19.78.5.35,1.26-.78,13.14,5.36,22.38,11.56,3.16,2.12,6.03,3.85,6.38,3.85,1.17,0,8.89,7.44,8.61,8.3-.15.47.17.57.7.24,1.03-.64,10.7,7.49,15.24,12.81,2.14,2.51,2.44,3.43,1.5,4.64-1,1.28-.93,1.32.43.26,1.32-1.03,1.92-.9,3.41.75.99,1.1,1.41,2,.93,2s.15.72,1.41,1.6c1.32.92,2.05,2.22,1.73,3.05-.31.8-.13,1.19.38.87.52-.32,1.48.44,2.15,1.68.66,1.24,1.81,2.86,2.55,3.6.74.74,1.34,1.98,1.34,2.77s.42,1.43.94,1.43c1.38,0,10.39,19.22,13.48,28.73,2.48,7.66,6.3,23.85,6.43,27.27.03.82.51,4.65,1.07,8.5,1.25,8.57,1.25,40.78.01,49-.5,3.3-1.08,7.58-1.28,9.5-.46,4.3-2.55,14.96-3.34,17-.32.83-.67,2.17-.77,3-.57,4.46-4.92,15.88-5.83,15.31-.63-.39-.8,0-.42.97.73,1.91-4.2,13.88-5.42,13.13-.46-.29-.57.18-.24,1.03.33.85.1,1.55-.51,1.55s-1.11-.53-1.11-1.17-.29-.88-.64-.52-.13,1.25.49,2c.87,1.05.19,2.93-3.01,8.27-3.94,6.58-11.1,16.61-14.94,20.91-7.27,8.16-16.64,17.5-17.57,17.5-.61,0-1.34.58-1.61,1.29s-2.46,2.62-4.86,4.25c-2.4,1.63-4.81,3.46-5.36,4.08-2.21,2.46-10.58,7.46-11.52,6.88-.55-.34-1.27.08-1.59.93-.64,1.66-14.85,9.91-17.07,9.91-.73,0-1.32.38-1.32.83s-.34.74-.75.63c-.41-.11-2.62.78-4.91,1.98-9.22,4.82-43.74,16.15-45.09,14.8-.31-.31-1.08-.13-1.71.4-.64.53-2.8,1.16-4.81,1.41-2.01.25-4.03.68-4.48.97-1.46.9-19.19,3.74-36.24,5.81-12.44,1.51-24,2.07-47,2.26-16.77.14-33.2.1-36.5-.09h0ZM1697,953.38c-4.35-.36-18.28-1.88-26.5-2.9-16.86-2.09-42.56-8.69-57.5-14.77-12.44-5.06-15.99-6.92-15.3-8.03.34-.55.1-.68-.54-.28-1.46.9-11.22-4.5-10.43-5.77.32-.52.08-.63-.54-.25-1.4.86-9.06-4.09-8.81-5.7.1-.65.59-1.86,1.09-2.68.79-1.29.68-1.31-.77-.14-.92.75-1.43,1.76-1.13,2.25s.07.89-.51.89-1.06-.42-1.06-.93-.84-1.2-1.86-1.52c-1.02-.32-3.72-2.31-6-4.41-2.28-2.1-4.14-3.66-4.14-3.45s-1.56-1.05-3.47-2.79c-1.91-1.74-3.19-3.62-2.85-4.18.35-.56.2-.75-.33-.42-.94.58-7.24-5.46-12.7-12.18-1.94-2.38-2.44-3.71-1.7-4.45.58-.58,1.03-1.75.99-2.61-.03-.85-.52-.43-1.07.95l-1.01,2.5-2.04-2.5c-3.12-3.82-12.35-19.26-12.07-20.18.14-.45-.14-.82-.61-.82-.97,0-9.14-18.07-9.14-20.21,0-.76-.43-1.82-.95-2.34-1.34-1.34-8.21-25.58-7.66-27.02.25-.65.08-1.58-.37-2.06-1.14-1.2-3.73-17.53-4.97-31.37-.68-7.55-1.03-111.12-1.04-301.75V184s71.99,0,71.99,0h72v168h197v128h-197.07l.11,132.27c.06,72.85.51,134.06,1,136.25,1.92,8.61,4.27,22.1,4.22,24.23-.03,1.24.29,2.25.71,2.25s1.55,2.14,2.51,4.75c.97,2.61,2.61,6.25,3.65,8.08,1.04,1.83,1.59,3.81,1.23,4.4-.37.6-.2.79.38.43,1.28-.79,4.59,4,3.73,5.39-.34.55-.04.87.66.72.7-.15,1.3.29,1.32.98.03.69.5,1.28,1.05,1.31,1.59.1,5.49,4.14,4.91,5.08-.29.47.22.85,1.13.85,1.69,0,7.37,3.56,8.7,5.45.4.58.74.7.75.28.01-.42,1.71.09,3.77,1.15,4.07,2.08,15.22,5.91,19.24,6.62,10.9,1.92,19.45,2.46,39,2.48,27.16.02,51.43-1.67,79-5.49,5.85-.81,31.16-5.72,38.83-7.52,4.58-1.08,8.97-1.96,9.75-1.96,1.21,0,1.42,9.35,1.42,63.94,0,35.17-.39,64.18-.87,64.48-2.01,1.25-21.27,5.62-22.2,5.04-.56-.35-1.6-.15-2.3.43-2.84,2.36-32.57,7.13-60.29,9.67-15.63,1.44-79.41,2.72-90.34,1.82h0ZM552.5,944.95c-15.89-1.45-35.9-4.85-50.44-8.56-20.54-5.24-48.61-15.7-47.4-17.65.34-.55,0-.78-.77-.51-1.9.67-9.51-3.23-8.06-4.13.63-.39-.32-.71-2.1-.72-3.61-.02-13.23-5.51-12.01-6.85.42-.47.19-.51-.52-.1-1.94,1.12-9.89-4.41-8.44-5.86.37-.37-.05-.4-.93-.06-1.98.76-14.08-7.31-13.17-8.79.35-.57.17-.74-.4-.39-1.12.69-11.27-6.89-11.27-8.42,0-.5-.37-.8-.82-.66-1.15.35-8.17-5.93-7.44-6.66.33-.33-.2-.59-1.18-.59-1.19,0-1.58-.51-1.18-1.55.36-.95.18-1.3-.47-.9-1.36.84-6.06-3.51-5.23-4.85.34-.56.15-.71-.44-.35-1.13.7-9.52-8.63-8.72-9.71.26-.35.2-.44-.13-.2-1.46,1.06-14.68-15.17-13.68-16.79.33-.53.14-.68-.42-.33-1.18.73-8.3-9.2-8.3-11.59,0-.89-.63-1.99-1.41-2.43-1.86-1.06-10.66-15.38-10.05-16.36.26-.42.08-.92-.41-1.1-1.2-.45-8.35-14.83-7.39-14.85.42,0,.24-.35-.39-.75-.63-.4-1.31-1.63-1.5-2.73s-.72-2.27-1.17-2.6c-.45-.33-.91-1.23-1.03-2-.12-.77-.55-1.94-.96-2.59-.41-.66-1.38-2.91-2.15-5s-2.33-6.25-3.46-9.24-1.84-5.65-1.58-5.91c.26-.26.07-.96-.41-1.56-1.7-2.09-7.1-22-10.04-36.99-6.56-33.47-8.55-59.13-7.68-99.1.35-15.95,1.07-32.83,1.6-37.5.53-4.68,1.24-11.43,1.58-15,1.71-18.34,11.21-63.91,15.53-74.5.67-1.65,1.34-3.54,1.47-4.2.14-.66,2.18-6.39,4.55-12.73,2.89-7.75,4.59-11.13,5.19-10.3.61.84.71.67.32-.53-.62-1.91,2.2-8.73,3.61-8.73.47,0,.77-.56.66-1.25-.11-.69.17-2.15.62-3.25,1.6-3.89,9.79-18,10.63-18.33.47-.18.86-.92.86-1.64,0-1.2,9.37-14.94,12.28-18.01.67-.71,2.12-2.56,3.22-4.11,1.1-1.55,2.79-3.62,3.75-4.61s1.75-2.14,1.75-2.55c0-.99,4.26-3.73,5.32-3.43.45.13.55-.21.21-.76-.78-1.26,11.72-13.56,21.27-20.92,9.06-6.98,19.56-14.07,20.1-13.55.22.21.9-.24,1.5-1.01,2.05-2.62,20.5-11.4,22.86-10.88,1.55.34,1.84.21.94-.44-2.16-1.54,20.28-9.71,40.3-14.67,24.03-5.95,43.55-8.07,74-8.03,24.23.03,41.81,1.52,54,4.57,2.2.55,5.58,1.22,7.5,1.48,11.26,1.53,55.09,15.18,55.83,17.39.19.56.7.8,1.15.53.94-.58,11.03,3.44,11.03,4.4,0,.36.79.71,1.76.79.97.07,2.21.22,2.75.33.54.11,1.44.15,1.99.08.66-.08.91-39.5.74-116.62l-.26-116.5h145.02v384.82s-.02,384.82-.02,384.82l-3.56,1.7c-1.96.93-3.98,1.44-4.49,1.12-.51-.32-.93-.07-.93.54s-.45.84-1,.5c-.55-.34-1-.24-1,.22,0,1.1-6.04,3.37-7.15,2.69-.47-.29-.85-.1-.85.42,0,2.22-69.1,22.4-70.82,20.68-.27-.27-.99-.11-1.59.37-.6.48-5.14,1.58-10.09,2.46-4.95.88-10.35,1.84-12,2.15-18.66,3.45-54.55,8.15-68.93,9.02-3.89.24-12.47.88-19.07,1.43-17.22,1.44-69.22,2.08-81,1h0ZM630,815c15.55-1.48,17.93-1.83,24.5-3.52,3.3-.85,6.92-1.67,8.04-1.82s2.47-.53,3-.83c.53-.3,4.11-1.56,7.96-2.79s9.14-3.17,11.75-4.31l4.75-2.08v-148.76c0-148.15,0-148.77-2.02-150.18-1.11-.78-3.79-3.05-5.96-5.06-2.16-2-4.36-3.64-4.87-3.64s-2.36-1.33-4.09-2.95c-1.74-1.62-3.36-2.97-3.61-3-.25-.03-.93-.05-1.51-.05s-.74-.56-.34-1.25c.4-.69.36-.93-.08-.53-.66.59-15.83-6.53-17.52-8.22-.27-.27-.95-.61-1.5-.74-.55-.13-6.85-2.25-14-4.7-24.12-8.28-53.24-11.12-81.74-7.98-10.65,1.17-23.38,4.66-34.18,9.36-2.71,1.18-5.62,1.88-6.47,1.55-.85-.33-1.24-.29-.87.08.89.89-.4,2.03-9.01,7.87-8.12,5.5-14.52,11.89-21.63,21.57-2.63,3.58-5.42,6.87-6.2,7.31s-1.21,1.17-.93,1.61c.27.44-1.29,4.44-3.48,8.9s-3.97,8.6-3.97,9.2-.52.78-1.15.39c-.67-.41-.88-.28-.51.32.35.57-.27,3.68-1.39,6.9-1.11,3.23-3.16,10.37-4.55,15.87s-2.78,10.68-3.1,11.5c-.32.83-.72,3.5-.9,5.93-.18,2.44-.61,5.14-.96,6-.35.86-.76,3.14-.92,5.07-.15,1.92-.76,8.45-1.35,14.5-4.65,47.82-.43,99.87,10.36,127.75.8,2.06,1.4,3.86,1.34,4-.06.14.66,2.05,1.6,4.25.94,2.2,1.78,4.97,1.87,6.15.09,1.18.42,1.99.75,1.79.97-.6,4,6.6,3.28,7.78-.43.7-.2.79.65.27.99-.61,1.14-.35.6,1.07-.4,1.04-.42,1.58-.04,1.2.73-.73,6.38,7.03,6.41,8.82.01.59,1.16,2.14,2.55,3.45,1.39,1.31,2.31,2.95,2.04,3.66-.27.71-.17,1.18.22,1.05,1.23-.41,9.19,8.87,8.43,9.84-.4.51-.3.59.21.19.51-.4,1.53-.23,2.26.38,1.06.88,1.08,1.45.12,2.73-1,1.34-.98,1.41.14.41,1.09-.97,2.33-.32,6.31,3.25,2.72,2.45,5.38,4.45,5.9,4.45s.63.52.24,1.15c-.43.69-.28.88.37.48.6-.37,1.34-.26,1.65.24s2.48,1.91,4.82,3.13,4.48,2.5,4.76,2.85c1.52,1.95,20.96,10.18,28.77,12.18,2.88.74,5.23,1.73,5.23,2.21s.41.62.91.31,3.77.1,7.25.9,9.94,1.88,14.34,2.37c11.18,1.27,42.94,1.36,55.5.17h0ZM515.4,797.17c.28-.46-.12-.83-.9-.83s-1.18.38-.9.83c.28.46.69.83.9.83s.61-.38.9-.83ZM476,757.17c0-.46-.66-.83-1.46-.83s-1.22.38-.94.83c.28.46.94.83,1.46.83s.94-.38.94-.83ZM1994,598.5v-337.5h-82.94l-.04-65-.04-65h229.03v336.75s-.02,336.75-.02,336.75l40.98.26,40.98.26.04,65.49.04,65.49h-228.02v-337.5h0Z" inkscape:connector-curvature="0"/>
      </g>
    </g>
  </g>
</svg>