<?xml version="1.0" encoding="UTF-8"?>
<svg id="_레이어_1" data-name="레이어_1" xmlns="http://www.w3.org/2000/svg" version="1.1" viewBox="0 0 230 62">
  <!-- Generator: Adobe Illustrator 29.6.0, SVG Export Plug-In . SVG Version: 2.1.1 Build 207)  -->
  <defs>
    <style>
      .st0 {
        fill: #fff;
      }
    </style>
  </defs>
  <path class="st0" d="M167.57,14.19v24.24h2.18v-10.22c.08-3.43,2.17-6.01,5.63-6.01s4.57,2.27,4.57,5.29v10.94h2.19v-11.28c0-4.17-1.54-6.75-6.58-6.75-2.52,0-4.94,1.43-5.73,3.54h-.08v-9.74h-2.18,0ZM74.26,20.4c-5.7,0-8.11,4.67-8.11,9.28,0,4.99,2.4,9.26,8.11,9.26,4.53,0,6.88-2.29,7.82-6.27h-2.2c-.69,2.67-2.42,4.5-5.62,4.5-4.2,0-5.88-3.78-5.93-6.9h13.8c.19-4.94-2.12-9.87-7.88-9.87ZM109.54,20.4c-5.68,0-8.1,4.67-8.1,9.28,0,4.99,2.42,9.26,8.1,9.26,4.54,0,6.89-2.29,7.83-6.27h-2.19c-.7,2.67-2.43,4.5-5.65,4.5-4.21,0-5.88-3.78-5.9-6.9h13.81c.17-4.94-2.13-9.87-7.91-9.87ZM128.14,20.4c-4.1,0-7.05,1.78-7.27,5.89h2.19c.08-2.86,2.1-4.08,4.8-4.08s4.7.71,4.7,3.6c0,1.93-1,2.17-2.84,2.37-4.72.55-9.62.73-9.62,5.65,0,3.53,2.72,5.11,6.01,5.11s4.99-1.28,6.55-3.55h.06c0,1.84.36,3.05,2.58,3.05.57,0,.93-.03,1.41-.13v-1.8c-.18.07-.45.14-.68.14-.88,0-1.29-.48-1.29-1.29v-9.31c0-4.68-3.45-5.64-6.61-5.64ZM92.16,20.4c-3.16,0-6.75,1.38-6.75,4.93,0,2.99,2.15,3.95,5.01,4.69l2.83.61c1.96.48,3.91,1.14,3.91,3.19,0,2.44-2.84,3.34-4.89,3.34-2.91,0-5.12-1.51-5.29-4.4h-2.19c.35,4.29,3.18,6.18,7.37,6.18,3.33,0,7.2-1.45,7.2-5.26,0-3.05-2.61-4.48-5.13-4.86l-2.91-.65c-1.49-.37-3.72-1.04-3.72-2.93,0-2.28,2.29-3.03,4.23-3.03,2.52,0,4.61,1.18,4.71,3.84h2.19c-.13-3.81-2.99-5.64-6.57-5.64ZM157.32,20.4c-5.5,0-8.51,4.25-8.51,9.27s3.01,9.26,8.51,9.26c4,0,6.79-2.58,7.4-6.77h-2.19c-.29,2.91-2.52,5-5.22,5-4.23,0-6.29-3.76-6.29-7.49s2.06-7.46,6.29-7.46c2.83,0,4.48,1.58,5.07,4.21h2.17c-.48-4.01-3.42-6.02-7.24-6.02h0ZM65.32,20.68c-3.24-.13-5.67,1.53-6.77,4.35h-.07v-4.13h-2.02v17.53h2.19v-9.32c0-3.63,2.71-6.5,6.67-6.3,0,0,0-2.13,0-2.13ZM148.68,20.68c-3.23-.13-5.66,1.53-6.77,4.35h-.06v-4.13h-2.04v17.53h2.19v-9.32c0-3.63,2.72-6.5,6.67-6.3v-2.13h0ZM74.26,22.21c3.55,0,5.58,3.03,5.7,6.25h-11.62c.35-3.2,2.36-6.25,5.93-6.25ZM109.54,22.21c3.55,0,5.61,3.03,5.7,6.25h-11.6c.36-3.2,2.32-6.25,5.9-6.25ZM132.5,28.85h.06v2.79c.04,3.43-2.92,5.52-6.26,5.52-2.07,0-4.02-1.34-4.02-3.48,0-3.41,4.61-3.39,8.34-4.04.6-.1,1.59-.27,1.87-.79Z"/>
  <path class="st0" d="M203.68,45.37l-2.58.54-.09.39c.28-.02.39-.04.5-.04.37,0,.63.2.63.5,0,.02-.02.13-.04.31l-.05.33-1.85,9.12c-.24,1.16-.46,1.46-1.03,1.46h-.02l-.09.37h2.99l.07-.37c-.57-.02-.83-.17-.83-.57,0-.11.02-.2.04-.31l.06-.33.77-3.78c.79-.89,1.38-1.24,2.07-1.24.81,0,1.33.5,1.33,1.24,0,.18-.02.33-.09.66l-.57,2.86c-.22,1.09-.46,1.4-1.16,1.46l-.09.37h3.08l.09-.37c-.07,0-.11-.02-.15-.02-.46-.04-.66-.19-.66-.54,0-.13.04-.41.09-.63l.57-2.62c.09-.41.13-.85.13-1.18,0-1.16-.81-2.03-1.92-2.03-.81,0-1.46.31-2.38,1.11l-.2.2-.04-.04,1.4-6.86h0ZM133.66,47.92c-.39,0-.7.33-.7.72s.3.7.7.7.72-.3.72-.7c0-.39-.33-.72-.72-.72ZM182.61,47.92c-.39,0-.7.33-.7.72s.3.7.7.7.72-.3.72-.7-.33-.72-.72-.72ZM69.84,48.3l-.28,1h6.22l.28-1h-6.22ZM110.06,48.3l-.28,1h6.22l.29-1h-6.22ZM159.02,48.3l-.28,1h6.22l.29-1h-6.22ZM222.78,48.3l-.28,1h6.22l.28-1h-6.22ZM78.98,49.28c-.76,1.48-1.36,1.97-2.66,2.14l-.06.35h1.37l-.87,4.41-.13.63c-.05.26-.11.65-.11.83,0,.57.37.92.96.92.94,0,2.03-.57,3.32-1.72l-.26-.26c-.81.68-1.64,1.11-2.18,1.11-.31,0-.53-.19-.53-.48,0-.11,0-.26.04-.44l.07-.39.92-4.61h1.94l.13-.59h-1.94l.35-1.9h-.35ZM119.21,49.28c-.76,1.48-1.35,1.97-2.66,2.14l-.07.35h1.38l-.87,4.41-.13.63c-.04.26-.11.65-.11.83,0,.57.37.92.96.92.94,0,2.03-.57,3.32-1.72l-.26-.26c-.81.68-1.64,1.11-2.18,1.11-.31,0-.52-.19-.52-.48,0-.11,0-.26.04-.44l.07-.39.92-4.61h1.94l.13-.59h-1.94l.35-1.9h-.35ZM168.16,49.28c-.76,1.48-1.35,1.97-2.66,2.14l-.07.35h1.38l-.88,4.41-.13.63c-.05.26-.11.65-.11.83,0,.57.37.92.96.92.94,0,2.03-.57,3.32-1.72l-.26-.26c-.81.68-1.64,1.11-2.18,1.11-.31,0-.53-.19-.53-.48,0-.11,0-.26.04-.44l.06-.39.92-4.61h1.94l.13-.59h-1.94l.35-1.9h-.35ZM218.17,49.28c-.76,1.48-1.35,1.97-2.66,2.14l-.07.35h1.38l-.87,4.41-.13.63c-.05.26-.11.65-.11.83,0,.57.37.92.96.92.94,0,2.03-.57,3.32-1.72l-.26-.26c-.81.68-1.64,1.11-2.18,1.11-.31,0-.53-.19-.53-.48,0-.11,0-.26.04-.44l.07-.39.92-4.61h1.94l.13-.59h-1.94l.35-1.9h-.35ZM74.38,50.94c-1.33,0-2.64.31-3.62.83-1.83.98-3.01,2.77-3.01,4.54,0,1.46.74,2.25,2.12,2.25.98,0,1.79-.44,2.58-1.44l.04.04-.28,1.4,2.4-.57.09-.37c-.07,0-.13.02-.18.02-.46,0-.74-.22-.74-.57,0-.15.02-.41.04-.55l1.11-5.57c-.26-.02-.44-.02-.54-.02ZM88.54,50.94c-1.33,0-2.64.31-3.62.83-1.83.98-3.01,2.77-3.01,4.54,0,1.46.74,2.25,2.12,2.25.98,0,1.79-.44,2.58-1.44l.04.04-.28,1.4,2.4-.57.09-.37c-.07,0-.13.02-.18.02-.46,0-.74-.22-.74-.57,0-.15.02-.41.04-.55l1.12-5.57c-.26-.02-.44-.02-.54-.02ZM114.61,50.94c-1.33,0-2.64.31-3.62.83-1.83.98-3.01,2.77-3.01,4.54,0,1.46.74,2.25,2.12,2.25.98,0,1.79-.44,2.58-1.44l.04.04-.29,1.4,2.4-.57.09-.37c-.07,0-.13.02-.18.02-.46,0-.74-.22-.74-.57,0-.15.02-.41.04-.55l1.11-5.57c-.26-.02-.44-.02-.54-.02h0ZM128.77,50.94c-1.33,0-2.64.31-3.62.83-1.83.98-3.01,2.77-3.01,4.54,0,1.46.74,2.25,2.12,2.25.98,0,1.79-.44,2.58-1.44l.04.04-.28,1.4,2.4-.57.09-.37c-.07,0-.13.02-.18.02-.46,0-.74-.22-.74-.57,0-.15.02-.41.04-.55l1.11-5.57c-.26-.02-.44-.02-.54-.02h0ZM163.56,50.94c-1.33,0-2.64.31-3.62.83-1.83.98-3.01,2.77-3.01,4.54,0,1.46.74,2.25,2.12,2.25.98,0,1.79-.44,2.58-1.44l.04.04-.28,1.4,2.4-.57.09-.37c-.07,0-.13.02-.18.02-.46,0-.74-.22-.74-.57,0-.15.03-.41.05-.55h0l1.12-5.57c-.26-.02-.44-.02-.55-.02h0ZM177.73,50.94c-1.33,0-2.64.31-3.62.83-1.83.98-3.01,2.77-3.01,4.54,0,1.46.74,2.25,2.12,2.25.98,0,1.79-.44,2.58-1.44l.04.04-.29,1.4,2.4-.57.09-.37c-.07,0-.13.02-.18.02-.46,0-.74-.22-.74-.57,0-.15.02-.41.04-.55l1.11-5.57c-.26-.02-.43-.02-.54-.02h0ZM224.07,50.96l-2.53.59-.06.39.17-.02h.13c.48,0,.72.2.72.55,0,.09,0,.22-.04.39l-.02.2-.52,2.4c-.11.46-.15.88-.15,1.25,0,1.11.66,1.86,1.64,1.86.87,0,1.62-.37,2.82-1.44l.04.04-.26,1.4,2.45-.39.07-.39h-.31c-.44,0-.61-.18-.61-.61,0-.26.05-.59.11-.96l1.09-5.24h-.35l-2.18.59-.06.39c.07-.02.09-.02.13-.02.11,0,.22-.02.29-.02.35,0,.61.24.61.54,0,.09,0,.2-.02.35l-.07.26-.7,3.34c-.76.87-1.64,1.38-2.31,1.38-.63,0-1.13-.52-1.13-1.18,0-.18.06-.55.11-.85l.98-4.78h0ZM100.7,50.96c-.85,0-1.57.39-2.42,1.37l-.04-.04.33-1.31h-.5l-2.05.57-.09.37c.2-.02.28-.02.39-.02.46,0,.65.17.65.59,0,.13,0,.26-.04.46l-.72,3.56c-.2,1.07-.41,1.4-1.03,1.48l-.07.37h3.04l.09-.37h-.18c-.5,0-.79-.2-.79-.59,0-.13.02-.2.11-.66l.68-3.4c.55-.96,1.31-1.55,2.01-1.55.57,0,.96.39.96.94,0,.17-.02.35-.06.61l-.61,3.17-.07.3c-.15.79-.46,1.11-1.13,1.18l-.06.37h3.17l.06-.37c-.09-.02-.15-.02-.2-.02-.5-.04-.68-.2-.68-.63,0-.15,0-.22.09-.59l.79-3.8c.68-.78,1.22-1.11,1.79-1.11s1.05.42,1.05.98c0,.2-.04.55-.11.85l-.59,2.84c-.26,1.2-.44,1.42-1.22,1.48l-.09.37h3.14l.09-.37h-.13c-.41,0-.68-.24-.68-.59,0-.11.02-.39.09-.66l.63-3.08c.02-.07.04-.2.06-.37.07-.33.09-.57.09-.72,0-.94-.7-1.61-1.7-1.61-.81,0-1.42.35-2.42,1.37-.13-.92-.66-1.37-1.62-1.37h0ZM149.66,50.96c-.85,0-1.57.39-2.42,1.37l-.04-.04.33-1.31h-.5l-2.05.57-.09.37c.2-.02.28-.02.39-.02.46,0,.66.17.66.59,0,.13,0,.26-.04.46l-.72,3.56c-.2,1.07-.42,1.4-1.03,1.48l-.07.37h3.04l.09-.37h-.17c-.5,0-.79-.2-.79-.59,0-.13.02-.2.11-.66l.68-3.4c.55-.96,1.31-1.55,2.01-1.55.57,0,.96.39.96.94,0,.17-.02.35-.06.61l-.61,3.17-.06.3c-.15.79-.46,1.11-1.13,1.18l-.07.37h3.17l.06-.37c-.09-.02-.15-.02-.2-.02-.5-.04-.68-.2-.68-.63,0-.15,0-.22.09-.59l.79-3.8c.68-.78,1.22-1.11,1.79-1.11s1.05.42,1.05.98c0,.2-.04.55-.11.85l-.59,2.84c-.26,1.2-.44,1.42-1.22,1.48l-.09.37h3.14l.09-.37h-.13c-.41,0-.68-.24-.68-.59,0-.11.02-.39.09-.66l.63-3.08c.02-.07.04-.2.07-.37.07-.33.09-.57.09-.72,0-.94-.7-1.61-1.7-1.61-.81,0-1.42.35-2.42,1.37-.13-.92-.66-1.37-1.62-1.37h0ZM213.07,50.96c-.94,0-1.88.44-2.73,1.22-1.09,1.07-1.77,2.55-1.77,3.97,0,1.55.85,2.4,2.38,2.4,1.33,0,2.18-.57,3.3-2.23l-.22-.26c-.09.09-.13.15-.18.2-.89,1-1.42,1.33-2.25,1.33-1.07,0-1.7-.72-1.7-1.96,0-.13,0-.29.02-.48.85-.15,1.57-.33,2.07-.52,1.53-.59,2.47-1.51,2.47-2.42,0-.76-.53-1.24-1.4-1.24h0ZM133.79,50.98l-2.47.57-.07.44.33-.07c.22-.02.37-.04.5-.04.42,0,.59.17.59.57,0,.13,0,.2-.06.48l-.66,3.43-.11.53c-.2.94-.39,1.11-1.27,1.11h-.18l-.06.37h3.78l.06-.37h-.39c-.57,0-.79-.16-.79-.48,0-.11,0-.28.04-.52.02-.17.04-.31.07-.41l1.07-5.59h-.39ZM182.75,50.98l-2.47.57-.07.44.33-.07c.22-.02.37-.04.5-.04.42,0,.59.17.59.57,0,.13,0,.2-.06.48l-.65,3.43-.11.53c-.2.94-.39,1.11-1.27,1.11h-.17l-.07.37h3.78l.06-.37h-.39c-.57,0-.79-.16-.79-.48,0-.11,0-.28.04-.52.02-.17.04-.31.07-.41l1.07-5.59h-.39ZM189.23,51.18l-.07.37c.72.04.9.2.92.89l.02.29.22,5.83h.37l3.38-5.09h.04l.46,5.09h.33l3.21-5.41c.79-1.31.98-1.51,1.48-1.6l.09-.37h-2.36l-.07.37c.74.02.88.09.88.46,0,.18-.11.44-.39.96l-2.1,3.67h-.04l-.39-4.74c.13-.24.31-.31.85-.33l.2-.02.06-.37h-3.21l-.06.37c.85.02,1,.2,1.05,1.18l-2.62,3.91h-.04l-.13-3.67v-.09c0-1.14.09-1.27.9-1.33l.06-.37h-3.03ZM212.26,51.72c.5,0,.94.39.94.85,0,1.01-1.29,1.86-3.28,2.18.22-1.61,1.31-3.04,2.34-3.04ZM73.03,51.73c.11,0,.28,0,.54.02l-.96,4.71c-.76.89-1.38,1.27-2.14,1.27-.94,0-1.48-.63-1.48-1.75,0-2.42,1.72-4.26,4.04-4.26ZM87.19,51.73c.11,0,.28,0,.55.02l-.96,4.71c-.76.89-1.38,1.27-2.14,1.27-.94,0-1.48-.63-1.48-1.75,0-2.42,1.72-4.26,4.04-4.26ZM113.25,51.73c.11,0,.28,0,.55.02l-.96,4.71c-.76.89-1.38,1.27-2.14,1.27-.94,0-1.48-.63-1.48-1.75,0-2.42,1.72-4.26,4.04-4.26ZM127.42,51.73c.11,0,.28,0,.54.02l-.96,4.71c-.76.89-1.38,1.27-2.14,1.27-.94,0-1.48-.63-1.48-1.75,0-2.42,1.72-4.26,4.04-4.26ZM162.21,51.73c.11,0,.28,0,.54.02l-.96,4.71c-.76.89-1.38,1.27-2.14,1.27-.94,0-1.48-.63-1.48-1.75,0-2.42,1.72-4.26,4.04-4.26ZM176.37,51.73c.11,0,.28,0,.55.02l-.96,4.71c-.76.89-1.38,1.27-2.14,1.27-.94,0-1.48-.63-1.48-1.75,0-2.42,1.72-4.26,4.04-4.26h0ZM137.48,56.7c-.63,0-.94.46-.94.94,0,.76.63.87.94.94,0,1.59-1.49,2.03-1.83,2.12v.39c1.68-.33,2.9-1.59,2.9-3.03,0-.35-.15-1.35-1.07-1.35Z"/>
  <g>
    <path class="st0" d="M40.95,24.04c-2.76,0-3.99,2.38-3.99,4.98s.97,5.29,3.99,5.29c2.83,0,4.2-2.35,4.2-4.87,0-2.85-.98-5.4-4.2-5.4Z"/>
    <path class="st0" d="M1,.91v48.89h51.6V.91H1ZM24.29,38.44c-.18-.55-.32-1.12-.37-1.7-1.54,1.6-3.84,2.17-6.05,2.17-3.4,0-6.09-1.65-6.09-5.25,0-3.98,3.05-4.93,6.09-5.34,3.04-.44,5.86-.34,5.86-2.32s-1.45-2.37-3.22-2.37c-1.86,0-3.07.75-3.24,2.66h-4.95c.28-4.51,4.41-5.89,8.45-5.89,3.58,0,7.88.79,7.88,5v9.12c0,1.58.17,3.2.64,3.91h-4.99ZM49.87,37.32c0,2.89-1.05,7.76-9.33,7.76-3.56,0-7.68-1.62-7.93-5.63h4.92c.44,1.81,1.93,2.42,3.68,2.42,2.74,0,3.99-1.84,3.94-4.34v-2.31h-.06c-1.06,1.83-3.22,2.71-5.38,2.71-5.38,0-7.68-4.01-7.68-8.81s2.67-8.71,7.72-8.71c2.36,0,4.16.79,5.34,2.83h.06v-2.34h4.72v16.43Z"/>
    <path class="st0" d="M16.7,33.45c0,1.79,1.44,2.24,3.02,2.24,3.85,0,4-2.99,4-4.04v-1.81c-.85.73-2.57.77-4.11,1.02-1.53.31-2.92.83-2.92,2.59Z"/>
  </g>
</svg>