<?xml version="1.0" encoding="UTF-8"?>
<svg id="layer" xmlns="http://www.w3.org/2000/svg" version="1.1" viewBox="0 0 652 652">
  <!-- Generator: Adobe Illustrator 29.6.0, SVG Export Plug-In . SVG Version: 2.1.1 Build 207)  -->
  <defs>
    <style>
      .st0 {
        fill: #fff;
      }
    </style>
  </defs>
  <path class="st0" d="M90.2,212.5v95.2h-26.8v-95.2H28.5v-25.2h96.6v25.2h-34.9Z"/>
  <path class="st0" d="M195.1,266.4v3.5c0,1.1,0,2.2-.3,3.2h-60.8c.3,2.2.8,4.6,2.2,6.5,1.1,1.9,2.7,3.5,4.6,4.9s4.1,2.4,6.2,3.2c2.4.8,4.9,1.1,7.3,1.1,3.8,0,7.8-.8,11.1-2.4,3-1.6,5.4-3.8,7.6-6.2l19.2,12.2c-4.1,5.7-9.5,10.3-15.7,13.3-7,3.2-14.9,4.9-22.7,4.9-6.2,0-12.2-1.1-17.9-3-5.4-1.9-10.6-4.9-14.9-8.7-4.3-3.8-7.8-8.7-10-14.1-2.4-6-3.8-12.4-3.5-18.9,0-6.5,1.1-12.7,3.5-18.7,2.2-5.4,5.4-10.3,9.7-14.3,4.1-3.8,8.9-7,14.3-8.9,5.7-2.2,11.9-3.2,17.9-3.2s11.6,1.1,17,3.2c5.1,1.9,9.7,5.1,13.5,8.9,3.8,4.1,6.8,8.9,8.7,14.3,2.2,6.2,3.3,12.7,3,19.2ZM169.7,255.8c0-4.1-1.4-8.1-4.1-11.4-3.2-3.2-7.8-5.1-12.4-4.9-2.4,0-5.1.3-7.6,1.4-2.2.8-4.1,1.9-6,3.5-1.6,1.4-3,3.2-4.1,5.1-1.1,1.9-1.6,4.1-1.6,6.2h35.8v.1Z"/>
  <path class="st0" d="M269,250.7c-1.6-2.2-3.8-3.8-6.5-4.9-2.7-1.4-5.4-1.9-8.4-1.9-2.7,0-5.4.5-7.8,1.9-2.4,1.1-4.3,2.7-6.2,4.9-1.6,2.2-3,4.3-4.1,6.8-1.1,2.7-1.4,5.4-1.4,8.4,0,2.7.5,5.7,1.4,8.4s2.2,5.1,4.1,7c1.6,1.9,3.8,3.5,6.2,4.6s5.4,1.6,8.1,1.6c3,0,5.7-.5,8.4-1.6s4.9-2.7,6.8-4.9l15.4,18.9c-3.8,3.8-8.4,6.5-13.5,8.1-5.7,1.9-11.6,2.7-17.6,2.7s-12.7-1.1-18.7-3c-5.7-1.9-10.8-4.9-15.1-8.9s-7.8-8.7-10-14.1c-2.4-6-3.8-12.4-3.5-18.7,0-6.5,1.1-12.7,3.5-18.7,2.4-5.4,5.7-10.3,10-14.1,4.3-4.1,9.5-7,14.9-9.2,6-2.2,12.2-3.2,18.4-3.2,3,0,6,.3,9.2.8,3,.5,6,1.4,8.7,2.2s5.1,2.2,7.6,3.5c2.2,1.4,4.3,3,6.2,4.9l-16.1,18.5Z"/>
  <path class="st0" d="M347.2,307.7v-45.7c0-2.2-.3-4.6-.5-6.8-.3-1.9-.8-3.8-1.9-5.7-1.9-3.5-5.4-5.7-9.5-5.4-4.1-.3-8.1,1.6-10.6,5.1-2.4,3.8-3.8,8.1-3.8,12.7v45.7h-26.2v-120.2h26.2v46.5h.3c2.2-3.8,5.1-6.8,8.7-8.9,4.3-2.7,9.2-4.1,14.3-4.1,4.9-.3,9.5.8,13.8,3,3.5,1.9,6.5,4.6,8.9,7.8s4.1,7,4.9,11.1c1.1,4.1,1.6,8.4,1.6,12.4v52.5h-26.2Z"/>
  <path class="st0" d="M442.1,414.1v-45.7c0-2.2-.3-4.6-.5-6.8-.3-1.9-.8-3.8-1.9-5.7-1.9-3.5-5.4-5.7-9.5-5.4-4.1-.3-8.1,1.6-10.6,5.1-2.4,3.8-3.8,8.1-3.8,12.7v45.7h-26.2v-120.3h26.2v46.5h.3c2.2-3.8,5.1-6.8,8.7-8.9,4.3-2.7,9.2-4.1,14.3-4.1,4.9-.3,9.5.8,13.8,3,3.5,1.9,6.5,4.6,8.9,7.8,2.4,3.2,4.1,7,4.9,11.1,1.1,4.1,1.6,8.4,1.6,12.4v52.2h-26.2v.4h0Z"/>
  <path class="st0" d="M20.1,414.1v-120.4h26.8v120.4h-26.8Z"/>
  <path class="st0" d="M118.6,414.1v-46c0-2.2-.3-4.6-.5-6.8-.3-1.9-1.1-3.8-1.9-5.7-.8-1.6-2.2-3-3.8-3.8-1.9-1.1-4.1-1.6-6.2-1.4-2.2,0-4.6.5-6.5,1.4s-3.5,2.4-4.6,4.1c-1.4,1.9-2.2,3.8-2.7,6s-.8,4.6-.8,6.8v45.7h-28.2v-84.4h26.8v11.6h.3c1.1-1.9,2.4-3.8,4.1-5.4,1.6-1.9,3.5-3.2,5.7-4.6s4.6-2.2,7.3-3c2.7-.8,5.4-1.1,8.4-1.1,4.9-.3,10,.8,14.3,3,3.8,1.9,7,4.6,9.5,7.8,2.4,3.2,4.3,7,5.1,11.1,1.1,4.1,1.6,8.4,1.6,12.4v52.2c-.1.1-27.9.1-27.9.1Z"/>
  <path class="st0" d="M214.3,354.8c-2.4-2.2-5.1-4.1-7.8-5.4-3-1.4-6.2-2.2-9.7-2.2-2.4,0-4.9.5-7.3,1.6-2.2.8-3.5,3-3.2,5.1,0,2.4,1.4,4.3,3.5,5.1,3.8,1.4,7.8,2.7,11.6,3.2,3.2.8,6.5,1.6,9.5,3,3.2,1.1,6,2.7,8.7,4.9,2.7,1.9,4.6,4.6,6.2,7.3,1.6,3.2,2.4,6.8,2.4,10.6.3,8.9-4.1,17.3-11.6,22.2-3.5,2.2-7.6,4.1-11.6,4.9-4.3,1.1-8.4,1.6-12.7,1.6-6.8,0-13.8-1.1-20.3-3.2-6.2-1.9-11.9-5.1-16.5-9.7l15.4-16.2c2.7,2.7,5.7,5.1,9.2,6.8,3.5,1.9,7.6,2.7,11.4,2.7,2.4,0,4.6-.5,6.8-1.6s3.5-3.2,3.2-5.7c0-2.7-1.6-4.9-4.1-5.7-4.1-1.6-8.4-3-12.7-3.8-3-.8-6-1.6-8.7-2.7-3-1.1-5.4-2.7-7.8-4.6s-4.3-4.3-5.7-7c-1.6-3.2-2.2-6.8-2.2-10.3-.3-4.6,1.1-8.9,3.2-13,2.2-3.5,4.9-6.5,8.4-8.7s7.3-4.1,11.4-4.9c4.1-1.1,8.1-1.6,12.2-1.6,6.2,0,12.4,1.1,18.4,3,5.7,1.9,10.8,4.9,15.4,8.9l-15,15.4Z"/>
  <path class="st0" d="M241.1,414.1v-84.1h26.8v84.1h-26.8Z"/>
  <path class="st0" d="M373.7,406.2c.3,7.3-1.1,14.6-3.5,21.4-2.2,5.7-5.4,10.8-10,15.1-4.6,4.1-9.7,7-15.7,8.9-6.5,1.9-13.5,3-20.3,3-7.8,0-15.4-1.1-23-3.2-7.3-1.9-14.3-5.4-20.3-9.7l13.8-19.7c4.1,3.5,8.7,6.2,13.5,8.1,4.6,1.6,9.5,2.7,14.3,2.7,8.1,0,14.1-2.2,17.9-6.5,4.1-4.6,6.2-10.8,5.7-17v-5.3h-.5c-2.7,3.5-6.5,6.2-10.6,8.1-4.6,2.2-9.7,3.2-15.1,3-6,0-11.6-1.1-17-3.5-4.9-2.2-9.2-5.4-12.7-9.5s-6.2-8.7-7.8-13.8c-3.5-10.8-3.5-22.5,0-33.3,1.6-5.1,4.3-10,7.8-14.1s7.8-7.3,12.7-9.7c5.4-2.4,11.1-3.8,16.8-3.5,5.1,0,10.3,1.1,15.1,3,4.9,2.2,8.9,5.7,11.6,10h.3v-10.8h26.2l.8,76.3ZM347.2,371.6c0-2.7-.5-5.4-1.4-8.1-.8-2.4-2.4-4.9-4.1-6.8-1.9-1.9-4.1-3.5-6.5-4.6-2.7-1.1-5.4-1.6-8.4-1.6s-5.7.5-8.4,1.6c-2.4,1.1-4.3,2.7-6.2,4.6-1.6,1.9-3,4.3-3.8,6.8-.8,2.7-1.4,5.4-1.4,8.4,0,2.7.5,5.4,1.4,8.1.8,2.4,2.2,4.9,3.8,6.8,3.5,4.3,8.9,6.8,14.6,6.5,8.4,0,16-5.1,18.9-13.3.9-2.7,1.5-5.7,1.5-8.4h0Z"/>
  <path class="st0" d="M517.6,350.5v32.2c-.3,3.2.5,6.2,2.2,8.9,2.2,2.2,5.1,3.2,8.1,3,1.4,0,3,0,4.3-.3,1.6-.3,3.5-1.1,4.9-1.6v20.6c-2.7.8-5.4,1.6-8.1,2.2-3,.5-6,.8-8.7.8-4.9,0-9.7-.5-14.1-2.2-3.5-1.1-6.8-3.2-9.2-6.2-2.4-2.7-4.1-6-4.9-9.5-1.1-4.1-1.6-8.1-1.6-12.2v-35.7h-13.5v-20.6h13.3v-22.2h27.3v22.2h19.7v20.6h-19.7Z"/>
  <path class="st0" d="M605.2,354.8c-2.4-2.2-5.1-4.1-7.8-5.4-3-1.4-6.2-2.2-9.7-2.2-2.4,0-4.9.5-7,1.6-2.2.8-3.5,3-3.2,5.1,0,2.4,1.4,4.3,3.8,5.1,3.8,1.4,7.8,2.7,11.6,3.2,3.2.8,6.5,1.6,9.5,3,3.2,1.1,6,2.7,8.7,4.9,2.7,1.9,4.6,4.6,6.2,7.3,1.6,3.2,2.4,6.8,2.4,10.6.3,8.9-4.1,17.3-11.6,22.2-3.5,2.2-7.6,4.1-11.6,4.9-4.3,1.1-8.7,1.6-13,1.6-6.8,0-13.8-1.1-20.3-3.2-6.2-1.9-11.9-5.1-16.5-9.7l15.7-16.2c2.7,2.7,5.7,5.1,9.2,6.8,3.5,1.9,7.6,2.7,11.4,2.7,2.4,0,4.6-.5,6.8-1.6s3.5-3.2,3.2-5.7c0-2.7-1.6-4.9-4.1-5.7-4.1-1.6-8.4-3-12.7-3.8-3-.8-6-1.6-8.7-2.7-3-1.1-5.4-2.7-7.8-4.6-2.4-1.9-4.3-4.3-5.7-7-1.6-3.2-2.4-6.8-2.2-10.3,0-4.6,1.1-8.9,3.2-13,2.2-3.5,4.9-6.5,8.4-8.7s7.3-4.1,11.1-4.9c4.1-1.1,8.1-1.6,12.2-1.6,6.2,0,12.4,1.1,18.4,3,5.7,1.9,10.8,4.9,15.1,8.9l-15,15.4Z"/>
</svg>