<?xml version="1.0" encoding="UTF-8"?>
<svg id="Layer_1" xmlns="http://www.w3.org/2000/svg" version="1.1" viewBox="0 0 72 37.03">
  <!-- Generator: Adobe Illustrator 29.6.0, SVG Export Plug-In . SVG Version: 2.1.1 Build 207)  -->
  <defs>
    <style>
      .st0 {
        fill: #fff;
      }
    </style>
  </defs>
  <path class="st0" d="M39.57,8.7c.43-1.12,1.85-1.12,3-1.12h.21v-1.58s-4.44.1-5.8.1-5.56-.1-5.56-.1v1.58h.21c1.14,0,2.56,0,3,1.12.31,1.6.43,3.22.37,4.85v9.91c.07,1.63-.05,3.25-.36,4.85-.43,1.13-1.85,1.13-3,1.13h-.21v1.56s3.57-.16,5.57-.16c2.26,0,5.79.15,5.79.15v-1.55h-.21c-1.14,0-2.56,0-3-1.13-.3-1.6-.42-3.23-.35-4.85v-9.91c-.07-1.62.05-3.25.34-4.85Z"/>
  <path class="st0" d="M46.14,6.05v6.47h1.54v-.2c.14-4.21,1.75-4.39,5.39-4.39h.37c.9,0,1.75,0,2.09.32.12.13.17.3.16.47v17c0,2.53-.35,3.57-3.91,3.72h-.2v1.56s4.15-.15,6.55-.15c1.83,0,5.92.15,5.92.15v-1.53h-.21c-3.55-.15-3.91-1.19-3.91-3.72V8.75c0-.16.06-.31.17-.42.41-.41,1.54-.39,2.44-.38h.51c3.55,0,4.69,1,4.9,4.4v.19h1.55v-6.49s-9,.06-11.68.06-11.68-.06-11.68-.06Z"/>
  <path class="st0" d="M28,29.44c-1.39-.03-2.69-.72-3.5-1.85l-7.4-8.46c3.88-.51,6.27-3.07,6.27-6.78.16-2.12-.92-4.13-2.77-5.17-1.85-.88-3.89-1.29-5.93-1.18-.78,0-2.65.08-4.71.08s-6.58-.08-6.58-.08v1.57h.31c1.18,0,2.5,0,2.85,1.12.26,1.52.37,3.05.32,4.59v10.18c.02,1.33-.02,2.67-.14,4-.04.29-.1.58-.18.86-.36,1.12-1.79,1.12-2.95,1.12h-.21v1.56s3.46-.16,5.77-.16c2,0,5.44.15,5.44.16v-1.56h-.31c-1.16,0-2.47,0-2.85-1.12-.09-.28-.15-.57-.18-.86-.11-1.24-.17-2.48-.15-3.73v-4.16c1.38,0,1.5.16,2.21,1,.13.16.28.34.46.54l6.15,7.63,1.81,2.26s2-.09,2.95-.09c1.4,0,3.47.09,3.47.09v-1.53l-.15-.03ZM11.1,17.87v-9.06c0-.36,0-.86.29-1,.77-.05,1.55-.05,2.32,0,3.16,0,5,1.85,5,5.07,0,2.35-.63,3.7-2,4.38s-5.61.61-5.61.61Z"/>
</svg>