<?xml version="1.0" encoding="UTF-8"?>
<svg xmlns="http://www.w3.org/2000/svg" version="1.1" xmlns:cc="http://creativecommons.org/ns#" xmlns:dc="http://purl.org/dc/elements/1.1/" xmlns:inkscape="http://www.inkscape.org/namespaces/inkscape" xmlns:rdf="http://www.w3.org/1999/02/22-rdf-syntax-ns#" xmlns:sodipodi="http://sodipodi.sourceforge.net/DTD/sodipodi-0.dtd" xmlns:svg="http://www.w3.org/2000/svg" viewBox="0 0 173.2 69.21">
  <!-- Generator: Adobe Illustrator 29.6.0, SVG Export Plug-In . SVG Version: 2.1.1 Build 207)  -->
  <defs>
    <style>
      .st0 {
        fill: #fff;
      }
    </style>
  </defs>
  <g id="svg3228" inkscape:version="0.92.0 r15299" sodipodi:docname="intuitive surgical.svg">
    <sodipodi:namedview id="base" bordercolor="#666666" borderopacity="1.0" fit-margin-bottom="0" fit-margin-left="0" fit-margin-right="0" fit-margin-top="0" inkscape:current-layer="layer1" inkscape:cx="86.099999" inkscape:cy="34.102768" inkscape:document-units="mm" inkscape:pageopacity="0.0" inkscape:pageshadow="2" inkscape:window-height="744" inkscape:window-maximized="1" inkscape:window-width="1280" inkscape:window-x="-4" inkscape:window-y="-4" inkscape:zoom="4.6573752" pagecolor="#ffffff" showgrid="false" units="px"/>
    <g id="layer1" inkscape:groupmode="layer" inkscape:label="Layer 1">
      <g id="g3339">
        <path id="path3236" class="st0" d="M96,58h1.2v10.5h-1.2v-10.5Z" inkscape:connector-curvature="0"/>
        <path id="path3238" class="st0" d="M132.1,57.9h1.2v9.4h4.9v1.2h-6.1v-10.6Z" inkscape:connector-curvature="0"/>
        <path id="path3240" class="st0" d="M54.7,68.6c-2.5,0-3.7-1.2-3.7-3.8v-7h1.2v7c0,1.9.8,2.7,2.5,2.7s2.5-.9,2.5-2.7v-7h1.2v7c0,2.5-1.2,3.8-3.7,3.8Z" inkscape:connector-curvature="0"/>
        <path id="path3242" class="st0" d="M43.8,59.5c-.19-.39-.46-.73-.8-1-.35-.28-.76-.49-1.2-.6l-1.3-.2-1.3.2-1.2.6c-.33.24-.6.55-.8.9-.22.43-.32.92-.3,1.4-.01.42.09.83.3,1.2.17.32.41.59.7.8l1,.5,1.2.3,1.2.3,1,.3.7.5c.21.25.32.57.3.9.02.31-.05.62-.2.9l-.6.6-.8.3h-2l-.9-.4c-.26-.22-.46-.49-.6-.8-.1-.19-.16-.39-.2-.6l-1.2.3c.06.28.16.55.3.8.21.43.52.81.9,1.1.38.32.83.55,1.3.7l1.6.2,1.4-.2,1.3-.5c.37-.26.68-.6.9-1,.46-.83.5-1.83.1-2.7-.17-.31-.41-.59-.7-.8l-1-.5-1.5-.5-1.2-.3-1-.3-.7-.5c-.2-.22-.31-.5-.3-.8,0-.28.07-.55.2-.8l.5-.5.7-.3h.8c.61-.02,1.2.15,1.7.5.37.3.62.73.7,1.2l1.2-.3c-.02-.31-.09-.61-.2-.9h0Z" inkscape:connector-curvature="0"/>
        <path id="path3244" class="st0" d="M84.5,63.1v1.2h2.8c0,.41-.06.82-.2,1.2-.13.4-.33.78-.6,1.1-.25.29-.55.53-.9.7l-1.3.3c-.49.03-.97-.07-1.4-.3-.4-.22-.74-.53-1-.9-.27-.4-.47-.84-.6-1.3-.14-.52-.21-1.06-.2-1.6,0-.54.08-1.08.2-1.6.12-.5.33-.97.6-1.4.25-.41.59-.75,1-1,.42-.26.9-.4,1.4-.4h1l.8.4c.25.19.45.43.6.7.14.25.24.52.3.8l1.2-.3c-.08-.38-.22-.75-.4-1.1-.22-.42-.53-.8-.9-1.1-.36-.28-.76-.48-1.2-.6l-1.4-.2c-.67,0-1.32.17-1.9.5-.56.32-1.04.76-1.4,1.3-.37.55-.64,1.16-.8,1.8-.2.72-.3,1.46-.3,2.2,0,.68.1,1.35.3,2,.19.62.5,1.19.9,1.7.38.46.86.84,1.4,1.1.56.28,1.18.42,1.8.4h.8l.8-.3.7-.5.6-.7.3,1.3h.8v-5.4h-3.8Z" inkscape:connector-curvature="0"/>
        <path id="path3246" class="st0" d="M111.1,65l-.2.7c-.1.36-.27.7-.5,1l-.8.6-1.1.2c-.49.03-.97-.08-1.4-.3-.4-.22-.74-.53-1-.9-.28-.43-.48-.9-.6-1.4-.13-.56-.2-1.13-.2-1.7,0-.54.07-1.08.2-1.6.13-.46.33-.9.6-1.3.26-.37.6-.68,1-.9.43-.22.91-.33,1.4-.3.62,0,1.22.2,1.7.6.51.47.83,1.11.9,1.8l1.2-.2c-.05-.49-.18-.96-.4-1.4-.19-.42-.46-.79-.8-1.1l-1.1-.6-1.4-.2c-1.27-.03-2.47.57-3.2,1.6-.36.52-.63,1.09-.8,1.7-.2.68-.3,1.39-.3,2.1,0,.71.11,1.42.3,2.1.16.61.43,1.19.8,1.7.34.46.79.84,1.3,1.1.59.29,1.24.43,1.9.4,1.05.06,2.07-.34,2.8-1.1.58-.65.96-1.45,1.1-2.3l-1.4-.3Z" inkscape:connector-curvature="0"/>
        <path id="path3248" class="st0" d="M126,68.4h-1.3l-.9-2.9h-3.8l-.9,2.9h-1.3l3.3-10.3h1.5l3.3,10.3h.1ZM120.3,64.4h3.2l-1.6-5.4-1.6,5.5v-.1Z" inkscape:connector-curvature="0"/>
        <path id="path3250" class="st0" d="M73.5,68.5l-2-4.9c.45-.13.86-.37,1.2-.7.53-.53.82-1.25.8-2,.05-.77-.2-1.52-.7-2.1-.66-.59-1.52-.87-2.4-.8h-4.4v10.4h1.1v-4.6h3.2l2,4.7h1.2ZM67.2,62.9v-4h2.9c.61-.04,1.21.14,1.7.5.41.39.63.94.6,1.5.02.58-.24,1.14-.7,1.5-.48.3-1.04.44-1.6.4l-2.9.1Z" inkscape:connector-curvature="0"/>
        <path id="path3252" class="st0" d="M2.6,38.9H.5v-22.5h2.1v22.5Z" inkscape:connector-curvature="0"/>
        <path id="path3254" class="st0" d="M26.1,38.9h-1.8l-5.1-15.2-.4-1.5-.3-1.4h-.1c.13,1.47.23,2.93.3,4.4v13.7h-1.9v-22.5h1.8l5.2,15.7c.27.8.5,1.57.7,2.3h0c-.13-1-.2-2-.2-3v-15h1.8v22.5Z" inkscape:connector-curvature="0"/>
        <path id="path3256" class="st0" d="M47.9,18.3h-3.4v20.6h-2.1v-20.6h-3.3v-1.9h8.8v1.9Z" inkscape:connector-curvature="0"/>
        <path id="path3258" class="st0" d="M70.8,31.8c0,1-.03,1.97-.1,2.9-.06.83-.26,1.64-.6,2.4-.28.67-.77,1.23-1.4,1.6-1.68.71-3.58.64-5.2-.2-.61-.38-1.1-.94-1.4-1.6-.33-.76-.53-1.57-.6-2.4-.07-.87-.1-1.8-.1-2.8v-15.3h2.1v15.2c-.08,1.41.05,2.83.4,4.2.53,1.22,1.94,1.77,3.16,1.24.56-.24,1-.69,1.24-1.24.35-1.37.48-2.79.4-4.2v-15.2h2.1v15.4Z" inkscape:connector-curvature="0"/>
        <path id="path3260" class="st0" d="M88.7,38.9h-2.1v-22.5h2.1v22.5Z" inkscape:connector-curvature="0"/>
        <path id="path3262" class="st0" d="M111.7,18.3h-3.3v20.6h-2.1v-20.6h-3.3v-1.9h8.8l-.1,1.9Z" inkscape:connector-curvature="0"/>
        <path id="path3264" class="st0" d="M128.1,38.9h-2.1v-22.5h2.1v22.5Z" inkscape:connector-curvature="0"/>
        <path id="path3266" class="st0" d="M148.7,38.9h-1.8l-4.5-22.5h2.1l3,16.4c.07.27.13.7.2,1.3l.2,1.7h.1c.13-1.27.23-2.3.3-3.1l2.9-16.4h2.1l-4.6,22.6Z" inkscape:connector-curvature="0"/>
        <path id="path3268" class="st0" d="M172.7,18h-4.9v8h4.8v1.9h-4.8v8.8h4.9v1.9h-7v-22.5h7v1.9Z" inkscape:connector-curvature="0"/>
        <circle id="circle3270" class="st0" cx="87.5" cy="4.9" r="4.4"/>
        <path id="path3272" class="st0" d="M144.1,54.1c.37.17.68.45.9.8.39.68.39,1.52,0,2.2-.19.33-.47.61-.8.8-.71.41-1.59.41-2.3,0-.33-.19-.61-.47-.8-.8-.19-.33-.3-.71-.3-1.1,0-.39.11-.77.3-1.1.22-.35.53-.63.9-.8.34-.19.71-.29,1.1-.3l1,.3ZM141.6,53.7c-.42.23-.77.58-1,1-.5.83-.5,1.87,0,2.7.23.42.58.77,1,1,.84.46,1.86.46,2.7,0,.42-.23.77-.58,1-1,.5-.83.5-1.87,0-2.7-.23-.42-.58-.77-1-1-.84-.46-1.86-.46-2.7,0ZM142.2,57.5v-1.2h.7l.5.7.3.5h.6l-.4-.6-.4-.6-.2-.2.6-.3c.12-.14.19-.32.2-.5,0-.14-.03-.28-.1-.4l-.4-.3h-1.8v2.9h.4ZM142.2,55h1l.2.2v.3c-.02.13-.09.24-.2.3h-1.1l.1-.8Z" inkscape:connector-curvature="0"/>
      </g>
    </g>
  </g>
</svg>