<?xml version="1.0" encoding="UTF-8"?>
<svg id="_레이어_1" data-name="레이어_1" xmlns="http://www.w3.org/2000/svg" version="1.1" xmlns:dc="http://purl.org/dc/elements/1.1/" xmlns:rdf="http://www.w3.org/1999/02/22-rdf-syntax-ns#" viewBox="0 0 1063 430">
  <!-- Generator: Adobe Illustrator 29.6.0, SVG Export Plug-In . SVG Version: 2.1.1 Build 207)  -->
  <defs>
    <style>
      .st0 {
        fill: #fff;
      }
    </style>
  </defs>
  <path class="st0" d="M937.6,147.1c-82.73,64.24-227.8,141.7-405.8,214.8l6.14-.02c173.9-70.57,317.5-145.6,404.3-209.2-1.96-1.49-3.56-3.39-4.71-5.59h.07ZM1030.47,35.8c-21.52-60.46-236.4-41.82-515.7,37.08C784.67-1.47,990.17-17.89,1011.17,41.16c7.68,21.58-10.14,50.92-48.3,84.96,2.22,1.76,4.03,4.03,5.15,6.68,47.79-39.17,70.98-72.91,62.42-96.99"/>
  <path class="st0" d="M44.62,145.2H0v-16.11h108.6v16.11h-44.85v130.6h-19.15v-130.6"/>
  <path class="st0" d="M116.3,121.2h19.15v65.75h.44c3.05-5.44,7.84-10.45,13.71-13.5,5.66-3.48,12.41-5.44,19.59-5.44,14.15,0,36.79,8.71,36.79,45.06v62.7h-19.15v-60.52c0-17.2-6.32-31.35-24.39-31.35-12.4,0-21.98,8.71-25.68,19.16-1.09,2.61-1.31,5.44-1.31,9.14v63.56h-19.15V121.16"/>
  <path class="st0" d="M286.1,222c-20.9-.43-44.62,3.26-44.62,23.72,0,12.63,8.27,18.29,17.85,18.29,13.93,0,22.85-8.7,25.9-17.63.66-1.95.87-4.13.87-6.1v-18.29h0ZM304.82,250.52c0,9.14.45,18.07,1.53,25.26h-17.19l-1.75-13.28h-.65c-5.66,8.27-17.19,15.67-32.22,15.67-21.33,0-32.22-15.02-32.22-30.26,0-25.47,22.64-39.4,63.35-39.18v-2.18c0-8.71-2.4-24.59-23.95-24.38-10.01,0-20.24,2.83-27.64,7.83l-4.36-12.84c8.71-5.44,21.56-9.14,34.83-9.14,32.43,0,40.27,21.98,40.27,43.1v39.4"/>
  <path class="st0" d="M348.1,275.8V121.2h-19.15v154.6h19.15Z"/>
  <path class="st0" d="M440.2,212.7c.23-11.97-4.99-31.12-26.34-31.12-19.59,0-27.85,17.85-29.38,31.12h55.72ZM384.26,226.41c.43,25.91,16.76,36.58,35.92,36.58,13.72,0,22.2-2.4,29.18-5.23l3.48,13.5c-6.75,3.05-18.51,6.75-35.27,6.75-32.22,0-51.81-21.56-51.81-53.12s18.94-57.03,49.63-57.03c34.4,0,43.32,30.26,43.32,49.63,0,3.91-.22,6.96-.66,9.14l-73.79-.22"/>
  <path class="st0" d="M473.3,256.4c5.88,3.48,15.89,7.4,25.47,7.4,13.71,0,20.24-6.75,20.24-15.67s-5.44-14.15-19.37-19.37c-19.16-6.97-28.08-17.2-28.08-29.83,0-16.97,13.93-30.91,36.35-30.91,10.67,0,20.03,2.83,25.69,6.53l-4.57,13.71c-4.13-2.4-11.75-6.1-21.56-6.1-11.32,0-17.41,6.53-17.41,14.37,0,8.92,6.09,12.84,19.81,18.07,18.07,6.74,27.65,15.89,27.65,31.78,0,18.72-14.59,31.78-39.19,31.78-11.54,0-22.2-3.04-29.6-7.4l4.56-14.37"/>
  <path class="st0" d="M628,214.8l-14.59-42.23c-3.05-9.57-5.22-18.29-7.4-26.77h-.65c-1.96,8.49-4.36,17.63-7.2,26.55l-14.36,42.45h44.19ZM579.89,229.6l-15.24,46.15h-19.59l49.85-146.7h22.85l50.06,146.7h-20.25l-15.67-46.15h-52.03"/>
  <path class="st0" d="M700.8,275.8V121.2h-19.15v154.6h19.15Z"/>
  <path class="st0" d="M792.8,212.7c.22-11.97-4.99-31.12-26.34-31.12-19.58,0-27.86,17.85-29.38,31.12h55.72ZM736.86,226.41c.43,25.91,16.76,36.58,35.92,36.58,13.72,0,22.21-2.4,29.18-5.23l3.48,13.5c-6.75,3.05-18.5,6.75-35.27,6.75-32.22,0-51.81-21.56-51.81-53.12s18.94-57.03,49.64-57.03c34.4,0,43.32,30.26,43.32,49.63,0,3.91-.22,6.96-.66,9.14l-73.79-.22"/>
  <path class="st0" d="M828.5,198.9c0-11.1-.21-19.81-.87-28.52h16.98l1.09,17.2h.44c5.23-9.8,17.42-19.59,34.82-19.59,14.59,0,37.23,8.71,37.23,44.84v62.92h-19.15v-60.74c0-16.98-6.32-31.35-24.38-31.35-12.41,0-22.2,8.92-25.69,19.6-.87,2.39-1.3,5.87-1.3,8.93v63.56h-19.16v-76.85"/>
  <path class="st0" d="M942.8,275.8v-105.4h19.15v105.4h-19.15ZM951.94,151.1c-7.18,0-11.98-5.65-11.98-12.41s5.01-12.19,12.41-12.19,12.19,5.45,12.19,12.19-4.79,12.41-12.4,12.41h-.22"/>
  <path class="st0" d="M1043,222c-20.9-.43-44.63,3.26-44.63,23.72,0,12.63,8.27,18.29,17.85,18.29,13.93,0,22.86-8.7,25.9-17.63.65-1.95.87-4.13.87-6.1v-18.29h0ZM1061.72,250.52c0,9.14.43,18.07,1.52,25.26h-17.2l-1.74-13.28h-.66c-5.66,8.27-17.19,15.67-32.22,15.67-21.33,0-32.22-15.02-32.22-30.26,0-25.47,22.65-39.4,63.35-39.18v-2.18c0-8.71-2.4-24.59-23.95-24.38-10.02,0-20.25,2.83-27.65,7.83l-4.35-12.84c8.7-5.44,21.54-9.14,34.82-9.14,32.43,0,40.28,21.98,40.28,43.1v39.4"/>
  <path class="st0" d="M698.3,383.4c5.56,3.85,13.42,6.63,22.06,6.63,11.72,0,22.51-6.94,22.51-19.43,0-7.87-4.32-13.57-15.27-19.43-13.26-7.24-20.67-15.58-20.67-26.68,0-18.66,16.04-30.53,35.17-30.53,10.18,0,17.73,2.93,21.28,5.4l-4.62,10.48c-3.24-2-9.71-5.08-17.89-4.93-12.95,0-20.66,8.49-20.66,16.97s5.24,13.26,16.19,19.27c12.8,6.94,19.74,15.12,19.74,27.76,0,18.04-14.03,32.23-37.47,32.23-10.49-.16-20.67-3.4-24.98-7.26l4.62-10.49"/>
  <path class="st0" d="M782.5,386.9c3.39,2.62,8.17,4.17,14.34,4.17,16.5,0,30.23-20.51,30.23-40.1,0-7.87-3.4-17.27-14.34-17.27-10.03,0-22.51,11.41-26.38,32.38l-3.85,20.82h0ZM761.53,429.92l14.95-78.64c1.7-8.94,3.24-19.13,4.17-26.68h11.72l-2.01,14.18h.31c6.63-9.86,16.5-15.73,26.83-15.73,16.04,0,22.82,13.26,22.82,26.99,0,26.37-18.81,51.05-43.63,51.05-7.87,0-13.1-1.7-16.04-3.4h-.31l-6.02,32.23h-12.8"/>
  <path class="st0" d="M907.2,334.3c-1.85-.62-4.47-1.09-8.79-1.09-19.28,0-35.16,20.05-35.16,40.88,0,8.33,2.93,16.49,12.65,16.49,10.79,0,23.44-13.87,26.98-33.77l4.32-22.51h0ZM899.03,399.38c0-4.47.78-11.57,1.7-19.28h-.31c-8.17,15.58-18.51,20.98-28.99,20.98-13.26,0-21.44-10.49-21.44-24.68,0-26.06,19.13-53.36,51.51-53.36,7.09,0,14.96,1.23,20.04,2.78l-7.55,39.02c-2.47,12.95-3.4,26.21-3.09,34.54h-11.87"/>
  <path class="st0" d="M981.1,396.5c-3.85,2-11.57,4.64-21.59,4.64-19.28,0-28.68-12.96-28.68-28.85,0-25.6,18.81-49.19,45.64-49.19,6.94,0,13.26,2.01,15.58,3.39l-3.71,10.03c-2.93-1.39-7.09-2.78-12.64-2.78-19.43,0-31.61,19.12-31.61,36.85,0,12.19,6.32,20.05,18.51,20.05,7.72,0,13.41-2.32,17.27-4.17l1.24,10.02"/>
  <path class="st0" d="M1045,342.5c0-6.01-4.62-9.4-11.42-9.4-12.18,0-21.28,11.87-24.36,23.59,20.05.31,35.78-2.46,35.78-14.03v-.16h0ZM1047.78,395.24c-5.57,3.09-14.65,5.87-24.68,5.87-19.74,0-28.38-13.58-28.38-30.08,0-22.51,16.65-47.95,40.71-47.95,14.19,0,21.9,8.48,21.9,19.28,0,19.58-22.05,24.67-49.64,24.2-.62,3.24-.15,10.18,1.54,14.19,2.93,6.79,8.94,10.02,16.65,10.02,8.79,0,15.42-2.62,20.05-5.09l1.86,9.56"/>
  <g>
    <path class="st0" d="M43.99,358.07h-2.95c.47-2.36,1.32-3.95,2.55-4.76,1.23-.82,3.4-1.23,6.52-1.23,3.38,0,5.57.5,6.56,1.51.99.99,1.2,2.89.64,5.69l-2.68,13.4h-2.97l.68-2.19-.06-.02c-1.47,1.67-3.94,2.51-7.41,2.51-5.13,0-7.28-2.06-6.46-6.18.5-2.45,1.41-4.14,2.74-5.08,1.33-.93,3.5-1.4,6.5-1.4,3.57,0,5.57.7,6.01,2.1l.06-.02.49-2.46c.47-2.32.45-3.82-.06-4.5-.5-.69-1.82-1.04-3.97-1.04-3.65,0-5.68,1.03-6.1,3.08-.01.1-.04.3-.08.59h0ZM47.86,362.63c-2.28,0-3.82.24-4.61.72-.78.48-1.32,1.51-1.64,3.1-.34,1.64-.23,2.73.34,3.27.58.52,1.91.79,3.99.79,4.19,0,6.54-1.27,7.05-3.82.33-1.6.13-2.68-.57-3.23-.69-.55-2.22-.83-4.57-.83h0Z"/>
    <path class="st0" d="M86.41,346.65l-5.18,25.95h-3.27l5.18-25.95h-9.45l.62-3.04h22.08l-.62,3.04h-9.36Z"/>
    <path class="st0" d="M102.23,343.72l-2.23,11.19.04.04c1.13-1.9,3.42-2.85,6.86-2.85,5.1,0,7.19,2.27,6.29,6.8l-.17.83-2.59,12.98h-2.97l2.59-12.98.13-.57c.61-3.06-.65-4.59-3.78-4.59-2.52,0-4.3.45-5.33,1.36-1.03.89-1.81,2.68-2.34,5.35l-2.29,11.43h-2.97l5.8-28.98h2.97Z"/>
    <path class="st0" d="M121.8,358.07h-2.95c.47-2.36,1.32-3.95,2.55-4.76,1.23-.82,3.4-1.23,6.52-1.23,3.38,0,5.57.5,6.56,1.51.99.99,1.2,2.89.64,5.69l-2.68,13.4h-2.97l.68-2.19-.06-.02c-1.47,1.67-3.94,2.51-7.41,2.51-5.13,0-7.28-2.06-6.46-6.18.5-2.45,1.41-4.14,2.74-5.08,1.33-.93,3.5-1.4,6.5-1.4,3.57,0,5.57.7,6.01,2.1l.06-.02.49-2.46c.47-2.32.45-3.82-.06-4.5-.5-.69-1.82-1.04-3.97-1.04-3.65,0-5.68,1.03-6.1,3.08-.01.1-.04.3-.08.59h0ZM125.67,362.63c-2.28,0-3.82.24-4.61.72-.78.48-1.32,1.51-1.64,3.1-.34,1.64-.23,2.73.34,3.27.58.52,1.91.79,3.99.79,4.19,0,6.54-1.27,7.05-3.82.33-1.6.13-2.68-.57-3.23-.69-.55-2.22-.83-4.57-.83h0Z"/>
    <path class="st0" d="M146.76,343.72l-5.8,28.98h-2.97l5.8-28.98h2.97Z"/>
    <path class="st0" d="M161.44,366.55h3.04l-.13.74c-.42,2.11-1.37,3.59-2.82,4.44-1.44.84-3.77,1.25-6.99,1.25-3.74,0-6.05-.68-6.94-2.04-.89-1.37-.9-4.25-.02-8.62.81-4.05,1.93-6.77,3.38-8.16,1.46-1.39,3.9-2.08,7.33-2.08,3.74,0,6.07.6,6.99,1.81.92,1.2.99,3.74.21,7.6l-.32,1.59h-14.61c-.64,3.2-.7,5.24-.19,6.12.51.88,2.02,1.32,4.54,1.32,2.39,0,3.99-.21,4.78-.62.81-.42,1.35-1.33,1.64-2.72l.13-.64ZM162.58,360.77l.17-.96c.44-2.19.36-3.62-.23-4.27-.58-.67-2.07-1-4.46-1s-4.05.39-4.93,1.17c-.86.76-1.56,2.45-2.08,5.05h11.53Z"/>
    <path class="st0" d="M186.72,357.74h-2.97c.28-1.42.17-2.29-.34-2.63-.5-.34-1.93-.51-4.31-.51-2.21,0-3.65.18-4.31.55-.67.35-1.14,1.22-1.42,2.59-.41,2.08.37,3.17,2.34,3.27l2.38.13,3.02.15c3.64.18,5.09,2.11,4.35,5.78-.45,2.28-1.37,3.84-2.76,4.69-1.39.85-3.7,1.28-6.94,1.27-3.33,0-5.54-.4-6.63-1.21-1.09-.81-1.42-2.29-1-4.44l.25-1.1h3.08l-.17.96c-.27,1.33-.11,2.22.47,2.68.59.44,1.89.66,3.89.66,2.45,0,4.11-.23,4.97-.7.88-.47,1.47-1.44,1.76-2.93.42-2.14-.33-3.21-2.27-3.21-4.52,0-7.41-.38-8.69-1.15-1.27-.76-1.67-2.35-1.19-4.76.47-2.28,1.34-3.79,2.61-4.54,1.27-.76,3.59-1.15,6.94-1.15,5.38,0,7.74,1.62,7.09,4.86l-.15.74Z"/>
    <path class="st0" d="M227.66,343.72l-33.03,37.69h-2.44l33.04-37.69h2.43Z"/>
    <path class="st0" d="M247.55,343.72l-5.18,25.95h14.91l-.62,3.04h-18.19l5.8-28.98h3.28Z"/>
    <path class="st0" d="M274.79,366.55h3.04l-.13.74c-.42,2.11-1.37,3.59-2.82,4.44-1.44.84-3.77,1.25-6.99,1.25-3.74,0-6.05-.68-6.94-2.04-.89-1.37-.9-4.25-.02-8.62.81-4.05,1.93-6.77,3.38-8.16,1.46-1.39,3.9-2.08,7.33-2.08,3.74,0,6.07.6,6.99,1.81.92,1.2.99,3.74.21,7.6l-.32,1.59h-14.61c-.64,3.2-.7,5.24-.19,6.12.51.88,2.02,1.32,4.54,1.32,2.39,0,3.99-.21,4.78-.62.81-.42,1.35-1.33,1.64-2.72l.13-.64ZM275.94,360.77l.17-.96c.44-2.19.36-3.62-.23-4.27-.58-.67-2.07-1-4.46-1s-4.05.39-4.93,1.17c-.86.76-1.56,2.45-2.08,5.05h11.53Z"/>
    <path class="st0" d="M293.88,352.03c3.75,0,6.05.65,6.9,1.95.86,1.3.86,4.13,0,8.49-.88,4.36-2.01,7.19-3.4,8.49-1.37,1.3-3.94,1.95-7.69,1.95s-6.04-.65-6.9-1.95c-.85-1.3-.84-4.13.04-8.49.86-4.36,1.98-7.19,3.35-8.49,1.39-1.3,3.95-1.95,7.69-1.95h0ZM293.39,354.5c-2.63,0-4.35.43-5.16,1.3-.79.85-1.55,3.08-2.27,6.69-.72,3.61-.86,5.85-.4,6.71.45.85,2,1.27,4.63,1.27s4.37-.42,5.18-1.27c.81-.86,1.57-3.1,2.29-6.71.72-3.61.85-5.84.38-6.69-.45-.86-2-1.3-4.65-1.3Z"/>
    <path class="st0" d="M307.41,352.36h2.87l-.64,2.76.08.06c1.32-2.08,3.77-3.12,7.37-3.12,2.9,0,4.76.51,5.58,1.53s.94,2.97.36,5.86l-2.63,13.21h-2.97l2.59-12.96.15-.76c.35-1.74.25-2.91-.3-3.5-.54-.61-1.76-.91-3.65-.91-4.18,0-6.66,1.98-7.45,5.93l-2.44,12.21h-2.97l4.06-20.3Z"/>
    <path class="st0" d="M331.88,358.07h-2.95c.47-2.36,1.32-3.95,2.55-4.76,1.23-.82,3.41-1.23,6.52-1.23,3.38,0,5.57.5,6.56,1.51.99.99,1.2,2.89.64,5.69l-2.68,13.4h-2.97l.68-2.19-.06-.02c-1.47,1.67-3.94,2.51-7.41,2.51-5.13,0-7.28-2.06-6.46-6.18.5-2.45,1.41-4.14,2.74-5.08,1.33-.93,3.5-1.4,6.5-1.4,3.57,0,5.57.7,6.01,2.1l.06-.02.49-2.46c.47-2.32.45-3.82-.06-4.5-.5-.69-1.82-1.04-3.97-1.04-3.65,0-5.68,1.03-6.1,3.08-.01.1-.04.3-.08.59h0ZM335.74,362.63c-2.28,0-3.82.24-4.61.72-.78.48-1.32,1.51-1.64,3.1-.34,1.64-.23,2.73.34,3.27.58.52,1.91.79,3.99.79,4.19,0,6.54-1.27,7.05-3.82.33-1.6.13-2.68-.57-3.23-.69-.55-2.22-.83-4.57-.83h0Z"/>
    <path class="st0" d="M352.27,352.36h2.97l-.76,2.34.06.06c1.56-1.91,3.69-2.87,6.39-2.87,3.74,0,5.22,1.93,4.44,5.78l-.3,1.4h-2.93l.17-.51c.14-.54.23-.9.28-1.08.41-2.08-.52-3.12-2.78-3.12-3.31,0-5.37,2.05-6.18,6.14l-2.44,12.17h-2.97l4.06-20.3Z"/>
    <path class="st0" d="M387.98,343.72l-5.8,28.98h-2.97l.68-2.63-.08-.02c-1.33,1.97-3.7,2.95-7.11,2.95-3.12,0-5.09-.76-5.93-2.27-.84-1.51-.84-4.34-.02-8.47.76-3.81,1.87-6.45,3.31-7.92,1.44-1.49,3.65-2.23,6.6-2.23,3.69,0,5.71.96,6.03,2.87l.06-.04,2.25-11.21h2.98ZM376.88,354.57c-2.19,0-3.76.51-4.69,1.53-.92,1.01-1.68,3.05-2.29,6.14-.68,3.4-.77,5.64-.28,6.71.5,1.06,1.87,1.59,4.12,1.59,2.45,0,4.15-.53,5.1-1.59.96-1.08,1.8-3.41,2.51-6.99.58-2.9.57-4.86-.04-5.86-.61-1.02-2.08-1.53-4.42-1.53h0Z"/>
    <path class="st0" d="M400.05,352.03c3.75,0,6.05.65,6.9,1.95.86,1.3.86,4.13,0,8.49-.88,4.36-2.01,7.19-3.4,8.49-1.37,1.3-3.94,1.95-7.69,1.95s-6.04-.65-6.9-1.95c-.85-1.3-.84-4.13.04-8.49.86-4.36,1.98-7.19,3.35-8.49,1.39-1.3,3.95-1.95,7.69-1.95ZM399.56,354.5c-2.63,0-4.35.43-5.16,1.3-.79.85-1.55,3.08-2.27,6.69-.72,3.61-.86,5.85-.4,6.71.45.85,2,1.27,4.63,1.27s4.37-.42,5.18-1.27c.81-.86,1.57-3.1,2.29-6.71.72-3.61.85-5.84.38-6.69-.45-.86-2-1.3-4.65-1.3Z"/>
    <path class="st0" d="M435.77,365.41h2.97l-.19,1.1c-.88,4.35-4.16,6.52-9.85,6.52-3.65,0-5.93-.69-6.84-2.06-.89-1.37-.91-4.2-.04-8.49.79-4.02,1.93-6.75,3.42-8.18,1.49-1.44,3.91-2.17,7.26-2.17s5.45.49,6.46,1.47c1.02.96,1.26,2.78.72,5.46h-2.97l.11-.53c.31-1.57.13-2.62-.55-3.14-.67-.52-2.16-.79-4.48-.79-2.24,0-3.77.5-4.61,1.49-.84.99-1.6,3.21-2.29,6.67-.68,3.37-.75,5.51-.21,6.43.55.92,2.17,1.38,4.84,1.38,2.26,0,3.76-.3,4.48-.89.74-.61,1.33-2.03,1.78-4.27h0Z"/>
    <path class="st0" d="M453.88,352.03c3.75,0,6.05.65,6.9,1.95.86,1.3.86,4.13,0,8.49-.88,4.36-2.01,7.19-3.4,8.49-1.37,1.3-3.94,1.95-7.69,1.95s-6.04-.65-6.9-1.95c-.85-1.3-.84-4.13.04-8.49.86-4.36,1.98-7.19,3.35-8.49,1.39-1.3,3.95-1.95,7.69-1.95ZM453.39,354.5c-2.63,0-4.35.43-5.16,1.3-.79.85-1.55,3.08-2.27,6.69-.72,3.61-.86,5.85-.4,6.71.45.85,2,1.27,4.63,1.27s4.37-.42,5.18-1.27c.81-.86,1.57-3.1,2.29-6.71.72-3.61.85-5.84.38-6.69-.45-.86-2-1.3-4.65-1.3Z"/>
    <path class="st0" d="M467.41,352.36h2.97l-.68,3.06.06.06c1.6-2.28,4.03-3.42,7.31-3.42,3.44,0,5.3,1.14,5.58,3.42h.08c1.73-2.28,4.28-3.42,7.67-3.42,4.79,0,6.69,2.44,5.71,7.33l-2.66,13.27h-2.97l2.72-13.55c.35-1.78.28-3-.23-3.63-.51-.64-1.65-.96-3.42-.96-2.35,0-4.03.45-5.05,1.34-1.01.88-1.76,2.56-2.25,5.05l-2.36,11.74h-2.97l2.66-13.27.15-.93c.52-2.62-.71-3.93-3.7-3.93-4.05,0-6.51,2.2-7.39,6.6l-2.31,11.53h-2.97l4.05-20.3Z"/>
    <path class="st0" d="M503.46,352.36h2.97l-.66,2.57.06.06c1.43-1.95,3.85-2.93,7.26-2.93,3.02,0,4.93.76,5.76,2.29.84,1.53.84,4.35.02,8.45-.76,3.81-1.87,6.46-3.31,7.94-1.44,1.47-3.63,2.21-6.56,2.21-3.34,0-5.37-.9-6.07-2.7h-.06l-2.23,11.11h-2.97l5.8-29.01ZM511.78,354.53c-2.38,0-4.04.52-4.97,1.55-.92,1.02-1.72,3.22-2.4,6.6-.62,3.13-.65,5.22-.08,6.26.57,1.03,2.02,1.55,4.37,1.55,2.24,0,3.82-.5,4.74-1.51.92-1.01,1.69-3.08,2.31-6.22.69-3.45.79-5.69.3-6.71-.48-1.02-1.9-1.53-4.27-1.53h0Z"/>
    <path class="st0" d="M527.6,358.07h-2.95c.47-2.36,1.32-3.95,2.55-4.76,1.23-.82,3.41-1.23,6.52-1.23,3.38,0,5.57.5,6.56,1.51.99.99,1.2,2.89.64,5.69l-2.68,13.4h-2.97l.68-2.19-.06-.02c-1.47,1.67-3.94,2.51-7.41,2.51-5.13,0-7.28-2.06-6.46-6.18.5-2.45,1.41-4.14,2.74-5.08,1.33-.93,3.5-1.4,6.5-1.4,3.57,0,5.57.7,6.01,2.1l.06-.02.49-2.46c.47-2.32.45-3.82-.06-4.5-.5-.69-1.82-1.04-3.97-1.04-3.65,0-5.68,1.03-6.1,3.08-.01.1-.04.3-.08.59h0ZM531.46,362.63c-2.28,0-3.82.24-4.61.72-.78.48-1.32,1.51-1.64,3.1-.34,1.64-.23,2.73.34,3.27.58.52,1.91.79,3.99.79,4.19,0,6.54-1.27,7.05-3.82.33-1.6.13-2.68-.57-3.23-.69-.55-2.22-.83-4.57-.83h0Z"/>
    <path class="st0" d="M547.82,352.36h2.87l-.64,2.76.08.06c1.32-2.08,3.77-3.12,7.37-3.12,2.9,0,4.76.51,5.58,1.53.82,1.02.94,2.97.36,5.86l-2.63,13.21h-2.97l2.59-12.96.15-.76c.35-1.74.25-2.91-.3-3.5-.54-.61-1.76-.91-3.65-.91-4.18,0-6.66,1.98-7.45,5.93l-2.44,12.21h-2.97l4.06-20.3Z"/>
    <path class="st0" d="M584.68,352.36l-10.05,21.46c-1.42,3.03-2.73,5.11-3.95,6.24-1.2,1.13-2.72,1.7-4.54,1.7-.37,0-.83-.05-1.38-.15l.49-2.46c.4.08.73.13,1,.15,1.59.08,3.04-1.21,4.35-3.89l.98-2c.03-.07.14-.33.34-.76h-1.13l-3.29-20.31h3.16l1.32,9.05.68,4.5.3,2.27.34,2.25h.08l1-2.25,1-2.27,2.04-4.5,4.1-9.05h3.16Z"/>
  </g>
</svg>