<?xml version="1.0" encoding="UTF-8"?>
<svg id="Capa_1" xmlns="http://www.w3.org/2000/svg" version="1.1" viewBox="0 0 212.6 212.6">
  <!-- Generator: Adobe Illustrator 29.6.0, SVG Export Plug-In . SVG Version: 2.1.1 Build 207)  -->
  <defs>
    <style>
      .st0, .st1, .st2 {
        fill: #fff;
      }

      .st1 {
        fill-rule: evenodd;
      }

      .st2 {
        stroke: #95beab;
        stroke-miterlimit: 3.86;
        stroke-width: .52px;
      }
    </style>
  </defs>
  <g>
    <line class="st0" x1="28.44" y1="183.65" x2="183.86" y2="183.65"/>
    <rect class="st0" x="28.44" y="183.24" width="155.43" height=".81"/>
  </g>
  <g>
    <line class="st0" x1="28.44" y1="197.1" x2="183.86" y2="197.1"/>
    <rect class="st0" x="28.44" y="196.69" width="155.43" height=".81"/>
  </g>
  <path class="st2" d="M42.95,110.97"/>
  <g>
    <path class="st1" d="M104.17,51.57s1.89-23.89-3.04-30.32c-4.77-5.57-9.29-7.14-18.54-5.62v16.24s7.63-.69,12.39,1.73c2.07,1.31,5.46,4.19,7.58,17.97.04.25,1.61,0,1.61,0Z"/>
    <path class="st1" d="M107.69,51.57s-1.84-15.62,3.09-22.05c4.77-5.57,9.29-7.14,18.54-5.62l-.16,16.47s-11.77-.69-14.81,1.38c-2.07,1.31-5.09,4.58-5.27,9.81,0,.26-1.38,0-1.38,0Z"/>
    <g>
      <path class="st1" d="M75.43,81.15c-1.89,4.78-3.69,10.46-5.12,17.09,6.17,1.21,13.94,2.35,23.55,3.13,2.9.24,5.89.34,8.9.34.14-5.44.33-10.95.61-16.48-11.53-.17-21.04-2.08-27.94-4.09Z"/>
      <path class="st1" d="M167.47,111.17c-.84-7.73-3.1-15.09-6.5-21.78-2.89-5.7-6.62-10.92-11.02-15.48-6.42-6.66-14.26-11.92-23.03-15.22-6.7-2.52-13.94-3.91-21.49-3.91-7.07,0-13.86,1.2-20.19,3.4-9.11,3.17-17.27,8.42-23.93,15.17-4.52,4.58-8.35,9.86-11.31,15.64-3.47,6.77-5.76,14.23-6.58,22.1l9.33.02,114.74.27c-.01-.07-.01-.14-.02-.21ZM146.43,110.78h-3.57c-.09-2.04-.27-4.06-.59-6.04-.26-1.6-.55-3.14-.85-4.64-11.82,3.46-23.03,4.9-33.28,5.08.05,1.83.09,3.7.12,5.6h-5.68c.02-1.86.06-3.74.1-5.62-12.91-.33-24.08-2.58-32.75-5.11-.31,1.52-.6,3.08-.86,4.7-.32,1.97-.51,3.99-.6,6.04h-3.57c.23-4.14.8-8.07,1.62-11.78-10.2-3.3-16.12-6.67-16.12-6.67,0,0,4.79,2.63,16.46,5.2,1.56-6.43,3.85-12.14,6.35-17.04-6.66-2.11-10.35-4.13-10.35-4.13,0,0,3.38,1.4,10.95,2.96,6.41-12.07,13.88-18.9,13.88-18.9,0,0-6.14,5.91-11.7,19.33,5.28,1,12.28,2.02,21.2,2.75,2.05.17,4.16.25,6.31.28.43-7.88,1.02-15.75,1.81-23.37,0,0,1,9.01,1.85,23.34,9.95-.21,20.22-1.64,28.14-3.05-5.56-13.39-11.69-19.28-11.69-19.28,0,0,7.46,6.82,13.87,18.88,7.13-1.34,11.88-2.56,11.88-2.56-3.84,1.47-7.59,2.72-11.26,3.77,2.4,4.71,4.61,10.17,6.16,16.3,9.75-2.05,16.29-3.96,16.29-3.96-5.34,2.5-10.61,4.55-15.76,6.21.81,3.69,1.39,7.6,1.61,11.73Z"/>
      <path class="st1" d="M107.32,85.22c.28,4.95.53,10.45.71,16.39,11.64-.44,23.4-2.25,32.84-4.11-1.41-6.33-3.15-11.77-4.97-16.38-10.38,2.77-19.98,3.93-28.57,4.1Z"/>
    </g>
    <g>
      <path class="st0" d="M169.46,110.93c0,.06.01.13.02.2v.04h14.69v-41.33s-11.74-3.29-32.13,3.37c4.29,4.57,7.9,9.7,10.73,15.28,3.6,7.07,5.85,14.63,6.7,22.45Z"/>
      <path class="st0" d="M48.22,88.08c2.89-5.65,6.59-10.82,10.97-15.4-19.35-5.95-30.44-2.84-30.44-2.84v41.33h12.65l.03-.29c.83-7.96,3.11-15.63,6.79-22.8Z"/>
      <path class="st0" d="M175.83,67.02h0c4.37,0,7.21.51,8.33.76v-25.42c-32.54.39-49.15,10.04-55.48,14.89,8.06,3.2,15.55,8.14,21.79,14.37,11.22-3.78,19.95-4.6,25.36-4.6h0Z"/>
      <path class="st0" d="M28.73,42.5v25.29c1.1-.25,3.95-.76,8.34-.76,5.07,0,13.24.72,23.71,4.06,6.47-6.31,14.23-11.23,22.61-14.34-6.77-4.95-23.28-13.87-54.67-14.24Z"/>
    </g>
  </g>
  <path class="st1" d="M107.44,150.7c-.27,4.61-.62,9.25-1.04,13.89,7.75-.15,15.74-1.15,22.3-2.25,1.55-3.12,3.41-7.09,5.28-11.65h2.98c-1.92,3.72-4.15,7.52-6.72,11.39,7.65-1.34,12.99-2.7,12.99-2.7-4.89,1.88-9.6,3.31-14.15,4.41-1.32,1.92-2.72,3.86-4.22,5.82,0,0,1.19-2.03,2.97-5.51-7.8,1.79-15.05,2.55-21.61,2.64-.18,1.92-.38,3.84-.59,5.75-.32,2.92-.89.47-1.46-5.75-8.07-.05-15.02-1.09-20.61-2.4,1.71,3.33,2.84,5.26,2.84,5.26-1.43-1.86-2.77-3.71-4.04-5.54-8.97-2.23-14.07-5.02-14.07-5.02,0,0,3.91,1.62,12.83,3.21-2.62-3.92-4.88-7.77-6.82-11.54h2.98c1.9,4.63,3.79,8.65,5.35,11.8,4.14.69,9.23,1.35,15.4,1.86,1.94.16,3.93.23,5.96.24-.3-3.71-.59-8.42-.84-13.91l-48.01.02c11.3,15.5,29.63,25.6,50.31,25.6s39.01-10.19,50.37-25.63l-48.37.02Z"/>
  <path class="st2" d="M54.99,153.52"/>
  <path class="st2" d="M155.74,153.52"/>
  <g>
    <path class="st0" d="M28.66,141.17v-19.47h3.93v7.66h7.7v-7.66h3.93v19.47h-3.93v-8.51h-7.7v8.51h-3.93Z"/>
    <path class="st0" d="M47.57,131.56c0-1.98.3-3.65.89-4.99.44-.99,1.05-1.88,1.81-2.67.77-.79,1.6-1.37,2.52-1.75,1.21-.51,2.61-.77,4.2-.77,2.87,0,5.16.89,6.89,2.67,1.72,1.78,2.58,4.25,2.58,7.43s-.86,5.6-2.56,7.38c-1.71,1.78-3.99,2.66-6.85,2.66s-5.2-.88-6.91-2.65c-1.71-1.77-2.56-4.2-2.56-7.3ZM51.62,131.43c0,2.2.51,3.88,1.53,5.01,1.02,1.14,2.31,1.71,3.88,1.71s2.85-.56,3.86-1.69c1.01-1.13,1.51-2.82,1.51-5.08s-.49-3.9-1.47-4.99c-.98-1.1-2.28-1.65-3.9-1.65s-2.93.56-3.92,1.67c-.99,1.11-1.49,2.79-1.49,5.03Z"/>
    <path class="st0" d="M69.61,141.17v-19.47h8.27c2.08,0,3.59.17,4.54.52.94.35,1.7.97,2.27,1.87.57.89.85,1.92.85,3.07,0,1.46-.43,2.67-1.29,3.62-.86.95-2.14,1.55-3.85,1.8.85.49,1.55,1.04,2.11,1.63.55.59,1.3,1.65,2.24,3.16l2.38,3.8h-4.7l-2.84-4.24c-1.01-1.51-1.7-2.47-2.07-2.86-.37-.39-.77-.66-1.18-.81-.42-.15-1.08-.22-1.98-.22h-.8v8.13h-3.93ZM73.54,129.94h2.91c1.89,0,3.06-.08,3.53-.24.47-.16.84-.43,1.1-.82.27-.39.4-.88.4-1.46,0-.65-.17-1.18-.52-1.59-.35-.4-.84-.66-1.48-.77-.32-.04-1.27-.07-2.87-.07h-3.07v4.94Z"/>
    <path class="st0" d="M93.7,141.17v-16.18h-5.78v-3.29h15.47v3.29h-5.76v16.18h-3.93Z"/>
    <path class="st0" d="M105.88,141.17v-19.47h3.93v19.47h-3.93Z"/>
    <path class="st0" d="M113.66,141.17v-19.47h13.35v3.29h-9.42v4.61h8.13v3.29h-8.13v8.27h-3.93Z"/>
    <path class="st0" d="M130.33,141.17v-19.47h8.28c2.08,0,3.59.17,4.53.52.94.35,1.7.97,2.27,1.87.57.89.85,1.92.85,3.07,0,1.46-.43,2.67-1.29,3.62-.86.95-2.14,1.55-3.85,1.8.85.49,1.55,1.04,2.1,1.63.55.59,1.3,1.65,2.24,3.16l2.38,3.8h-4.7l-2.84-4.24c-1.01-1.51-1.7-2.47-2.07-2.86-.37-.39-.77-.66-1.18-.81-.42-.15-1.08-.22-1.98-.22h-.8v8.13h-3.93ZM134.27,129.94h2.91c1.88,0,3.06-.08,3.53-.24.47-.16.84-.43,1.1-.82.27-.39.4-.88.4-1.46,0-.65-.17-1.18-.52-1.59-.35-.4-.84-.66-1.48-.77-.32-.04-1.28-.07-2.87-.07h-3.07v4.94Z"/>
    <path class="st0" d="M150.01,121.7h3.93v10.55c0,1.67.05,2.76.15,3.25.17.8.57,1.44,1.2,1.92.63.48,1.5.72,2.6.72s1.96-.23,2.52-.68c.57-.45.91-1.02,1.02-1.68.12-.66.17-1.77.17-3.31v-10.77h3.93v10.23c0,2.34-.11,3.99-.32,4.95-.21.97-.6,1.78-1.18,2.44-.57.66-1.33,1.19-2.29,1.59-.96.39-2.2.59-3.75.59-1.86,0-3.27-.21-4.23-.64-.96-.43-1.72-.99-2.28-1.67-.56-.69-.93-1.41-1.1-2.16-.26-1.12-.39-2.76-.39-4.94v-10.39Z"/>
    <path class="st0" d="M174.14,141.17v-16.18h-5.78v-3.29h15.47v3.29h-5.76v16.18h-3.93Z"/>
  </g>
  <g>
    <path class="st0" d="M28.44,186.69h1.28c.52,0,.91.07,1.19.22.28.15.5.37.66.68.16.3.24.64.24,1.01,0,.35-.07.66-.21.95-.14.28-.35.52-.62.69.34.14.6.3.78.49.18.19.32.41.42.67.1.26.15.55.15.86,0,.63-.19,1.16-.57,1.59-.38.43-.89.65-1.54.65h-1.79v-7.8ZM29.07,187.45v2.5h.37c.45,0,.78-.05,1-.15.21-.1.38-.26.5-.48.12-.22.19-.46.19-.72,0-.36-.1-.64-.31-.84-.21-.2-.54-.31-.99-.31h-.75ZM29.07,190.73v2.99h.81c.47,0,.82-.05,1.04-.17.22-.11.4-.28.53-.52.13-.24.2-.49.2-.77,0-.35-.09-.65-.28-.91-.19-.26-.45-.43-.78-.53-.22-.06-.61-.1-1.16-.1h-.37Z"/>
    <path class="st0" d="M33.62,186.69h3.72v.76h-3.08v2.44h3.05v.76h-3.05v3.06h3.05v.76h-3.7v-7.8Z"/>
    <path class="st0" d="M38.5,186.69h1.29c.72,0,1.21.04,1.47.11.39.11.7.33.94.68.24.35.36.78.36,1.29,0,.42-.08.8-.25,1.12-.17.32-.4.56-.71.73-.31.17-.74.25-1.28.25l2.34,3.62h-.8l-2.34-3.62h-.37v3.62h-.65v-7.8ZM39.15,187.45v2.65h1.12c.43.01.75-.04.96-.14.21-.1.37-.26.49-.47.12-.22.17-.46.17-.73s-.06-.5-.18-.71c-.12-.21-.27-.37-.46-.46-.19-.09-.51-.14-.96-.14h-1.15Z"/>
    <path class="st0" d="M43.99,186.69h1.29c.72,0,1.21.04,1.47.11.39.11.7.33.94.68.24.35.36.78.36,1.29,0,.42-.08.8-.25,1.12-.17.32-.4.56-.71.73-.31.17-.74.25-1.28.25l2.34,3.62h-.8l-2.34-3.62h-.37v3.62h-.65v-7.8ZM44.64,187.45v2.65h1.12c.43.01.75-.04.96-.14.21-.1.37-.26.49-.47.12-.22.17-.46.17-.73s-.06-.5-.18-.71c-.12-.21-.27-.37-.46-.46-.19-.09-.51-.14-.96-.14h-1.15Z"/>
    <path class="st0" d="M49.36,186.69h.65v7.8h-.65v-7.8Z"/>
    <path class="st0" d="M51.5,186.69h3.72v.76h-3.08v2.44h3.05v.76h-3.05v3.06h3.05v.76h-3.7v-7.8Z"/>
    <path class="st0" d="M55.68,193.03l.55-.4c.39.86.84,1.29,1.35,1.29.22,0,.42-.06.61-.18.19-.12.34-.28.44-.49.1-.21.15-.42.15-.65,0-.26-.07-.52-.22-.77-.2-.35-.57-.76-1.11-1.25-.54-.49-.88-.85-1.01-1.07-.23-.37-.34-.77-.34-1.19,0-.34.07-.65.2-.93.14-.28.33-.5.57-.66.25-.16.51-.24.8-.24.31,0,.59.09.86.27.27.18.55.52.85,1l-.53.48c-.24-.39-.45-.65-.62-.77-.17-.12-.36-.19-.56-.19-.26,0-.48.1-.64.29-.17.19-.25.43-.25.7,0,.17.03.33.09.49.06.16.17.33.32.52.09.1.37.36.84.78.56.5.95.94,1.16,1.33.21.39.31.78.31,1.17,0,.57-.18,1.06-.54,1.47-.36.42-.79.63-1.31.63-.39,0-.75-.13-1.07-.38-.32-.25-.62-.68-.89-1.27Z"/>
    <path class="st0" d="M63.41,186.69h3.26v.76h-2.61v2.44h2.61v.76h-2.61v3.83h-.65v-7.8Z"/>
    <path class="st0" d="M70.9,186.49c.98,0,1.81.39,2.47,1.18.66.79.99,1.76.99,2.91s-.33,2.11-.99,2.91c-.66.8-1.47,1.19-2.42,1.19s-1.78-.4-2.44-1.19c-.66-.79-.99-1.75-.99-2.87,0-.75.15-1.44.45-2.08.3-.64.71-1.14,1.24-1.5s1.09-.54,1.69-.54ZM70.93,187.25c-.48,0-.94.15-1.37.45-.43.3-.77.71-1.01,1.22-.24.51-.36,1.08-.36,1.7,0,.93.27,1.71.8,2.35.54.64,1.18.96,1.94.96.5,0,.97-.15,1.4-.44.43-.29.76-.7,1-1.2.24-.51.36-1.08.36-1.7s-.12-1.18-.36-1.68c-.24-.5-.58-.9-1.02-1.2-.44-.3-.9-.45-1.39-.45Z"/>
    <path class="st0" d="M75.7,186.69h1.29c.72,0,1.21.04,1.47.11.39.11.7.33.94.68.24.35.36.78.36,1.29,0,.42-.08.8-.25,1.12-.17.32-.4.56-.71.73-.31.17-.74.25-1.28.25l2.34,3.62h-.8l-2.34-3.62h-.37v3.62h-.65v-7.8ZM76.35,187.45v2.65h1.12c.43.01.75-.04.96-.14.21-.1.37-.26.49-.47.12-.22.17-.46.17-.73s-.06-.5-.18-.71c-.12-.21-.27-.37-.46-.46-.19-.09-.51-.14-.96-.14h-1.15Z"/>
    <path class="st0" d="M83.07,187.45v-.76h3.56v.76h-1.45v7.04h-.66v-7.04h-1.45Z"/>
    <path class="st0" d="M87.56,186.69h.65v3.27h3.31v-3.27h.65v7.8h-.65v-3.76h-3.31v3.76h-.65v-7.8Z"/>
    <path class="st0" d="M93.76,186.69h3.72v.76h-3.08v2.44h3.05v.76h-3.05v3.06h3.05v.76h-3.7v-7.8Z"/>
    <path class="st0" d="M100.8,186.69h.67l1.33,5.62,1.86-5.62h.13l1.84,5.62,1.35-5.62h.66l-1.87,7.8h-.12l-1.93-5.9-1.97,5.9h-.12l-1.84-7.8Z"/>
    <path class="st0" d="M112.95,186.49c.98,0,1.81.39,2.47,1.18.66.79,1,1.76,1,2.91s-.33,2.11-.99,2.91c-.66.8-1.47,1.19-2.42,1.19s-1.78-.4-2.44-1.19c-.66-.79-1-1.75-1-2.87,0-.75.15-1.44.45-2.08.3-.64.72-1.14,1.24-1.5.52-.36,1.09-.54,1.69-.54ZM112.98,187.25c-.48,0-.94.15-1.37.45-.43.3-.77.71-1.01,1.22-.24.51-.36,1.08-.36,1.7,0,.93.27,1.71.8,2.35.54.64,1.18.96,1.94.96.5,0,.97-.15,1.4-.44.43-.29.76-.7,1-1.2.24-.51.36-1.08.36-1.7s-.12-1.18-.36-1.68c-.24-.5-.58-.9-1.02-1.2-.44-.3-.9-.45-1.39-.45Z"/>
    <path class="st0" d="M117.75,186.69h1.29c.72,0,1.21.04,1.47.11.39.11.7.33.94.68.24.35.36.78.36,1.29,0,.42-.08.8-.25,1.12-.17.32-.4.56-.71.73-.31.17-.74.25-1.28.25l2.34,3.62h-.8l-2.34-3.62h-.37v3.62h-.65v-7.8ZM118.4,187.45v2.65h1.12c.43.01.76-.04.96-.14.21-.1.37-.26.49-.47.12-.22.18-.46.18-.73s-.06-.5-.18-.71c-.12-.21-.27-.37-.46-.46-.19-.09-.51-.14-.96-.14h-1.15Z"/>
    <path class="st0" d="M123.21,186.69h.65v7.05h2.5v.75h-3.15v-7.8Z"/>
    <path class="st0" d="M127.39,194.49v-7.8h1.35c.97,0,1.68.09,2.12.28.63.27,1.12.72,1.48,1.38.35.65.53,1.43.53,2.34,0,.78-.14,1.47-.42,2.06-.28.59-.65,1.03-1.1,1.31-.45.28-1.08.42-1.89.42h-2.07ZM128.01,193.75h.75c.9,0,1.52-.07,1.87-.2.49-.19.87-.53,1.15-1.03.28-.5.42-1.1.42-1.82,0-.75-.15-1.4-.45-1.93-.3-.53-.73-.9-1.27-1.1-.41-.15-1.08-.22-2.01-.22h-.46v6.3Z"/>
    <path class="st0" d="M136.69,186.69h3.73v.76h-3.08v2.44h3.05v.76h-3.05v3.06h3.05v.76h-3.7v-7.8Z"/>
    <path class="st0" d="M141.04,186.69h.71l2.15,6.03,2.19-6.03h.71l-2.83,7.8h-.14l-2.79-7.8Z"/>
    <path class="st0" d="M147.89,186.69h3.73v.76h-3.08v2.44h3.05v.76h-3.05v3.06h3.05v.76h-3.7v-7.8Z"/>
    <path class="st0" d="M152.78,186.69h1.29c.72,0,1.21.04,1.47.11.39.11.7.33.94.68.24.35.36.78.36,1.29,0,.42-.08.8-.25,1.12-.17.32-.4.56-.71.73-.31.17-.74.25-1.28.25l2.34,3.62h-.8l-2.34-3.62h-.37v3.62h-.65v-7.8ZM153.43,187.45v2.65h1.12c.43.01.76-.04.96-.14.21-.1.37-.26.49-.47.12-.22.18-.46.18-.73s-.06-.5-.18-.71c-.12-.21-.27-.37-.46-.46-.19-.09-.51-.14-.96-.14h-1.15Z"/>
    <path class="st0" d="M157.72,186.69h.75l1.66,3.22,1.64-3.22h.75l-2.06,4.07v3.73h-.64v-3.73l-2.1-4.07Z"/>
    <path class="st0" d="M166.15,194.49v-7.8h1.35c.97,0,1.68.09,2.12.28.63.27,1.12.72,1.48,1.38.35.65.53,1.43.53,2.34,0,.78-.14,1.47-.42,2.06-.28.59-.65,1.03-1.1,1.31-.45.28-1.08.42-1.89.42h-2.07ZM166.77,193.75h.75c.9,0,1.52-.07,1.87-.2.49-.19.87-.53,1.15-1.03.28-.5.42-1.1.42-1.82,0-.75-.15-1.4-.45-1.93-.3-.53-.73-.9-1.27-1.1-.41-.15-1.08-.22-2.01-.22h-.46v6.3Z"/>
    <path class="st0" d="M175.54,186.69l3.03,7.8h-.7l-1.02-2.57h-2.8l-1.01,2.57h-.72l3.07-7.8h.16ZM175.46,188.34l-1.11,2.82h2.22l-1.11-2.82Z"/>
    <path class="st0" d="M179.06,186.69h.75l1.66,3.22,1.64-3.22h.75l-2.06,4.07v3.73h-.64v-3.73l-2.1-4.07Z"/>
  </g>
</svg>