<?xml version="1.0" encoding="UTF-8"?>
<svg id="_레이어_1" data-name="레이어_1" xmlns="http://www.w3.org/2000/svg" version="1.1" viewBox="0 0 339.11 79.87">
  <!-- Generator: Adobe Illustrator 29.6.0, SVG Export Plug-In . SVG Version: 2.1.1 Build 207)  -->
  <defs>
    <style>
      .st0 {
        fill: #fff;
      }
    </style>
  </defs>
  <path class="st0" d="M129.5,53.73l-1.97-24.73h-.08l-7.63,19.75c-.71,1.84-2.27,3.35-4.46,3.35s-3.92-1.82-4.45-3.35l-7.46-19.5h-.08l-2.14,24.49h-7.28s3.72-34.87,3.72-34.87c.24-1.93,1.82-4.12,3.97-4.12,3.29,0,4.61,1.93,5.26,3.85l8.42,21.17h.08l8.42-21.17c.74-1.93,2.02-3.85,5.27-3.85,2.15,0,3.73,2.19,3.97,4.57l3.68,34.42h-7.24Z"/>
  <path class="st0" d="M140.59,24.24h6.78v29.49h-6.78v-29.49Z"/>
  <path class="st0" d="M300.99,24.24h6.78v29.49h-6.78v-29.49Z"/>
  <path class="st0" d="M151.13,34.59c0-8.63,3.31-10.67,8.86-10.67h7.25c8.77,0,9.91-.57,9.86,7.78l-15.89-.03c-3.25,0-3.74,2.06-3.74,5.73v3.18c0,4.28.61,5.91,3.53,5.91h16.35c0,4.95-.07,7.58-6.26,7.58h-11.1c-5.55,0-8.86-2.04-8.86-10.67v-8.8Z"/>
  <path class="st0" d="M206.78,34.87v-1.87c0-5.29-1.28-8.76-6.02-8.76h-19.71v29.49h6.17v-7.66h10.79c1.92,0,2.53,1.02,2.53,4.11v3.54h6.17v-5.01c0-4.85-1.53-6.03-3.36-6.52v-.08c2.83-.98,3.44-3.3,3.44-7.25M200.79,35.64c0,2.12-.61,3.09-2.28,3.09h-11.29v-7.17h10.73c1.94,0,2.83.49,2.83,3.1v.98Z"/>
  <path class="st0" d="M210.5,34.59c0-8.63,3.3-10.67,8.86-10.67h9.89c5.55,0,8.86,2.04,8.86,10.67v8.8c0,8.63-3.3,10.67-8.86,10.67h-9.89c-5.55,0-8.86-2.04-8.86-10.67v-8.8M216.83,40.57c0,4.28.61,5.91,3.53,5.91h7.89c2.91,0,3.53-1.63,3.53-5.91v-3.18c0-3.67-.61-5.91-3.86-5.91h-7.22c-3.25,0-3.86,2.24-3.86,5.91v3.18Z"/>
  <path class="st0" d="M271.3,24.24h6.16v10.51h13v-10.51h6.16v29.49h-6.16v-11.16h-13v11.16h-6.16v-29.49Z"/>
  <path class="st0" d="M330.84,24.24h-19.05v29.49h6.16v-7.41h14.5c4.36,0,5.67-5.05,5.67-9.45v-2.53c0-5.78-1.42-10.1-7.27-10.1M331.78,35.85c0,1.75-.55,3.14-2,3.14h-11.83v-7.41h11.31c1.86,0,2.53,1.14,2.53,3.14v1.14Z"/>
  <path class="st0" d="M241.45,34.63c0-8.63,3.3-10.67,8.86-10.67h7.25c8.77,0,9.88-.57,9.82,7.78l-15.85-.03c-3.25,0-3.74,2.06-3.74,5.73v3.18c0,4.28.61,5.91,3.53,5.91h16.35c0,4.96-.06,7.58-6.26,7.58h-11.1c-5.55,0-8.86-2.04-8.86-10.67v-8.79Z"/>
  <path class="st0" d="M59.09,4.84c-5.27-2.49-10.15-3.72-16.43-3.83C20.03.61,1.38,17.72,1.01,39.22c-.06,3.72.42,7.33,1.39,10.76l11.7-16.4,7.92,12.4s2.38,2.7.57,5.43c-.11.17-10.75,14.86-10.75,14.86,7.34,7.69,17.68,12.39,29.46,12.6,11.43.2,21.63-3.97,29.19-11.01l-24.88-39.27s3.92-5.51,6.99-9.87c3.38-4.8,6.42-1.45,7.43.14,7.29,11.44,20.98,33.13,20.98,33.13v-.13c1.41-3.23,2.13-4.2,2.28-8.85L59.09,4.84M53.19,51.87s-6.62,9.66-7.3,10.58c-4.05,5.51-7.03-.85-7.03-.85L17.78,28.47s3.92-5.51,6.99-9.87c3.38-4.8,6.42-1.45,7.43.14,7.29,11.44,20.98,33.13,20.98,33.13"/>
  <path class="st0" d="M65.56,6.91c0-1.81,1.47-3.15,3.21-3.15s3.19,1.33,3.19,3.15-1.47,3.16-3.19,3.16-3.21-1.34-3.21-3.16M68.77,9.55c1.43,0,2.55-1.12,2.55-2.64s-1.13-2.62-2.55-2.62-2.57,1.13-2.57,2.62,1.13,2.64,2.57,2.64M68.1,8.74h-.55v-3.64h1.39c.86,0,1.29.32,1.29,1.04,0,.65-.41.94-.94,1l1.03,1.6h-.62l-.96-1.58h-.63v1.58M68.76,6.7c.47,0,.88-.03.88-.59,0-.45-.41-.53-.79-.53h-.75v1.13h.66Z"/>
</svg>