<?xml version="1.0" encoding="UTF-8"?>
<svg xmlns="http://www.w3.org/2000/svg" version="1.1" xmlns:cc="http://creativecommons.org/ns#" xmlns:dc="http://purl.org/dc/elements/1.1/" xmlns:inkscape="http://www.inkscape.org/namespaces/inkscape" xmlns:rdf="http://www.w3.org/1999/02/22-rdf-syntax-ns#" xmlns:sodipodi="http://sodipodi.sourceforge.net/DTD/sodipodi-0.dtd" xmlns:svg="http://www.w3.org/2000/svg" viewBox="0 0 220 88">
  <!-- Generator: Adobe Illustrator 29.6.0, SVG Export Plug-In . SVG Version: 2.1.1 Build 207)  -->
  <defs>
    <style>
      .st0, .st1 {
        fill: #fff;
      }

      .st1 {
        fill-rule: evenodd;
      }
    </style>
  </defs>
  <g id="svg2" inkscape:version="0.47 r22583" sodipodi:docname="Sandia_National_Laboratories_logo.svg">
    <g id="_x3C_defs">
      <inkscape:perspective id="perspective10" inkscape:persp3d-origin="372.04724 : 350.78739 : 1" inkscape:vp_x="0 : 526.18109 : 1" inkscape:vp_y="0 : 1000 : 0" inkscape:vp_z="744.09448 : 526.18109 : 1" sodipodi:type="inkscape:persp3d"/>
      <inkscape:perspective id="perspective5094" inkscape:persp3d-origin="0.5 : 0.33333333 : 1" inkscape:vp_x="0 : 0.5 : 1" inkscape:vp_y="0 : 1000 : 0" inkscape:vp_z="1 : 0.5 : 1" sodipodi:type="inkscape:persp3d"/>
      <inkscape:perspective id="perspective3434" inkscape:persp3d-origin="0.5 : 0.33333333 : 1" inkscape:vp_x="0 : 0.5 : 1" inkscape:vp_y="0 : 1000 : 0" inkscape:vp_z="1 : 0.5 : 1" sodipodi:type="inkscape:persp3d"/>
      <inkscape:perspective id="perspective3166" inkscape:persp3d-origin="0.5 : 0.33333333 : 1" inkscape:vp_x="0 : 0.5 : 1" inkscape:vp_y="0 : 1000 : 0" inkscape:vp_z="1 : 0.5 : 1" sodipodi:type="inkscape:persp3d"/>
      <inkscape:perspective id="perspective3131" inkscape:persp3d-origin="0.5 : 0.33333333 : 1" inkscape:vp_x="0 : 0.5 : 1" inkscape:vp_y="0 : 1000 : 0" inkscape:vp_z="1 : 0.5 : 1" sodipodi:type="inkscape:persp3d"/>
      <inkscape:perspective id="perspective2884" inkscape:persp3d-origin="0.5 : 0.33333333 : 1" inkscape:vp_x="0 : 0.5 : 1" inkscape:vp_y="0 : 1000 : 0" inkscape:vp_z="1 : 0.5 : 1" sodipodi:type="inkscape:persp3d"/>
      <inkscape:perspective id="perspective10-8" inkscape:persp3d-origin="372.04724 : 350.78739 : 1" inkscape:vp_x="0 : 526.18109 : 1" inkscape:vp_y="0 : 1000 : 0" inkscape:vp_z="744.09448 : 526.18109 : 1" sodipodi:type="inkscape:persp3d"/>
      <inkscape:perspective id="perspective6353" inkscape:persp3d-origin="0.5 : 0.33333333 : 1" inkscape:vp_x="0 : 0.5 : 1" inkscape:vp_y="0 : 1000 : 0" inkscape:vp_z="1 : 0.5 : 1" sodipodi:type="inkscape:persp3d"/>
    </g>
    <sodipodi:namedview id="base" bordercolor="#666666" borderopacity="1.0" inkscape:current-layer="layer1" inkscape:cx="110.367" inkscape:cy="43.999998" inkscape:document-units="px" inkscape:pageopacity="0.0" inkscape:pageshadow="2" inkscape:window-height="689" inkscape:window-maximized="1" inkscape:window-width="1024" inkscape:window-x="0" inkscape:window-y="27" inkscape:zoom="4.0871546" pagecolor="#ffffff" showgrid="false"/>
    <g id="layer1" inkscape:groupmode="layer" inkscape:label="Layer 1">
      <g id="g4498">
        <g id="g13410">
          <path id="path7951" class="st1" d="M150.44,51.5c.31-3.76.27-5.12,0-8.93-.15-2.15-2.59-3.99-5.29-3.99s-5.13,1.85-5.29,3.99c-.28,3.75-.24,5.21,0,8.93.14,2.16,2.59,3.76,5.29,3.76s5.11-1.68,5.29-3.76ZM147.42,43.53c.16,1.8.16,5.08,0,6.8-.16,1.72-.54,2.58-2.27,2.58s-2.09-.86-2.27-2.58c-.17-1.72-.17-5.04,0-6.8s.53-2.84,2.27-2.84,2.11,1.03,2.27,2.84Z" sodipodi:nodetypes="cszsszsczzzzzz"/>
          <path id="path8030" class="st1" d="M121.25,22.24c0,1.17-.67,2.71-2.55,2.71s-1.88-2.11-1.64-3.76c.23-1.41,1.88-1.88,3.99-1.88.25,0,.24.23.24.7M124.33,20.02v-4.46c0-3.05-1.64-4.93-4.93-4.93-3.76,0-5.4,1.88-5.17,4.93h3.05c.23-1.41,0-2.82,1.88-2.82s1.99,1.57,2.11,2.86-.23,1.36-.23,1.36c0,0-2.58.23-4.23.7-1.64.47-3.05,1.65-3.05,4.7,0,2.35.47,4.93,3.76,5.17,1.88,0,3.05-1.17,3.52-1.64,0,0,.24,0,.47,1.17h3.05s-.23-3.05-.23-6.11" sodipodi:nodetypes="cscsscssccszcssccccc"/>
          <path id="path8032" class="st1" d="M163.53,22.24c0,1.17-.67,2.71-2.55,2.71s-1.88-2.11-1.64-3.76c.23-1.41,1.88-1.88,3.99-1.88.25,0,.24.23.24.7M166.62,20.02v-4.46c0-3.05-1.64-4.93-4.93-4.93-3.76,0-5.4,1.88-5.17,4.93h3.05c.23-1.41,0-2.82,1.88-2.82s1.99,1.57,2.11,2.86-.23,1.36-.23,1.36c0,0-2.58.23-4.23.7-1.64.47-3.05,1.65-3.05,4.7,0,2.35.47,4.93,3.76,5.17,1.88,0,3.05-1.17,3.52-1.64,0,0,.24,0,.47,1.17h3.05s-.23-3.05-.23-6.11" sodipodi:nodetypes="cscsscssccszcssccccc"/>
          <path id="path8035" class="st1" d="M122.19,49.96c0,1.17-.67,2.71-2.55,2.71s-1.88-2.11-1.64-3.76c.23-1.41,1.88-1.88,3.99-1.88.25,0,.24.23.24.7M125.27,47.74v-4.46c0-3.05-1.64-4.93-4.93-4.93-3.76,0-5.4,1.88-5.17,4.93h3.05c.23-1.41,0-2.82,1.88-2.82s1.99,1.57,2.11,2.86-.23,1.36-.23,1.36c0,0-2.58.23-4.23.7-1.64.47-3.05,1.65-3.05,4.7,0,2.35.47,4.93,3.76,5.17,1.88,0,3.05-1.17,3.52-1.64,0,0,.24,0,.47,1.17h3.05s-.23-3.05-.23-6.11" sodipodi:nodetypes="cscsscssccszcssccccc"/>
          <path id="path8037" class="st1" d="M171.52,49.96c0,1.17-.67,2.71-2.55,2.71s-1.88-2.11-1.64-3.76c.23-1.41,1.88-1.88,3.99-1.88.25,0,.24.23.24.7M174.6,47.74v-4.46c0-3.05-1.64-4.93-4.93-4.93-3.76,0-5.4,1.88-5.17,4.93h3.05c.23-1.41,0-2.82,1.88-2.82s1.99,1.57,2.11,2.86-.23,1.36-.23,1.36c0,0-2.58.23-4.23.7-1.64.47-3.05,1.65-3.05,4.7,0,2.35.47,4.93,3.76,5.17,1.88,0,3.05-1.17,3.52-1.64,0,0,.24,0,.47,1.17h3.05s-.23-3.05-.23-6.11" sodipodi:nodetypes="cscsscssccszcssccccc"/>
          <path id="path8039" class="st1" d="M160.24,77.68c0,1.17-.67,2.71-2.55,2.71s-1.88-2.11-1.64-3.76c.23-1.41,1.88-1.88,3.99-1.88.25,0,.24.23.24.7M163.33,75.46v-4.46c0-3.05-1.64-4.93-4.93-4.93-3.76,0-5.4,1.88-5.17,4.93h3.05c.23-1.41,0-2.82,1.88-2.82s1.99,1.57,2.11,2.86-.23,1.36-.23,1.36c0,0-2.58.23-4.23.7-1.64.47-3.05,1.65-3.05,4.7,0,2.35.47,4.93,3.76,5.17,1.88,0,3.05-1.17,3.52-1.64,0,0,.24,0,.47,1.17h3.05s-.23-3.05-.23-6.11" sodipodi:nodetypes="cscsscssccszcssccccc"/>
          <path id="path7931" class="st1" d="M115.84,77.68c0,1.17-.67,2.71-2.55,2.71s-1.88-2.11-1.64-3.76c.23-1.41,1.88-1.88,3.99-1.88.25,0,.24.23.24.7M118.93,75.46v-4.46c0-3.05-1.64-4.93-4.93-4.93-3.76,0-5.4,1.88-5.17,4.93h3.05c.23-1.41,0-2.82,1.88-2.82s1.99,1.57,2.11,2.86-.23,1.36-.23,1.36c0,0-2.58.23-4.23.7-1.64.47-3.05,1.65-3.05,4.7,0,2.35.47,4.93,3.76,5.17,1.88,0,3.05-1.17,3.52-1.64,0,0,.24,0,.47,1.17h3.05s-.23-3.05-.23-6.11" sodipodi:nodetypes="cscsscssccszcssccccc"/>
          <path id="path7929" class="st1" d="M151.58,27.07h3.29V10.86h-3.29v16.21Z"/>
          <path id="path7935" class="st1" d="M129.27,10.86h-3.29s.24,1.41.24,3.99v12.22h3.29v-11.98c0-1.18.47-2.35,2.11-2.35,1.41,0,1.88,1.17,1.88,2.35v11.98h3.52v-11.75c0-3.52-1.64-4.7-4.23-4.7-2.11,0-2.58.71-3.29,1.17l-.23-.94"/>
          <path id="path7937" class="st1" d="M149.47,18.61v2.35c0,3.29.23,6.11.23,6.11h-3.29c0-.94-.23-1.41-.23-1.41-.71.71-1.41,1.65-3.05,1.65-4.23,0-4.23-3.76-4.46-5.17v-7.75c.24-.94.94-3.76,4.23-3.76,2.35,0,2.82.94,3.29,1.17v-7.05h3.29v13.86M146.18,18.61v-3.52c0-2.35-2.12-2.35-2.12-2.35-1.88,0-2.35,1.41-2.35,5.87,0,3.52,0,6.34,2.35,6.34s2.12-2.35,2.12-3.99v-2.35" sodipodi:nodetypes="cscccsccscccccscsssc"/>
          <path id="path7939" class="st1" d="M112.59,10.86c0-2.11,0-6.81-6.11-6.81s-6.34,4.7-6.34,5.87c0,1.41-.24,3.99,3.76,6.11,1.41.94,2.82,1.64,3.29,1.88.23.23,2.35.94,2.35,3.76,0,3.05-2.58,3.29-3.05,3.29-1.41,0-2.82-.47-3.29-2.82v-2.11h-3.76s0,3.99,1.64,5.64c1.65,1.65,3.29,1.88,5.17,1.88s3.99-.47,5.17-1.64c1.17-1.41,1.64-2.58,1.64-4.46,0-2.11-.47-4.23-3.76-6.34-1.17-.71-2.35-1.18-3.52-1.88-1.41-.71-2.35-1.88-2.35-3.52s1.17-2.82,2.82-2.82c1.88,0,2.82.94,2.82,2.82v1.17h3.52"/>
          <path id="path7941" class="st1" d="M151.58,8.04h3.29v-3.29h-3.29v3.29Z"/>
          <path id="path7953" class="st1" d="M104.84,32.47h-5.4v22.55h3.29v-18.09l4.93,18.09h5.4v-22.55h-3.29v17.62l-4.93-17.62"/>
          <path id="path7955" class="st1" d="M131.15,40.93h2.35v-2.35h-2.35v-4.23l-3.29,1.41v2.82h-1.88v2.35h1.88v10.57c0,1.41,0,3.52,3.76,3.52h1.88v-2.35h-1.41c-.47,0-.94-.23-.94-1.88v-9.87"/>
          <path id="path7957" class="st1" d="M134.67,55.02h3.29v-16.44h-3.29v16.44Z"/>
          <path id="path7959" class="st1" d="M134.67,35.76h3.29v-3.29h-3.29v3.29Z"/>
          <path id="path7961" class="st1" d="M155.34,38.58h-3.29s.24,1.41.24,3.99v12.45h3.29v-12.21c0-1.17.47-2.35,1.88-2.35,1.64,0,2.11,1.17,2.11,2.35v12.21h3.29v-11.98c0-3.52-1.64-4.7-4.23-4.7-2.11,0-2.58.71-3.29,1.17v-.94"/>
          <path id="path7963" class="st1" d="M176.95,55.02h3.29v-22.55h-3.29v22.55Z"/>
          <path id="path7977" class="st1" d="M195.51,66.3h-3.05v16.44h3.29l-.23-16.44"/>
          <path id="path7979" class="st1" d="M99.44,82.74h7.99v-2.82h-4.46v-19.5h-3.52v22.32"/>
          <path id="path7981" class="st1" d="M131.62,70.06c.38,3.93.33,5.13,0,7.99-.23,1.41-.23,4.93-4.46,4.93-1.41,0-2.35-.94-3.05-1.65,0,0-.23.47-.23,1.41h-3.29s.23-1.41.23-3.99v-18.32h3.29v7.05c.71-.23,1.17-1.17,3.29-1.17,3.29,0,3.99,2.82,4.23,3.76ZM126.45,80.63c2.35,0,2.11-3.29,2.11-3.99v-2.35c0-4.46-.23-5.87-2.11-5.87-.23,0-2.35,0-2.35,2.35v6.34c0,.94,0,3.52,2.35,3.52Z" sodipodi:nodetypes="ccscccccccscccssccs"/>
          <path id="path7983" class="st1" d="M152.52,66.3c-2.82-.23-3.05,2.11-3.52,2.11,0,0,0-1.41-.23-2.11h-3.05s.23,1.41.23,3.76v12.69h3.29v-10.81c0-1.17.47-2.82,3.05-3.05l.23-2.58"/>
          <path id="path7985" class="st1" d="M169.2,68.65h2.35v-2.35h-2.35v-4.23l-3.05,1.41v2.82h-2.11v2.35h2.11v10.57c0,1.41,0,3.52,3.52,3.52h2.11v-2.35h-1.41c-.7,0-1.17,0-1.17-1.64v-10.1"/>
          <path id="path7987" class="st1" d="M191.28,66.3c-2.35,0-2.82,2.11-3.05,2.11,0,0-.23-1.41-.23-2.11h-3.29s.23,1.41.23,3.76v12.69h3.53v-10.81c0-1.17.47-2.82,2.82-3.05v-2.58"/>
          <path id="path7989" class="st1" d="M192.45,63.72h3.05v-3.29h-3.05v3.29Z"/>
          <path id="path7991" class="st1" d="M207.72,75.46c-.01-2.38,0-4.23,0-5.17-.47-3.05-2.58-3.99-5.4-3.99-2.58,0-4.7.94-5.17,3.99-.23,1.64,0,6.81.23,8.69.23,2.11,1.88,3.99,4.93,3.99,3.29,0,4.56-1.76,5.17-3.82.3-1.02.23-1.41.23-1.59h-3.29c0,1.17,0,.23,0,.7,0,1.41-.47,2.35-2.11,2.35s-1.88-1.17-1.88-2.82v-2.35M200.21,73.11v-1.88c.23-2.58,1.17-2.82,2.11-2.82,1.41,0,2.11.71,2.11,3.05v1.64" sodipodi:nodetypes="ccsccssccssscccssc"/>
          <path id="path7993" class="st1" d="M218.76,71.23c0-1.88.24-4.93-4.7-4.93-4.23,0-5.17,2.58-5.17,3.99,0,1.17,0,1.88,1.88,3.52.71.94,2.82,2.11,3.76,2.82.24.23,1.41.94,1.41,2.35,0,1.64-1.64,1.64-1.88,1.64-1.17,0-1.88-.47-2.11-1.64v-1.41h-3.29s-.23,2.11.71,3.52c.94,1.41,3.05,1.88,4.7,1.88,1.41,0,2.82-.23,3.76-1.17.94-.94,1.18-1.65,1.18-3.29,0-1.41-.24-2.35-2.11-3.99-.7-.47-2.11-1.64-3.05-2.11s-1.64-1.17-1.64-2.35.71-1.65,1.88-1.65,1.41.94,1.41,2.11c0,.24.23.71.23.71h3.05"/>
          <path id="path13406" class="st1" d="M144.08,79.22c.31-3.76.27-5.12,0-8.93-.15-2.15-2.59-3.99-5.29-3.99s-5.13,1.85-5.29,3.99c-.28,3.75-.24,5.21,0,8.93.14,2.16,2.59,3.76,5.29,3.76s5.11-1.68,5.29-3.76h0ZM141.06,71.25c.16,1.8.16,5.08,0,6.8-.16,1.72-.54,2.58-2.27,2.58s-2.09-.86-2.27-2.58c-.17-1.72-.17-5.04,0-6.8s.53-2.84,2.27-2.84,2.11,1.03,2.27,2.84Z" sodipodi:nodetypes="cszsszsczzzzzz"/>
          <path id="path13408" class="st1" d="M183.31,79.22c.31-3.76.27-5.12,0-8.93-.15-2.15-2.59-3.99-5.29-3.99s-5.13,1.85-5.29,3.99c-.28,3.75-.24,5.21,0,8.93.14,2.16,2.59,3.76,5.29,3.76s5.11-1.68,5.29-3.76h0ZM180.29,71.25c.16,1.8.16,5.08,0,6.8-.16,1.72-.54,2.58-2.27,2.58s-2.09-.86-2.27-2.58c-.17-1.72-.17-5.04,0-6.8s.53-2.84,2.27-2.84,2.11,1.03,2.27,2.84Z" sodipodi:nodetypes="cszsszsczzzzzz"/>
        </g>
        <g id="g4492">
          <g id="g7876">
            <g id="path7878">
              <path class="st0" d="M43.77,86.75c-7.54,0-21.83-.97-23.52-1.09-9.98-.09-18.08-8.18-18.17-18.16-.12-1.68-1.09-15.97-1.09-23.5s.97-21.82,1.09-23.5C2.17,10.52,10.27,2.42,20.25,2.34c1.68-.12,15.98-1.09,23.52-1.09s21.83.97,23.52,1.09c9.98.09,18.08,8.18,18.17,18.16.12,1.68,1.09,15.97,1.09,23.5s-.97,21.82-1.09,23.5c-.09,9.97-8.19,18.07-18.17,18.16-1.68.12-15.98,1.09-23.52,1.09ZM20.41,11.04c-5.31,0-9.63,4.32-9.63,9.62v.3c-.02.15-1.09,15.5-1.09,23.04s1.07,22.89,1.08,23.04v.3c.01,5.31,4.33,9.62,9.64,9.62h.3c.15.02,15.51,1.09,23.05,1.09s22.9-1.06,23.05-1.08h.3c5.31-.01,9.63-4.33,9.63-9.63v-.3c.02-.15,1.09-15.5,1.09-23.04s-1.07-22.89-1.08-23.04v-.3c-.01-5.31-4.33-9.62-9.64-9.62h-.3c-.15-.02-15.51-1.09-23.05-1.09s-22.9,1.07-23.05,1.08h-.3Z"/>
            </g>
          </g>
          <g id="g6515">
            <path id="path6517" class="st0" d="M29.9,22.28h6.04l-.19,6h-18.12v34.96l7.53.39v-12.08l3.65.19v-10.9h6.55l-.96,30.93h18.75l-.96-30.93h6.55v10.9l3.65-.19v12.08l7.53-.39V28.28h-18.12l-.39-12.45h-21.51s0,6.45,0,6.45Z"/>
          </g>
        </g>
      </g>
    </g>
  </g>
</svg>