<?xml version="1.0" encoding="UTF-8"?>
<svg id="layer" xmlns="http://www.w3.org/2000/svg" version="1.1" viewBox="0 0 652 652">
  <!-- Generator: Adobe Illustrator 29.6.0, SVG Export Plug-In . SVG Version: 2.1.1 Build 207)  -->
  <defs>
    <style>
      .st0 {
        fill: #fff;
      }
    </style>
  </defs>
  <path class="st0" d="M194.5,343.9h-50.7c.6,4.2,2.6,8,5.8,10.7,3.2,2.6,7.2,3.9,12.2,3.9,5.7.1,11.2-2.1,15.2-6.2l13.3,6.3c-3,4.4-7.1,8.1-11.9,10.4-4.6,2.3-10.1,3.4-16.5,3.4-9.8,0-17.9-3.1-24.1-9.3-6.2-6.2-9.3-14-9.3-23.4s3.1-17.5,9.3-23.9c6.2-6.3,13.9-9.5,23.2-9.5,9.9,0,18,3.1,24.2,9.5,6.2,6.3,9.3,14.7,9.3,25.1v3ZM178.7,331.5c-1-3.5-3.2-6.5-6.1-8.6-3.1-2.2-6.8-3.4-10.7-3.3-4.1-.1-8.2,1.2-11.6,3.6-2.1,1.6-4,4.3-5.8,8.1l34.2.2ZM200.8,308.4h13.5v7.9c1.3-2.9,3.3-5.3,5.8-7.1,2.4-1.6,5.1-2.4,8-2.4,2.2.1,4.4.6,6.4,1.6l-4.9,13.5c-1.4-.8-2.9-1.3-4.6-1.4-2.4,0-4.5,1.5-6.1,4.5s-2.5,8.9-2.5,17.7l.1,3.1v25.5h-15.6l-.1-62.9ZM265.9,306.3c5.8,0,11.6,1.5,16.8,4.4,10.3,5.8,16.6,16.7,16.6,28.5,0,5.8-1.5,11.6-4.4,16.6-2.9,5.1-7,9.3-12.1,12.1-5.1,2.9-10.9,4.4-16.8,4.4-8.7.1-17-3.4-23.1-9.6-6.3-6.1-9.7-14.6-9.6-23.4,0-9.8,3.6-18,10.8-24.6,6.3-5.6,13.6-8.4,21.8-8.4ZM266.1,321.1c-4.6-.1-9.1,1.7-12.3,5.1-3.3,3.4-4.9,7.8-4.9,13.1s1.6,9.9,4.8,13.3c3.1,3.4,7.6,5.2,12.3,5.1,4.6.1,9.1-1.8,12.3-5.1,3.3-3.4,4.9-7.8,4.9-13.3s-1.6-9.8-4.8-13.1c-3.1-3.3-7.3-5.1-12.3-5.1h0ZM322.3,283.6v31.2c2.6-2.7,5.8-4.9,9.3-6.4,3.4-1.4,7-2.1,10.6-2.1,8.2,0,15.2,3.1,20.9,9.3,5.8,6.2,8.6,14.1,8.6,23.9s-3,17.2-8.9,23.5-13,9.5-21.1,9.5c-3.5,0-6.9-.6-10.1-1.9-3.4-1.5-6.6-3.6-9.3-6.3v6.6h-15.7v-87.2h15.7v-.1ZM339,320.9c-4.6-.1-9.1,1.7-12.4,5.1-3.3,3.4-4.9,7.8-4.9,13.3s1.6,10.1,4.9,13.5c3.2,3.4,7.7,5.3,12.4,5.2,4.6.1,9.1-1.9,12.2-5.3,3.3-3.5,4.9-8,4.9-13.4s-1.6-9.8-4.8-13.3c-3.3-3.4-7.7-5.3-12.3-5.1ZM409.2,306.3c5.8,0,11.6,1.5,16.8,4.4,10.3,5.8,16.6,16.7,16.6,28.5,0,5.8-1.5,11.6-4.4,16.6-2.9,5.1-7,9.3-12.1,12.1-5.1,2.9-10.9,4.4-16.8,4.4-8.7.1-17-3.4-23.1-9.6-6.3-6.1-9.7-14.6-9.6-23.4,0-9.8,3.6-18,10.8-24.6,6.3-5.6,13.6-8.4,21.8-8.4ZM409.5,321.1c-4.6-.1-9.1,1.7-12.3,5.1-3.3,3.4-4.9,7.8-4.9,13.1s1.6,9.9,4.8,13.3c3.1,3.4,7.6,5.2,12.3,5.1,4.6.1,9.1-1.8,12.3-5.1,3.3-3.4,4.9-7.8,4.9-13.3s-1.6-9.8-4.8-13.1-7.3-5.1-12.3-5.1h0ZM451.6,284.7h15.8v23.2h9.4v13.5h-9.3v49.3h-15.8v-49.2h-8.1v-13.5h8.1l-.1-23.3h0ZM491.2,282c2.7-.1,5.3,1.1,7.1,3,1.9,1.9,3,4.6,3,7.3.1,2.7-1,5.3-2.9,7.2s-4.3,3-7.1,3c-2.7.1-5.3-1.1-7.2-3.1-1.9-1.9-3-4.6-3-7.3,0-5.6,4.5-10.1,10.1-10.1h0ZM483.3,307.9h15.7v62.9h-15.8v-62.9h.1ZM570.7,321.1l-13.2,7.2c-2.1-2.3-4.6-4.1-7.3-5.3-2.7-1.1-5.6-1.6-8.5-1.5-5.9,0-10.7,1.8-14.3,5.3-3.6,3.5-5.5,8.1-5.5,13.5s1.8,9.7,5.3,13.1,8.1,5.1,13.8,5.1c7.1,0,12.6-2.4,16.5-7.2l12.5,8.6c-6.8,8.8-16.3,13.2-28.5,13.2-11.1,0-19.7-3.3-26-9.8-6.3-6.6-9.4-14.2-9.4-23-.1-12.1,6.6-23.2,17.3-28.9,5.6-3,11.9-4.5,18.3-4.4,5.8-.1,11.6,1.1,16.8,3.7,4.9,2.2,9.1,5.9,12.2,10.4ZM618.6,316.7l-9.8,9.8c-4-3.9-7.6-5.9-10.8-5.9-1.5-.1-2.9.3-4.1,1.1-.9.6-1.5,1.7-1.5,2.8,0,.9.4,1.7.9,2.4.6.7,2.2,1.7,4.7,2.9l5.8,2.9c6.1,3,10.3,6.1,12.6,9.2,5.4,7.8,4.3,18.5-2.7,25-4.1,3.7-9.6,5.6-16.5,5.6-9.2,0-16.5-3.6-22-10.8l9.7-10.6c1.9,2.1,4,3.9,6.5,5.2,2,1.2,4.3,1.9,6.6,2,1.8.1,3.6-.4,5-1.5,1.1-.8,1.9-2.1,1.9-3.5,0-2.4-2.3-4.8-6.9-7.1l-5.3-2.6c-10.2-5.1-15.3-11.6-15.3-19.3-.1-4.9,2.1-9.6,5.8-12.8,3.9-3.5,8.8-5.3,14.7-5.3,8.2,0,15.8,3.9,20.7,10.5h0ZM98.8,268.5l-38.3,49.9H24.1l23.5,17.6-28,35.4h19l21.2-28.4,39,28.4h20.7v-103h-20.7v.1ZM98.3,369.3l-28.7-36.4,28.7-37.3v73.7Z"/>
</svg>