<?xml version="1.0" encoding="UTF-8"?>
<svg xmlns="http://www.w3.org/2000/svg" version="1.1" xmlns:cc="http://creativecommons.org/ns#" xmlns:dc="http://purl.org/dc/elements/1.1/" xmlns:inkscape="http://www.inkscape.org/namespaces/inkscape" xmlns:rdf="http://www.w3.org/1999/02/22-rdf-syntax-ns#" xmlns:sodipodi="http://sodipodi.sourceforge.net/DTD/sodipodi-0.dtd" xmlns:svg="http://www.w3.org/2000/svg" viewBox="0 0 380 109">
  <!-- Generator: Adobe Illustrator 29.6.0, SVG Export Plug-In . SVG Version: 2.1.1 Build 207)  -->
  <defs>
    <style>
      .st0 {
        fill: #fff;
      }
    </style>
  </defs>
  <g id="Layer_1" inkscape:version="0.48.0 r9654" sodipodi:docname="ADI_Logo.svg">
    <sodipodi:namedview id="namedview7" bordercolor="#666666" borderlayer="false" borderopacity="1" gridtolerance="10" guidetolerance="10" inkscape:current-layer="Layer_1" inkscape:cx="306" inkscape:cy="396" inkscape:pageopacity="0" inkscape:pageshadow="2" inkscape:showpageshadow="true" inkscape:window-height="744" inkscape:window-maximized="1" inkscape:window-width="1280" inkscape:window-x="-4" inkscape:window-y="-4" inkscape:zoom="0.33207071" objecttolerance="10" pagecolor="#ffffff" showborder="true" showgrid="false"/>
    <g id="g3">
      <path id="path5" class="st0" d="M3.86,108.03V3.53h103.95v104.51H3.86ZM25.25,19.79v74.98l65.18-38.33L25.25,19.79ZM142.8,106.92h-17.94v-46.57h18.05c13.37,0,21.39,10.58,21.39,24.07s-7.13,22.51-21.5,22.51ZM158.73,49.76l-3.57-10.36h-17.16l-3.12,10.36h-9.36l15.71-46.68h9.47l17.6,46.68h-9.58ZM142.02,68.26h-7.35v31.42h7.91c10.47,0,12.03-8.91,11.92-15.71,0-5.35-2.56-15.71-12.48-15.71ZM151.93,30.04l-5.9-17.16-5.24,17.04-.33,2.9h11.59c0-1.56.11-1.89-.11-2.79h0ZM167.64,106.92v-46.57h34.32v7.8h-24.96v9.92h22.06v8.47h-21.95v12.48h25.63v7.91h-35.1ZM199.95,49.76l-20.5-31.53v31.53h-9.36V3.08h9.58l19.72,31.08V3.08h9.36v46.68h-8.8ZM229.25,106.81h-8.91l-15.38-44.01v-2.45h9.36l10.47,34.09,10.25-33.98h9.14v2.45l-14.93,43.9ZM244.07,49.76l-3.57-10.36h-17.16l-3.12,10.36h-9.36l15.71-46.68h9.47l17.6,46.68h-9.58ZM237.39,30.27l-5.9-17.6-5.9,17.6v2.56h12.03c0-1.56,0-1.78-.22-2.56ZM247.08,106.81v-46.35h9.92v46.35h-9.92ZM255.66,49.76V3.08h9.25v38.77h20.83v7.91h-30.08ZM281.62,108.03c-25.51.56-29.97-48.69.11-48.35,16.71,0,19.61,13.93,20.28,16.04h-9.25c-1.45-2.9-5.24-8.47-9.92-8.8-16.49-1.11-16.49,33.76,0,33.76,7.91,0,9.8-7.91,10.25-8.8h9.02c0,.11-1.11,15.93-20.5,16.15h0ZM307.24,50.54c-29.97,0-28.86-48.35.33-48.13,28.19.22,28.97,48.13-.33,48.13ZM306.91,42.74c17.27.11,17.27-32.2.33-32.42-16.82-.11-17.38,32.31-.33,32.42ZM303.79,106.92v-46.57h33.09v8.47h-24.18v9.58h21.39v8.36h-21.28v12.26h25.18v7.91h-34.21ZM366.63,48.65v-4.46c-1,.89-5.46,6.57-13.82,6.35-28.52-.67-28.63-47.46,1.34-48.02,7.24,0,13.26,4.57,15.6,7.8,2.79,3.68,3.01,6.8,3.12,7.58h-7.91c-1.78-2.9-4.57-7.8-11.14-7.8-17.38-.22-18.49,32.64-.11,32.98,8.14.22,12.26-8.24,12.26-8.36v-2.45h-11.14v-7.24h19.16v23.62h-7.35ZM357.94,108.14c-19.72,0-19.5-15.15-19.5-15.15h8.91s-.67,7.35,9.24,8.02c2.45.11,10.48-.89,10.48-6.46,0-6.46-8.13-6.13-13.26-7.58-5.13-1.34-14.82-3.57-14.82-12.59,0-7.91,6.46-14.71,18.94-14.71,16.71.11,16.6,13.04,16.71,13.82h-8.58c-.56-1.89-1.11-6.46-8.58-6.68-3.68,0-9.25,1.23-9.25,5.57,0,5.46,6.24,6.24,12.81,7.24,9.92,1.89,15.6,4.9,15.26,14.04-.22,8.02-7.35,14.49-18.38,14.49Z" inkscape:connector-curvature="0"/>
    </g>
  </g>
</svg>