<?xml version="1.0" encoding="UTF-8"?>
<svg id="Layer_1" xmlns="http://www.w3.org/2000/svg" version="1.1" viewBox="0 0 365 178">
  <!-- Generator: Adobe Illustrator 29.6.0, SVG Export Plug-In . SVG Version: 2.1.1 Build 207)  -->
  <defs>
    <style>
      .st0 {
        fill: #fff;
      }
    </style>
  </defs>
  <path class="st0" d="M362.5,78.02v-21.68h-82.49v79.9c-.44-9.36-3.86-16.62-10.33-21.73-4.48-3.53-11.2-6.35-20.16-8.46l-20.46-4.82c-7.9-1.85-13.06-3.45-15.49-4.82-2.23-1.21-3.8-2.8-4.72-4.75h0s-.01-.02-.02-.04h0c-.61-1.33-.96-2.89-.96-4.56,0-3.57,1.23-6.61,3.76-9,0,0,0,0,0,0,.05-.05.11-.1.17-.15h0s0-.01,0,0c.55-.5,1.16-.98,1.83-1.42,3.84-2.53,8.97-3.8,15.41-3.8,5.78,0,10.62.98,14.51,2.93,5.84,2.95,8.97,7.94,9.41,14.95h23.41c-.43-12.39-5.03-21.84-13.81-28.35-8.78-6.51-19.39-9.77-31.83-9.77-14.89,0-26.18,3.45-33.87,10.36-4.73,4.25-7.99,9.17-9.81,14.75h0c-.39,1.2-.72,2.45-.98,3.71h0c-2.85,13.44-11.51,22.58-25.98,22.58-23.18,0-31.88-19.72-31.88-39.27,0-20.54,8.71-40.25,31.88-40.25,12.81,0,23.99,8.87,25.63,20.53h24.98c-3.12-27.11-24.81-42.23-50.61-42.23-34.63,0-55.65,24.66-57.52,57.16V5.39h-25.8v72.96c0,17.42-5.91,25.47-24.32,25.47-20.87,0-24.16-12.65-24.16-25.47V5.39H2.5v72.96c0,31.88,18.4,47.16,49.95,47.16s50.12-15.44,50.12-47.16v-9.15c1.88,31.64,22.89,56.31,57.52,56.31,14.23,0,26.37-4.59,35.31-12.77.55.45,1.12.88,1.72,1.29,4.64,3.22,13.16,6.2,25.57,8.94l12.62,2.77c7.39,1.58,12.78,3.4,16.19,5.46,3.4,2.11,5.1,5.09,5.1,8.94,0,6.59-3.47,11.1-10.42,13.52-3.66,1.27-8.43,1.9-14.29,1.9-9.8,0-16.72-2.4-20.76-7.2-2.21-2.64-3.69-6.62-4.44-11.94h-23.25c0,12.13,4.4,21.66,13.19,28.59,8.79,6.93,20.87,10.4,36.22,10.4s26.66-3.52,34.9-10.56c7.57-6.47,11.65-14.48,12.26-24.01v32.82h25.8v-48.48h49.13v-20.05h-49.13v-27.11h56.69Z"/>
</svg>