<?xml version="1.0" encoding="UTF-8"?>
<svg id="Layer_1" xmlns="http://www.w3.org/2000/svg" version="1.1" viewBox="0 0 178.79 45.09">
  <!-- Generator: Adobe Illustrator 29.6.0, SVG Export Plug-In . SVG Version: 2.1.1 Build 207)  -->
  <defs>
    <style>
      .st0 {
        fill: #fff;
      }
    </style>
  </defs>
  <path class="st0" d="M29.24,6.27l-19.97-.02-3.09,3.12h23.06c3.53.01,6.37,2.81,6.37,6.25v29.24h3.2V15.62c0-5.17-4.28-9.36-9.57-9.36ZM45.22,44.86V15.62C45.21,7.01,38.06,0,29.24,0h-13.79s-3.09,3.12-3.09,3.12h16.88c7.05,0,12.77,5.61,12.77,12.5v29.24h3.2ZM29.24,12.5H3.1s-3.1,3.11-3.1,3.11h.04-.04s0,13.63,0,13.63C0,37.19,6.05,43.77,13.93,44.75l2.95-3h-.9c-7.06,0-12.78-5.62-12.78-12.5v-13.63h3.2v13.63c0,5.16,4.28,9.35,9.58,9.35h4.01l3.08-3.12h-7.1c-3.53,0-6.37-2.79-6.37-6.24v-13.63h3.17v13.63c.01,1.72,1.44,3.11,3.2,3.11h10.18l3.08-3.11h-13.26v-13.63h13.27v29.24h3.2V15.62c-.01-1.72-1.44-3.12-3.2-3.12Z"/>
  <path class="st0" d="M136.11,23.42v-6.1h10.37v-2.5h-10.37v-5.94h11.59v-2.5h-14.28v19.54h14.41v-2.5h-11.72ZM67.86,30.17h-.15l-.08.12-4.94,7.39-4.94-7.39-.08-.12h-2.04v14.72h2.11v-10.84l4.66,6.84.08.12h.37l.08-.12,4.66-6.85v10.86h2.15v-14.72h-1.89ZM150.29,42.86v-12.69h-2.14v14.72h7.74v-2.02h-5.59ZM57.35,25.92l.07-.16,2.18-4.86h9.98l2.15,4.86.07.16h2.91l-.18-.39-8.65-19.13-.07-.16h-2.36l-.07.16-8.66,19.13-.18.39h2.8ZM64.61,9.68l3.89,8.74h-7.81l3.92-8.74ZM79.64,25.92h.27v-6.7h4.34c3.85,0,7.74-2.01,7.74-6.49v-.06c0-3.82-2.9-6.3-7.39-6.3h-7.38v19.54h2.42ZM79.91,8.9h4.53c3.07,0,4.83,1.4,4.83,3.85v.06c0,2.37-1.94,3.9-4.94,3.9h-4.42v-7.81h0ZM129.21,25.92V6.38h-2.69v19.54h2.69ZM163.66,36.49c-3.07-.66-3.63-1.35-3.63-2.48v-.04c0-1.19,1.13-2.01,2.74-2.01,1.44,0,2.68.47,3.92,1.48l.22.18.17-.23.93-1.23.16-.21-.21-.17c-1.57-1.26-3.11-1.8-5.15-1.8-2.85,0-4.93,1.74-4.93,4.14v.04c0,2.72,1.99,3.71,4.97,4.36,2.93.62,3.47,1.3,3.47,2.42v.04c0,1.28-1.16,2.14-2.88,2.14s-3.15-.56-4.68-1.93l-.21-.19-.18.22-.99,1.18-.17.2.2.18c1.79,1.59,3.68,2.34,5.97,2.34,3.01,0,5.11-1.76,5.11-4.28v-.04c0-2.26-1.44-3.54-4.83-4.28ZM158.01,25.92c6.01,0,10.37-4.11,10.37-9.77v-.05c0-5.63-4.36-9.72-10.37-9.72h-6.87v19.54h6.87ZM153.84,8.9h4.18c4.47,0,7.6,2.98,7.6,7.24v.06c0,4.23-3.12,7.19-7.6,7.19h-4.18v-14.49ZM80.32,30.23l-.07-.16h-1.85l-.07.16-6.46,14.27-.17.39h2.24l.07-.16,1.61-3.58h7.36l1.59,3.58.07.16h2.32l-.18-.39-6.46-14.27ZM76.48,39.16l2.81-6.28,2.8,6.28s-5.61,0-5.61,0ZM123.46,25.92v-2.53h-8.59V6.38h-2.69v19.54h11.28ZM120.22,38.99c2.29-.56,3.65-2.14,3.65-4.29v-.04c0-1.17-.42-2.23-1.17-2.99-.96-.97-2.46-1.5-4.22-1.5h-6.37v14.72h2.15v-5.51h3.64l4.03,5.4.08.11h2.65l-.33-.44-4.1-5.46ZM114.25,37.4v-5.2h4.1c2.13,0,3.35.92,3.35,2.52v.04c0,1.6-1.32,2.64-3.37,2.64h-4.08ZM100.67,42.88v-4.41h7.73v-2.01h-7.73v-4.29h8.64v-2.01h-10.79v14.72h10.89v-2h-8.75ZM127.08,30.17h-.28v14.72h2.15v-14.72h-.27s-1.6,0-1.6,0ZM109.51,12.73v-.06c0-3.82-2.9-6.3-7.38-6.3h-7.38v19.54h2.69v-6.7h4.34c3.85,0,7.74-2,7.74-6.49ZM97.43,8.9h4.53c3.07,0,4.83,1.4,4.83,3.85v.06c0,2.37-1.94,3.9-4.94,3.9h-4.42v-7.81h0ZM84.93,30.17h-.27v2.03h4.76v12.69h2.17v-12.69h4.76v-2.03h-.27s-11.14,0-11.14,0ZM139.58,30.23l-.07-.16h-1.85l-.07.16-6.46,14.27-.18.39h2.24l.07-.16,1.6-3.58h7.36l1.59,3.58.07.16h2.32l-.18-.39-6.46-14.27ZM135.74,39.16l2.81-6.28,2.8,6.28s-5.61,0-5.61,0Z"/>
  <path class="st0" d="M171.92,41.66v-.02c0-1.87,1.52-3.43,3.44-3.43s3.42,1.54,3.42,3.41v.02c0,1.87-1.52,3.44-3.44,3.44-1.92,0-3.42-1.55-3.42-3.42ZM178.48,41.64v-.02c0-1.72-1.34-3.12-3.11-3.12s-3.13,1.42-3.13,3.14v.02c0,1.72,1.34,3.12,3.11,3.12,1.78,0,3.13-1.42,3.13-3.14ZM174.01,39.78h1.57c.45,0,.81.14,1.04.37.17.16.28.4.28.68v.02c0,.57-.38.91-.91,1.03l1.09,1.42h-.65l-1.01-1.33h-.9v1.33h-.52v-3.52h0ZM175.54,41.51c.49,0,.84-.22.84-.62v-.02c0-.37-.3-.61-.81-.61h-1.04v1.25s1,0,1,0Z"/>
</svg>