<?xml version="1.0" encoding="UTF-8"?>
<svg id="Layer_1" xmlns="http://www.w3.org/2000/svg" version="1.1" viewBox="0 0 2500 700">
  <!-- Generator: Adobe Illustrator 29.6.0, SVG Export Plug-In . SVG Version: 2.1.1 Build 207)  -->
  <defs>
    <style>
      .st0 {
        fill: #fff;
      }
    </style>
  </defs>
  <path class="st0" d="M213.52,184.35h.49v-.24h-.49v.24ZM269.1,137.83c-11.75-1.71-22.53-3.43-32.57-3.43-5.39,0-10.04.49-14.2,1.47l-2.2-64.89v-10.77c4.65-1.96,10.04-2.69,17.14-2.69,9.06,0,19.34,1.47,30.36,3.18,9.55,1.47,19.59,2.69,29.87,3.43l2.69,77.62c-10.28-.73-20.81-2.2-31.1-3.92h0ZM158.42,137.83c-10.28,1.71-20.81,3.18-31.1,3.67l2.69-77.62c10.28-.73,20.08-1.96,29.87-3.43,11.02-1.71,21.3-3.18,30.36-3.18,7.1,0,12.73.98,17.14,2.69v10.77l-2.2,64.89c-4.16-.98-8.81-1.47-14.2-1.47-10.04.24-21.06,1.96-32.57,3.67h0ZM323.21,92.29v-14.69h-9.06v-25.47h-6.12c-12.98,0-25.95-1.96-38.44-3.67-11.51-1.71-22.28-3.18-32.08-3.18s-17.14,1.47-23.51,4.41c-6.37-2.94-14.2-4.41-23.51-4.41-10.04,0-20.81,1.71-32.08,3.18-12.49,1.96-25.47,3.67-38.44,3.67h-6.12v25.22h-9.06v14.69h9.06v20.08h-9.06v14.69h9.06v27.42h6.12c13.96,0,27.67-2.2,40.65-4.16,11.26-1.71,21.79-3.43,30.61-3.43,7.35,0,12.73.98,16.9,3.18h11.75c4.16-2.2,9.55-3.18,16.9-3.18,9.06,0,19.59,1.71,30.61,3.43,13.22,1.96,26.93,4.16,40.65,4.16h6.12v-27.42h9.06v-14.69h-9.06v-20.08h9.06v.24Z"/>
  <path class="st0" d="M160.14,71.72c-.73,0-1.22.24-1.71.24-5.88.73-11.75,1.71-17.63,2.45l-.24,10.04c6.61-.73,12.98-1.71,19.34-2.69h.49s-.24-10.04-.24-10.04ZM167.48,70.74v10.04c10.53-1.47,20.08-2.45,28.4-1.71l.24-9.79c-8.81-.98-18.61,0-28.65,1.47ZM160.14,116.77c-.73,0-1.22.24-1.71.24-6.37.98-12.73,1.96-19.1,2.69l-.24,10.04c7.1-.73,14.2-1.71,21.06-2.69h.49l-.49-10.28h0ZM167.48,115.79v10.04c9.79-1.47,18.85-2.45,26.69-1.96l.24-9.79c-8.33-.49-17.38.49-26.93,1.71ZM158.67,94.49v10.04c.49,0,.73,0,1.22-.24,13.22-1.96,25.22-3.67,35.26-2.94l.24-9.79c-11.26-.73-23.75.98-36.73,2.94ZM151.08,95.47c-3.67.49-7.59.98-11.26,1.47l-.24,10.04,11.75-1.47s-.24-10.04-.24-10.04ZM255.63,70.25c-8.57-.98-16.65-1.71-24.24-.98l.24,9.79c7.1-.49,15.18,0,24,1.22v-10.04ZM286.97,74.41c-5.88-.73-11.75-1.47-17.63-2.45-2.2-.24-4.16-.49-6.37-.98v10.04c1.71.24,3.18.49,4.9.73,6.37.98,12.73,1.96,19.34,2.69l-.24-10.04h0ZM253.67,92.53c-7.59-.73-14.69-1.22-21.55-.98l.24,9.79c6.37-.49,13.47,0,21.06.98l.24-9.79h0ZM287.71,96.94c-6.12-.73-12.24-1.71-18.36-2.45-2.69-.49-5.63-.73-8.33-1.22v10.04c2.2.24,4.65.73,6.86.98,6.61.98,13.22,1.96,20.08,2.69l-.24-10.04ZM268.36,126.81c6.61.98,13.47,1.96,20.57,2.69l-.24-10.04c-6.61-.73-12.98-1.71-19.1-2.69-.24,0-.49,0-.98-.24v10.28s-.24,0-.24,0ZM261.02,115.79c-9.79-1.47-19.34-2.45-27.91-1.96l.24,9.79c8.08-.49,17.63.49,27.67,1.96v-9.79ZM201.03,274.46l12.73-31.83,12.73,32.08,34.28,2.2-26.44,22.04,8.57,33.3-29.14-18.36-29.14,18.36,8.57-33.3-26.69-22.04,34.52-2.45h0ZM123.16,263.2l55.58,40.4-21.55,65.87s0,.24.24.24h.24l56.07-40.65,56.07,40.65h.24c.24-.24.24-.49,0-.49l-21.3-65.62,55.58-40.4c.24,0,.49-.24.24-.73,0-.24-.24-.24-.49-.24h-68.56l-21.3-65.38c0-.24-.24-.49-.49-.49s-.49.24-.49.49l-21.3,65.38h-68.56c-.24,0-.49,0-.73.24,0,.49,0,.73.49.73Z"/>
  <path class="st0" d="M351.62,345.71c-4.9,5.63-11.51,9.3-18.61,11.02.98-7.35,4.16-14.2,9.3-19.83s11.51-9.55,18.61-11.02c-.98,7.59-4.16,14.45-9.3,19.83ZM324.93,302.62c-.98-7.35.24-14.94,3.67-21.55,4.9,5.63,8.08,12.49,9.06,19.83s-.24,14.94-3.67,21.55c-4.9-5.63-8.08-12.49-9.06-19.83ZM339.86,246.3c-1.47-7.35-.49-14.94,2.45-21.79,5.14,5.14,8.81,12,10.28,19.34,1.47,7.35.49,14.94-2.45,21.79-5.39-5.39-9.06-12-10.28-19.34ZM375.37,262.71c.49,7.35-1.22,14.69-4.9,21.3-3.67,6.37-9.3,11.51-15.92,14.69-.49-7.35,1.22-14.69,4.9-21.3,3.67-6.37,9.06-11.51,15.92-14.69ZM320.76,402.52c-6.12,4.41-13.22,6.86-20.57,7.1,2.45-7.1,7.1-12.98,12.98-17.38,6.12-4.41,13.22-6.86,20.57-7.1-2.45,6.86-6.86,12.98-12.98,17.38ZM303.38,354.53c.49-7.59,3.43-14.45,8.08-20.32,3.67,6.37,5.39,13.71,4.65,21.3-.49,7.35-3.43,14.45-8.08,20.32-3.43-6.37-5.14-13.71-4.65-21.3ZM284.04,404.73c-2.2,7.1-6.37,13.47-12,18.12-2.2-7.1-2.45-14.69-.24-21.79s6.37-13.47,12-18.12c2.2,7.1,2.45,14.69.24,21.79ZM295.3,437.05c-3.92,6.37-9.55,11.26-16.41,14.45-4.65,2.2-9.79,3.18-14.94,3.18-2.2,0-4.41-.24-6.61-.49,3.92-6.37,9.55-11.26,16.41-14.45,6.61-2.94,14.2-3.92,21.55-2.69h0ZM231.15,439.99c3.67-6.61,9.06-12,15.43-15.43.73,7.35-.73,14.69-4.16,21.3-3.43,6.61-8.81,12-15.43,15.43-.98-7.35.49-14.69,4.16-21.3ZM148.14,451.49c-6.86-2.94-12.49-8.08-16.41-14.45,7.35-1.22,14.69-.49,21.55,2.69,6.86,2.94,12.49,8.08,16.41,14.45-7.35,1.22-14.94.24-21.55-2.69ZM142.75,404.73c-2.2-7.1-1.96-14.69.24-21.79,5.63,4.65,9.79,11.02,12,18.12,2.2,7.1,1.96,14.69-.24,21.79-5.63-4.65-9.79-11.02-12-18.12ZM180.22,424.8c6.61,3.43,12,8.81,15.43,15.18,3.43,6.61,4.9,13.96,4.16,21.3-6.61-3.43-12-8.81-15.43-15.43-3.43-6.37-4.9-13.71-4.16-21.06h0ZM106.02,402.52c-6.12-4.41-10.53-10.53-13.22-17.38,7.35.24,14.45,2.69,20.57,7.1,6.12,4.41,10.53,10.28,12.98,17.38-7.1-.49-14.2-2.69-20.32-7.1ZM115.33,334.45c4.65,5.88,7.35,12.73,8.08,20.32.49,7.59-1.22,14.94-4.9,21.3-4.65-5.88-7.35-12.73-8.08-20.32-.24-7.59,1.22-14.94,4.9-21.3ZM75.17,345.71c-4.9-5.63-8.08-12.49-9.3-19.83,7.1,1.71,13.71,5.63,18.61,11.02s8.08,12.49,9.3,19.83c-7.1-1.47-13.71-5.39-18.61-11.02ZM72.48,298.7c-6.61-3.18-12.24-8.33-15.92-14.69s-5.39-13.96-4.9-21.3c6.61,3.18,12.24,8.33,15.92,14.69,3.92,6.61,5.63,13.96,4.9,21.3ZM74.44,243.85c1.47-7.35,4.9-13.96,10.28-19.34,2.94,6.86,3.67,14.2,2.45,21.55-1.47,7.35-4.9,13.96-10.28,19.34-2.94-6.61-3.67-14.2-2.45-21.55ZM89.37,300.91c.98-7.35,4.16-14.2,9.06-19.83,3.43,6.61,4.65,13.96,3.67,21.55-.98,7.35-4.16,14.2-9.06,19.83-3.43-6.61-4.65-14.2-3.67-21.55ZM351.86,310.21c11.51-3.43,21.06-11.02,26.93-21.3s7.84-22.28,5.14-34.04l-1.22-5.14-5.14,1.47c-5.88,1.71-11.02,4.65-15.67,8.33.98-5.63.98-11.51,0-17.38-2.2-11.75-8.81-22.04-18.36-29.14l-4.16-3.18-2.69,4.41c-6.37,10.04-8.57,22.04-6.37,33.79s8.81,21.79,18.36,28.89c-1.71,3.92-2.94,8.33-3.67,12.49-2.94-7.84-7.59-14.69-14.2-20.08l-4.16-3.43-3.18,4.41c-6.86,9.79-10.04,21.55-8.33,33.3,1.47,11.75,7.59,22.53,16.65,30.12l.24.24c-2.69,3.67-4.9,7.59-6.37,12-1.22-8.33-4.41-15.92-9.79-22.77l-3.18-4.16-3.92,3.67c-8.81,8.08-14.2,19.1-15.18,30.85-.98,11.75,2.69,23.51,10.04,32.81l.24.24c-3.43,2.94-6.37,6.61-8.81,10.28.49-8.33-.98-16.65-4.9-24.24l-2.45-4.65-4.65,2.69c-10.28,6.12-17.87,15.67-21.3,27.18-3.43,11.51-2.2,23.51,3.18,34.28v.24c-3.92,2.2-7.59,5.14-10.53,8.33,2.2-8.08,2.45-16.41.24-24.73l-1.22-5.14-4.9,1.71c-11.26,3.92-20.57,11.75-26.44,22.28-5.39,10.04-6.86,21.79-4.16,33.06-1.47.98-3.18,2.2-4.65,3.18-1.71-1.22-3.18-2.2-4.65-3.18,2.69-11.26,1.22-23.02-4.16-33.06-5.63-10.53-14.94-18.36-26.44-22.28l-4.9-1.71-1.22,5.14c-2.2,8.08-1.96,16.65.24,24.73-3.18-3.18-6.61-6.12-10.53-8.33l.24-.24c5.39-10.77,6.37-22.77,3.18-34.28-3.43-11.51-11.02-21.06-21.3-27.18l-4.65-2.69-2.45,4.65c-3.92,7.59-5.39,15.92-4.9,24.24-2.45-3.92-5.39-7.35-8.81-10.28l.24-.24c7.35-9.3,11.02-21.06,10.04-33.06s-6.37-22.77-15.18-30.85l-3.92-3.67-3.18,4.16c-5.39,6.61-8.57,14.45-9.79,22.77-1.47-4.16-3.67-8.33-6.37-12l.24-.24c9.3-7.59,15.18-18.36,16.65-30.12s-1.47-23.75-8.33-33.3l-3.18-4.41-4.16,3.43c-6.61,5.39-11.51,12.24-14.2,20.08-.49-4.41-1.71-8.57-3.67-12.49,9.55-7.1,16.16-17.38,18.36-28.89,2.2-11.75,0-23.75-6.37-33.79l-2.69-4.41-4.16,3.43c-9.55,7.1-16.16,17.38-18.36,29.14-1.22,5.88-1.22,11.75,0,17.38-4.65-3.67-10.04-6.37-15.67-8.33l-5.14-1.47-1.22,5.14c-2.69,11.75-.73,23.75,5.14,34.04,5.88,10.28,15.67,17.87,26.93,21.3l4.41,1.22c.49,3.67,1.47,7.35,2.69,11.02-6.37-4.16-13.71-6.61-21.3-7.1l-5.14-.49v5.39c-.24,12,4.16,23.26,12,32.08,8.08,8.81,18.85,14.2,30.85,15.18l4.65.49c1.22,3.67,2.94,7.1,4.9,10.04-5.14-1.96-10.77-2.94-16.41-2.94-1.96,0-3.92,0-5.88.24l-5.14.73.98,5.14c2.2,11.75,8.81,22.04,18.61,29.14,8.08,5.88,17.38,8.81,27.42,8.81,1.96,0,3.92-.24,5.88-.24l4.65-.49c1.96,3.18,4.16,6.12,6.86,8.81-7.35-1.22-15.18-.49-22.28,1.96l-4.9,1.71,1.96,4.9c4.65,11.02,13.22,19.83,24,24.49,6.12,2.69,12.49,4.16,18.85,4.16,5.14,0,10.53-.98,15.43-2.69l3.67-1.22c6.12,5.14,12.98,10.28,22.53,16.9-4.41,2.94-9.06,5.88-14.45,9.55l9.3,5.63c5.14-3.43,9.79-6.37,13.96-9.3,4.16,2.69,8.81,5.88,13.96,9.3l9.3-5.63c-5.39-3.43-10.04-6.61-14.45-9.55,9.55-6.61,16.41-11.75,22.53-16.9l3.67,1.22c4.9,1.71,10.28,2.69,15.43,2.69,6.61,0,12.98-1.47,18.85-3.92,10.77-4.9,19.34-13.47,24-24.49l1.96-4.9-4.9-1.71c-7.1-2.45-14.94-3.18-22.28-1.96,2.69-2.69,4.9-5.63,6.86-8.81l4.65.49c1.96.24,3.92.24,5.88.24,10.04,0,19.34-2.94,27.42-8.81,9.55-7.1,16.16-17.38,18.61-29.14l.98-5.14-5.14-.73c-1.96-.24-3.92-.24-5.88-.24-5.63,0-11.02.98-16.41,2.94,1.96-3.18,3.67-6.61,4.9-10.04l4.65-.49c12-.98,22.77-6.37,30.85-15.18,8.08-8.81,12.24-20.32,12-32.08v-5.39l-5.14.49c-7.59.49-14.94,3.18-21.3,7.1,1.47-3.43,2.2-7.35,2.69-11.02l5.14-1.47h0Z"/>
  <path class="st0" d="M353.09,414.03c-10.04,14.69-21.55,28.16-35.26,41.38-42.61,39.18-90.6,60.72-104.06,66.36-13.47-5.63-61.46-27.18-104.06-66.36-13.71-13.22-25.22-26.93-35.26-41.38-48.48-70.76-54.85-153.04-54.85-216.94l194.17-10.77,193.93,10.77c0,63.91-6.37,146.18-54.6,216.94ZM30.12,32.05c35.99-3.92,117.04-12,183.64-12s147.65,8.08,183.89,12l10.04,142.26H19.83L30.12,32.05ZM427.52,15.65l-8.57-.98c-1.22-.24-115.82-14.45-205.19-14.45S9.79,14.42,8.57,14.67l-8.57.98v180.71c0,66.85,6.61,153.28,58.28,228.7,10.53,15.67,22.77,29.87,37.22,43.83l.24.24c27.91,26.93,65.13,52.4,118.02,81.78,52.89-29.63,89.86-54.85,118.02-81.78l.24-.24c14.45-13.96,26.44-28.4,37.22-43.83,51.67-75.66,58.28-161.85,58.28-228.7V15.65Z"/>
  <path class="st0" d="M543.58,33.03v111.9h24.73l29.14-80.31,94.76-1.22v383.45l-75.91,8.33,3.18,22.04,106.27-1.96,102.6,1.96,3.18-22.04-72.72-8.33V63.39l94.76,1.22,29.14,80.31h24.73V33.03l-182.17,1.96-181.68-1.96ZM1239.72,445.62l-174.09,1.96v-190.01l88.64,2.69,25.22,66.36h22.28l-6.37-85.46,6.37-79.09h-22.28l-25.22,66.36-88.64,2.69V62.66l167.73,1.96,35.5,82.27h21.55l-6.37-113.86-251.22,1.96-87.41-1.96-3.18,22.04,57.05,8.33v383.45l-57.05,8.33,3.18,22.04,87.41-1.96,251.22,1.96,22.04-117.04h-24l-42.36,85.46ZM1974.29,27.4l-37.95,10.77-156.95,410.14-30.36,4.16-30.36-4.65-140.55-206.9,129.77-178.5,49.46-6.86-3.18-22.04-73.95,1.96-73.95-1.96-3.18,22.04,55.09,8.33-100.39,147.65-89.37-148.14,53.87-8.33-3.18-22.04-89.86,2.45-90.6-2.45-3.18,22.04,49.46,6.86,131,198.09-136.63,188.05-49.46,6.86,3.18,22.77,70.76-1.96,73.95,1.96,3.18-22.77-51.91-7.59,107.98-157.69,98.43,157.2-53.87,8.33,3.18,22.77,90.6-1.96,73.95,1.47,51.91-1.47,75.91,1.96,3.18-22.04-55.09-8.33,41.14-118.27h156.22l43.09,118.27-53.87,8.33,3.18,22.04,83.5-1.96,87.41,1.96,3.18-22.04-49.46-6.86L1974.29,27.4h0ZM1876.1,298.7l65.62-189.76,69.05,189.76h-134.67ZM2403.28,228.43l-72.72-31.59c-34.77-15.18-59.5-36.73-59.5-71.5,0-42.36,29.63-69.54,79.82-69.54,37.95,0,58.28,13.96,74.68,31.1l18.36,57.54h31.59V58.99c-31.59-23.51-75.91-36.73-115.82-36.73-87.9,18.36-151.32,58.77-151.32,127.82,0,56.32,37.46,85.46,83.01,105.04l76.64,33.55c37.95,16.41,65.87,41.14,65.87,84.23,0,46.28-31.59,80.31-85.95,80.31-35.5,0-70.27-16.41-89.13-39.91l-22.04-53.87h-44.32l13.96,85.46c33.55,26.69,72.72,43.1,131,43.1,119-24.73,159.4-82.27,159.4-141.77,0-64.64-43.58-96.23-93.54-117.78h0Z"/>
  <path class="st0" d="M740.7,667.95l-12.73.49-.73-4.65,6.61-1.22v-38.44c0-7.1-3.18-10.04-8.57-10.04-4.16,0-9.3,2.94-14.2,6.12l-3.92,2.45v39.91l7.35,1.22-.73,4.65-12.73-.49-14.2.49-.73-4.65,8.08-1.22v-82.52l-4.9.73-27.42-.49v81.54l15.43,1.71-.73,4.65-21.79-.49-22.53.49-.73-4.65,16.16-1.71v-81.54l-20.08.49-6.12,16.9h-5.14v-23.75l38.69.24,33.06-.24,14.45-1.71h4.65v43.58l19.59-12.73c17.14,0,20.08,6.37,20.08,23.51v35.75l10.04,1.22-.73,4.65-15.43-.24h0ZM775.71,633.91c0,15.43,8.33,26.2,22.28,26.2,5.39,0,11.75-2.45,16.9-5.63l2.2,5.14c-6.37,4.41-14.94,8.33-23.51,10.53-16.41,0-31.1-11.51-31.1-32.81,0-19.83,12-30.61,30.36-34.52,17.87,0,23.75,11.26,23.75,25.22v5.63l-40.89.24h0ZM802.64,627.06c0-10.28-1.96-17.63-12.49-17.63-8.33,0-13.47,7.59-14.45,18.85l26.93-1.22h0ZM908.42,578.57l.73-4.65,17.14.49,15.67-.49.73,4.65-11.51,1.71v54.85c0,17.63-7.1,29.14-34.04,35.5-26.44,0-35.99-14.2-35.99-35.75v-54.6l-12.24-1.71.73-4.65,18.61.49,18.36-.49.73,4.65-11.51,1.71v56.56c0,16.65,7.1,26.2,22.53,26.2,13.96,0,21.79-9.3,21.79-26.69v-56.32l-11.75-1.47h0ZM961.07,667.95l-15.43.49-.73-4.65,9.3-1.22v-49.22l-9.3.73-.73-4.65,16.16-4.16,5.88-.49.73,11.26,19.83-12.98c17.14,0,20.08,5.88,20.08,22.04v37.46l10.28,1.22-.73,4.65-15.43-.49-12.98.49-.73-4.65,6.86-1.22v-38.44c0-7.1-3.18-10.04-8.81-10.04-4.65,0-9.3,2.94-13.96,6.12l-3.92,2.69v39.91l7.35,1.22-.73,4.65-12.98-.73h0ZM1038.2,667.95l-15.43.49-.73-4.65,9.3-1.22v-49.22l-9.3.73-.73-4.65,16.16-4.16,6.86-.49v57.79l10.04,1.22-.73,4.65-15.43-.49h0ZM1031.34,575.15l9.79-.73,3.67.73.73,7.59-1.47,6.37-9.55.73-3.67-.73-.73-7.59,1.22-6.37ZM1092.31,659.62l16.41-48.73-6.12-1.47.73-4.65,11.75.49,11.26-.49.73,4.65-8.57,1.47-22.04,55.34-9.79,4.16-23.51-59.5-8.33-1.47.73-4.65,15.43.49,14.2-.49.73,4.65-8.81,1.47,14.69,39.42.49,9.3h0ZM1139.81,633.91c0,15.43,8.33,26.2,22.28,26.2,5.39,0,11.75-2.45,16.9-5.63l2.2,5.14c-6.37,4.41-14.94,8.33-23.51,10.53-16.41,0-31.1-11.51-31.1-32.81,0-19.83,12-30.61,30.36-34.52,17.87,0,23.75,11.26,23.75,25.22v5.63l-40.89.24h0ZM1166.99,627.06c0-10.28-1.96-17.63-12.49-17.63-8.33,0-13.47,7.59-14.45,18.85l26.93-1.22h0ZM1211.07,622.4l15.43-18.85h10.77v13.47h-10.04c-3.18.73-9.06,5.14-12.73,9.55l-2.69,3.18v32.08l14.2,1.22-.73,5.14-19.59-.49-15.18.49-.73-4.65,9.3-1.22v-49.22l-9.3.73-.73-4.65,16.16-4.16,5.39-.49.49,17.87h0ZM1279.63,612.37c-1.47-.73-5.39-2.94-10.28-2.94-5.14,0-10.28,2.94-10.28,7.84,0,4.41,3.43,7.1,9.3,10.04l10.28,5.14c9.06,4.65,12.73,9.79,12.73,17.38,0,12.24-9.79,16.65-25.22,20.08-8.33,0-16.9-4.16-20.57-6.12l-2.45-15.18h8.57l4.65,11.26c2.94,1.96,6.86,3.43,11.02,3.43,7.1,0,10.77-4.65,10.77-10.28,0-5.14-2.69-7.59-9.79-11.26l-10.53-5.63c-5.88-2.94-11.26-8.08-11.26-15.67,0-9.55,8.81-14.69,24.49-18.12,7.35,0,15.18,3.18,19.1,6.12v13.47h-7.1l-3.43-9.55h0ZM1316.85,667.95l-15.43.49-.73-4.65,9.3-1.22v-49.22l-9.3.73-.73-4.65,16.16-4.16,6.61-.49v57.79l10.04,1.22-.73,4.65-15.18-.49ZM1310.23,575.15l9.79-.73,3.67.73.73,7.59-1.47,6.37-9.55.73-3.67-.73-.73-7.59,1.22-6.37ZM1383.69,699.78v-13.47h11.51l13.47-20.32-5.39,1.71-22.53-56.81h-20.32v41.14c0,3.92,1.47,8.08,7.1,8.08,3.92,0,8.08-1.96,11.75-3.67l2.2,4.65-16.9,9.3c-15.18,0-17.14-5.39-17.14-17.63v-40.16h-12.98v-2.2l4.65-4.65h8.81v-8.81l8.81-8.81h3.43v16.9h42.36l.73,4.65-8.81,1.47,14.94,39.42.98,9.3,16.65-48.73-6.12-1.47.73-4.65,11.75.49,11.26-.49.73,4.65-8.57,1.47-21.79,55.09-15.18,34.04-16.16-.49h0ZM1534.04,635.14c0,20.08-12.24,31.59-33.06,35.01-17.87,0-30.12-13.96-30.12-32.08,0-20.32,12.24-31.59,33.06-35.26,18.12,0,30.12,13.96,30.12,32.32ZM1504.41,663.54c10.77,0,16.41-11.02,16.41-25.47,0-17.14-8.33-28.65-19.83-28.65s-16.41,11.02-16.41,25.71c-.24,15.43,7.84,28.4,19.83,28.4ZM1564.4,606.24h16.9v6.37h-16.9v49.71l15.43.98-.73,5.14-20.81-.49-15.43.49-.73-4.65,9.55-1.22v-49.71h-11.75v-2.2l4.16-4.65h7.84v-1.22c0-8.08,2.45-13.47,7.35-18.85l11.26-12.73h16.9v10.77h-17.38l-2.69,3.67c-1.96,2.45-2.94,6.37-2.94,15.18v3.43h0ZM1684.38,668.44l-21.79-.49-22.53.49-.73-4.65,16.16-1.71v-81.54l-20.32.24-6.12,17.14h-5.39v-23.75l38.69.49,38.69-.49v23.75h-5.14l-6.12-17.14-20.32-.24v81.54l15.43,1.71-.49,4.65h0ZM1708.37,633.91c0,15.43,8.33,26.2,22.28,26.2,5.39,0,11.75-2.45,16.9-5.63l2.2,5.14c-6.37,4.41-14.94,8.33-23.51,10.53-16.41,0-30.85-11.51-30.85-32.81,0-19.83,12-30.61,30.36-34.52,17.87,0,23.75,11.26,23.75,25.22v5.63l-41.14.24h0ZM1735.31,627.06c0-10.28-1.96-17.63-12.49-17.63-8.08,0-13.47,7.59-14.45,18.85l26.93-1.22h0ZM1780.12,663.54l-.73,4.65-10.53-.49-13.96.49-.73-4.65,9.55-1.22,19.83-24.49-19.59-26.69-8.33-1.47.73-4.9,15.43.49,12.73-.49.73,4.9-5.39,1.47,10.04,14.94.98,3.43,12.73-18.36-6.61-1.47.73-4.9,10.53.49,13.96-.49.73,4.9-9.79,1.47-17.87,21.55,21.06,29.87,8.33,1.22-.73,4.65-15.43-.49-12.73.49-.73-4.65,5.63-1.22-12-17.38-.98-3.18-14.2,20.57,6.61.98h0ZM1856.51,602.82c16.9,0,21.3,4.41,21.3,21.3v26.44c0,5.88.98,7.84,2.2,10.04h6.61l.49,4.65-17.38,3.43-4.16-10.28-16.16,11.75c-11.51,0-19.83-6.37-19.83-17.14,0-4.9,1.71-8.33,4.65-12.49l30.36-10.04v-6.61c0-8.08-.73-12.98-7.84-12.98-3.67,0-8.08,1.22-11.02,2.45l-2.2,10.77h-11.51v-10.28l24.49-11.02h0ZM1864.84,635.87l-19.59,8.08c-1.96,1.96-2.69,4.65-2.69,7.59,0,6.86,3.92,9.3,7.84,9.3,3.67,0,7.1-2.2,8.81-3.43l5.63-3.92v-17.63h0ZM1928.99,612.37c-1.47-.73-5.39-2.94-10.28-2.94-5.14,0-10.28,2.94-10.28,7.84,0,4.41,3.43,7.1,9.3,10.04l10.28,5.14c9.06,4.65,12.73,9.79,12.73,17.38,0,12.24-9.79,16.65-25.22,20.08-8.08,0-16.9-4.16-20.57-6.12l-2.45-15.18h8.57l4.65,11.26c2.94,1.96,6.86,3.43,11.02,3.43,7.1,0,10.77-4.65,10.77-10.28,0-5.14-2.69-7.59-9.79-11.26l-10.53-5.63c-5.88-2.94-11.26-8.08-11.26-15.67,0-9.55,8.81-14.69,24.49-18.12,7.35,0,15.18,3.18,19.1,6.12v13.47h-7.1l-3.43-9.55h0ZM2009.06,602.82c16.9,0,21.3,4.41,21.3,21.3v26.44c0,5.88.98,7.84,2.2,10.04h6.86l.49,4.65-17.38,3.43-4.16-10.28-15.92,11.75c-11.51,0-19.83-6.37-19.83-17.14,0-4.9,1.71-8.33,4.65-12.49l30.36-10.04v-6.61c0-8.08-.73-12.98-7.84-12.98-3.67,0-8.08,1.22-11.02,2.45l-2.2,10.77h-11.51v-10.28l24-11.02h0ZM2017.38,635.87l-19.59,8.08c-1.96,1.96-2.69,4.65-2.69,7.59,0,6.86,3.92,9.3,7.84,9.3,3.67,0,7.1-2.2,8.81-3.43l5.63-3.92v-17.63h0ZM2039.18,612.61v-2.2l4.65-4.65h8.81v-8.81l8.81-8.81h3.43v18.36h20.32v6.12h-20.32v39.42c0,3.92,1.47,8.08,7.1,8.08,3.92,0,6.86-1.47,10.77-3.18l2.2,4.65-15.67,8.81c-15.18,0-17.14-5.39-17.14-17.63v-40.16h-12.98ZM2142.02,636.61l-8.81,25.22,11.75,1.71-.73,4.65-16.16-.49-14.45.49-.73-4.65,10.53-1.47,33.3-87.17,8.08-2.2,35.26,89.62,10.53,1.47-.73,4.65-18.61-.49-17.87.49-.73-4.65,11.51-1.71-9.06-25.22-33.06-.24h0ZM2159.89,594.74l-.98-7.35-14.94,42.85h28.65l-12.73-35.5ZM2268.12,650.81c0,5.88.73,7.84,1.71,10.04h6.86l.49,4.65-17.38,3.43-3.67-11.02-19.59,12.24c-17.87,0-20.81-6.37-20.81-22.04v-35.26l-9.55.73-.73-5.14,16.16-3.43,6.61-.49v44.81c0,7.1,2.94,10.04,9.55,10.04,4.16,0,9.55-3.43,14.69-6.86l2.69-1.71v-37.95l-8.08.73-.73-5.14,14.94-3.43,6.86-.49v46.28ZM2319.29,612.37c-1.22-.73-5.39-2.94-10.28-2.94-5.14,0-10.28,2.94-10.28,7.84,0,4.41,3.43,7.1,9.3,10.04l10.28,5.14c9.06,4.65,12.73,9.79,12.73,17.38,0,12.24-9.79,16.65-25.22,20.08-8.33,0-16.9-4.16-20.57-6.12l-2.45-15.18h8.57l4.65,11.26c2.94,1.96,6.86,3.43,11.02,3.43,7.1,0,10.77-4.65,10.77-10.28,0-5.14-2.94-7.59-9.79-11.26l-10.53-5.63c-5.88-2.94-11.26-8.08-11.26-15.67,0-9.55,8.81-14.69,24.49-18.12,7.35,0,15.18,3.18,19.1,6.12v13.47h-7.1l-3.43-9.55h0ZM2335.7,612.61v-2.2l4.65-4.65h8.81v-8.81l8.81-8.81h3.43v18.36h20.32v6.12h-20.08v39.42c0,3.92,1.47,8.08,7.1,8.08,3.92,0,6.86-1.47,10.53-3.18l2.2,4.65-15.67,8.81c-15.18,0-17.14-5.39-17.14-17.63v-40.16h-12.98ZM2405.48,667.95l-15.43.49-.73-4.65,9.3-1.22v-49.22l-9.3.73-.73-4.65,16.16-4.16,6.61-.49v57.79l10.04,1.22-.73,4.65-15.18-.49ZM2398.87,575.15l9.79-.73,3.67.73.73,7.59-1.47,6.37-9.55.73-3.67-.73-.73-7.59,1.22-6.37ZM2443.93,667.95l-15.43.49-.73-4.65,9.3-1.22v-49.22l-9.3.73-.73-4.65,16.16-4.16,5.88-.49.73,11.26,19.83-12.98c17.14,0,20.08,5.88,20.08,22.04v37.46l10.28,1.22-.73,4.65-15.43-.49-12.98.49-.73-4.65,6.86-1.22v-38.44c0-7.1-3.18-10.04-8.81-10.04-4.65,0-9.3,2.94-13.96,6.12l-4.16,2.69v39.91l7.35,1.22-.73,4.65-12.73-.73h0Z"/>
</svg>