<?xml version="1.0" encoding="UTF-8"?>
<svg id="_레이어_1" data-name="레이어_1" xmlns="http://www.w3.org/2000/svg" version="1.1" xmlns:cc="http://creativecommons.org/ns#" xmlns:dc="http://purl.org/dc/elements/1.1/" xmlns:rdf="http://www.w3.org/1999/02/22-rdf-syntax-ns#" viewBox="0 0 215.12 67.59">
  <!-- Generator: Adobe Illustrator 29.6.0, SVG Export Plug-In . SVG Version: 2.1.1 Build 207)  -->
  <defs>
    <style>
      .st0 {
        fill: #fff;
      }
    </style>
  </defs>
  <path class="st0" d="M22.52,1.19c-6.99,0-10.72.47-12.36.47-2.72,0-5.13-.08-7.54-.08-1.32,0-1.55.08-1.55.62,0,.93.31,1.01,3.81,1.01,2.17,0,3.42.7,3.42,6.84v35.75c0,1.17-.16,1.32-3.65,1.32-1.71,0-2.18.15-2.18.93s.54.85,1.32.85c2.49,0,4.2-.31,7.46-.31s6.68.78,9.95.78c10.8,0,18.03-4.12,18.03-12.82,0-6.76-4.59-9.4-8.24-11.27-1.55-.78-3.03-1.17-3.03-1.32,0-.23,1.71-1.09,3.19-2.1,2.49-1.71,5.83-4.43,5.83-9.95S32.63,1.19,22.52,1.19h0ZM155.68,1.28c-.41,0-2.97,1.15-8.25,1.49-1.15.07-1.69,0-1.69.81,0,.74.68.88,1.89.88,3.04,0,3.45,0,3.45,4.26v37.25c0,1.22-1.15,1.15-3.92,1.15-1.62,0-1.69.41-1.69.88,0,.54.13.68,1.69.68.95,0,4.53-.13,6.83-.13,1.22,0,2.7.13,3.72.13,2.43,0,2.91,0,2.91-.68,0-.54.13-.95-3.25-.95-1.22,0-1.69-.74-1.69-6.35,0-1.96.34-7.3.34-33.06,0-2.03.34-4.46.34-5.27,0-.74-.34-1.08-.68-1.08h0ZM99.56,1.34c-.61,0-4.6,1.49-9.46,1.49-.74,0-.88.27-.88.95,0,.47.27.68,3.04.68,1.82,0,2.37.61,2.37,5.41,0,14.26-.2,34.27-.2,36.23,0,1.01-.61,1.01-2.91,1.01-1.62,0-1.96.34-1.96.88,0,.61.41.68,1.96.68.95,0,3.45-.13,5.75-.13,2.16,0,5.27.13,6.28.13,1.49,0,1.83,0,1.83-.68,0-.54-.27-.88-1.83-.88-4.19,0-4.05,0-4.05-3.18v-4.26c0-.61.95-1.08,2.03-1.76,1.15-.74,2.09-1.42,2.37-1.42.41,0,3.25,4.26,6.08,7.5s3.45,4.93,4.66,4.93c.95,0,2.97-.07,3.79-.07.61,0,1.49.07,2.3.07,1.49,0,1.96-.14,1.96-.61,0-.54-.54-.88-2.16-.88-2.3,0-4.46-3.31-6.76-6.08-4.73-5.68-5.95-6.96-5.95-7.57,0-.47,4.19-3.45,7.57-6.76,2.09-2.03,4.39-4.93,4.39-5.54,0-.2-.27-.27-.81-.27-.81,0-4.73.2-5.61.2-.81,0-2.09-.2-2.77-.2-.88,0-1.22.13-1.22.68,0,.61.34.74,1.35.74,2.97,0,3.18.14,3.18,1.22,0,1.42-.61,2.57-3.24,5.07-2.16,2.03-9.19,8.25-10.88,8.25-.2,0-.27-.2-.27-.47,0-11.02.4-18.59.4-28.86,0-2.16.14-5,.14-5.88,0-.41-.14-.61-.47-.61h0ZM20.19,3.05c7.07,0,10.34,7.46,10.34,11.35,0,6.14-2.56,7.62-4.82,9.33,0,0-3.26-.47-8-.47-1.87,0-2.88.15-2.88-1.09V5.31c0-1.55.23-2.25,5.36-2.25h0ZM54.27,20.54c-6.15,0-12.57,5.68-12.57,15.21,0,11.29,8.25,13.99,13.79,13.99s11.22-4.26,11.22-4.6c0-.14-.2-.54-.54-.54-.4,0-2.84,1.62-7.3,1.62-5.14,0-12.37-2.5-12.37-11.83,0-1.55.2-1.89,1.29-1.96,7.7-.47,14.46-1.96,16.22-2.37,1.83-.41,2.77-.68,2.77-.95,0-.54-1.08-2.16-2.23-3.51-2.43-2.84-6.76-5.07-10.27-5.07h0ZM133.09,20.54c-6.15,0-12.57,5.68-12.57,15.21,0,11.29,8.25,13.99,13.79,13.99s11.22-4.26,11.22-4.6c0-.14-.2-.54-.54-.54-.41,0-2.84,1.62-7.3,1.62-5.14,0-12.37-2.5-12.37-11.83,0-1.55.2-1.89,1.28-1.96,7.71-.47,14.46-1.96,16.22-2.37,1.82-.41,2.77-.68,2.77-.95,0-.54-1.08-2.16-2.23-3.51-2.43-2.84-6.76-5.07-10.28-5.07h0ZM172.08,20.54c-6.15,0-12.57,5.68-12.57,15.21,0,11.29,8.25,13.99,13.79,13.99s11.22-4.26,11.22-4.6c0-.14-.2-.54-.54-.54-.41,0-2.84,1.62-7.3,1.62-5.14,0-12.37-2.5-12.37-11.83,0-1.55.2-1.89,1.28-1.96,7.71-.47,14.47-1.96,16.22-2.37,1.82-.41,2.77-.68,2.77-.95,0-.54-1.08-2.16-2.23-3.51-2.43-2.84-6.76-5.07-10.27-5.07h0ZM77.79,21.01c-1.08,0-2.37.34-3.45.34-1.35,0-2.64-.14-4.93-.14-1.15,0-1.08.2-1.08,1.02,0,.74,0,.68,1.22.68,3.78,0,3.65.14,3.65,4.73v18.52c0,.95-.2,1.01-2.97,1.01-1.62,0-1.69.13-1.69.81s.13.68,1.69.68c.95,0,3.24-.34,5.54-.34,2.16,0,6.69.34,7.64.34,1.76,0,1.83.07,1.83-.68,0-.61-.07-.81-1.83-.81-5,0-5.2,0-5.2-3.31v-13.93c0-2.84,1.49-4.46,5.41-4.46,3.38,0,4.19,2.77,5.14,2.77.41,0,1.49-2.97,1.49-3.65,0-1.76-3.11-3.25-4.33-3.25-3.18,0-6.35,3.52-7.37,3.52-.27,0-.34-.47-.34-1.08,0-.2.13-1.69.13-2.03,0-.54-.27-.74-.54-.74h0ZM212.77,21.08c-.95,0-2.77.27-3.79.27-1.83,0-3.04-.13-4.87-.13-1.22,0-1.42,0-1.42.88,0,.68.27.68,2.37.68,2.3,0,2.3.41,2.3,2.43,0,.95-2.43,7.98-4.05,12.84-1.08,3.18-1.49,4.12-1.96,4.12-.27,0-1.08-1.15-1.62-2.57-4.05-10.41-5.81-12.78-5.81-14.74,0-1.55.41-1.96,2.03-1.96,1.42,0,1.69-.07,1.69-.68,0-.74-.27-1.01-1.69-1.01-2.16,0-4.53.2-6.42.2-1.62,0-2.09-.13-3.99-.13-1.22,0-1.42.34-1.42.95s.07.68,1.42.68c1.22,0,1.69.34,3.38,4.39,3.72,8.79,9.12,21.29,9.12,22.04,0,2.03-5.81,10-8.25,13.04-2.3,2.91-5.48,3.31-5.48,3.72,0,.34.68.68,1.83.68,1.49,0,1.96-.54,3.99-.81,1.49-.2,2.3-.27,3.04-1.76,2.16-4.46,5.2-9.94,9.46-20.28,5.34-12.98,8.31-21.09,9.8-21.09.81,0,1.76-.34,1.76-.95,0-.74-.34-.81-1.42-.81h0ZM53.59,21.96c3.11,0,7.1,5,7.1,6.69,0,.41-.07.54-.81.68-5.07.81-8.72,1.69-12.24,1.69-.81,0-.81-.07-.81-.41,0-.95,1.62-8.65,6.76-8.65h0ZM132.41,21.96c3.11,0,7.1,5,7.1,6.69,0,.41-.07.54-.81.68-5.07.81-8.72,1.69-12.23,1.69-.81,0-.81-.07-.81-.41,0-.95,1.62-8.65,6.76-8.65h0ZM171.4,21.96c3.11,0,7.1,5,7.1,6.69,0,.41-.07.54-.81.68-5.07.81-8.72,1.69-12.24,1.69-.81,0-.81-.07-.81-.41,0-.95,1.62-8.65,6.76-8.65h0ZM17.63,24.74c8.47,0,14.22,5.44,14.22,12.44s-4.35,10.8-10.26,10.8c-2.49,0-4.97-.54-5.83-1.48-.7-.78-.93-5.13-.93-5.83v-13.91c0-1.71.62-2.02,2.8-2.02h0ZM56.17,56.46c-1.6,0-2.93.96-2.93,2.56,0,3.03,4,2.49,4,4.18,0,.67-.51,1.25-1.56,1.25-.7,0-1.58-.33-2.32-.83l-.66,1.16c.74.51,1.74,1,2.98,1,1.73,0,3.17-1.11,3.17-2.64,0-3.07-4-2.15-4-4.2,0-.67.45-1.16,1.32-1.16.78,0,1.38.26,2.06.61l.57-1.13c-.76-.47-1.68-.8-2.62-.8h0ZM88.03,56.46c-2.72,0-3.93,1.94-3.93,4.66s1.2,4.67,3.93,4.67,3.93-2.09,3.93-4.67c0-2.72-1.21-4.66-3.93-4.66ZM109.22,56.46c-2.72,0-4.05,1.95-4.05,4.67s1.21,4.66,4,4.66c1.21,0,2.35-.5,3.27-1.35l-.8-1.03c-.74.67-1.58,1.04-2.39,1.04-1.68,0-2.47-1.2-2.47-3.34s.85-3.32,2.44-3.32c.86,0,1.49.3,2.19.88l.82-1.06c-.95-.78-1.89-1.16-3.01-1.16h0ZM143.56,56.46c-2.72,0-3.93,1.94-3.93,4.66s1.2,4.67,3.93,4.67,3.93-2.09,3.93-4.67c0-2.72-1.21-4.66-3.93-4.66ZM17.33,56.59l-1.52.16v8.89h1.57v-6.07h.03l3.81,6.07h1.4v-9.04h-1.57v5.94h-.04l-3.68-5.95h0ZM37.47,56.59v9.05h5.49l.12-1.33h-4.04v-2.56h3.39v-1.33h-3.39v-2.49h3.81v-1.33h-5.38,0ZM93.99,56.59v9.05h1.57v-3.89h3.33v-1.33h-3.33v-2.49h3.71v-1.33h-5.28ZM118.25,56.59l-1.83.15-3.18,8.91h1.46l.75-2.18h3.64l.75,2.18h1.61l-3.21-9.05h0ZM133.34,56.59v9.05h1.57v-3.89h3.33v-1.33h-3.33v-2.49h3.71v-1.33h-5.28ZM158.06,56.59l-1.52.16v8.89h1.57v-6.07h.03l3.81,6.07h1.4v-9.04h-1.57v5.94h-.04l-3.68-5.95h0ZM173.19,56.59l-1.83.15-3.18,8.91h1.46l.75-2.18h3.64l.75,2.18h1.61l-3.21-9.05h0ZM6.94,56.61v5.9c0,2.03,1.12,3.29,3.34,3.29s3.32-1.25,3.32-3.3v-5.88h-1.57v5.99c0,1.12-.47,1.86-1.75,1.86s-1.77-.74-1.77-1.87v-5.98h-1.57ZM24.85,56.61v9.04h1.57v-9.04h-1.57ZM27.97,56.61l3.11,9.04h1.73l3.13-9.04h-1.54l-1.73,5.05s-.17.51-.62,2.06h-.08c-.44-1.54-.61-2.07-.61-2.07l-1.73-5.04h-1.66,0ZM45.15,56.61v9.04h1.57v-3.62h.75c.57,0,.9.53,1.16,1.07l1.25,2.55h1.73l-1.73-3.26c-.11-.21-.26-.45-.55-.62v-.03c1.19-.45,1.7-1.37,1.7-2.45,0-1.57-.99-2.68-2.98-2.68h-2.9ZM60.72,56.61v9.04h1.57v-9.04h-1.57ZM64.09,56.61v1.35h2.39v7.69h1.57v-7.7h2.28l.12-1.33h-6.36ZM71.48,56.61l2.85,5.17v3.87h1.57v-3.87l2.85-5.17h-1.73l-1.28,2.57s-.16.33-.61,1.33h-.04c-.48-1-.65-1.33-.65-1.33l-1.2-2.57h-1.77ZM122.73,56.61v9.04h5.34l.12-1.33h-3.89v-7.7h-1.57ZM129.72,56.61v9.04h1.57v-9.04h-1.57ZM148.85,56.61v9.04h1.57v-3.62h.75c.57,0,.9.53,1.16,1.07l1.25,2.55h1.73l-1.73-3.26c-.11-.21-.26-.45-.55-.62v-.03c1.19-.45,1.7-1.37,1.7-2.45,0-1.57-.99-2.68-2.98-2.68h-2.9ZM165.32,56.61v9.04h1.57v-9.04h-1.57ZM88.03,57.79c1.56,0,2.31,1.36,2.31,3.32s-.76,3.34-2.31,3.34-2.32-1.37-2.32-3.35.77-3.31,2.32-3.31h0ZM143.56,57.79c1.56,0,2.31,1.36,2.31,3.32s-.76,3.34-2.31,3.34-2.32-1.37-2.32-3.35.76-3.31,2.32-3.31h0ZM46.72,57.95h1.29c1.07,0,1.41.5,1.41,1.35s-.44,1.41-1.39,1.41h-1.32v-2.76h0ZM150.42,57.95h1.29c1.07,0,1.41.5,1.41,1.35s-.44,1.41-1.39,1.41h-1.32v-2.76h0ZM117.25,58.19h.03c.62,1.87.73,2.16.73,2.16l.7,1.99h-2.86l.7-1.99s.11-.29.71-2.16ZM172.18,58.19h.03c.62,1.87.73,2.16.73,2.16l.7,1.99h-2.86l.7-1.99s.11-.29.71-2.16Z"/>
</svg>